<svg xmlns="http://www.w3.org/2000/svg" xmlns:xlink="http://www.w3.org/1999/xlink" xmlns:inkscape="http://www.inkscape.org/namespaces/inkscape" version="1.1" width="200" height="170" viewBox="0 0 200 170">
<defs>
<path id="font_1_1" d="M.6589966 .23046875C.6759949 .23046875 .69400027 .23046875 .69400027 .25045777 .69400027 .27046205 .6759949 .27046205 .6589966 .27046205H.117996219C.100997928 .27046205 .08299255 .27046205 .08299255 .25045777 .08299255 .23046875 .100997928 .23046875 .117996219 .23046875H.6589966Z"/>
<path id="font_2_5" d="M.2899933 .35191346C.37199403 .37893678 .42999269 .4490509 .42999269 .52809146 .42999269 .6100464 .34199525 .6660156 .24598694 .6660156 .14498902 .6660156 .068984989 .60606387 .068984989 .53009036 .068984989 .49710084 .09098816 .47808839 .11999512 .47808839 .15098572 .47808839 .17098999 .50009158 .17098999 .5290985 .17098999 .57910159 .12399292 .57910159 .10899353 .57910159 .13999939 .62802127 .20599365 .64100649 .24198914 .64100649 .2829895 .64100649 .33799745 .6190338 .33799745 .5290985 .33799745 .51708987 .33599855 .45906068 .30999757 .4149933 .27999879 .36691285 .24598694 .36390687 .22099304 .36291505 .21299744 .36190797 .18899536 .35990907 .18199158 .35990907 .17399597 .35890199 .16699219 .35791017 .16699219 .3479004 .16699219 .33691407 .17399597 .33691407 .19099427 .33691407H.23498535C.31698609 .33691407 .35398866 .2686615 .35398866 .17037964 .35398866 .034469606 .2849884 .0055389406 .24099732 .0055389406 .19799805 .0055389406 .12298584 .022491456 .08799744 .08137512 .12298584 .07637024 .1539917 .09837341 .1539917 .1363678 .1539917 .17237854 .1269989 .19238281 .09799194 .19238281 .07398987 .19238281 .041992189 .17837525 .041992189 .1343689 .041992189 .043441774 .1349945-.022460938 .24398804-.022460938 .3659973-.022460938 .45700074 .06838989 .45700074 .17037964 .45700074 .252594 .3939972 .33088685 .2899933 .35191346Z"/>
<path id="font_3_1" d="M.2649994 .37265016H.37799073C.34498597 .22489929 .33599855 .18196106 .33599855 .11508179 .33599855 .100097659 .33599855 .073150638 .34399415 .03919983 .35398866-.0047454836 .36499024-.0107421879 .37998963-.0107421879 .3999939-.0107421879 .42099 .007247925 .42099 .02722168 .42099 .033218385 .42099 .035202028 .4149933 .049179079 .38598634 .12106323 .38598634 .18595886 .38598634 .21391297 .38598634 .26683045 .3929901 .32073976 .4039917 .37265016H.5179901C.5309906 .37265016 .5669861 .37265016 .5669861 .406662 .5669861 .43066407 .54599 .43066407 .5269928 .43066407H.19198609C.16999817 .43066407 .13198853 .43066407 .08799744 .38365174 .052993776 .34469605 .026992798 .29878236 .026992798 .29379273 .026992798 .29278565 .026992798 .28379823 .038986207 .28379823 .04699707 .28379823 .04899597 .28779603 .054992677 .29577638 .10398865 .37265016 .1619873 .37265016 .18199158 .37265016H.23899842C.20698548 .25186158 .15299988 .13105774 .11099243 .04020691 .102996829 .025222779 .102996829 .023223877 .102996829 .016235352 .102996829-.002746582 .11898804-.0107421879 .13198853-.0107421879 .1619873-.0107421879 .16999817 .017242432 .18199158 .05418396 .19599915 .100097659 .19599915 .10209656 .20899964 .15202332L.2649994 .37265016Z"/>
<path id="font_2_4" d="M.1269989 .07699585 .23298645 .18003845C.3889923 .31811524 .44898988 .3721466 .44898988 .47216798 .44898988 .5860901 .35899354 .6660156 .23699951 .6660156 .12399292 .6660156 .049987794 .57411196 .049987794 .48516847 .049987794 .4291687 .099990848 .4291687 .102996829 .4291687 .11999512 .4291687 .15499878 .44117738 .15499878 .48217774 .15499878 .5081787 .13699341 .5341797 .101989749 .5341797 .09399414 .5341797 .09199524 .5341797 .08898926 .5331726 .11199951 .59806826 .1659851 .63500979 .22399903 .63500979 .31498719 .63500979 .35798646 .5541382 .35798646 .47216798 .35798646 .39215089 .30799867 .31311036 .25299073 .25108338L.06098938 .036987306C.049987794 .025985718 .049987794 .023986817 .049987794 0H.42099L.44898988 .17404175H.42399598C.4189911 .14402771 .4119873 .1000061 .4019928 .084991458 .394989 .07699585 .32899476 .07699585 .30699159 .07699585H.1269989Z"/>
<path id="font_4_1" d="M.74398806 .2263794C.7599945 .2263794 .7839966 .2263794 .7839966 .25038148 .7839966 .27539063 .7609863 .27539063 .74398806 .27539063H.147995C.13198853 .27539063 .10798645 .27539063 .10798645 .25138856 .10798645 .2263794 .1309967 .2263794 .147995 .2263794H.74398806Z"/>
<path id="font_5_1" d="M.31098939 .36265565H.42999269C.4149933 .30274964 .3929901 .2118988 .3929901 .13302613 .3929901 .09309387 .397995 .06613159 .4039917 .044174196 .41999818-.0057678224 .43299867-.009765625 .44898988-.009765625 .47200013-.009765625 .49598695 .011230469 .49598695 .035186769 .49598695 .043182374 .49398805 .047164918 .48799134 .057159425 .46899415 .09408569 .45098878 .15100098 .45098878 .23286438 .45098878 .25183106 .45098878 .29177857 .46499635 .36265565H.58999636C.60798647 .36265565 .6159973 .36265565 .6269989 .37065126 .6409912 .380661 .6439972 .39665223 .6439972 .4016571 .6439972 .43066407 .6179962 .43066407 .6009979 .43066407H.22399903C.18299866 .43066407 .15499878 .42166139 .10998535 .37965394 .083999637 .35665895 .04499817 .30274964 .04499817 .2937622 .04499817 .28178407 .057998659 .28178407 .06199646 .28178407 .07299805 .28178407 .07398987 .28378297 .07998657 .2927704 .1309967 .36265565 .19299317 .36265565 .21499634 .36265565H.27598573C.24499512 .25283814 .19099427 .13502503 .16099549 .07511902 .15499878 .062149049 .14498902 .04118347 .14199829 .03718567 .14099121 .033187868 .13899231 .029190064 .13899231 .022201539 .13899231 .006225586 .15098572-.009765625 .17399597-.009765625 .21398926-.009765625 .22499085 .035186769 .24899292 .12504578L.31098939 .36265565Z"/>
<path id="font_6_1" d="M.5049896 .18203736H.47099305C.46798707 .16001892 .45799256 .100997928 .44499208 .09098816 .43699647 .084991458 .3600006 .084991458 .34599305 .084991458H.1619873C.2669983 .17803955 .3019867 .20603943 .3619995 .25306703 .43598939 .312088 .5049896 .374115 .5049896 .46914674 .5049896 .5900879 .39898683 .6640625 .2709961 .6640625 .14698792 .6640625 .06298828 .57710269 .06298828 .4851532 .06298828 .43414308 .10598755 .42915345 .115997318 .42915345 .13999939 .42915345 .16899109 .44615174 .16899109 .48214723 .16899109 .5001526 .1619873 .53515627 .10998535 .53515627 .14099121 .6060791 .20899964 .62805178 .2559967 .62805178 .35598756 .62805178 .4079895 .5501404 .4079895 .46914674 .4079895 .38212586 .34599305 .3130951 .31399537 .27708436L.07299805 .038986207C.06298828 .02999878 .06298828 .027999878 .06298828 0H.47499085L.5049896 .18203736Z"/>
<path id="font_6_2" d="M.272995 .33428956C.35099793 .33428956 .40699769 .2803192 .40699769 .1733551 .40699769 .04940796 .33499146 .012466431 .2769928 .012466431 .23699951 .012466431 .14898682 .0234375 .10699463 .082351688 .1539917 .084350589 .16499329 .11735535 .16499329 .13835144 .16499329 .17034912 .14099121 .19335938 .10998535 .19335938 .08198547 .19335938 .053985597 .17634583 .053985597 .13534546 .053985597 .041412355 .1579895-.01953125 .2789917-.01953125 .41799928-.01953125 .5139923 .07336426 .5139923 .1733551 .5139923 .2513275 .44999696 .32929994 .33999635 .35229493 .44499208 .39024354 .48298646 .4650879 .48298646 .5260773 .48298646 .60505679 .3919983 .6640625 .2809906 .6640625 .16999817 .6640625 .084991458 .61006167 .084991458 .5300751 .084991458 .49606324 .10699463 .47706605 .13699341 .47706605 .16799927 .47706605 .18798828 .5000763 .18798828 .5280762 .18798828 .5570679 .16799927 .57806399 .13699341 .5800781 .17199707 .62405398 .24099732 .63505557 .27799989 .63505557 .32299806 .63505557 .38598634 .6130676 .38598634 .5260773 .38598634 .48406983 .37199403 .43814088 .34599305 .4072113 .31298829 .36927796 .2849884 .3672943 .23498535 .36428834 .20999146 .3623047 .20799256 .3623047 .20298767 .3612976 .20098877 .3612976 .19299317 .3592987 .19299317 .34829713 .19299317 .33428956 .20199585 .33428956 .21899414 .33428956H.272995Z"/>
<path id="font_2_3" d="M.2939911 .64004519C.2939911 .66400149 .2939911 .6660156 .2709961 .6660156 .20899964 .60227969 .12098694 .60227969 .08898926 .60227969V.57128909C.10899353 .57128909 .16799927 .57128909 .21998596 .5972748V.07902527C.21998596 .042999269 .21699524 .0309906 .1269989 .0309906H.09498596V0C.12998963 .0029907227 .21699524 .0029907227 .25698854 .0029907227 .29699708 .0029907227 .38398744 .0029907227 .4189911 0V.0309906H.3869934C.29699708 .0309906 .2939911 .041992189 .2939911 .07902527V.64004519Z"/>
<clipPath id="clip_7">
<path transform="matrix(1.00003,0,0,-1.00006,4.0137026,166.5352)" d="M0 0H194.27216V161.39636H0Z"/>
</clipPath>
<path id="font_3_2" d="M.33399964 .30233766C.33999635 .32835389 .36299134 .42037965 .43299867 .42037965 .43798829 .42037965 .46199037 .42037965 .48298646 .40734864 .45498658 .402359 .43499757 .37734986 .43499757 .35334779 .43499757 .33735658 .44599916 .31835938 .47299195 .31835938 .49499513 .31835938 .5269928 .3363495 .5269928 .37635804 .5269928 .42837525 .46798707 .4423828 .43399049 .4423828 .37599183 .4423828 .34098817 .38935853 .32899476 .36634828 .3039856 .43237306 .25 .4423828 .22099304 .4423828 .116989139 .4423828 .05999756 .3133545 .05999756 .28834535 .05999756 .27833558 .069992069 .27833558 .07199097 .27833558 .07998657 .27833558 .08299255 .28033448 .084991458 .28933717 .11898804 .39535523 .18499756 .42037965 .21899414 .42037965 .23799134 .42037965 .272995 .4113617 .272995 .35334779 .272995 .32235719 .2559967 .25532533 .21899414 .11528015 .20298767 .053268434 .16799927 .011245728 .12399292 .011245728 .117996219 .011245728 .09498596 .011245728 .07398987 .024276734 .09899902 .029266358 .12098694 .05027771 .12098694 .07827759 .12098694 .105270389 .09899902 .11328125 .083999637 .11328125 .053985597 .11328125 .0289917 .08728027 .0289917 .055267335 .0289917 .009246826 .07899475-.0107421879 .12298584-.0107421879 .18899536-.0107421879 .22499085 .059280397 .22799683 .0652771 .23999024 .028274537 .27598573-.0107421879 .33599855-.0107421879 .43899537-.0107421879 .49598695 .118270877 .49598695 .14328003 .49598695 .1532898 .4869995 .1532898 .48399354 .1532898 .47499085 .1532898 .47299195 .14929199 .47099305 .14228821 .43798829 .03527832 .36999513 .011245728 .33799745 .011245728 .29899598 .011245728 .2829895 .043273927 .2829895 .07727051 .2829895 .09927368 .2889862 .121276859 .2999878 .16529846L.33399964 .30233766Z"/>
<path id="font_3_3" d="M.48599244 .38136292C.48999024 .39537049 .48999024 .39736939 .48999024 .40437318 .48999024 .42237855 .47599793 .43138124 .46099855 .43138124 .45098878 .43138124 .43499757 .42536927 .42599488 .41036988 .42399598 .405365 .41600038 .37435914 .4119873 .35635377 .40499879 .33035279 .397995 .30334474 .3919983 .27633668L.34700013 .09628296C.34298707 .08126831 .2999878 .011245728 .23399353 .011245728 .18299866 .011245728 .17199707 .055267335 .17199707 .0922699 .17199707 .1382904 .18899536 .20030213 .22299195 .28833009 .23899842 .3293457 .24299622 .3403473 .24299622 .36035157 .24299622 .405365 .21099854 .4423828 .16099549 .4423828 .06599426 .4423828 .0289917 .29733277 .0289917 .28833009 .0289917 .27833558 .038986207 .27833558 .040985109 .27833558 .050994874 .27833558 .051986696 .28033448 .056991579 .29634095 .083999637 .3903656 .12399292 .42037965 .1579895 .42037965 .1659851 .42037965 .18299866 .42037965 .18299866 .3883667 .18299866 .36335755 .17298889 .3373413 .1659851 .31834413 .12599182 .21231079 .10798645 .1552887 .10798645 .10827637 .10798645 .019256592 .17098999-.0107421879 .22999573-.0107421879 .2689972-.0107421879 .30299378 .0062561037 .33099366 .03425598 .31799317-.017745972 .30599977-.06674194 .2659912-.11973572 .23999024-.15385437 .20199585-.18309021 .1559906-.18309021 .14199829-.18309021 .09700012-.18005371 .07998657-.14074707 .09599304-.14074707 .10899353-.14074707 .12298584-.1287384 .1329956-.11973572 .14299011-.10673523 .14299011-.08773804 .14299011-.056747438 .115997318-.052734376 .10598755-.052734376 .08299255-.052734376 .049987794-.068740848 .049987794-.11773682 .049987794-.16796875 .09399414-.20507813 .1559906-.20507813 .25898744-.20507813 .3619995-.11373901 .3899994-.00074768069L.48599244 .38136292Z"/>
<path id="font_2_10" d="M.20799256 .19424439C.22999573 .19024658 .31199647 .17424011 .31199647 .102249149 .31199647 .051254274 .2769928 .011245728 .19898987 .011245728 .114990238 .011245728 .07899475 .06825256 .05999756 .15324402 .056991579 .1662445 .055999757 .17024231 .04598999 .17024231 .032989503 .17024231 .032989503 .16323853 .032989503 .14524842V.013244629C.032989503-.003753662 .032989503-.0107421879 .04399109-.0107421879 .04899597-.0107421879 .049987794-.009750366 .068984989 .009246826 .070999149 .011245728 .070999149 .013244629 .08898926 .03224182 .1329956-.009750366 .17799378-.0107421879 .19898987-.0107421879 .31399537-.0107421879 .3600006 .056243898 .3600006 .12825012 .3600006 .1812439 .32998658 .21124268 .31799317 .22323609 .2849884 .25523377 .24598694 .26324464 .20399475 .27124024 .147995 .28224183 .08099365 .2952423 .08099365 .35324098 .08099365 .38822938 .10699463 .42922975 .19299317 .42922975 .30299378 .42922975 .30799867 .3392334 .30999757 .3082428 .31098939 .2992401 .31999208 .2992401 .32199098 .2992401 .33499146 .2992401 .33499146 .304245 .33499146 .3232422V.4242401C.33499146 .4412384 .33499146 .4482422 .32398988 .4482422 .31900025 .4482422 .31698609 .4482422 .3039856 .43623353 .30099488 .43223573 .29100038 .42323304 .2869873 .42022706 .24899292 .4482422 .20799256 .4482422 .19299317 .4482422 .070999149 .4482422 .032989503 .38124085 .032989503 .3252411 .032989503 .29023744 .04899597 .26223756 .07598877 .24023438 .10798645 .21424866 .13598633 .2082367 .20799256 .19424439Z"/>
<path id="font_2_7" d="M.1769867 .4423828 .036987306 .43138124V.40037538C.101989749 .40037538 .11099243 .3943634 .11099243 .34532167V.076034549C.11099243 .0309906 .099990848 .0309906 .032989503 .0309906V0C.06498718 .0009918213 .11898804 .0029907227 .14299011 .0029907227 .17799378 .0029907227 .21299744 .0009918213 .24699402 0V.0309906C.18099976 .0309906 .1769867 .035995485 .1769867 .075042728V.4423828M.18099976 .6159363C.18099976 .64793398 .1559906 .6689453 .12799073 .6689453 .09700012 .6689453 .07499695 .64193728 .07499695 .6159363 .07499695 .5889435 .09700012 .5629425 .12799073 .5629425 .1559906 .5629425 .18099976 .5839386 .18099976 .6159363Z"/>
<path id="font_2_8" d="M.10998535 .34429933V.076034549C.10998535 .0309906 .09899902 .0309906 .03199768 .0309906V0C.066986087 .0009918213 .117996219 .0029907227 .14498902 .0029907227 .17098999 .0029907227 .22299195 .0009918213 .25698854 0V.0309906C.18998719 .0309906 .1789856 .0309906 .1789856 .076034549V.2602234C.1789856 .36431886 .25 .42037965 .31399537 .42037965 .3769989 .42037965 .3880005 .36631776 .3880005 .30926515V.076034549C.3880005 .0309906 .3769989 .0309906 .30999757 .0309906V0C.34498597 .0009918213 .3959961 .0029907227 .4229889 .0029907227 .44898988 .0029907227 .5009918 .0009918213 .5349884 0V.0309906C.48298646 .0309906 .45799256 .0309906 .45700074 .061019899V.25221253C.45700074 .3383026 .45700074 .36932374 .42599488 .405365 .4119873 .42237855 .3789978 .4423828 .32099916 .4423828 .24798584 .4423828 .20098877 .39935304 .17298889 .33729554V.4423828L.03199768 .43138124V.40037538C.101989749 .4003601 .10998535 .39335633 .10998535 .34429933Z"/>
<path id="font_2_1" d="M.33099366-.2400055C.33099366-.23701477 .33099366-.23500061 .31399537-.21800232 .18899536-.0920105 .15699768 .09700012 .15699768 .25 .15699768 .42399598 .19499207 .59799197 .31799317 .72299197 .33099366 .73498538 .33099366 .7369995 .33099366 .73999026 .33099366 .746994 .32699586 .75 .32099916 .75 .31098939 .75 .22099304 .6819916 .1619873 .5549927 .11099243 .44499208 .09899902 .33399964 .09899902 .25 .09899902 .17199707 .10998535 .050994874 .16499329-.06201172 .22499085-.18501282 .31098939-.25 .32099916-.25 .32699586-.25 .33099366-.24700928 .33099366-.2400055Z"/>
<path id="font_2_2" d="M.2889862 .25C.2889862 .32798768 .27799989 .44898988 .22299195 .56199648 .16299439 .68499758 .07699585 .75 .066986087 .75 .06098938 .75 .056991579 .74598696 .056991579 .73999026 .056991579 .7369995 .056991579 .73498538 .07598877 .71699526 .17399597 .6179962 .23098755 .45899964 .23098755 .25 .23098755 .07899475 .19400025-.09700012 .069992069-.2230072 .056991579-.23500061 .056991579-.23701477 .056991579-.2400055 .056991579-.2460022 .06098938-.25 .066986087-.25 .07699585-.25 .16699219-.18200684 .22599793-.055007936 .2769928 .054992677 .2889862 .16600037 .2889862 .25Z"/>
<path id="font_2_6" d="M.116989139 .21801758C.116989139 .38093568 .19898987 .42323304 .2519989 .42323304 .26098634 .42323304 .32398988 .42222596 .35899354 .38594056 .31799317 .38293458 .31199647 .3529358 .31199647 .3399353 .31199647 .31393434 .32998658 .2939453 .35798646 .2939453 .38398744 .2939453 .4039917 .3109436 .4039917 .34094239 .4039917 .40911866 .32798768 .4482422 .25099183 .4482422 .12599182 .4482422 .033996583 .3399353 .033996583 .21601868 .033996583 .08816528 .1329956-.0107421879 .24899292-.0107421879 .3829956-.0107421879 .4149933 .10914612 .4149933 .119140628 .4149933 .12911988 .40499879 .12911988 .4019928 .12911988 .3929901 .12911988 .3909912 .12512207 .3889923 .119140628 .3600006 .026229859 .29499818 .014251709 .2579956 .014251709 .20498657 .014251709 .116989139 .0572052 .116989139 .21801758Z"/>
<path id="font_2_9" d="M.47099305 .21424866C.47099305 .34223939 .37098695 .4482422 .25 .4482422 .125 .4482422 .027999878 .3392334 .027999878 .21424866 .027999878 .085250858 .13198853-.0107421879 .24899292-.0107421879 .36999513-.0107421879 .47099305 .087249759 .47099305 .21424866M.25 .014251709C.20698548 .014251709 .16299439 .035247804 .13598633 .08125305 .11099243 .12524414 .11099243 .18624878 .11099243 .22224427 .11099243 .26124574 .11099243 .31523133 .1349945 .35923768 .1619873 .40522767 .20899964 .426239 .24899292 .426239 .29299928 .426239 .33599855 .40423585 .3619995 .36123658 .3880005 .3182373 .3880005 .26023866 .3880005 .22224427 .3880005 .18624878 .3880005 .13224793 .3659973 .08824158 .34399415 .04324341 .2999878 .014251709 .25 .014251709Z"/>
</defs>
<path transform="matrix(1.00003,0,0,-1.00006,4.0137026,166.5352)" stroke-width=".19925" stroke-linecap="butt" stroke-miterlimit="10" stroke-linejoin="miter" fill="none" stroke="#7f807f" d="M5.58748 78.57219V82.82414M36.10367 78.57219V82.82414M66.61987 78.57219V82.82414M81.87804 78.57219V82.82414M112.3941 78.57219V82.82414M127.65227 78.57219V82.82414M142.91046 78.57219V82.82414M158.16846 78.57219V82.82414M188.68465 78.57219V82.82414"/>
<path transform="matrix(1.00003,0,0,-1.00006,4.0137026,166.5352)" stroke-width=".19925" stroke-linecap="butt" stroke-miterlimit="10" stroke-linejoin="miter" fill="none" stroke="#7f807f" d="M95.01024 0H99.26189M95.01024 40.34909H99.26189M95.01024 121.04727H99.26189M95.01024 161.39636H99.26189"/>
<path transform="matrix(1.00003,0,0,-1.00006,4.0137026,166.5352)" stroke-width=".3985" stroke-linecap="butt" stroke-miterlimit="10" stroke-linejoin="miter" fill="none" stroke="#000000" d="M0 80.69818H192.27964"/>
<path transform="matrix(1.00003,0,0,-1.00006,196.29912,85.832187)" d="M1.99252 0-1.19551 1.59401 0 0-1.19551-1.59401"/>
<path transform="matrix(1.00003,0,0,-1.00006,4.0137026,166.5352)" stroke-width=".3985" stroke-linecap="butt" stroke-miterlimit="10" stroke-linejoin="miter" fill="none" stroke="#000000" d="M97.13608 0V159.40384"/>
<path transform="matrix(0,-1.00006,-1.00003,-0,101.152698,7.121811)" d="M1.99252 0-1.19551 1.59401 0 0-1.19551-1.59401"/>
<use data-text="&#x2212;" xlink:href="#font_1_1" transform="matrix(9.962899,0,0,-9.963197,.21759033,97.899089)"/>
<use data-text="3" xlink:href="#font_2_5" transform="matrix(9.962899,0,0,-9.963197,7.9668276,97.899089)"/>
<use data-text="&#x03c0;" xlink:href="#font_3_1" transform="matrix(9.962899,0,0,-9.963197,12.947983,97.899089)"/>
<use data-text="&#x2212;" xlink:href="#font_1_1" transform="matrix(9.962899,0,0,-9.963197,30.734505,97.899089)"/>
<use data-text="2" xlink:href="#font_2_4" transform="matrix(9.962899,0,0,-9.963197,38.48374,97.899089)"/>
<use data-text="&#x03c0;" xlink:href="#font_3_1" transform="matrix(9.962899,0,0,-9.963197,43.464899,97.899089)"/>
<use data-text="&#x2212;" xlink:href="#font_1_1" transform="matrix(9.962899,0,0,-9.963197,63.742498,97.290058)"/>
<use data-text="&#x03c0;" xlink:href="#font_3_1" transform="matrix(9.962899,0,0,-9.963197,71.49173,97.290058)"/>
<use data-text="&#x2212;" xlink:href="#font_4_1" transform="matrix(6.9740097,0,0,-6.9742186,80.326999,95.794979)"/>
<use data-text="&#x03c0;" xlink:href="#font_5_1" transform="matrix(6.9740097,0,0,-6.9742186,86.554187,95.794979)"/>
<path transform="matrix(1.00003,0,0,-1.00006,-18.000954,-46.880594)" stroke-width=".3985" stroke-linecap="butt" stroke-miterlimit="10" stroke-linejoin="miter" fill="none" stroke="#000000" d="M98.325-144.099H109.461"/>
<use data-text="2" xlink:href="#font_6_1" transform="matrix(6.9740097,0,0,-6.9742186,83.9091,103.153408)"/>
<use data-text="&#x03c0;" xlink:href="#font_5_1" transform="matrix(6.9740097,0,0,-6.9742186,113.95701,94.4809)"/>
<path transform="matrix(1.00003,0,0,-1.00006,15.629059,-48.194665)" stroke-width=".3985" stroke-linecap="butt" stroke-miterlimit="10" stroke-linejoin="miter" fill="none" stroke="#000000" d="M98.325-144.099H103.234"/>
<use data-text="2" xlink:href="#font_6_1" transform="matrix(6.9740097,0,0,-6.9742186,114.426029,101.83933)"/>
<use data-text="&#x03c0;" xlink:href="#font_3_1" transform="matrix(9.962899,0,0,-9.963197,128.65146,95.76796)"/>
<use data-text="3" xlink:href="#font_6_2" transform="matrix(6.9740097,0,0,-6.9742186,142.48886,95.972988)"/>
<use data-text="&#x03c0;" xlink:href="#font_5_1" transform="matrix(6.9740097,0,0,-6.9742186,146.45998,95.972988)"/>
<path transform="matrix(1.00003,0,0,-1.00006,44.160905,-46.702585)" stroke-width=".3985" stroke-linecap="butt" stroke-miterlimit="10" stroke-linejoin="miter" fill="none" stroke="#000000" d="M98.325-144.099H107.205"/>
<use data-text="2" xlink:href="#font_6_1" transform="matrix(6.9740097,0,0,-6.9742186,144.94293,103.33141)"/>
<use data-text="2" xlink:href="#font_2_4" transform="matrix(9.962899,0,0,-9.963197,156.6783,97.899089)"/>
<use data-text="&#x03c0;" xlink:href="#font_3_1" transform="matrix(9.962899,0,0,-9.963197,161.66046,97.899089)"/>
<use data-text="3" xlink:href="#font_2_5" transform="matrix(9.962899,0,0,-9.963197,187.1952,97.899089)"/>
<use data-text="&#x03c0;" xlink:href="#font_3_1" transform="matrix(9.962899,0,0,-9.963197,192.17737,97.899089)"/>
<use data-text="&#x2212;" xlink:href="#font_1_1" transform="matrix(9.962899,0,0,-9.963197,82.77607,169.33037)"/>
<use data-text="2" xlink:href="#font_2_4" transform="matrix(9.962899,0,0,-9.963197,90.52531,169.33037)"/>
<use data-text="&#x2212;" xlink:href="#font_1_1" transform="matrix(9.962899,0,0,-9.963197,82.77607,128.97895)"/>
<use data-text="1" xlink:href="#font_2_3" transform="matrix(9.962899,0,0,-9.963197,90.52531,128.97895)"/>
<use data-text="1" xlink:href="#font_2_3" transform="matrix(9.962899,0,0,-9.963197,90.52531,48.69114)"/>
<use data-text="2" xlink:href="#font_2_4" transform="matrix(9.962899,0,0,-9.963197,90.52531,8.339706)"/>
<g clip-path="url(#clip_7)">
<path transform="matrix(1.00003,0,0,-1.00006,4.0137026,166.5352)" stroke-width=".79701" stroke-linecap="butt" stroke-miterlimit="10" stroke-linejoin="miter" fill="none" stroke="#ff0000" d="M0 102.64807 .97618 99.14012 1.95241 95.44658 2.92862 91.60452 3.90485 87.65233 4.88106 83.62953 5.85727 79.57808 6.8335 75.53712 7.80971 71.5486 8.78593 67.65129 9.76215 63.88753 10.73836 60.29161 11.71457 56.90228 12.69078 53.75345 13.667 50.87656 14.64322 48.29987 15.61943 46.0508 16.59566 44.15076 17.57187 42.62032 18.5481 41.474 19.5243 40.72351 20.50052 40.3757 21.47675 40.43582 22.45296 40.90186 23.42917 41.76936 24.40538 43.02905 25.38159 44.67128 26.35782 46.675 27.33403 49.02292 28.31026 51.68878 29.28647 54.65 30.2627 57.8731 31.2389 61.32576 32.21512 64.97414 33.19135 68.78186 34.16754 72.70985 35.14377 76.71854 36.11998 80.76596 37.09619 84.81256 38.07242 88.81964 39.04863 92.74397 40.02486 96.54689 41.00107 100.19 41.97728 103.63461 42.9535 106.85043 43.92972 109.80075 44.90594 112.45775 45.88214 114.79396 46.85835 116.78558 47.83458 118.41447 48.81079 119.6633 49.78702 120.51668 50.76323 120.96858 51.73944 121.01497 52.71567 120.65587 53.69188 119.89044 54.6681 118.73041 55.64433 117.18706 56.62051 115.27654 57.59674 113.01578 58.57295 110.42818 59.54918 107.54161 60.5254 104.38469 61.5016 100.9873 62.47783 97.38535 63.45404 93.61714 64.43027 89.71538 65.4065 85.72525 66.38269 81.68307 67.35892 77.63164 68.33511 73.61125 69.31134 69.66228 70.28757 65.82387 71.26376 62.13557 72.23999 58.63487 73.2162 55.35692 74.19243 52.33517 75.16866 49.5991 76.14485 47.17694 77.12108 45.09212 78.09729 43.3684 79.0735 42.02113 80.04973 41.06326 81.02594 40.50563 82.00215 40.35391 82.97836 40.60933 83.95459 41.26944 84.93082 42.32538 85.90703 43.7723 86.88324 45.59042 87.85945 47.76201 88.83568 50.26567 89.8119 53.0776 90.7881 56.16753 91.76431 59.50601 92.74054 63.05714 93.71675 66.78741 94.69298 70.6577 95.6692 74.62886 96.64542 78.66214 97.62163 82.7132 98.59785 86.74608 99.57408 90.71846 100.5503 94.58914 101.52649 98.31943 102.50272 101.87256 103.47893 105.21065 104.45515 108.30382 105.43138 111.11696 106.40758 113.6214 107.3838 115.79623 108.36003 117.61557 109.33624 119.06369 110.31247 120.12245 111.28867 120.78378 112.26488 121.04242 113.2411 120.89352 114.21732 120.33672 115.19354 119.38126 116.16975 118.03601 117.14597 116.3139 118.1222 114.23108 119.0984 111.81094 120.07463 109.07648 121.05084 106.05595 122.02705 102.77962 123.00328 99.27933 123.97948 95.59222 124.9557 91.75504 125.93192 87.80606 126.90813 83.78568 127.88435 79.73463 128.86057 75.69286 129.83679 71.70113 130.813 67.80098 131.78922 64.02914 132.76544 60.42677 133.74166 57.02898 134.71787 53.87006 135.69408 50.98227 136.67029 48.39427 137.64652 46.13109 138.62273 44.21855 139.59896 42.67278 140.57517 41.51114 141.55138 40.7445 142.5276 40.38216 143.50382 40.42656 144.48004 40.87683 145.45626 41.7274 146.43247 42.9742 147.40868 44.60106 148.38489 46.59149 149.36112 48.92528 150.33733 51.58105 151.31356 54.53056 152.28977 57.74356 153.26598 61.18777 154.2422 64.83049 155.21842 68.63217 156.19464 72.55653 157.17084 76.56238 158.14705 80.60939 159.12328 84.65681 160.09949 88.6655 161.07572 92.5951 162.05193 96.40202 163.02814 100.05121 164.00437 103.5059 164.98058 106.731 165.9568 109.69302 166.93302 112.3605 167.90923 114.70963 168.88544 116.71577 169.86165 118.3592 170.83788 119.62132 171.81409 120.49043 172.7903 120.95848 173.76653 121.02184 174.74274 120.67525 175.71897 119.92677 176.69519 118.78287 177.67139 117.25444 178.64762 115.35602 179.62381 113.10858 180.60004 110.53389 181.57627 107.65863 182.55246 104.51059 183.52869 101.12286 184.5049 97.52898 185.48113 93.76482 186.45735 89.86871 187.43355 85.88019 188.40978 81.83884 189.38599 77.78778 190.36222 73.76578 191.33843 69.8124 192.31462 65.96994 193.29085 62.27397 194.26706 58.766"/>
<path transform="matrix(1.00003,0,0,-1.00006,4.0137026,166.5352)" stroke-width=".79701" stroke-linecap="butt" stroke-dasharray="2.98883,2.98883" stroke-miterlimit="10" stroke-linejoin="miter" fill="none" stroke="#0000ff" d="M0 46.84245 .97618 44.8129 1.95241 43.14365 2.92862 41.85329 3.90485 40.9535 4.88106 40.45761 5.85727 40.36684 6.8335 40.68236 7.80971 41.40219 8.78593 42.51823 9.76215 44.02043 10.73836 45.89183 11.71457 48.11386 12.69078 50.66635 13.667 53.52144 14.64322 56.65091 15.61943 60.02248 16.59566 63.60306 17.57187 67.35634 18.5481 71.2452 19.5243 75.22803 20.50052 79.26617 21.47675 83.31804 22.45296 87.34366 23.42917 91.30312 24.40538 95.15605 25.38159 98.86171 26.35782 102.38419 27.33403 105.68918 28.31026 108.7416 29.28647 111.50993 30.2627 113.968 31.2389 116.08998 32.21512 117.85605 33.19135 119.24527 34.16754 120.24634 35.14377 120.84833 36.11998 121.04645 37.09619 120.83542 38.07242 120.21928 39.04863 119.20532 40.02486 117.80278 41.00107 116.02501 41.97728 113.89134 42.9535 111.42157 43.92972 108.64394 44.90594 105.58266 45.88214 102.2704 46.85835 98.74107 47.83458 95.02815 48.81079 91.17198 49.78702 87.2097 50.76323 83.18164 51.73944 79.1302 52.71567 75.09286 53.69188 71.11284 54.6681 67.22882 55.64433 63.4808 56.62051 59.90628 57.59674 56.54279 58.57295 53.42178 59.54918 50.57677 60.5254 48.03477 61.5016 45.82324 62.47783 43.96436 63.45404 42.47426 64.43027 41.37112 65.4065 40.66501 66.38269 40.3632 67.35892 40.4677 68.33511 40.97772 69.31134 41.8896 70.28757 43.19289 71.26376 44.87503 72.23999 46.91791 73.2162 49.30173 74.19243 52.0031 75.16866 54.99419 76.14485 58.2439 77.12108 61.71997 78.09729 65.38852 79.0735 69.2116 80.04973 73.14925 81.02594 77.16399 82.00215 81.21341 82.97836 85.25842 83.95459 89.25783 84.93082 93.17047 85.90703 96.95763 86.88324 100.58098 87.85945 104.00218 88.83568 107.19098 89.8119 110.10983 90.7881 112.73172 91.76431 115.0312 92.74054 116.98492 93.71675 118.57144 94.69298 119.77586 95.6692 120.58607 96.64542 120.99442 97.62163 120.9956 98.59785 120.5893 99.57408 119.7807 100.5503 118.57951 101.52649 116.99419 102.50272 115.0425 103.47893 112.74503 104.45515 110.12314 105.43138 107.2063 106.40758 104.01953 107.3838 100.59874 108.36003 96.97661 109.33624 93.19106 110.31247 89.2784 111.28867 85.2794 112.26488 81.2344 113.2411 77.18497 114.21732 73.17105 115.19354 69.23096 116.16975 65.40787 117.14597 61.73813 118.1222 58.26085 119.0984 55.01033 120.07463 52.01804 121.05084 49.31465 122.02705 46.92961 123.00328 44.88472 123.97948 43.20094 124.9557 41.89566 125.93192 40.98135 126.90813 40.46971 127.88435 40.3628 128.86057 40.66177 129.83679 41.36668 130.813 42.4674 131.78922 43.95506 132.76544 45.81235 133.74166 48.02226 134.71787 50.56264 135.69408 53.40645 136.67029 56.52502 137.64652 59.88771 138.62273 63.46144 139.59896 67.20865 140.57517 71.09225 141.55138 75.0723 142.5276 79.10922 143.50382 83.16107 144.48004 87.18872 145.45626 91.15181 146.43247 95.00919 147.40868 98.7209 148.38489 102.25307 149.36112 105.56651 150.33733 108.6282 151.31356 111.40825 152.28977 113.87883 153.26598 116.01532 154.2422 117.79471 155.21842 119.19926 156.19464 120.21484 157.17084 120.8334 158.14705 121.04605 159.12328 120.85077 160.09949 120.25078 161.07572 119.25172 162.05193 117.8641 163.02814 116.10046 164.00437 113.97972 164.98058 111.52325 165.9568 108.75653 166.93302 105.70572 167.90923 102.40276 168.88544 98.88028 169.86165 95.17543 170.83788 91.3241 171.81409 87.36383 172.7903 83.33862 173.76653 79.28757 174.74274 75.24821 175.71897 71.26535 176.69519 67.3761 177.67139 63.62163 178.64762 60.04024 179.62381 56.66827 180.60004 53.53758 181.57627 50.68086 182.55246 48.12677 183.52869 45.90231 184.5049 44.0289 185.48113 42.5243 186.45735 41.40663 187.43355 40.68518 188.40978 40.36684 189.38599 40.4564 190.36222 40.95068 191.33843 41.84766 192.31462 43.13559 193.29085 44.80281 194.26706 46.83156"/>
</g>
<use data-text="x" xlink:href="#font_3_2" transform="matrix(9.962899,0,0,-9.963197,189.11226,82.29815)"/>
<use data-text="y" xlink:href="#font_3_3" transform="matrix(9.962899,0,0,-9.963197,104.69173,12.913986)"/>
<path transform="matrix(1.00003,0,0,-1.00006,4.0137026,166.5352)" d="M135.63672 128.08029H190.18662V157.96848H135.63672Z" fill="#ffffff"/>
<path transform="matrix(1.00003,0,0,-1.00006,4.0137026,166.5352)" stroke-width=".3985" stroke-linecap="butt" stroke-miterlimit="10" stroke-linejoin="miter" fill="none" stroke="#000000" d="M135.63672 128.08029H190.18662V157.96848H135.63672Z"/>
<path transform="matrix(1.00003,0,0,-1.00006,143.0429,17.025238)" stroke-width=".79701" stroke-linecap="butt" stroke-miterlimit="10" stroke-linejoin="miter" fill="none" stroke="#ff0000" d="M0 0H8.50412 17.00826"/>
<use data-text="s" xlink:href="#font_2_10" transform="matrix(9.962899,0,0,-9.963197,162.99649,20.01442)"/>
<use data-text="i" xlink:href="#font_2_7" transform="matrix(9.962899,0,0,-9.963197,166.92186,20.01442)"/>
<use data-text="n" xlink:href="#font_2_8" transform="matrix(9.962899,0,0,-9.963197,169.6816,20.01442)"/>
<use data-text="(" xlink:href="#font_2_1" transform="matrix(9.962899,0,0,-9.963197,175.211,20.01442)"/>
<use data-text="x" xlink:href="#font_3_2" transform="matrix(9.962899,0,0,-9.963197,179.10297,20.01442)"/>
<use data-text=")" xlink:href="#font_2_2" transform="matrix(9.962899,0,0,-9.963197,184.79714,20.01442)"/>
<path transform="matrix(1.00003,0,0,-1.00006,143.0429,29.978013)" stroke-width=".79701" stroke-linecap="butt" stroke-dasharray="2.98883,2.98883" stroke-miterlimit="10" stroke-linejoin="miter" fill="none" stroke="#0000ff" d="M0 0H8.50412 17.00826"/>
<use data-text="c" xlink:href="#font_2_6" transform="matrix(9.962899,0,0,-9.963197,162.44248,32.967195)"/>
<use data-text="o" xlink:href="#font_2_9" transform="matrix(9.962899,0,0,-9.963197,166.866,32.967195)"/>
<use data-text="s" xlink:href="#font_2_10" transform="matrix(9.962899,0,0,-9.963197,171.84745,32.967195)"/>
<use data-text="(" xlink:href="#font_2_1" transform="matrix(9.962899,0,0,-9.963197,175.77283,32.967195)"/>
<use data-text="x" xlink:href="#font_3_2" transform="matrix(9.962899,0,0,-9.963197,179.65598,32.967195)"/>
<use data-text=")" xlink:href="#font_2_2" transform="matrix(9.962899,0,0,-9.963197,185.35016,32.967195)"/>
</svg>
