<svg xmlns="http://www.w3.org/2000/svg" xmlns:xlink="http://www.w3.org/1999/xlink" xmlns:inkscape="http://www.inkscape.org/namespaces/inkscape" version="1.1" width="204" height="165" viewBox="0 0 204 165">
<defs>
<path id="font_1_1" d="M.6589966 .23046875C.6759949 .23046875 .69400027 .23046875 .69400027 .25045777 .69400027 .27046205 .6759949 .27046205 .6589966 .27046205H.117996219C.100997928 .27046205 .08299255 .27046205 .08299255 .25045777 .08299255 .23046875 .100997928 .23046875 .117996219 .23046875H.6589966Z"/>
<path id="font_2_2" d="M.1269989 .07699585 .23298645 .18003845C.3889923 .31811524 .44898988 .3721466 .44898988 .47216798 .44898988 .5860901 .35899354 .6660156 .23699951 .6660156 .12399292 .6660156 .049987794 .57411196 .049987794 .48516847 .049987794 .4291687 .099990848 .4291687 .102996829 .4291687 .11999512 .4291687 .15499878 .44117738 .15499878 .48217774 .15499878 .5081787 .13699341 .5341797 .101989749 .5341797 .09399414 .5341797 .09199524 .5341797 .08898926 .5331726 .11199951 .59806826 .1659851 .63500979 .22399903 .63500979 .31498719 .63500979 .35798646 .5541382 .35798646 .47216798 .35798646 .39215089 .30799867 .31311036 .25299073 .25108338L.06098938 .036987306C.049987794 .025985718 .049987794 .023986817 .049987794 0H.42099L.44898988 .17404175H.42399598C.4189911 .14402771 .4119873 .1000061 .4019928 .084991458 .394989 .07699585 .32899476 .07699585 .30699159 .07699585H.1269989Z"/>
<path id="font_2_1" d="M.2939911 .64004519C.2939911 .66400149 .2939911 .6660156 .2709961 .6660156 .20899964 .60227969 .12098694 .60227969 .08898926 .60227969V.57128909C.10899353 .57128909 .16799927 .57128909 .21998596 .5972748V.07902527C.21998596 .042999269 .21699524 .0309906 .1269989 .0309906H.09498596V0C.12998963 .0029907227 .21699524 .0029907227 .25698854 .0029907227 .29699708 .0029907227 .38398744 .0029907227 .4189911 0V.0309906H.3869934C.29699708 .0309906 .2939911 .041992189 .2939911 .07902527V.64004519Z"/>
<clipPath id="clip_3">
<path transform="matrix(1.00002,0,0,-1.00002,6.581848,163.18994)" d="M0 0H194.26912V161.39028H0Z"/>
</clipPath>
<path id="font_4_1" d="M.33399964 .30233766C.33999635 .32835389 .36299134 .42037965 .43299867 .42037965 .43798829 .42037965 .46199037 .42037965 .48298646 .40734864 .45498658 .402359 .43499757 .37734986 .43499757 .35334779 .43499757 .33735658 .44599916 .31835938 .47299195 .31835938 .49499513 .31835938 .5269928 .3363495 .5269928 .37635804 .5269928 .42837525 .46798707 .4423828 .43399049 .4423828 .37599183 .4423828 .34098817 .38935853 .32899476 .36634828 .3039856 .43237306 .25 .4423828 .22099304 .4423828 .116989139 .4423828 .05999756 .3133545 .05999756 .28834535 .05999756 .27833558 .069992069 .27833558 .07199097 .27833558 .07998657 .27833558 .08299255 .28033448 .084991458 .28933717 .11898804 .39535523 .18499756 .42037965 .21899414 .42037965 .23799134 .42037965 .272995 .4113617 .272995 .35334779 .272995 .32235719 .2559967 .25532533 .21899414 .11528015 .20298767 .053268434 .16799927 .011245728 .12399292 .011245728 .117996219 .011245728 .09498596 .011245728 .07398987 .024276734 .09899902 .029266358 .12098694 .05027771 .12098694 .07827759 .12098694 .105270389 .09899902 .11328125 .083999637 .11328125 .053985597 .11328125 .0289917 .08728027 .0289917 .055267335 .0289917 .009246826 .07899475-.0107421879 .12298584-.0107421879 .18899536-.0107421879 .22499085 .059280397 .22799683 .0652771 .23999024 .028274537 .27598573-.0107421879 .33599855-.0107421879 .43899537-.0107421879 .49598695 .118270877 .49598695 .14328003 .49598695 .1532898 .4869995 .1532898 .48399354 .1532898 .47499085 .1532898 .47299195 .14929199 .47099305 .14228821 .43798829 .03527832 .36999513 .011245728 .33799745 .011245728 .29899598 .011245728 .2829895 .043273927 .2829895 .07727051 .2829895 .09927368 .2889862 .121276859 .2999878 .16529846L.33399964 .30233766Z"/>
<path id="font_4_2" d="M.48599244 .38136292C.48999024 .39537049 .48999024 .39736939 .48999024 .40437318 .48999024 .42237855 .47599793 .43138124 .46099855 .43138124 .45098878 .43138124 .43499757 .42536927 .42599488 .41036988 .42399598 .405365 .41600038 .37435914 .4119873 .35635377 .40499879 .33035279 .397995 .30334474 .3919983 .27633668L.34700013 .09628296C.34298707 .08126831 .2999878 .011245728 .23399353 .011245728 .18299866 .011245728 .17199707 .055267335 .17199707 .0922699 .17199707 .1382904 .18899536 .20030213 .22299195 .28833009 .23899842 .3293457 .24299622 .3403473 .24299622 .36035157 .24299622 .405365 .21099854 .4423828 .16099549 .4423828 .06599426 .4423828 .0289917 .29733277 .0289917 .28833009 .0289917 .27833558 .038986207 .27833558 .040985109 .27833558 .050994874 .27833558 .051986696 .28033448 .056991579 .29634095 .083999637 .3903656 .12399292 .42037965 .1579895 .42037965 .1659851 .42037965 .18299866 .42037965 .18299866 .3883667 .18299866 .36335755 .17298889 .3373413 .1659851 .31834413 .12599182 .21231079 .10798645 .1552887 .10798645 .10827637 .10798645 .019256592 .17098999-.0107421879 .22999573-.0107421879 .2689972-.0107421879 .30299378 .0062561037 .33099366 .03425598 .31799317-.017745972 .30599977-.06674194 .2659912-.11973572 .23999024-.15385437 .20199585-.18309021 .1559906-.18309021 .14199829-.18309021 .09700012-.18005371 .07998657-.14074707 .09599304-.14074707 .10899353-.14074707 .12298584-.1287384 .1329956-.11973572 .14299011-.10673523 .14299011-.08773804 .14299011-.056747438 .115997318-.052734376 .10598755-.052734376 .08299255-.052734376 .049987794-.068740848 .049987794-.11773682 .049987794-.16796875 .09399414-.20507813 .1559906-.20507813 .25898744-.20507813 .3619995-.11373901 .3899994-.00074768069L.48599244 .38136292Z"/>
</defs>
<path transform="matrix(1.00002,0,0,-1.00002,6.581848,163.18994)" stroke-width=".19925" stroke-linecap="butt" stroke-miterlimit="10" stroke-linejoin="miter" fill="none" stroke="#7f807f" d="M0 78.56915V82.8211M48.56728 78.56915V82.8211M145.70183 78.56915V82.8211M194.26912 78.56915V82.8211"/>
<path transform="matrix(1.00002,0,0,-1.00002,6.581848,163.18994)" stroke-width=".19925" stroke-linecap="butt" stroke-miterlimit="10" stroke-linejoin="miter" fill="none" stroke="#7f807f" d="M95.00867 26.89838H99.26042M95.00867 134.4919H99.26042"/>
<path transform="matrix(1.00002,0,0,-1.00002,6.581848,163.18994)" stroke-width=".3985" stroke-linecap="butt" stroke-miterlimit="10" stroke-linejoin="miter" fill="none" stroke="#000000" d="M0 80.69513H192.2766"/>
<path transform="matrix(1.00002,0,0,-1.00002,198.86229,82.493198)" d="M1.99252 0-1.19551 1.59401 0 0-1.19551-1.59401"/>
<path transform="matrix(1.00002,0,0,-1.00002,6.581848,163.18994)" stroke-width=".3985" stroke-linecap="butt" stroke-miterlimit="10" stroke-linejoin="miter" fill="none" stroke="#000000" d="M97.13455 0V159.39775"/>
<path transform="matrix(0,-1.00002,-1.00002,-0,103.718349,3.7890015)" d="M1.99252 0-1.19551 1.59401 0 0-1.19551-1.59401"/>
<use data-text="&#x2212;" xlink:href="#font_1_1" transform="matrix(9.962799,0,0,-9.962799,.21672058,94.55957)"/>
<use data-text="2" xlink:href="#font_2_2" transform="matrix(9.962799,0,0,-9.962799,7.9658815,94.55957)"/>
<use data-text="&#x2212;" xlink:href="#font_1_1" transform="matrix(9.962799,0,0,-9.962799,48.784696,94.55957)"/>
<use data-text="1" xlink:href="#font_2_1" transform="matrix(9.962799,0,0,-9.962799,56.533857,94.55957)"/>
<use data-text="1" xlink:href="#font_2_1" transform="matrix(9.962799,0,0,-9.962799,149.79572,94.55957)"/>
<use data-text="2" xlink:href="#font_2_2" transform="matrix(9.962799,0,0,-9.962799,198.3637,94.55957)"/>
<use data-text="&#x2212;" xlink:href="#font_1_1" transform="matrix(9.962799,0,0,-9.962799,85.34243,139.08646)"/>
<use data-text="2" xlink:href="#font_2_2" transform="matrix(9.962799,0,0,-9.962799,93.09159,139.08646)"/>
<use data-text="2" xlink:href="#font_2_2" transform="matrix(9.962799,0,0,-9.962799,93.09058,31.90532)"/>
<g clip-path="url(#clip_3)">
<path transform="matrix(1.00002,0,0,-1.00002,6.581848,163.18994)" stroke-width=".79701" stroke-linecap="butt" stroke-miterlimit="10" stroke-linejoin="miter" fill="none" stroke="#0000ff" d="M0 67.80003 .09717 67.78821 .19434 67.7761 .29152 67.7648 .38869 67.7527 .48589 67.74086 .58305 67.7285 .68022 67.71666 .7774 67.70482 .87457 67.69246 .97177 67.68062 1.06894 67.6688 1.16612 67.65642 1.26329 67.64458 1.36046 67.6322 1.45766 67.62036 1.55482 67.60799 1.65201 67.59615 1.74918 67.58405 1.84636 67.5722 1.94354 67.55957 2.04071 67.5472 2.1379 67.53535 2.23506 67.52325 2.33224 67.5106 2.42943 67.49825 2.52661 67.4864 2.62378 67.47375 2.72095 67.46138 2.81813 67.44875 2.91531 67.43639 3.0125 67.42401 3.10966 67.41164 3.20685 67.39899 3.30402 67.38661 3.4012 67.37398 3.49838 67.36133 3.59555 67.34842 3.69273 67.33632 3.7899 67.3234 3.8871 67.31076 3.98427 67.29839 4.08144 67.28522 4.17862 67.27257 4.27579 67.25993 4.37299 67.24675 4.47015 67.2341 4.56734 67.22119 4.6645 67.20854 4.76167 67.19589 4.85887 67.18327 4.95604 67.17009 5.05322 67.15717 5.15039 67.14426 5.24757 67.13135 5.34476 67.11816 5.44193 67.10553 5.53911 67.09262 5.63628 67.07889 5.73346 67.06572 5.83064 67.05255 5.92783 67.0399 6.025 67.02672 6.12216 67.01353 6.21935 67.00063 6.31653 66.98744 6.41371 66.97345 6.51088 66.96028 6.60806 66.94736 6.70523 66.93391 6.80241 66.92047 6.8996 66.90729 6.99677 66.89383 7.09395 66.88013 7.19112 66.8672 7.28831 66.85268 7.38548 66.83978 7.48265 66.82605 7.57983 66.8126 7.677 66.79942 7.7742 66.78598 7.87137 66.77225 7.96855 66.75827 8.06572 66.74481 8.16289 66.73137 8.26009 66.71765 8.35725 66.70421 8.45444 66.69022 8.5516 66.67624 8.64879 66.66225 8.74597 66.64879 8.84314 66.63481 8.94032 66.62135 9.03749 66.60683 9.13467 66.59285 9.23186 66.57939 9.32904 66.56514 9.42621 66.5506 9.52338 66.53664 9.62056 66.52263 9.71774 66.50893 9.81493 66.49438 9.9121 66.48041 10.00928 66.46588 10.10645 66.45163 10.20363 66.43736 10.30081 66.42285 10.39798 66.40913 10.49516 66.39514 10.59233 66.38062 10.68953 66.36636 10.7867 66.3521 10.88387 66.33731 10.98105 66.32278 11.07822 66.30853 11.17542 66.29373 11.27258 66.27948 11.36977 66.26468 11.46693 66.25015 11.5641 66.2359 11.6613 66.2211 11.75847 66.20659 11.85565 66.19205 11.95282 66.17673 12.05 66.16194 12.14719 66.14767 12.24435 66.13289 12.34154 66.11809 12.4387 66.10275 12.53589 66.08769 12.63307 66.07289 12.73024 66.05783 12.82742 66.04305 12.92459 66.02824 13.02177 66.01346 13.11896 65.99812 13.21614 65.98305 13.31331 65.96826 13.41048 65.95293 13.50766 65.93787 13.60484 65.92253 13.70203 65.90747 13.7992 65.89188 13.89638 65.87708 13.99355 65.86147 14.09073 65.84668 14.18791 65.83081 14.28508 65.81601 14.38226 65.80042 14.47943 65.78482 14.57663 65.76921 14.6738 65.75362 14.77097 65.738 14.86815 65.72267 14.96532 65.7068 15.06252 65.69121 15.15968 65.67561 15.25687 65.66002 15.35403 65.64388 15.4512 65.62852 15.5484 65.6124 15.64557 65.59706 15.74275 65.58174 15.83992 65.5656 15.9371 65.54973 16.03429 65.5336 16.13145 65.5177 16.22864 65.50157 16.3258 65.4857 16.42299 65.46956 16.52017 65.45343 16.61736 65.43756 16.71452 65.42114 16.81169 65.40501 16.90887 65.38914 17.00606 65.3722 17.10324 65.35632 17.20041 65.34018 17.29759 65.3235 17.39476 65.30737 17.49194 65.29042 17.58913 65.27374 17.6863 65.25787 17.78348 65.24147 17.88065 65.22505 17.97784 65.20811 18.07501 65.19171 18.17218 65.1753 18.26936 65.15889 18.36653 65.14194 18.46373 65.12527 18.5609 65.10887 18.65808 65.09192 18.75525 65.07552 18.85242 65.05829 18.94962 65.04161 19.04678 65.02412 19.14397 65.00745 19.24113 64.99051 19.33832 64.97383 19.4355 64.95607 19.53267 64.93886 19.62985 64.9219 19.72702 64.90471 19.8242 64.88748 19.92139 64.87027 20.01857 64.85306 20.11574 64.83638 20.2129 64.81891 20.31009 64.8014 20.40727 64.7842 20.50446 64.76643 20.60162 64.74896 20.6988 64.73201 20.79597 64.71426 20.89316 64.69704 20.99034 64.67903 21.08751 64.6618 21.1847 64.64378 21.28186 64.62657 21.37906 64.608 21.47623 64.59053 21.5734 64.57304 21.67058 64.55475 21.76775 64.537 21.86494 64.51898 21.96211 64.50095 22.0593 64.48347 22.15646 64.46571 22.25363 64.4469 22.35083 64.42967 22.448 64.41138 22.54518 64.39337 22.64235 64.37534 22.73953 64.35706 22.83672 64.33876 22.93388 64.32074 23.03107 64.30217 23.12823 64.28442 23.22542 64.26532 23.3226 64.24731 23.41978 64.22874 23.51695 64.20992 23.61412 64.19135 23.7113 64.17307 23.80849 64.15424 23.90567 64.13513 24.00284 64.11685 24.10002 64.09828 24.19719 64.08 24.29437 64.0609 24.39156 64.04207 24.48872 64.02324 24.5859 64.00468 24.68307 63.98586 24.78026 63.96648 24.87744 63.94766 24.97461 63.92883 25.0718 63.90945 25.16896 63.89009 25.26616 63.87126 25.36333 63.85162 25.4605 63.8328 25.55768 63.81317 25.65485 63.79326 25.75204 63.77443 25.84921 63.75507 25.9464 63.73543 26.04356 63.7166 26.14073 63.69696 26.23793 63.6776 26.3351 63.65796 26.43228 63.63834 26.52945 63.61842 26.62663 63.59877 26.72382 63.57915 26.82098 63.55951 26.91817 63.53961 27.01534 63.51997 27.11252 63.50034 27.2097 63.47935 27.30688 63.45972 27.40405 63.43901 27.50122 63.41937 27.5984 63.39893 27.69559 63.37929 27.79277 63.35939 27.88994 63.33867 27.98712 63.3185 28.08429 63.29832 28.18147 63.27843 28.27866 63.25772 28.37582 63.23755 28.473 63.2171 28.57018 63.19666 28.66737 63.17621 28.76454 63.15604 28.86171 63.13452 28.9589 63.11353 29.05606 63.0931 29.15326 63.07211 29.25043 63.05167 29.34761 63.0307 29.44478 63.00972 29.54195 62.989 29.63914 62.96829 29.73631 62.94785 29.8335 62.92686 29.93066 62.90561 30.02785 62.88463 30.12503 62.86339 30.2222 62.8424 30.31938 62.82115 30.41655 62.79964 30.51373 62.77838 30.61092 62.75687 30.7081 62.73508 30.80527 62.71382 30.90244 62.69203 30.99962 62.67079 31.0968 62.64954 31.19398 62.62775 31.29115 62.60597 31.38834 62.58444 31.4855 62.56293 31.58269 62.54114 31.67987 62.51881 31.77704 62.4973 31.87422 62.47498 31.97139 62.45319 32.06859 62.4314 32.16576 62.40935 32.26292 62.38673 32.3601 62.36469 32.45728 62.34236 32.55447 62.32031 32.65164 62.29852 32.74883 62.27646 32.846 62.2536 32.94316 62.23154 33.04036 62.20895 33.13753 62.18689 33.23471 62.16429 33.33188 62.14142 33.42906 62.11911 33.52625 62.09651 33.62341 62.07365 33.7206 62.05104 33.81776 62.02818 33.91495 62.00507 34.01213 61.98245 34.10931 61.9596 34.20648 61.937 34.30365 61.91386 34.40083 61.891 34.49802 61.8676 34.5952 61.84474 34.69237 61.82161 34.78955 61.79767 34.88672 61.77481 34.9839 61.75194 35.08109 61.72801 35.17825 61.70433 35.27544 61.68066 35.3726 61.65753 35.4698 61.63412 35.56697 61.61072 35.66414 61.58678 35.76132 61.56339 35.85849 61.53918 35.95569 61.51578 36.05286 61.4921 36.15004 61.46815 36.24721 61.44449 36.34438 61.42029 36.44157 61.39607 36.53874 61.37215 36.63593 61.34767 36.7331 61.32373 36.83026 61.30005 36.92746 61.2753 37.02463 61.25163 37.12181 61.22742 37.21898 61.20294 37.31616 61.17874 37.41335 61.15425 37.51051 61.13005 37.6077 61.10503 37.70486 61.08029 37.80205 61.0558 37.89923 61.03079 37.99641 61.00604 38.09358 60.9813 38.19075 60.95682 38.28793 60.93208 38.38512 60.90761 38.4823 60.88205 38.57947 60.85757 38.67665 60.83255 38.77382 60.80782 38.871 60.78226 38.96819 60.75697 39.06535 60.73196 39.16254 60.7064 39.2597 60.68138 39.3569 60.65584 39.45407 60.63054 39.55124 60.60553 39.64842 60.57999 39.74559 60.55415 39.84279 60.5286 39.93996 60.50333 40.03714 60.47696 40.13431 60.45113 40.23148 60.42532 40.32867 60.39949 40.42584 60.3734 40.52303 60.34813 40.6202 60.32257 40.71738 60.29646 40.81456 60.27066 40.91173 60.2443 41.00891 60.21846 41.10608 60.19211 41.20326 60.16547 41.30045 60.13966 41.39763 60.1133 41.4948 60.08586 41.59196 60.06003 41.68915 60.03421 41.78633 60.00786 41.88351 59.98203 41.98068 59.95486 42.07787 59.92877 42.17503 59.90161 42.27222 59.87497 42.3694 59.84781 42.46657 59.82065 42.56375 59.79373 42.66092 59.76765 42.75812 59.7402 42.85529 59.71358 42.95245 59.68695 43.04964 59.65979 43.1468 59.63263 43.244 59.60599 43.34117 59.57855 43.43835 59.55112 43.53552 59.52342 43.63269 59.4965 43.72989 59.46909 43.82706 59.4419 43.92424 59.41473 44.02141 59.38731 44.11859 59.35988 44.21577 59.33243 44.31294 59.30473 44.41013 59.27702 44.5073 59.24852 44.60448 59.22108 44.70166 59.19308 44.79884 59.1662 44.89601 59.13823 44.99318 59.1108 45.09036 59.08281 45.18755 59.05457 45.28473 59.02687 45.3819 58.99863 45.47908 58.97066 45.57625 58.94186 45.67343 58.91417 45.77061 58.8862 45.86778 58.85875 45.96497 58.82997 46.06213 58.80199 46.15933 58.77376 46.2565 58.74551 46.35367 58.71646 46.45085 58.68822 46.54802 58.6597 46.64522 58.6312 46.74239 58.60295 46.83957 58.5747 46.93674 58.54593 47.0339 58.51741 47.1311 58.4889 47.22827 58.45985 47.32545 58.43106 47.42262 58.40175 47.5198 58.3735 47.61699 58.34473 47.71416 58.31648 47.81134 58.2877 47.90851 58.25919 48.00569 58.22986 48.10287 58.2008 48.20006 58.17151 48.29723 58.1419 48.3944 58.1134 48.49158 58.08461 48.58876 58.05638 48.68594 58.02597 48.78311 57.99666 48.88028 57.96814 48.97746 57.9391 49.07465 57.90843 49.17183 57.87991 49.269 57.85033 49.36618 57.82236 49.46335 57.79303 49.56053 57.76479 49.65771 57.7336 49.75488 57.70454 49.85207 57.67496 49.94923 57.64671 50.04643 57.61792 50.1436 57.58806 50.24077 57.55983 50.33795 57.52809 50.43512 57.4993 50.53232 57.46892 50.62949 57.44067 50.72667 57.4092 50.82384 57.38123 50.921 57.35162 51.0182 57.32124 51.11537 57.29355 51.21255 57.26341 51.30972 57.23248 51.4069 57.20209 51.50409 57.1741 51.60126 57.14479 51.69844 57.11519 51.79561 57.08562 51.89279 57.05603 51.98997 57.02779 52.08716 56.99577 52.18433 56.96619 52.2815 56.93686 52.37868 56.90755 52.47586 56.87875 52.57304 56.84756 52.67021 56.8204 52.7674 56.78918 52.86456 56.7596 52.96175 56.73108 53.05893 56.70178 53.1561 56.67192 53.25328 56.64313 53.35045 56.61246 53.44765 56.58235 53.54482 56.5533 53.64198 56.5245 53.73917 56.49411 53.83633 56.46533 53.93353 56.43494 54.0307 56.4075 54.12788 56.3771 54.22505 56.34673 54.32222 56.31686 54.41942 56.28943 54.51659 56.26091 54.61377 56.2297 54.71094 56.20119 54.80812 56.17188 54.9053 56.14417 55.00247 56.11324 55.09966 56.08527 55.19682 56.05649 55.294 56.02876 55.39119 55.99838 55.48837 55.9696 55.58554 55.93974 55.68271 55.91122 55.77989 55.88298 55.87708 55.85446 55.97426 55.82623 56.07143 55.79852 56.16861 55.7684 56.26578 55.74069 56.36296 55.71191 56.46014 55.68475 56.55731 55.65651 56.6545 55.62773 56.75166 55.59949 56.84886 55.57097 56.94603 55.54407 57.0432 55.51636 57.14038 55.48946 57.23755 55.4607 57.33475 55.43352 57.43192 55.40527 57.5291 55.3781 57.62627 55.35013 57.72343 55.32404 57.82063 55.2966 57.9178 55.26942 58.01498 55.24281 58.11215 55.2151 58.20934 55.18982 58.30652 55.16238 58.40369 55.13602 58.50087 55.10886 58.59804 55.08464 58.69522 55.05882 58.7924 55.03326 58.88959 55.00719 58.98676 54.97974 59.08392 54.95499 59.1811 54.93024 59.27829 54.90442 59.37547 54.87941 59.47264 54.85493 59.56982 54.82938 59.66699 54.80597 59.76418 54.78123 59.86136 54.75674 59.95853 54.73119 60.05571 54.70834 60.15288 54.68494 60.25008 54.66153 60.34724 54.63786 60.44441 54.61446 60.5416 54.59131 60.63876 54.56927 60.73596 54.54614 60.83313 54.52408 60.9303 54.50148 61.02748 54.48051 61.12465 54.45871 61.22185 54.43747 61.31902 54.41621 61.4162 54.39444 61.51337 54.37427 61.61053 54.35355 61.70773 54.3339 61.8049 54.31346 61.90208 54.29301 61.99925 54.27419 62.09644 54.25563 62.19362 54.2368 62.29079 54.21689 62.38797 54.19888 62.48514 54.1814 62.58232 54.16444 62.6795 54.14642 62.77669 54.12868 62.87386 54.1136 62.97102 54.09666 63.0682 54.08105 63.16539 54.06465 63.26257 54.04959 63.35974 54.03534 63.45692 54.02054 63.5541 54.00601 63.65128 53.99176 63.74846 53.97884 63.84563 53.96622 63.94281 53.95303 64.03998 53.9412 64.13718 53.92961 64.23434 53.9186 64.33151 53.90756 64.4287 53.89655 64.52586 53.88713 64.62306 53.87798 64.72023 53.86856 64.81741 53.85997 64.91458 53.85269 65.01175 53.8449 65.10895 53.83708 65.20612 53.83118 65.3033 53.82553 65.40047 53.81961 65.49765 53.8145 65.59483 53.81075 65.692 53.8075 65.78918 53.804 65.88635 53.80078 65.98354 53.79942 66.08072 53.79837 66.1779 53.79756H66.27507L66.37224 53.7989 66.46942 53.79997 66.5666 53.80159 66.66379 53.80536 66.76096 53.80858 66.85814 53.81235 66.9553 53.81773 67.05249 53.82364 67.14967 53.8301 67.24684 53.83708 67.34402 53.8457 67.4412 53.85458 67.53839 53.86372 67.63556 53.87476 67.73273 53.88658 67.82991 53.89815 67.92708 53.91214 68.02428 53.92586 68.12144 53.94038 68.21863 53.95653 68.3158 53.97374 68.41296 53.99121 68.51016 54.01114 68.60733 54.03157 68.70451 54.05202 68.80168 54.07379 68.89886 54.09746 68.99605 54.1206 69.09322 54.14642 69.1904 54.17305 69.28757 54.20023 69.38475 54.22926 69.48193 54.2594 69.57912 54.29005 69.67628 54.32341 69.77345 54.3565 69.87064 54.39146 69.96782 54.42831 70.065 54.4657 70.16217 54.50551 70.25935 54.54587 70.35652 54.58676 70.4537 54.63168 70.55089 54.6758 70.64806 54.72098 70.74524 54.76993 70.8424 54.8189 70.9396 54.87 71.03677 54.92297 71.13394 54.97624 71.23112 55.03299 71.3283 55.08975 71.42549 55.15001 71.52266 55.21106 71.61984 55.2724 71.71701 55.33882 71.81418 55.40285 71.91138 55.47224 72.00854 55.54326 72.10573 55.61536 72.2029 55.69012 72.30008 55.76572 72.39726 55.84372 72.49443 55.9236 72.59161 56.00699 72.68878 56.09064 72.78596 56.17726 72.88315 56.2679 72.98032 56.35828 73.0775 56.45349 73.17467 56.54845 73.27185 56.6469 73.36903 56.7483 73.46622 56.85295 73.56339 56.95758 73.66055 57.0676 73.75774 57.17868 73.85492 57.29355 73.9521 57.4092 74.04927 57.53079 74.14645 57.65129 74.24362 57.77797 74.3408 57.90494 74.43799 58.03726 74.53516 58.16988 74.63234 58.3095 74.7295 58.44856 74.8267 58.59192 74.92387 58.73878 75.02104 58.8913 75.11823 59.04408 75.2154 59.1993 75.31259 59.36148 75.40976 59.52611 75.50694 59.6934 75.60411 59.86394 75.70128 60.0404 75.79848 60.21927 75.89565 60.40057 75.99283 60.58832 76.09 60.78038 76.18718 60.97458 76.28436 61.17363 76.38153 61.37401 76.47871 61.58115 76.57588 61.79443 76.67307 62.0115 76.77025 62.23154 76.86743 62.4556 76.9646 62.68236 77.06177 62.9196 77.15895 63.15685 77.25613 63.40027 77.35332 63.65125 77.45049 63.90247 77.54767 64.1615 77.64484 64.42375 77.74202 64.69301 77.8392 64.96872 77.93637 65.24712 78.03355 65.53062 78.13072 65.82248 78.22792 66.11755 78.32509 66.41936 78.42226 66.72626 78.51944 67.0399 78.61661 67.35622 78.7138 67.68169 78.81097 68.01093 78.90816 68.35118 79.00533 68.69226 79.1025 69.04193 79.19969 69.39699 79.29686 69.7569 79.39404 70.12486 79.49121 70.49742 79.5884 70.87909 79.68558 71.26831 79.78275 71.65942 79.87993 72.06128 79.9771 72.4696 80.07428 72.88087 80.17146 73.30345 80.26865 73.72845 80.36581 74.16393 80.46298 74.60533 80.56017 75.054 80.65735 75.5075 80.75453 75.97258 80.8517 76.44249 80.94888 76.91536 81.04605 77.40088 81.14323 77.88962 81.24042 78.38777 81.33759 78.89159 81.43477 79.3997 81.53194 79.92099 81.62914 80.44498 81.7263 80.97461 81.82347 81.5123 81.92065 82.05807 82.01782 82.61136 82.11502 83.16602 82.21219 83.7306 82.30937 84.2987 82.40654 84.87405 82.50371 85.45508 82.6009 86.04146 82.69807 86.6359 82.79526 87.23224 82.89243 87.83261 82.98961 88.43568 83.08679 89.0468 83.18396 89.6574 83.28114 90.2739 83.37831 90.8958 83.4755 91.52011 83.57268 92.13985 83.66986 92.76578 83.76703 93.39384 83.8642 94.01788 83.96138 94.64381 84.05856 95.26653 84.15575 95.8911 84.25291 96.51326 84.3501 97.13112 84.44727 97.74142 84.54445 98.3504 84.64163 98.94836 84.7388 99.54228 84.83598 100.1284 84.93315 100.70213 85.03035 101.26915 85.12752 101.8211 85.22469 102.35747 85.32187 102.88037 85.41904 103.38445 85.51624 103.87077 85.6134 104.338 85.71057 104.78452 85.80775 105.2052 85.90492 105.59953 86.00212 105.96455 86.09929 106.29968 86.19647 106.60176 86.29364 106.86914 86.39081 107.09966 86.488 107.28767 86.58517 107.43347 86.68236 107.53406 86.77953 107.5857H86.87671L86.97389 107.53111 87.07106 107.41867 87.16824 107.24626 87.26541 107.00955 87.3626 106.70479 87.45978 106.32982 87.55696 105.88116 87.65413 105.35825 87.7513 104.75304 87.84848 104.0674 87.94566 103.29784 88.04285 102.43547 88.14001 101.4865 88.2372 100.44661 88.33437 99.31041 88.43155 98.0801 88.52873 96.75131 88.6259 95.32732 88.72308 93.807 88.82025 92.19472 88.91745 90.48802 89.01462 88.69739 89.11179 86.81586 89.20897 84.85738 89.30614 82.82198 89.40334 80.72713 89.5005 78.58359 89.59769 76.38602 89.69485 74.17119 89.79202 71.94534 89.88922 69.73189 89.98639 67.53859 90.08357 65.4061 90.18074 63.34486 90.27792 61.39822 90.3751 59.59578 90.47227 57.96762 90.56946 56.54872 90.66663 55.38347 90.76381 54.50954 90.861 53.96835 90.95818 53.79916 91.05534 54.0426 91.15251 54.73468 91.2497 55.90962 91.34688 57.58942 91.44406 59.7924 91.54123 62.52716 91.63841 65.77379 91.73558 69.50487 91.83276 73.66982 91.92995 78.19547 92.02711 82.96025 92.1243 87.83583 92.22147 92.64824 92.31866 97.19109 92.41583 101.20514 92.513 104.48352 92.61018 106.68488 92.70735 107.58328 92.80455 106.93504 92.90173 104.55937 92.9989 100.42267 93.09607 94.55586 93.19325 87.17603 93.29044 78.8776 93.38762 70.32957 93.48479 62.54597 93.58197 56.68025 93.67914 53.88875 93.77632 55.2046 93.8735 61.12225 93.97069 71.27182 94.06786 84.15561 94.16504 96.93098 94.26222 105.76442 94.3594 106.93639 94.45657 98.32083 94.55374 81.51607 94.65092 63.23538 94.74811 53.864 94.84529 61.87218 94.94246 85.10915 95.03964 105.68425 95.13681 100.3748 95.23401 69.69664 95.33118 54.49664 95.42836 85.79237 95.52553 106.05385 95.62271 63.20232 95.7199 74.62846 95.81706 100.63571 95.91425 57.46191 96.01141 98.83728 96.1086 86.43631 96.2058 56.54306 96.30296 54.87215 96.40013 84.94183 96.49731 61.08809 96.59448 55.86522 96.69168 72.85667 96.78885 59.93657 96.88603 64.39041 96.9832 68.33263 97.08037 106.79462 97.17757 55.94862 97.27475 100.81027 97.37192 70.30777 97.4691 97.11713 97.56627 65.3461 97.66347 63.00325 97.76064 102.8333 97.8578 55.86172 97.95499 93.45384 98.05215 93.09312 98.14935 62.67589 98.24654 72.61081 98.3437 97.49666 98.44087 67.30458 98.53806 79.4457 98.63524 102.5436 98.73242 57.77716 98.82959 70.75188 98.92677 105.40103 99.02394 95.26059 99.12112 63.68326 99.2183 54.66072 99.31549 73.31744 99.41266 97.42162 99.50984 107.58247 99.60703 99.86668 99.7042 82.0508 99.80138 64.66342 99.89854 54.94638 99.99573 55.03757 100.09291 63.18213 100.1901 75.69391 100.28726 88.71999 100.38445 99.30261 100.48161 105.74397 100.57881 107.57413 100.67598 105.23102 100.77316 99.64235 100.87033 91.99648 100.9675 83.50385 101.0647 75.13092 101.16187 67.626 101.25905 61.56311 101.35622 57.19966 101.4534 54.63678 101.5506 53.79756 101.64777 54.54076 101.74493 56.60117 101.84212 59.77303 101.93929 63.73543 102.03648 68.20512 102.13365 72.99628 102.23083 77.87294 102.328 82.66435 102.42517 87.21826 102.52237 91.42812 102.61954 95.21138 102.71672 98.5188 102.81389 101.31004 102.91107 103.57463 103.00826 105.31548 103.10542 106.54527 103.2026 107.29144 103.29977 107.58437 103.39696 107.46144 103.49414 106.96112 103.59132 106.12244 103.68849 104.98813 103.78566 103.59909 103.88284 101.99326 103.98003 100.20398 104.07721 98.27484 104.17438 96.23135 104.27156 94.10236 104.36873 91.91768 104.46591 89.70097 104.5631 87.4746 104.66026 85.25601 104.75745 83.05894 104.85461 80.90521 104.95181 78.80338 105.04898 76.76447 105.14615 74.79416 105.24333 72.90616 105.3405 71.0994 105.4377 69.38759 105.53487 67.76266 105.63205 66.23294 105.72922 64.79684 105.82639 63.45837 105.92358 62.21648 106.02075 61.06981 106.11794 60.01779 106.2151 59.05887 106.31227 58.18925 106.40947 57.40651 106.50664 56.70958 106.60382 56.09816 106.70099 55.56396 106.79817 55.1056 106.89536 54.7242 106.99252 54.41353 107.0897 54.16821 107.18687 53.98772 107.28406 53.8691 107.38124 53.8083 107.47842 53.80078 107.57559 53.84839 107.67276 53.94174 107.76994 54.08376 107.86713 54.268 107.96431 54.49234 108.06148 54.75594 108.15866 55.05478 108.25583 55.38591 108.35301 55.74796 108.4502 56.13959 108.54736 56.55705 108.64455 56.99982 108.74171 57.46191 108.83891 57.94743 108.93608 58.45206 109.03325 58.972 109.13043 59.50888 109.2276 60.05922 109.3248 60.62355 109.42197 61.19514 109.51915 61.78099 109.61632 62.37195 109.71349 62.97179 109.81068 63.58076 109.90785 64.19109 110.00504 64.80759 110.1022 65.426 110.19939 66.05112 110.29657 66.67542 110.39374 67.29973 110.49092 67.92513 110.58809 68.55185 110.68527 69.17778 110.78246 69.7986 110.87964 70.42236 110.9768 71.04372 111.07397 71.65887 111.17116 72.27217 111.26834 72.88277 111.36552 73.48985 111.46269 74.0905 111.55988 74.6863 111.65704 75.28021 111.75423 75.8693 111.85141 76.44762 111.94858 77.02457 112.04576 77.59563 112.14293 78.16022 112.24013 78.71756 112.3373 79.27058 112.43446 79.81609 112.53165 80.35352 112.62881 80.88557 112.72601 81.4098 112.82318 81.92842 112.92036 82.44191 113.01753 82.94302 113.1147 83.44386 113.2119 83.93585 113.30907 84.41571 113.40625 84.89505 113.50342 85.36711 113.6006 85.83003 113.69778 86.28354 113.79495 86.73193 113.89214 87.17441 113.9893 87.6123 114.08649 88.04 114.18367 88.46095 114.28085 88.87682 114.37802 89.28297 114.47519 89.68484 114.57237 90.07889 114.66956 90.46649 114.76674 90.84846 114.8639 91.22397 114.96109 91.5914 115.05826 91.95372 115.15544 92.31172 115.25262 92.65765 115.3498 93.00302 115.44698 93.3414 115.54414 93.67279 115.64134 93.99422 115.73851 94.3154 115.83568 94.62984 115.93286 94.93674 116.03003 95.23907 116.12723 95.53362 116.2244 95.82681 116.32158 96.11032 116.41875 96.3906 116.51591 96.66685 116.61311 96.93448 116.71028 97.19675 116.80746 97.45847 116.90463 97.71373 117.00182 97.9612 117.099 98.20517 117.19617 98.44241 117.29335 98.68045 117.39052 98.90668 117.4877 99.13531 117.58488 99.3556 117.68207 99.57268 117.77924 99.78625 117.8764 99.99174 117.97359 100.19458 118.07077 100.39417 118.16795 100.58809 118.26512 100.78096 118.36229 100.96843 118.45947 101.15054 118.55666 101.32942 118.65384 101.50371 118.751 101.67854 118.84819 101.84453 118.94536 102.01129 119.04254 102.1735 119.13972 102.3295 119.2369 102.48282 119.33408 102.63264 119.43124 102.78111 119.52844 102.92638 119.62561 103.06596 119.72278 103.20369 119.81996 103.33684 119.91713 103.46997 120.01433 103.59883 120.1115 103.72336 120.20868 103.8471 120.30585 103.96599 120.40302 104.08461 120.50021 104.1984 120.59738 104.30948 120.69456 104.41869 120.79173 104.52629 120.88892 104.63092 120.9861 104.73018 121.08327 104.8297 121.18045 104.926 121.27762 105.02122 121.3748 105.1124 121.47198 105.20277 121.56917 105.28966 121.66634 105.37358 121.7635 105.45724 121.86069 105.53632 121.95787 105.61674 122.05505 105.69124 122.15222 105.7663 122.2494 105.83893 122.34657 105.90913 122.44376 105.97853 122.54094 106.04524 122.6381 106.11115 122.73529 106.17326 122.83246 106.2338 122.92966 106.29405 123.02682 106.3508 123.124 106.4081 123.22118 106.46243 123.31834 106.51407 123.41554 106.56572 123.51271 106.61548 123.6099 106.6639 123.70706 106.70935 123.80423 106.75455 123.90143 106.79893 123.9986 106.83954 124.09578 106.88097 124.19295 106.91971 124.29013 106.95683 124.38731 106.99501 124.48448 107.02917 124.58167 107.0636 124.67883 107.09642 124.77602 107.12737 124.8732 107.1567 124.97038 107.1876 125.06755 107.21423 125.16472 107.24113 125.2619 107.2667 125.35909 107.2901 125.45627 107.31377 125.55344 107.33662 125.65062 107.35681 125.74779 107.37671 125.84497 107.39688 125.94215 107.41383 126.03932 107.4313 126.1365 107.44771 126.23367 107.46225 126.33087 107.4765 126.42804 107.4905 126.5252 107.50206 126.62239 107.51389 126.71956 107.52573 126.81676 107.53487 126.91393 107.54294 127.01111 107.5521 127.10828 107.55934 127.20544 107.56552 127.30264 107.57146 127.39981 107.57738 127.497 107.58113 127.59416 107.58437 127.69135 107.58813 127.78853 107.59027 127.8857 107.59135 127.98288 107.59216 128.08005 107.59297 128.17723 107.59189 128.27442 107.59082 128.3716 107.58948 128.46877 107.5865 128.56594 107.58328 128.66312 107.58006 128.7603 107.5763 128.85749 107.5709 128.95465 107.56526 129.05184 107.55989 129.149 107.5537 129.24619 107.54643 129.34337 107.53891 129.44054 107.53165 129.53772 107.5233 129.63489 107.51335 129.73209 107.50395 129.82926 107.49399 129.92642 107.4843 130.0236 107.47273 130.12078 107.4617 130.21797 107.45068 130.31514 107.43884 130.41231 107.42593 130.50949 107.41248 130.60666 107.40012 130.70386 107.38666 130.80103 107.37132 130.89821 107.35681 130.99538 107.34227 131.09255 107.32748 131.18975 107.31108 131.28691 107.29494 131.3841 107.27907 131.48126 107.26318 131.57845 107.24544 131.67563 107.22823 131.7728 107.21046 131.86998 107.19327 131.96715 107.17497 132.06433 107.15587 132.16152 107.13757 132.2587 107.11876 132.35587 107.09966 132.45304 107.07922 132.55022 107.05878 132.6474 107.03912 132.74459 107.01842 132.84175 106.99878 132.93894 106.977 133.0361 106.95575 133.13329 106.9345 133.23047 106.91298 133.32764 106.8912 133.42482 106.86859 133.52199 106.84573 133.61919 106.82422 133.71636 106.80215 133.81352 106.7793 133.9107 106.75508 134.00788 106.73116 134.10507 106.70747 134.20224 106.68568 134.29943 106.66068 134.39659 106.63646 134.49376 106.61172 134.59096 106.58832 134.68813 106.56384 134.78531 106.5391 134.88248 106.51326 134.97966 106.48825 135.07685 106.4627 135.17401 106.43742 135.2712 106.41321 135.36837 106.38684 135.46555 106.36156 135.56273 106.33548 135.65991 106.30937 135.75708 106.28381 135.85425 106.25665 135.95143 106.23056 136.04862 106.20287 136.1458 106.17757 136.24297 106.15121 136.34015 106.1254 136.43732 106.0966 136.5345 106.06863 136.63169 106.04254 136.72885 106.01591 136.82604 105.98767 136.9232 105.9613 137.0204 105.9328 137.11757 105.90536 137.21474 105.87659 137.31192 105.84915 137.40909 105.82198 137.50629 105.79373 137.60346 105.76495 137.70064 105.73698 137.7978 105.70847 137.89498 105.68158 137.99217 105.65306 138.08934 105.62509 138.18653 105.59496 138.28369 105.56726 138.38088 105.53847 138.47806 105.51103 138.57523 105.48145 138.67241 105.45403 138.76958 105.42389 138.86676 105.39484 138.96395 105.36523 139.06113 105.33618 139.1583 105.30821 139.25547 105.28078 139.35265 105.25066 139.44983 105.2216 139.54701 105.19257 139.64418 105.16162 139.74137 105.13257 139.83853 105.10326 139.93572 105.07474 140.0329 105.04677 140.13007 105.01637 140.22725 104.98651 140.32442 104.95882 140.42162 104.92815 140.51879 104.89935 140.61595 104.87057 140.71314 104.84073 140.8103 104.81033 140.9075 104.78049 141.00467 104.75035 141.10186 104.7221 141.19902 104.69225 141.29619 104.66292 141.39339 104.63469 141.49056 104.60484 141.58774 104.57362 141.6849 104.54404 141.78209 104.51524 141.87928 104.48567 141.97644 104.45581 142.07363 104.42784 142.17079 104.39583 142.26798 104.36678 142.36516 104.338 142.46233 104.30841 142.55951 104.27936 142.65668 104.24924 142.75386 104.22018 142.85105 104.18979 142.94823 104.15858 143.0454 104.13141 143.14257 104.10075 143.23975 104.07278 143.33693 104.04211 143.43412 104.012 143.53128 103.98402 143.62847 103.95416 143.72563 103.92538 143.82282 103.8939 143.92 103.86351 144.01717 103.83527 144.11435 103.80621 144.21152 103.77663 144.30872 103.74731 144.40589 103.71826 144.50305 103.68732 144.60024 103.66069 144.6974 103.62949 144.7946 103.60045 144.89177 103.57219 144.98896 103.54262 145.08612 103.5141 145.18329 103.48262 145.28049 103.45546 145.37766 103.4264 145.47484 103.39467 145.572 103.36723 145.66919 103.33846 145.76638 103.3094 145.86354 103.28035 145.96073 103.25104 146.05789 103.22198 146.15508 103.19293 146.25226 103.16362 146.34944 103.13484 146.44661 103.10579 146.54378 103.07701 146.64096 103.04877 146.73815 103.02052 146.83533 102.992 146.9325 102.96214 147.02968 102.93336 147.12685 102.90459 147.22403 102.87607 147.32122 102.84756 147.41838 102.81932 147.51557 102.79108 147.61273 102.7623 147.70993 102.73405 147.8071 102.70526 147.90427 102.67676 148.00145 102.6477 148.09862 102.61946 148.19582 102.59149 148.29299 102.5635 148.39017 102.53526 148.48734 102.50702 148.5845 102.47958 148.6817 102.45161 148.77887 102.42284 148.87606 102.39487 148.97322 102.36662 149.0704 102.33865 149.16759 102.31065 149.26476 102.28296 149.36194 102.25525 149.4591 102.22728 149.55629 102.20038 149.65348 102.17241 149.75066 102.14497 149.84783 102.11673 149.94499 102.08876 150.04218 102.06131 150.13936 102.03362 150.23654 102.00618 150.33371 101.97874 150.4309 101.95157 150.52806 101.92468 150.62525 101.89697 150.72243 101.87007 150.8196 101.84264 150.91678 101.81493 151.01395 101.78749 151.11115 101.76086 151.20832 101.73343 151.30548 101.70625 151.40267 101.67963 151.49983 101.65274 151.59703 101.62582 151.6942 101.59947 151.79138 101.57285 151.88855 101.54568 151.98572 101.5185 152.08292 101.49161 152.18009 101.46498 152.27727 101.43861 152.37444 101.41199 152.47162 101.38536 152.5688 101.35927 152.66597 101.33318 152.76316 101.30681 152.86032 101.2802 152.9575 101.25356 153.05469 101.2272 153.15187 101.20084 153.24904 101.17474 153.3462 101.14839 153.44339 101.12256 153.54058 101.09674 153.63776 101.07065 153.73493 101.04536 153.8321 101.01901 153.92928 100.99399 154.02646 100.9679 154.12364 100.94208 154.22081 100.91599 154.318 100.89043 154.41516 100.86435 154.51235 100.83907 154.60953 100.8135 154.7067 100.78821 154.80388 100.76213 154.90105 100.7371 154.99825 100.7121 155.09542 100.68681 155.19258 100.66179 155.28977 100.63571 155.38694 100.61069 155.48413 100.5854 155.5813 100.56038 155.67848 100.53537 155.77565 100.51062 155.87282 100.4856 155.97002 100.46086 156.06719 100.43639 156.16437 100.41138 156.26154 100.38663 156.35872 100.36243 156.4559 100.3374 156.55307 100.31265 156.65026 100.2879 156.74742 100.2637 156.8446 100.23895 156.94179 100.2142 157.03897 100.19 157.13614 100.16553 157.2333 100.14131 157.33049 100.11737 157.42768 100.09315 157.52486 100.06949 157.62203 100.04529 157.71921 100.02107 157.81638 99.99686 157.91356 99.97293 158.01074 99.94872 158.10791 99.92451 158.2051 99.90057 158.30226 99.87717 158.39946 99.8535 158.49663 99.82956 158.5938 99.8059 158.69098 99.78249 158.78815 99.75908 158.88535 99.73569 158.98252 99.71202 159.0797 99.68861 159.17687 99.6652 159.27404 99.64182 159.37123 99.61815 159.4684 99.59502 159.56558 99.5716 159.66275 99.54848 159.75994 99.52507 159.85712 99.50166 159.95429 99.47906 160.05147 99.4562 160.14864 99.43307 160.24582 99.41075 160.343 99.38762 160.44019 99.36502 160.53736 99.34215 160.63452 99.31903 160.7317 99.29617 160.82889 99.27356 160.92607 99.25098 161.02324 99.22838 161.12042 99.2058 161.21759 99.18373 161.31478 99.16113 161.41196 99.13881 161.50913 99.11621 161.60631 99.0947 161.70348 99.07237 161.80068 99.05031 161.89785 99.02852 161.99501 99.00594 162.0922 98.98334 162.18936 98.96129 162.28656 98.93895 162.38373 98.91718 162.48091 98.89511 162.57808 98.87332 162.67525 98.85127 162.77245 98.83002 162.86962 98.80823 162.9668 98.7867 163.06397 98.76492 163.16115 98.74313 163.25833 98.72241 163.3555 98.70064 163.45269 98.67885 163.54985 98.65706 163.64704 98.6358 163.74422 98.61429 163.8414 98.5933 163.93857 98.5718 164.03574 98.55081 164.13292 98.5293 164.2301 98.50859 164.32729 98.48706 164.42446 98.46635 164.52164 98.44537 164.6188 98.42438 164.71599 98.4034 164.81317 98.38242 164.91034 98.36197 165.00753 98.341 165.10469 98.32002 165.20189 98.29958 165.29906 98.2786 165.39623 98.25761 165.49341 98.23717 165.59058 98.21619 165.68778 98.19601 165.78495 98.17557 165.88213 98.15486 165.9793 98.13469 166.07646 98.11452 166.17366 98.09435 166.27083 98.0739 166.36801 98.05373 166.46518 98.03355 166.56237 98.01338 166.65955 97.99348 166.75672 97.97331 166.8539 97.95314 166.95107 97.9327 167.04825 97.91278 167.14543 97.89287 167.2426 97.8727 167.33979 97.85252 167.43695 97.83289 167.53414 97.81326 167.63132 97.7939 167.7285 97.77373 167.82567 97.75407 167.92284 97.73471 168.02002 97.71507 168.1172 97.69571 168.21439 97.67607 168.31156 97.65724 168.40874 97.6376 168.5059 97.61824 168.60309 97.59888 168.70027 97.57924 168.79744 97.5596 168.89463 97.54079 168.99179 97.52086 169.08899 97.50258 169.18616 97.48268 169.28333 97.46384 169.38051 97.44475 169.47768 97.42592 169.57488 97.40681 169.67205 97.388 169.76923 97.36917 169.8664 97.3506 169.96356 97.33124 170.06076 97.31241 170.15793 97.29411 170.25511 97.27556 170.35228 97.257 170.44947 97.23871 170.54665 97.2196 170.64382 97.20132 170.741 97.18275 170.83817 97.16393 170.93535 97.14511 171.03253 97.12708 171.12972 97.1085 171.22689 97.08997 171.32405 97.07166 171.42124 97.05392 171.51842 97.03508 171.6156 97.01706 171.71277 96.99876 171.80995 96.98076 171.90712 96.96272 172.0043 96.94524 172.10149 96.92696 172.19866 96.90892 172.29584 96.89145 172.393 96.87343 172.4902 96.85515 172.58737 96.83766 172.68454 96.81963 172.78173 96.8016 172.87889 96.78386 172.97609 96.76582 173.07326 96.74863 173.17044 96.73059 173.26761 96.71283 173.36478 96.6951 173.46198 96.67815 173.55915 96.66039 173.65633 96.64317 173.7535 96.6257 173.85068 96.60822 173.94786 96.59045 174.04503 96.57378 174.14221 96.55603 174.23938 96.5388 174.33657 96.52159 174.43375 96.50464 174.53093 96.48744 174.6281 96.47023 174.72527 96.45355 174.82245 96.43579 174.91963 96.41884 175.01682 96.40164 175.11399 96.38496 175.21117 96.36801 175.30834 96.35078 175.40552 96.33357 175.5027 96.31717 175.59987 96.29996 175.69705 96.28355 175.79422 96.2666 175.89142 96.25047 175.98859 96.23352 176.08576 96.21657 176.18294 96.20016 176.2801 96.18375 176.3773 96.16734 176.47447 96.15094 176.57166 96.13452 176.66883 96.11812 176.76599 96.10117 176.86319 96.08476 176.96036 96.06836 177.05754 96.05249 177.15471 96.03554 177.25189 96.01967 177.34908 96.00352 177.44625 95.98712 177.54343 95.97072 177.6406 95.95457 177.73778 95.9387 177.83496 95.9223 177.93215 95.90616 178.02931 95.89029 178.12648 95.87442 178.22367 95.85883 178.32085 95.84267 178.41803 95.82681 178.5152 95.81067 178.61238 95.79506 178.70955 95.77946 178.80673 95.76387 178.90392 95.748 179.00109 95.73239 179.09827 95.7168 179.19544 95.70065 179.29262 95.68506 179.3898 95.67 179.48697 95.6544 179.58415 95.63826 179.68132 95.62265 179.77852 95.60706 179.87569 95.59145 179.97286 95.57639 180.07004 95.56079 180.1672 95.54572 180.2644 95.52985 180.36157 95.51506 180.45876 95.49947 180.55593 95.48439 180.65309 95.46933 180.75029 95.45401 180.84746 95.43893 180.94464 95.4236 181.04181 95.40881 181.13899 95.39401 181.23618 95.37895 181.33335 95.36362 181.43053 95.34882 181.5277 95.3343 181.62488 95.31897 181.72206 95.30417 181.81925 95.28938 181.91641 95.27405 182.01358 95.25952 182.11077 95.24474 182.20795 95.2294 182.30513 95.21487 182.4023 95.20009 182.49948 95.18555 182.59665 95.17076 182.69384 95.15651 182.79102 95.14116 182.88819 95.12692 182.98537 95.11212 183.08254 95.09732 183.17974 95.08308 183.2769 95.06854 183.37407 95.05429 183.47126 95.04004 183.56842 95.02551 183.66562 95.01152 183.76279 94.99727 183.85997 94.98274 183.95714 94.96877 184.0543 94.9545 184.1515 94.94025 184.24868 94.92572 184.34586 94.91147 184.44303 94.89801 184.5402 94.88321 184.63739 94.86868 184.73456 94.85524 184.83174 94.84099 184.92891 94.82645 185.0261 94.81302 185.12328 94.79848 185.22046 94.78505 185.31763 94.77106 185.4148 94.7576 185.51198 94.74307 185.60916 94.72963 185.70635 94.71564 185.80352 94.70166 185.9007 94.6882 185.99787 94.67368 186.09505 94.66104 186.19223 94.64677 186.2894 94.63307 186.38658 94.61961 186.48375 94.60616 186.58095 94.59245 186.67812 94.579 186.77529 94.56554 186.87247 94.55237 186.96964 94.53918 187.06684 94.52519 187.164 94.51173 187.26119 94.49803 187.35836 94.48457 187.45552 94.47113 187.55272 94.45796 187.64989 94.44478 187.74707 94.4316 187.84424 94.41814 187.94142 94.40443 188.0386 94.39098 188.13578 94.37779 188.23296 94.36488 188.33013 94.35144 188.4273 94.33853 188.52449 94.3256 188.62168 94.3127 188.71884 94.29951 188.81601 94.28635 188.9132 94.27316 189.01038 94.25998 189.10756 94.24788 189.20473 94.2347 189.30191 94.22177 189.39908 94.20888 189.49626 94.19542 189.59345 94.18279 189.69062 94.17068 189.7878 94.15749 189.88497 94.14485 189.98217 94.13193 190.07933 94.11877 190.1765 94.10585 190.27368 94.09348 190.37085 94.08057 190.46805 94.06847 190.56522 94.05554 190.6624 94.04291 190.75957 94.03026 190.85674 94.01762 190.95394 94.00471 191.0511 93.99289 191.14829 93.98024 191.24546 93.96786 191.34262 93.95523 191.43982 93.94286 191.53699 93.93048 191.63417 93.91838 191.73134 93.90492 191.82852 93.89308 191.9257 93.8807 192.02288 93.8686 192.12006 93.8565 192.21723 93.8444 192.3144 93.83229 192.41159 93.81966 192.50878 93.80782 192.60594 93.79544 192.70311 93.78307 192.8003 93.77124 192.89748 93.7594 192.99466 93.7473 193.09183 93.7352 193.18901 93.7231 193.28618 93.711 193.38336 93.69862 193.48055 93.68677 193.57772 93.67467 193.6749 93.66283 193.77207 93.65045 193.86927 93.63863 193.96643 93.62679 194.0636 93.61496 194.16078 93.6034 194.25795 93.59155"/>
</g>
<use data-text="x" xlink:href="#font_4_1" transform="matrix(9.962799,0,0,-9.962799,191.68456,78.95525)"/>
<use data-text="y" xlink:href="#font_4_2" transform="matrix(9.962799,0,0,-9.962799,107.25386,9.582855)"/>
</svg>
