<svg xmlns="http://www.w3.org/2000/svg" xmlns:xlink="http://www.w3.org/1999/xlink" xmlns:inkscape="http://www.inkscape.org/namespaces/inkscape" version="1.1" width="249" height="189" viewBox="0 0 249 189">
<defs>
<path id="font_1_1" d="M.6589966 .23046875C.6759949 .23046875 .69400027 .23046875 .69400027 .25045777 .69400027 .27046205 .6759949 .27046205 .6589966 .27046205H.117996219C.100997928 .27046205 .08299255 .27046205 .08299255 .25045777 .08299255 .23046875 .100997928 .23046875 .117996219 .23046875H.6589966Z"/>
<path id="font_2_4" d="M.2899933 .35191346C.37199403 .37893678 .42999269 .4490509 .42999269 .52809146 .42999269 .6100464 .34199525 .6660156 .24598694 .6660156 .14498902 .6660156 .068984989 .60606387 .068984989 .53009036 .068984989 .49710084 .09098816 .47808839 .11999512 .47808839 .15098572 .47808839 .17098999 .50009158 .17098999 .5290985 .17098999 .57910159 .12399292 .57910159 .10899353 .57910159 .13999939 .62802127 .20599365 .64100649 .24198914 .64100649 .2829895 .64100649 .33799745 .6190338 .33799745 .5290985 .33799745 .51708987 .33599855 .45906068 .30999757 .4149933 .27999879 .36691285 .24598694 .36390687 .22099304 .36291505 .21299744 .36190797 .18899536 .35990907 .18199158 .35990907 .17399597 .35890199 .16699219 .35791017 .16699219 .3479004 .16699219 .33691407 .17399597 .33691407 .19099427 .33691407H.23498535C.31698609 .33691407 .35398866 .2686615 .35398866 .17037964 .35398866 .034469606 .2849884 .0055389406 .24099732 .0055389406 .19799805 .0055389406 .12298584 .022491456 .08799744 .08137512 .12298584 .07637024 .1539917 .09837341 .1539917 .1363678 .1539917 .17237854 .1269989 .19238281 .09799194 .19238281 .07398987 .19238281 .041992189 .17837525 .041992189 .1343689 .041992189 .043441774 .1349945-.022460938 .24398804-.022460938 .3659973-.022460938 .45700074 .06838989 .45700074 .17037964 .45700074 .252594 .3939972 .33088685 .2899933 .35191346Z"/>
<path id="font_2_3" d="M.1269989 .07699585 .23298645 .18003845C.3889923 .31811524 .44898988 .3721466 .44898988 .47216798 .44898988 .5860901 .35899354 .6660156 .23699951 .6660156 .12399292 .6660156 .049987794 .57411196 .049987794 .48516847 .049987794 .4291687 .099990848 .4291687 .102996829 .4291687 .11999512 .4291687 .15499878 .44117738 .15499878 .48217774 .15499878 .5081787 .13699341 .5341797 .101989749 .5341797 .09399414 .5341797 .09199524 .5341797 .08898926 .5331726 .11199951 .59806826 .1659851 .63500979 .22399903 .63500979 .31498719 .63500979 .35798646 .5541382 .35798646 .47216798 .35798646 .39215089 .30799867 .31311036 .25299073 .25108338L.06098938 .036987306C.049987794 .025985718 .049987794 .023986817 .049987794 0H.42099L.44898988 .17404175H.42399598C.4189911 .14402771 .4119873 .1000061 .4019928 .084991458 .394989 .07699585 .32899476 .07699585 .30699159 .07699585H.1269989Z"/>
<path id="font_2_2" d="M.2939911 .64004519C.2939911 .66400149 .2939911 .6660156 .2709961 .6660156 .20899964 .60227969 .12098694 .60227969 .08898926 .60227969V.57128909C.10899353 .57128909 .16799927 .57128909 .21998596 .5972748V.07902527C.21998596 .042999269 .21699524 .0309906 .1269989 .0309906H.09498596V0C.12998963 .0029907227 .21699524 .0029907227 .25698854 .0029907227 .29699708 .0029907227 .38398744 .0029907227 .4189911 0V.0309906H.3869934C.29699708 .0309906 .2939911 .041992189 .2939911 .07902527V.64004519Z"/>
<path id="font_2_5" d="M.2939911 .16503906V.07800293C.2939911 .041992189 .2919922 .0309906 .21798706 .0309906H.19699097V0C.23799134 .0029907227 .2899933 .0029907227 .33198548 .0029907227 .37399293 .0029907227 .4269867 .0029907227 .46798707 0V.0309906H.44699098C.37298585 .0309906 .37098695 .041992189 .37098695 .07800293V.16503906H.47099305V.19602967H.37098695V.65075686C.37098695 .67074587 .37098695 .6767578 .35499574 .6767578 .34599305 .6767578 .34298707 .6767578 .33499146 .66474917L.027999878 .19602967V.16503906H.2939911M.2999878 .19602967H.055999757L.2999878 .5688019V.19602967Z"/>
<path id="font_2_6" d="M.13198853 .327713V.35173036C.13198853 .6047821 .2559967 .64100649 .30699159 .64100649 .33099366 .64100649 .37298585 .634964 .394989 .6007538 .37998963 .6007538 .33999635 .6007538 .33999635 .5557556 .33999635 .524765 .3639984 .5097656 .38598634 .5097656 .4019928 .5097656 .43199159 .51875308 .43199159 .5577545 .43199159 .6178589 .3880005 .6660156 .30499269 .6660156 .1769867 .6660156 .041992189 .5367584 .041992189 .31570436 .041992189 .048553468 .1579895-.022460938 .25099183-.022460938 .3619995-.022460938 .45700074 .07156372 .45700074 .2036438 .45700074 .33070375 .36799623 .4267578 .25698854 .4267578 .18899536 .4267578 .1519928 .37573243 .13198853 .327713M.25099183 .0055389406C.18798828 .0055389406 .1579895 .06556702 .1519928 .080566409 .13398743 .127594 .13398743 .2076416 .13398743 .22564698 .13398743 .30369569 .1659851 .40374757 .2559967 .40374757 .27198792 .40374757 .31799317 .40374757 .34899903 .34172059 .36698915 .30470277 .36698915 .2536621 .36698915 .20463562 .36698915 .15661621 .36698915 .10658264 .34999085 .0705719 .31999208 .010528564 .27398683 .0055389406 .25099183 .0055389406Z"/>
<path id="font_2_7" d="M.16299439 .4569702C.116989139 .486969 .11299133 .52098086 .11299133 .5379791 .11299133 .598999 .17799378 .64100649 .24899292 .64100649 .32199098 .64100649 .38598634 .58898928 .38598634 .51698306 .38598634 .45996095 .34700013 .4119568 .2869873 .37695313L.16299439 .4569702M.30899049 .36193849C.3809967 .3989563 .42999269 .45095826 .42999269 .51698306 .42999269 .6090088 .34098817 .6660156 .25 .6660156 .1499939 .6660156 .068984989 .59199526 .068984989 .49897767 .068984989 .4809723 .070999149 .43595887 .11299133 .38894654 .12399292 .37695313 .16099549 .35194398 .18598938 .33494569 .12799073 .30592347 .041992189 .24984741 .041992189 .15072632 .041992189 .04458618 .14399719-.022460938 .24899292-.022460938 .3619995-.022460938 .45700074 .06060791 .45700074 .16773987 .45700074 .20379639 .44599916 .24885559 .4079895 .2909088 .3889923 .31193543 .37298585 .3219452 .30899049 .36193849M.20899964 .3199463 .33198548 .24183655C.3600006 .2228241 .40699769 .19277954 .40699769 .13169861 .40699769 .05760193 .33198548 .0055389406 .25 .0055389406 .1639862 .0055389406 .09199524 .067611698 .09199524 .15072632 .09199524 .20880127 .12399292 .27288819 .20899964 .3199463Z"/>
<path id="font_2_1" d="M.45999146 .31976319C.45999146 .39982606 .45498658 .47988893 .41999818 .5539398 .37399293 .65000918 .2919922 .6660156 .25 .6660156 .18998719 .6660156 .116989139 .64001467 .07598877 .54693606 .04399109 .47789 .038986207 .39982606 .038986207 .31976319 .038986207 .24472046 .042999269 .15464783 .083999637 .07859802 .1269989-.0024719239 .19999695-.022460938 .24899292-.022460938 .30299378-.022460938 .3789978-.0014648438 .4229889 .09359741 .45498658 .16265869 .45999146 .2407074 .45999146 .31976319M.24899292-.00047302247C.20999146-.00047302247 .15098572 .024551392 .1329956 .12062073 .12199402 .18066406 .12199402 .2727356 .12199402 .3317871 .12199402 .39582826 .12199402 .46188355 .12998963 .5159149 .14898682 .63500979 .22399903 .64401248 .24899292 .64401248 .28199769 .64401248 .34799195 .6259918 .36698915 .52693179 .3769989 .47088624 .3769989 .39482118 .3769989 .3317871 .3769989 .25672914 .3769989 .18867493 .3659973 .12461853 .35099793 .029556275 .2939911-.00047302247 .24899292-.00047302247Z"/>
<clipPath id="clip_3">
<path transform="matrix(1.0001,0,0,-1,6.5832598,187.06801)" d="M0 0H238.6285V181.9403H0Z"/>
</clipPath>
<path id="font_4_1" d="M.33399964 .30233766C.33999635 .32835389 .36299134 .42037965 .43299867 .42037965 .43798829 .42037965 .46199037 .42037965 .48298646 .40734864 .45498658 .402359 .43499757 .37734986 .43499757 .35334779 .43499757 .33735658 .44599916 .31835938 .47299195 .31835938 .49499513 .31835938 .5269928 .3363495 .5269928 .37635804 .5269928 .42837525 .46798707 .4423828 .43399049 .4423828 .37599183 .4423828 .34098817 .38935853 .32899476 .36634828 .3039856 .43237306 .25 .4423828 .22099304 .4423828 .116989139 .4423828 .05999756 .3133545 .05999756 .28834535 .05999756 .27833558 .069992069 .27833558 .07199097 .27833558 .07998657 .27833558 .08299255 .28033448 .084991458 .28933717 .11898804 .39535523 .18499756 .42037965 .21899414 .42037965 .23799134 .42037965 .272995 .4113617 .272995 .35334779 .272995 .32235719 .2559967 .25532533 .21899414 .11528015 .20298767 .053268434 .16799927 .011245728 .12399292 .011245728 .117996219 .011245728 .09498596 .011245728 .07398987 .024276734 .09899902 .029266358 .12098694 .05027771 .12098694 .07827759 .12098694 .105270389 .09899902 .11328125 .083999637 .11328125 .053985597 .11328125 .0289917 .08728027 .0289917 .055267335 .0289917 .009246826 .07899475-.0107421879 .12298584-.0107421879 .18899536-.0107421879 .22499085 .059280397 .22799683 .0652771 .23999024 .028274537 .27598573-.0107421879 .33599855-.0107421879 .43899537-.0107421879 .49598695 .118270877 .49598695 .14328003 .49598695 .1532898 .4869995 .1532898 .48399354 .1532898 .47499085 .1532898 .47299195 .14929199 .47099305 .14228821 .43798829 .03527832 .36999513 .011245728 .33799745 .011245728 .29899598 .011245728 .2829895 .043273927 .2829895 .07727051 .2829895 .09927368 .2889862 .121276859 .2999878 .16529846L.33399964 .30233766Z"/>
<path id="font_4_2" d="M.48599244 .38136292C.48999024 .39537049 .48999024 .39736939 .48999024 .40437318 .48999024 .42237855 .47599793 .43138124 .46099855 .43138124 .45098878 .43138124 .43499757 .42536927 .42599488 .41036988 .42399598 .405365 .41600038 .37435914 .4119873 .35635377 .40499879 .33035279 .397995 .30334474 .3919983 .27633668L.34700013 .09628296C.34298707 .08126831 .2999878 .011245728 .23399353 .011245728 .18299866 .011245728 .17199707 .055267335 .17199707 .0922699 .17199707 .1382904 .18899536 .20030213 .22299195 .28833009 .23899842 .3293457 .24299622 .3403473 .24299622 .36035157 .24299622 .405365 .21099854 .4423828 .16099549 .4423828 .06599426 .4423828 .0289917 .29733277 .0289917 .28833009 .0289917 .27833558 .038986207 .27833558 .040985109 .27833558 .050994874 .27833558 .051986696 .28033448 .056991579 .29634095 .083999637 .3903656 .12399292 .42037965 .1579895 .42037965 .1659851 .42037965 .18299866 .42037965 .18299866 .3883667 .18299866 .36335755 .17298889 .3373413 .1659851 .31834413 .12599182 .21231079 .10798645 .1552887 .10798645 .10827637 .10798645 .019256592 .17098999-.0107421879 .22999573-.0107421879 .2689972-.0107421879 .30299378 .0062561037 .33099366 .03425598 .31799317-.017745972 .30599977-.06674194 .2659912-.11973572 .23999024-.15385437 .20199585-.18309021 .1559906-.18309021 .14199829-.18309021 .09700012-.18005371 .07998657-.14074707 .09599304-.14074707 .10899353-.14074707 .12298584-.1287384 .1329956-.11973572 .14299011-.10673523 .14299011-.08773804 .14299011-.056747438 .115997318-.052734376 .10598755-.052734376 .08299255-.052734376 .049987794-.068740848 .049987794-.11773682 .049987794-.16796875 .09399414-.20507813 .1559906-.20507813 .25898744-.20507813 .3619995-.11373901 .3899994-.00074768069L.48599244 .38136292Z"/>
</defs>
<path transform="matrix(1.0001,0,0,-1,6.5832598,187.06801)" stroke-width=".3985" stroke-linecap="butt" stroke-miterlimit="10" stroke-linejoin="miter" fill="none" stroke="#bfbfbf" d="M0 0V181.9403M39.77141 0V181.9403M79.54283 0V181.9403M159.08567 0V181.9403M198.85707 0V181.9403M238.6285 0V181.9403"/>
<path transform="matrix(1.0001,0,0,-1,6.5832598,187.06801)" stroke-width=".3985" stroke-linecap="butt" stroke-miterlimit="10" stroke-linejoin="miter" fill="none" stroke="#bfbfbf" d="M0 12.12935H238.6285M0 36.38806H238.6285M0 84.90547H238.6285M0 109.16418H238.6285M0 133.4229H238.6285M0 157.6816H238.6285M0 181.9403H238.6285"/>
<path transform="matrix(1.0001,0,0,-1,6.5832598,187.06801)" stroke-width=".19925" stroke-linecap="butt" stroke-miterlimit="10" stroke-linejoin="miter" fill="none" stroke="#7f807f" d="M0 58.52057V62.77295M39.77141 58.52057V62.77295M79.54283 58.52057V62.77295M159.08567 58.52057V62.77295M198.85707 58.52057V62.77295M238.6285 58.52057V62.77295"/>
<path transform="matrix(1.0001,0,0,-1,6.5832598,187.06801)" stroke-width=".19925" stroke-linecap="butt" stroke-miterlimit="10" stroke-linejoin="miter" fill="none" stroke="#7f807f" d="M117.18823 12.12935H121.44023M117.18823 36.38806H121.44023M117.18823 84.90547H121.44023M117.18823 109.16418H121.44023M117.18823 133.4229H121.44023M117.18823 157.6816H121.44023M117.18823 181.9403H121.44023"/>
<path transform="matrix(1.0001,0,0,-1,6.5832598,187.06801)" stroke-width=".3985" stroke-linecap="butt" stroke-miterlimit="10" stroke-linejoin="miter" fill="none" stroke="#000000" d="M0 60.64676H236.63597"/>
<path transform="matrix(1.0001,0,0,-1,243.24289,126.42125)" d="M1.99252 0-1.19551 1.59401 0 0-1.19551-1.59401"/>
<path transform="matrix(1.0001,0,0,-1,6.5832598,187.06801)" stroke-width=".3985" stroke-linecap="butt" stroke-miterlimit="10" stroke-linejoin="miter" fill="none" stroke="#000000" d="M119.31424 0V179.94779"/>
<path transform="matrix(0,-1,-1.0001,-0,125.90943,7.120224)" d="M1.99252 0-1.19551 1.59401 0 0-1.19551-1.59401"/>
<use data-text="&#x2212;" xlink:href="#font_1_1" transform="matrix(9.963596,0,0,-9.9626,.21762085,138.488)"/>
<use data-text="3" xlink:href="#font_2_4" transform="matrix(9.963596,0,0,-9.9626,7.967392,138.488)"/>
<use data-text="&#x2212;" xlink:href="#font_1_1" transform="matrix(9.963596,0,0,-9.9626,39.9926,138.488)"/>
<use data-text="2" xlink:href="#font_2_3" transform="matrix(9.963596,0,0,-9.9626,47.74237,138.488)"/>
<use data-text="&#x2212;" xlink:href="#font_1_1" transform="matrix(9.963596,0,0,-9.9626,79.76858,138.488)"/>
<use data-text="1" xlink:href="#font_2_2" transform="matrix(9.963596,0,0,-9.9626,87.51835,138.488)"/>
<use data-text="1" xlink:href="#font_2_2" transform="matrix(9.963596,0,0,-9.9626,163.19391,138.488)"/>
<use data-text="2" xlink:href="#font_2_3" transform="matrix(9.963596,0,0,-9.9626,202.9689,138.488)"/>
<use data-text="3" xlink:href="#font_2_4" transform="matrix(9.963596,0,0,-9.9626,242.74488,138.488)"/>
<use data-text="&#x2212;" xlink:href="#font_1_1" transform="matrix(9.963596,0,0,-9.9626,107.53136,177.73401)"/>
<use data-text="4" xlink:href="#font_2_5" transform="matrix(9.963596,0,0,-9.9626,115.28113,177.73401)"/>
<use data-text="&#x2212;" xlink:href="#font_1_1" transform="matrix(9.963596,0,0,-9.9626,107.53136,153.475)"/>
<use data-text="2" xlink:href="#font_2_3" transform="matrix(9.963596,0,0,-9.9626,115.28113,153.475)"/>
<use data-text="2" xlink:href="#font_2_3" transform="matrix(9.963596,0,0,-9.9626,115.28113,105.37301)"/>
<use data-text="4" xlink:href="#font_2_5" transform="matrix(9.963596,0,0,-9.9626,115.28113,81.114009)"/>
<use data-text="6" xlink:href="#font_2_6" transform="matrix(9.963596,0,0,-9.9626,115.28113,56.85501)"/>
<use data-text="8" xlink:href="#font_2_7" transform="matrix(9.963596,0,0,-9.9626,115.28113,32.597017)"/>
<use data-text="1" xlink:href="#font_2_2" transform="matrix(9.963596,0,0,-9.9626,110.29964,8.338013)"/>
<use data-text="0" xlink:href="#font_2_1" transform="matrix(9.963596,0,0,-9.9626,115.28143,8.338013)"/>
<g clip-path="url(#clip_3)">
<path transform="matrix(1.0001,0,0,-1,6.5832598,187.06801)" stroke-width="1.99255" stroke-linecap="butt" stroke-miterlimit="10" stroke-linejoin="miter" fill="none" stroke="#0000ff" d="M0 351.75129 1.19913 332.44017 2.39825 313.98988 3.5974 296.37788 4.79654 279.5837 5.99568 263.5853 7.19481 248.36243 8.39395 233.89473 9.5931 220.16109 10.79222 207.14206 11.99138 194.81719 13.1905 183.16704 14.38963 172.17244 15.58879 161.8137 16.78792 152.07254 17.98706 142.92957 19.1862 134.3667 20.38533 126.36589 21.58447 118.90874 22.78362 111.97795 23.98276 105.5557 25.18188 99.62479 26.38103 94.16841 27.58017 89.16959 28.7793 84.6119 29.97844 80.47896 31.17758 76.75479 32.37672 73.42363 33.57585 70.4698 34.775 67.87808 35.97414 65.63332 37.17326 63.72067 38.37242 62.12555 39.57155 60.8336 40.77068 59.83069 41.96983 59.1029 43.16896 58.63669 44.3681 58.41853 45.56725 58.43533 46.76637 58.67416 47.96552 59.12236 49.16464 59.76747 50.3638 60.59726 51.56293 61.59982 52.76207 62.76338 53.96121 64.07655 55.16034 65.52805 56.35948 67.1068 57.55862 68.80219 58.75777 70.60356 59.9569 72.50076 61.15604 74.48373 62.35518 76.54256 63.5543 78.6679 64.75346 80.85022 65.95259 83.08064 67.15172 85.35025 68.35088 87.65036 69.55 89.97282 70.74915 92.30934 71.94829 94.65216 73.14743 96.99367 74.34656 99.32632 75.54568 101.64314 76.74484 103.93713 77.94397 106.20172 79.14311 108.43037 80.34225 110.61693 81.54138 112.75551 82.74052 114.84032 83.93967 116.86594 85.13881 118.82718 86.33794 120.71901 87.5371 122.53671 88.73622 124.2758 89.93536 125.93193 91.1345 127.50124 92.33365 128.97982 93.53278 130.36412 94.73193 131.65099 95.93108 132.83716 97.1302 133.91996 98.32933 134.8968 99.52849 135.76537 100.72762 136.52344 101.92676 137.16931 103.1259 137.7013 104.32504 138.118 105.52417 138.41832 106.72333 138.60138 107.92245 138.6665 109.1216 138.61331 110.32074 138.4416 111.51988 138.15148 112.71901 137.74317 113.91817 137.2173 115.1173 136.57469 116.31644 135.81632 117.51558 134.94347 118.7147 133.95758 119.91385 132.86055 121.11299 131.65427 122.31213 130.34104 123.51128 128.92327 124.7104 127.40369 125.90956 125.78534 127.10869 124.0713 128.30783 122.26515 129.50698 120.3704 130.70612 118.39108 131.90525 116.33131 133.1044 114.19554 134.30353 111.98831 135.50267 109.7146 136.70182 107.37953 137.90096 104.98839 139.10009 102.54684 140.29923 100.06067 141.49837 97.53606 142.69751 94.97922 143.89665 92.39676 145.0958 89.79556 146.29492 87.18256 147.49407 84.56514 148.6932 81.95076 149.89235 79.34715 151.09148 76.76245 152.29062 74.20483 153.48976 71.68279 154.6889 69.20502 155.88805 66.78055 157.08718 64.41856 158.28632 62.12851 159.48548 59.9201 160.6846 57.8033 161.88373 55.7882 163.08289 53.88527 164.28202 52.10518 165.48116 50.45879 166.6803 48.95721 167.87943 47.6119 169.07857 46.4344 170.2777 45.43663 171.47686 44.63063 172.67598 44.02875 173.87512 43.6436 175.07427 43.48802 176.27339 43.57506 177.47254 43.91792 178.67168 44.53029 179.87082 45.42577 181.06995 46.61864 182.26909 48.12302 183.46823 49.95325 184.66736 52.1244 185.86652 54.6512 187.06565 57.54904 188.26477 60.83337 189.46393 64.51967 190.66306 68.62425 191.8622 73.1629 193.06133 78.15248 194.26049 83.6095 195.45961 89.55046 196.65874 95.9932 197.8579 102.95451 199.05702 110.45253 200.25617 118.50491 201.4553 127.12936 202.65444 136.34511 203.85358 146.16971 205.05272 156.62297 206.25186 167.72359 207.45099 179.49037 208.65013 191.94382 209.84928 205.1027 211.0484 218.98816 212.24756 233.61998 213.44669 249.01786 214.64582 265.20408 215.84497 282.19807 217.0441 300.0227 218.24324 318.6986 219.44237 338.24678 220.64153 358.69075 221.84066 380.05079 223.03978 402.35157 224.23894 425.61479 225.43807 449.86198 226.6372 475.11863 227.83635 501.40596 229.03548 528.75009 230.23462 557.17367 231.43376 586.69906 232.6329 617.35397 233.83203 649.1594 235.03118 682.144 236.23032 716.331 237.42945 751.74398 238.6286 788.4114"/>
</g>
<use data-text="x" xlink:href="#font_4_1" transform="matrix(9.963596,0,0,-9.9626,236.0622,122.89101)"/>
<use data-text="y" xlink:href="#font_4_2" transform="matrix(9.963596,0,0,-9.9626,129.45755,12.902008)"/>
</svg>
