<svg xmlns="http://www.w3.org/2000/svg" xmlns:xlink="http://www.w3.org/1999/xlink" xmlns:inkscape="http://www.inkscape.org/namespaces/inkscape" version="1.1" width="241" height="193" viewBox="0 0 241 193">
<defs>
<path id="font_1_1" d="M.6589966 .23046875C.6759949 .23046875 .69400027 .23046875 .69400027 .25045777 .69400027 .27046205 .6759949 .27046205 .6589966 .27046205H.117996219C.100997928 .27046205 .08299255 .27046205 .08299255 .25045777 .08299255 .23046875 .100997928 .23046875 .117996219 .23046875H.6589966Z"/>
<path id="font_2_4" d="M.2939911 .16503906V.07800293C.2939911 .041992189 .2919922 .0309906 .21798706 .0309906H.19699097V0C.23799134 .0029907227 .2899933 .0029907227 .33198548 .0029907227 .37399293 .0029907227 .4269867 .0029907227 .46798707 0V.0309906H.44699098C.37298585 .0309906 .37098695 .041992189 .37098695 .07800293V.16503906H.47099305V.19602967H.37098695V.65075686C.37098695 .67074587 .37098695 .6767578 .35499574 .6767578 .34599305 .6767578 .34298707 .6767578 .33499146 .66474917L.027999878 .19602967V.16503906H.2939911M.2999878 .19602967H.055999757L.2999878 .5688019V.19602967Z"/>
<path id="font_2_3" d="M.1269989 .07699585 .23298645 .18003845C.3889923 .31811524 .44898988 .3721466 .44898988 .47216798 .44898988 .5860901 .35899354 .6660156 .23699951 .6660156 .12399292 .6660156 .049987794 .57411196 .049987794 .48516847 .049987794 .4291687 .099990848 .4291687 .102996829 .4291687 .11999512 .4291687 .15499878 .44117738 .15499878 .48217774 .15499878 .5081787 .13699341 .5341797 .101989749 .5341797 .09399414 .5341797 .09199524 .5341797 .08898926 .5331726 .11199951 .59806826 .1659851 .63500979 .22399903 .63500979 .31498719 .63500979 .35798646 .5541382 .35798646 .47216798 .35798646 .39215089 .30799867 .31311036 .25299073 .25108338L.06098938 .036987306C.049987794 .025985718 .049987794 .023986817 .049987794 0H.42099L.44898988 .17404175H.42399598C.4189911 .14402771 .4119873 .1000061 .4019928 .084991458 .394989 .07699585 .32899476 .07699585 .30699159 .07699585H.1269989Z"/>
<path id="font_2_2" d="M.2939911 .64004519C.2939911 .66400149 .2939911 .6660156 .2709961 .6660156 .20899964 .60227969 .12098694 .60227969 .08898926 .60227969V.57128909C.10899353 .57128909 .16799927 .57128909 .21998596 .5972748V.07902527C.21998596 .042999269 .21699524 .0309906 .1269989 .0309906H.09498596V0C.12998963 .0029907227 .21699524 .0029907227 .25698854 .0029907227 .29699708 .0029907227 .38398744 .0029907227 .4189911 0V.0309906H.3869934C.29699708 .0309906 .2939911 .041992189 .2939911 .07902527V.64004519Z"/>
<path id="font_3_1" d="M.20298767 .0009918213C.20298767 .066986087 .17799378 .10598755 .13899231 .10598755 .10598755 .10598755 .085998538 .08099365 .085998538 .052993776 .085998538 .025985718 .10598755 0 .13899231 0 .15098572 0 .1639862 .0039978029 .17399597 .0129852299 .1769867 .01499939 .17799378 .015991211 .1789856 .015991211 .17999268 .015991211 .18099976 .01499939 .18099976 .0009918213 .18099976-.07316589 .1459961-.13328552 .11299133-.16635132 .101989749-.17736817 .101989749-.17936707 .101989749-.18237305 .101989749-.18936157 .10699463-.19335938 .11199951-.19335938 .12298584-.19335938 .20298767-.116256717 .20298767 .0009918213Z"/>
<path id="font_2_1" d="M.45999146 .31976319C.45999146 .39982606 .45498658 .47988893 .41999818 .5539398 .37399293 .65000918 .2919922 .6660156 .25 .6660156 .18998719 .6660156 .116989139 .64001467 .07598877 .54693606 .04399109 .47789 .038986207 .39982606 .038986207 .31976319 .038986207 .24472046 .042999269 .15464783 .083999637 .07859802 .1269989-.0024719239 .19999695-.022460938 .24899292-.022460938 .30299378-.022460938 .3789978-.0014648438 .4229889 .09359741 .45498658 .16265869 .45999146 .2407074 .45999146 .31976319M.24899292-.00047302247C.20999146-.00047302247 .15098572 .024551392 .1329956 .12062073 .12199402 .18066406 .12199402 .2727356 .12199402 .3317871 .12199402 .39582826 .12199402 .46188355 .12998963 .5159149 .14898682 .63500979 .22399903 .64401248 .24899292 .64401248 .28199769 .64401248 .34799195 .6259918 .36698915 .52693179 .3769989 .47088624 .3769989 .39482118 .3769989 .3317871 .3769989 .25672914 .3769989 .18867493 .3659973 .12461853 .35099793 .029556275 .2939911-.00047302247 .24899292-.00047302247Z"/>
<path id="font_2_5" d="M.44898988 .20022583C.44898988 .3193512 .36698915 .41944886 .25898744 .41944886 .21099854 .41944886 .16799927 .40345765 .13198853 .36842347V.5637665C.1519928 .5577698 .18499756 .55078127 .21699524 .55078127 .33999635 .55078127 .4099884 .6417694 .4099884 .6547699 .4099884 .6607666 .40699769 .6657715 .3999939 .6657715 .39898683 .6657715 .39698792 .6657715 .3919983 .66278079 .37199403 .6537781 .32299806 .6337738 .2559967 .6337738 .21598816 .6337738 .16999817 .6407776 .12298584 .6617737 .114990238 .66477969 .11299133 .66477969 .11099243 .66477969 .100997928 .66477969 .100997928 .6567688 .100997928 .6407776V.34439088C.100997928 .32637025 .100997928 .31835938 .114990238 .31835938 .12199402 .31835938 .12399292 .32136537 .12799073 .32736207 .13899231 .3433838 .17599488 .39746095 .25698854 .39746095 .30899049 .39746095 .33399964 .35139466 .34199525 .33337403 .35798646 .29632569 .3600006 .25727845 .3600006 .20722962 .3600006 .17222595 .3600006 .11222839 .33599855 .07035828 .31199647 .031463624 .2749939 .0055389406 .22898865 .0055389406 .1559906 .0055389406 .09899902 .058380128 .08198547 .11723328 .084991458 .1162262 .08799744 .115234378 .09899902 .115234378 .13198853 .115234378 .14898682 .14022827 .14898682 .16423035 .14898682 .18823242 .13198853 .21322632 .09899902 .21322632 .084991458 .21322632 .049987794 .20622254 .049987794 .16023255 .049987794 .07434082 .11898804-.022460938 .23098755-.022460938 .34700013-.022460938 .44898988 .073349 .44898988 .20022583Z"/>
<clipPath id="clip_4">
<path transform="matrix(1.00005,0,0,-1.00002,1.0961456,682.83847)" d="M0 494.79444H238.62545V676.7355H0Z"/>
</clipPath>
<path id="font_3_2" d="M.33399964 .30233766C.33999635 .32835389 .36299134 .42037965 .43299867 .42037965 .43798829 .42037965 .46199037 .42037965 .48298646 .40734864 .45498658 .402359 .43499757 .37734986 .43499757 .35334779 .43499757 .33735658 .44599916 .31835938 .47299195 .31835938 .49499513 .31835938 .5269928 .3363495 .5269928 .37635804 .5269928 .42837525 .46798707 .4423828 .43399049 .4423828 .37599183 .4423828 .34098817 .38935853 .32899476 .36634828 .3039856 .43237306 .25 .4423828 .22099304 .4423828 .116989139 .4423828 .05999756 .3133545 .05999756 .28834535 .05999756 .27833558 .069992069 .27833558 .07199097 .27833558 .07998657 .27833558 .08299255 .28033448 .084991458 .28933717 .11898804 .39535523 .18499756 .42037965 .21899414 .42037965 .23799134 .42037965 .272995 .4113617 .272995 .35334779 .272995 .32235719 .2559967 .25532533 .21899414 .11528015 .20298767 .053268434 .16799927 .011245728 .12399292 .011245728 .117996219 .011245728 .09498596 .011245728 .07398987 .024276734 .09899902 .029266358 .12098694 .05027771 .12098694 .07827759 .12098694 .105270389 .09899902 .11328125 .083999637 .11328125 .053985597 .11328125 .0289917 .08728027 .0289917 .055267335 .0289917 .009246826 .07899475-.0107421879 .12298584-.0107421879 .18899536-.0107421879 .22499085 .059280397 .22799683 .0652771 .23999024 .028274537 .27598573-.0107421879 .33599855-.0107421879 .43899537-.0107421879 .49598695 .118270877 .49598695 .14328003 .49598695 .1532898 .4869995 .1532898 .48399354 .1532898 .47499085 .1532898 .47299195 .14929199 .47099305 .14228821 .43798829 .03527832 .36999513 .011245728 .33799745 .011245728 .29899598 .011245728 .2829895 .043273927 .2829895 .07727051 .2829895 .09927368 .2889862 .121276859 .2999878 .16529846L.33399964 .30233766Z"/>
<path id="font_3_3" d="M.48599244 .38136292C.48999024 .39537049 .48999024 .39736939 .48999024 .40437318 .48999024 .42237855 .47599793 .43138124 .46099855 .43138124 .45098878 .43138124 .43499757 .42536927 .42599488 .41036988 .42399598 .405365 .41600038 .37435914 .4119873 .35635377 .40499879 .33035279 .397995 .30334474 .3919983 .27633668L.34700013 .09628296C.34298707 .08126831 .2999878 .011245728 .23399353 .011245728 .18299866 .011245728 .17199707 .055267335 .17199707 .0922699 .17199707 .1382904 .18899536 .20030213 .22299195 .28833009 .23899842 .3293457 .24299622 .3403473 .24299622 .36035157 .24299622 .405365 .21099854 .4423828 .16099549 .4423828 .06599426 .4423828 .0289917 .29733277 .0289917 .28833009 .0289917 .27833558 .038986207 .27833558 .040985109 .27833558 .050994874 .27833558 .051986696 .28033448 .056991579 .29634095 .083999637 .3903656 .12399292 .42037965 .1579895 .42037965 .1659851 .42037965 .18299866 .42037965 .18299866 .3883667 .18299866 .36335755 .17298889 .3373413 .1659851 .31834413 .12599182 .21231079 .10798645 .1552887 .10798645 .10827637 .10798645 .019256592 .17098999-.0107421879 .22999573-.0107421879 .2689972-.0107421879 .30299378 .0062561037 .33099366 .03425598 .31799317-.017745972 .30599977-.06674194 .2659912-.11973572 .23999024-.15385437 .20199585-.18309021 .1559906-.18309021 .14199829-.18309021 .09700012-.18005371 .07998657-.14074707 .09599304-.14074707 .10899353-.14074707 .12298584-.1287384 .1329956-.11973572 .14299011-.10673523 .14299011-.08773804 .14299011-.056747438 .115997318-.052734376 .10598755-.052734376 .08299255-.052734376 .049987794-.068740848 .049987794-.11773682 .049987794-.16796875 .09399414-.20507813 .1559906-.20507813 .25898744-.20507813 .3619995-.11373901 .3899994-.00074768069L.48599244 .38136292Z"/>
</defs>
<path transform="matrix(1.00005,0,0,-1.00002,1.0961456,682.83847)" stroke-width=".3985" stroke-linecap="butt" stroke-miterlimit="10" stroke-linejoin="miter" fill="none" stroke="#bfbfbf" d="M23.86253 494.79444V676.7355M71.58763 494.79444V676.7355M167.03781 494.79444V676.7355M214.76291 494.79444V676.7355"/>
<path transform="matrix(1.00005,0,0,-1.00002,1.0961456,682.83847)" stroke-width=".3985" stroke-linecap="butt" stroke-miterlimit="10" stroke-linejoin="miter" fill="none" stroke="#bfbfbf" d="M0 494.79444H238.62545M0 531.1827H238.62545M0 603.9591H238.62545M0 640.3473H238.62545M0 676.7355H238.62545"/>
<path transform="matrix(1.00005,0,0,-1.00002,1.0961456,682.83847)" stroke-width=".19925" stroke-linecap="butt" stroke-miterlimit="10" stroke-linejoin="miter" fill="none" stroke="#7f807f" d="M23.86253 565.4449V569.69686M71.58763 565.4449V569.69686M167.03781 565.4449V569.69686M214.76291 565.4449V569.69686"/>
<path transform="matrix(1.00005,0,0,-1.00002,1.0961456,682.83847)" stroke-width=".19925" stroke-linecap="butt" stroke-miterlimit="10" stroke-linejoin="miter" fill="none" stroke="#7f807f" d="M117.18681 494.79444H121.43861M117.18681 531.1827H121.43861M117.18681 603.9591H121.43861M117.18681 640.3473H121.43861M117.18681 676.7355H121.43861"/>
<path transform="matrix(1.00005,0,0,-1.00002,1.0961456,682.83847)" stroke-width=".3985" stroke-linecap="butt" stroke-miterlimit="10" stroke-linejoin="miter" fill="none" stroke="#000000" d="M0 567.57089H236.63292"/>
<path transform="matrix(1.00005,0,0,-1.00002,237.74089,115.256229)" d="M1.99252 0-1.19551 1.59401 0 0-1.19551-1.59401"/>
<path transform="matrix(1.00005,0,0,-1.00002,1.0961456,682.83847)" stroke-width=".3985" stroke-linecap="butt" stroke-miterlimit="10" stroke-linejoin="miter" fill="none" stroke="#000000" d="M119.31271 494.79444V674.743"/>
<path transform="matrix(0,-1.00002,-1.00005,-0,120.41482,8.08197)" d="M1.99252 0-1.19551 1.59401 0 0-1.19551-1.59401"/>
<use data-text="&#x2212;" xlink:href="#font_1_1" transform="matrix(9.963098,0,0,-9.962799,18.594017,127.32233)"/>
<use data-text="4" xlink:href="#font_2_4" transform="matrix(9.963098,0,0,-9.962799,26.343407,127.32233)"/>
<use data-text="&#x2212;" xlink:href="#font_1_1" transform="matrix(9.963098,0,0,-9.962799,66.3224,127.32233)"/>
<use data-text="2" xlink:href="#font_2_3" transform="matrix(9.963098,0,0,-9.962799,74.07179,127.32233)"/>
<use data-text="2" xlink:href="#font_2_3" transform="matrix(9.963098,0,0,-9.962799,165.65137,127.32233)"/>
<use data-text="4" xlink:href="#font_2_4" transform="matrix(9.963098,0,0,-9.962799,213.37876,127.32233)"/>
<use data-text="&#x2212;" xlink:href="#font_1_1" transform="matrix(9.963098,0,0,-9.962799,84.3253,190.27558)"/>
<use data-text="1" xlink:href="#font_2_2" transform="matrix(9.963098,0,0,-9.962799,92.07469,190.27558)"/>
<use data-text="," xlink:href="#font_3_1" transform="matrix(9.963098,0,0,-9.962799,97.05595,190.27558)"/>
<use data-text="0" xlink:href="#font_2_1" transform="matrix(9.963098,0,0,-9.962799,99.82408,190.27558)"/>
<use data-text="0" xlink:href="#font_2_1" transform="matrix(9.963098,0,0,-9.962799,104.805629,190.27558)"/>
<use data-text="0" xlink:href="#font_2_1" transform="matrix(9.963098,0,0,-9.962799,109.78718,190.27558)"/>
<use data-text="&#x2212;" xlink:href="#font_1_1" transform="matrix(9.963098,0,0,-9.962799,92.07469,154.43988)"/>
<use data-text="5" xlink:href="#font_2_5" transform="matrix(9.963098,0,0,-9.962799,99.82408,154.43988)"/>
<use data-text="0" xlink:href="#font_2_1" transform="matrix(9.963098,0,0,-9.962799,104.80563,154.43988)"/>
<use data-text="0" xlink:href="#font_2_1" transform="matrix(9.963098,0,0,-9.962799,109.78718,154.43988)"/>
<use data-text="5" xlink:href="#font_2_5" transform="matrix(9.963098,0,0,-9.962799,99.82407,82.07739)"/>
<use data-text="0" xlink:href="#font_2_1" transform="matrix(9.963098,0,0,-9.962799,104.805629,82.07739)"/>
<use data-text="0" xlink:href="#font_2_1" transform="matrix(9.963098,0,0,-9.962799,109.78718,82.07739)"/>
<use data-text="1" xlink:href="#font_2_2" transform="matrix(9.963098,0,0,-9.962799,92.07469,44.719667)"/>
<use data-text="," xlink:href="#font_3_1" transform="matrix(9.963098,0,0,-9.962799,97.05595,44.719667)"/>
<use data-text="0" xlink:href="#font_2_1" transform="matrix(9.963098,0,0,-9.962799,99.82408,44.719667)"/>
<use data-text="0" xlink:href="#font_2_1" transform="matrix(9.963098,0,0,-9.962799,104.80563,44.719667)"/>
<use data-text="0" xlink:href="#font_2_1" transform="matrix(9.963098,0,0,-9.962799,109.78718,44.719667)"/>
<use data-text="1" xlink:href="#font_2_2" transform="matrix(9.963098,0,0,-9.962799,92.07469,8.330933)"/>
<use data-text="," xlink:href="#font_3_1" transform="matrix(9.963098,0,0,-9.962799,97.05595,8.330933)"/>
<use data-text="5" xlink:href="#font_2_5" transform="matrix(9.963098,0,0,-9.962799,99.82408,8.330933)"/>
<use data-text="0" xlink:href="#font_2_1" transform="matrix(9.963098,0,0,-9.962799,104.80563,8.330933)"/>
<use data-text="0" xlink:href="#font_2_1" transform="matrix(9.963098,0,0,-9.962799,109.78718,8.330933)"/>
<g clip-path="url(#clip_4)">
<path transform="matrix(1.00005,0,0,-1.00002,1.0961456,682.83847)" stroke-width="1.99255" stroke-linecap="butt" stroke-miterlimit="10" stroke-linejoin="miter" fill="none" stroke="#0000ff" d="M35.79381 0 36.7531 75.93338 37.71239 145.26944 38.67169 208.42539 39.63098 265.7971 40.59029 317.76399 41.54959 364.68519 42.5089 406.90434 43.46819 444.74748 44.42747 478.52494 45.38678 508.53123 46.34607 535.0455 47.30537 558.33267 48.26466 578.6435 49.22397 596.2152 50.18326 611.2719 51.14256 624.0255 52.10185 634.67568 53.06114 643.41018 54.02045 650.4059 54.97974 655.8294 55.93904 659.8361 56.89833 662.5725 57.85764 664.17477 58.81694 664.77078 59.77625 664.47897 60.73553 663.4106 61.69482 661.6682 62.65413 659.3471 63.61342 656.535 64.57272 653.31307 65.53201 649.756 66.49132 645.9322 67.4506 641.90438 68.40991 637.7291 69.3692 633.4582 70.32849 629.138 71.2878 624.81088 72.24709 620.5141 73.20639 616.2807 74.16568 612.13998 75.12498 608.1173 76.08429 604.23489 77.0436 600.51138 78.00288 596.9625 78.96217 593.6012 79.92148 590.4375 80.88077 587.47946 81.84007 584.73239 82.79936 582.1998 83.75867 579.88339 84.71796 577.7828 85.67726 575.8963 86.63655 574.22079 87.59584 572.7517 88.55515 571.48348 89.51443 570.40939 90.47374 569.5219 91.43303 568.81289 92.39235 568.27316 93.35164 567.8933 94.31094 567.6634 95.27023 567.5731 96.22952 567.6118 97.18883 567.7688 98.14813 568.03317 99.10742 568.39407 100.06671 568.8406 101.02602 569.362 101.9853 569.94778 102.94461 570.5875 103.90392 571.2711 104.8632 571.9889 105.8225 572.73129 106.7818 573.4893 107.7411 574.25436 108.7004 575.0183 109.6597 575.77346 110.619 576.5126 111.5783 577.22909 112.5376 577.9168 113.49689 578.57009 114.45619 579.1839 115.41548 579.7538 116.37479 580.2758 117.33408 580.7465 118.29338 581.16317 119.25267 581.5233 120.21198 581.8253 121.17126 582.0678 122.13057 582.2501 123.08986 582.372 124.04916 582.43368 125.00845 582.4357 125.96777 582.3794 126.92706 582.2661 127.88637 582.0978 128.84566 581.8767 129.80496 581.60537 130.76425 581.28677 131.72356 580.924 132.68285 580.5206 133.64215 580.08 134.60144 579.6062 135.56075 579.1031 136.52004 578.57467 137.47934 578.0251 138.43863 577.4587 139.39794 576.8797 140.35723 576.29226 141.31653 575.70059 142.27582 575.1088 143.23514 574.5209 144.19443 573.94076 145.15373 573.3721 146.11302 572.8183 147.07231 572.2828 148.03162 571.7686 148.9909 571.2784 149.95021 570.8147 150.9095 570.37966 151.8688 569.97506 152.8281 569.6023 153.7874 569.26248 154.74669 568.95626 155.70598 568.6839 156.66529 568.44528 157.62458 568.2398 158.58388 568.06637 159.54317 567.92367 160.50249 567.80966 161.46178 567.72219 162.42108 567.6584 163.38037 567.6152 164.33966 567.589 165.29897 567.5758 166.25826 567.57138 167.21756 567.57089 168.17685 567.5694 169.13616 567.5617 170.09545 567.5421 171.05475 567.5049 172.01404 567.4441 172.97333 567.3536 173.93264 567.2272 174.89192 567.05868 175.85123 566.8419 176.81053 566.57089 177.76984 566.2396 178.72913 565.8424 179.68843 565.374 180.64772 564.82949 181.60701 564.2044 182.56632 563.495 183.5256 562.6981 184.48491 561.81149 185.4442 560.83377 186.4035 559.7646 187.3628 558.60488 188.3221 557.35678 189.28139 556.0239 190.24068 554.6116 191.19998 553.1267 192.15927 551.5782 193.11858 549.977 194.07788 548.33639 195.03719 546.6719 195.99648 545.00198 196.95578 543.34768 197.91507 541.7331 198.87436 540.18569 199.83367 538.7362 200.79296 537.4192 201.75226 536.27316 202.71155 535.3406 203.67086 534.66848 204.63014 534.30856 205.58945 534.3177 206.54874 534.7575 207.50803 535.6955 208.46733 537.20498 209.42662 539.36508 210.38593 542.26156 211.34523 545.98709 212.30454 550.641 213.26383 556.3306 214.22313 563.17056 215.18242 571.2839 216.14171 580.802 217.10102 591.86538 218.0603 604.6235 219.0196 619.2359 219.9789 635.8721 220.9382 654.7119 221.89749 675.94638 222.8568 699.7785 223.81609 726.42147 224.77538 756.10287 225.73468 789.0614 226.69397 825.55038"/>
</g>
<use data-text="x" xlink:href="#font_3_2" transform="matrix(9.963098,0,0,-9.962799,230.55661,111.65204)"/>
<use data-text="y" xlink:href="#font_3_3" transform="matrix(9.963098,0,0,-9.962799,123.96228,13.778015)"/>
</svg>
