<svg xmlns="http://www.w3.org/2000/svg" xmlns:xlink="http://www.w3.org/1999/xlink" xmlns:inkscape="http://www.inkscape.org/namespaces/inkscape" version="1.1" width="192" height="189" viewBox="0 0 192 189">
<defs>
<path id="font_1_1" d="M.6589966 .23046875C.6759949 .23046875 .69400027 .23046875 .69400027 .25045777 .69400027 .27046205 .6759949 .27046205 .6589966 .27046205H.117996219C.100997928 .27046205 .08299255 .27046205 .08299255 .25045777 .08299255 .23046875 .100997928 .23046875 .117996219 .23046875H.6589966Z"/>
<path id="font_2_4" d="M.2899933 .35191346C.37199403 .37893678 .42999269 .4490509 .42999269 .52809146 .42999269 .6100464 .34199525 .6660156 .24598694 .6660156 .14498902 .6660156 .068984989 .60606387 .068984989 .53009036 .068984989 .49710084 .09098816 .47808839 .11999512 .47808839 .15098572 .47808839 .17098999 .50009158 .17098999 .5290985 .17098999 .57910159 .12399292 .57910159 .10899353 .57910159 .13999939 .62802127 .20599365 .64100649 .24198914 .64100649 .2829895 .64100649 .33799745 .6190338 .33799745 .5290985 .33799745 .51708987 .33599855 .45906068 .30999757 .4149933 .27999879 .36691285 .24598694 .36390687 .22099304 .36291505 .21299744 .36190797 .18899536 .35990907 .18199158 .35990907 .17399597 .35890199 .16699219 .35791017 .16699219 .3479004 .16699219 .33691407 .17399597 .33691407 .19099427 .33691407H.23498535C.31698609 .33691407 .35398866 .2686615 .35398866 .17037964 .35398866 .034469606 .2849884 .0055389406 .24099732 .0055389406 .19799805 .0055389406 .12298584 .022491456 .08799744 .08137512 .12298584 .07637024 .1539917 .09837341 .1539917 .1363678 .1539917 .17237854 .1269989 .19238281 .09799194 .19238281 .07398987 .19238281 .041992189 .17837525 .041992189 .1343689 .041992189 .043441774 .1349945-.022460938 .24398804-.022460938 .3659973-.022460938 .45700074 .06838989 .45700074 .17037964 .45700074 .252594 .3939972 .33088685 .2899933 .35191346Z"/>
<path id="font_2_3" d="M.1269989 .07699585 .23298645 .18003845C.3889923 .31811524 .44898988 .3721466 .44898988 .47216798 .44898988 .5860901 .35899354 .6660156 .23699951 .6660156 .12399292 .6660156 .049987794 .57411196 .049987794 .48516847 .049987794 .4291687 .099990848 .4291687 .102996829 .4291687 .11999512 .4291687 .15499878 .44117738 .15499878 .48217774 .15499878 .5081787 .13699341 .5341797 .101989749 .5341797 .09399414 .5341797 .09199524 .5341797 .08898926 .5331726 .11199951 .59806826 .1659851 .63500979 .22399903 .63500979 .31498719 .63500979 .35798646 .5541382 .35798646 .47216798 .35798646 .39215089 .30799867 .31311036 .25299073 .25108338L.06098938 .036987306C.049987794 .025985718 .049987794 .023986817 .049987794 0H.42099L.44898988 .17404175H.42399598C.4189911 .14402771 .4119873 .1000061 .4019928 .084991458 .394989 .07699585 .32899476 .07699585 .30699159 .07699585H.1269989Z"/>
<path id="font_2_2" d="M.2939911 .64004519C.2939911 .66400149 .2939911 .6660156 .2709961 .6660156 .20899964 .60227969 .12098694 .60227969 .08898926 .60227969V.57128909C.10899353 .57128909 .16799927 .57128909 .21998596 .5972748V.07902527C.21998596 .042999269 .21699524 .0309906 .1269989 .0309906H.09498596V0C.12998963 .0029907227 .21699524 .0029907227 .25698854 .0029907227 .29699708 .0029907227 .38398744 .0029907227 .4189911 0V.0309906H.3869934C.29699708 .0309906 .2939911 .041992189 .2939911 .07902527V.64004519Z"/>
<path id="font_2_5" d="M.2939911 .16503906V.07800293C.2939911 .041992189 .2919922 .0309906 .21798706 .0309906H.19699097V0C.23799134 .0029907227 .2899933 .0029907227 .33198548 .0029907227 .37399293 .0029907227 .4269867 .0029907227 .46798707 0V.0309906H.44699098C.37298585 .0309906 .37098695 .041992189 .37098695 .07800293V.16503906H.47099305V.19602967H.37098695V.65075686C.37098695 .67074587 .37098695 .6767578 .35499574 .6767578 .34599305 .6767578 .34298707 .6767578 .33499146 .66474917L.027999878 .19602967V.16503906H.2939911M.2999878 .19602967H.055999757L.2999878 .5688019V.19602967Z"/>
<path id="font_2_6" d="M.13198853 .327713V.35173036C.13198853 .6047821 .2559967 .64100649 .30699159 .64100649 .33099366 .64100649 .37298585 .634964 .394989 .6007538 .37998963 .6007538 .33999635 .6007538 .33999635 .5557556 .33999635 .524765 .3639984 .5097656 .38598634 .5097656 .4019928 .5097656 .43199159 .51875308 .43199159 .5577545 .43199159 .6178589 .3880005 .6660156 .30499269 .6660156 .1769867 .6660156 .041992189 .5367584 .041992189 .31570436 .041992189 .048553468 .1579895-.022460938 .25099183-.022460938 .3619995-.022460938 .45700074 .07156372 .45700074 .2036438 .45700074 .33070375 .36799623 .4267578 .25698854 .4267578 .18899536 .4267578 .1519928 .37573243 .13198853 .327713M.25099183 .0055389406C.18798828 .0055389406 .1579895 .06556702 .1519928 .080566409 .13398743 .127594 .13398743 .2076416 .13398743 .22564698 .13398743 .30369569 .1659851 .40374757 .2559967 .40374757 .27198792 .40374757 .31799317 .40374757 .34899903 .34172059 .36698915 .30470277 .36698915 .2536621 .36698915 .20463562 .36698915 .15661621 .36698915 .10658264 .34999085 .0705719 .31999208 .010528564 .27398683 .0055389406 .25099183 .0055389406Z"/>
<path id="font_2_7" d="M.16299439 .4569702C.116989139 .486969 .11299133 .52098086 .11299133 .5379791 .11299133 .598999 .17799378 .64100649 .24899292 .64100649 .32199098 .64100649 .38598634 .58898928 .38598634 .51698306 .38598634 .45996095 .34700013 .4119568 .2869873 .37695313L.16299439 .4569702M.30899049 .36193849C.3809967 .3989563 .42999269 .45095826 .42999269 .51698306 .42999269 .6090088 .34098817 .6660156 .25 .6660156 .1499939 .6660156 .068984989 .59199526 .068984989 .49897767 .068984989 .4809723 .070999149 .43595887 .11299133 .38894654 .12399292 .37695313 .16099549 .35194398 .18598938 .33494569 .12799073 .30592347 .041992189 .24984741 .041992189 .15072632 .041992189 .04458618 .14399719-.022460938 .24899292-.022460938 .3619995-.022460938 .45700074 .06060791 .45700074 .16773987 .45700074 .20379639 .44599916 .24885559 .4079895 .2909088 .3889923 .31193543 .37298585 .3219452 .30899049 .36193849M.20899964 .3199463 .33198548 .24183655C.3600006 .2228241 .40699769 .19277954 .40699769 .13169861 .40699769 .05760193 .33198548 .0055389406 .25 .0055389406 .1639862 .0055389406 .09199524 .067611698 .09199524 .15072632 .09199524 .20880127 .12399292 .27288819 .20899964 .3199463Z"/>
<path id="font_2_1" d="M.45999146 .31976319C.45999146 .39982606 .45498658 .47988893 .41999818 .5539398 .37399293 .65000918 .2919922 .6660156 .25 .6660156 .18998719 .6660156 .116989139 .64001467 .07598877 .54693606 .04399109 .47789 .038986207 .39982606 .038986207 .31976319 .038986207 .24472046 .042999269 .15464783 .083999637 .07859802 .1269989-.0024719239 .19999695-.022460938 .24899292-.022460938 .30299378-.022460938 .3789978-.0014648438 .4229889 .09359741 .45498658 .16265869 .45999146 .2407074 .45999146 .31976319M.24899292-.00047302247C.20999146-.00047302247 .15098572 .024551392 .1329956 .12062073 .12199402 .18066406 .12199402 .2727356 .12199402 .3317871 .12199402 .39582826 .12199402 .46188355 .12998963 .5159149 .14898682 .63500979 .22399903 .64401248 .24899292 .64401248 .28199769 .64401248 .34799195 .6259918 .36698915 .52693179 .3769989 .47088624 .3769989 .39482118 .3769989 .3317871 .3769989 .25672914 .3769989 .18867493 .3659973 .12461853 .35099793 .029556275 .2939911-.00047302247 .24899292-.00047302247Z"/>
<clipPath id="clip_3">
<path transform="matrix(1.00002,0,0,-1,6.581848,187.069)" d="M0 0H181.9403V181.94062H0Z"/>
</clipPath>
<path id="font_4_1" d="M.33399964 .30233766C.33999635 .32835389 .36299134 .42037965 .43299867 .42037965 .43798829 .42037965 .46199037 .42037965 .48298646 .40734864 .45498658 .402359 .43499757 .37734986 .43499757 .35334779 .43499757 .33735658 .44599916 .31835938 .47299195 .31835938 .49499513 .31835938 .5269928 .3363495 .5269928 .37635804 .5269928 .42837525 .46798707 .4423828 .43399049 .4423828 .37599183 .4423828 .34098817 .38935853 .32899476 .36634828 .3039856 .43237306 .25 .4423828 .22099304 .4423828 .116989139 .4423828 .05999756 .3133545 .05999756 .28834535 .05999756 .27833558 .069992069 .27833558 .07199097 .27833558 .07998657 .27833558 .08299255 .28033448 .084991458 .28933717 .11898804 .39535523 .18499756 .42037965 .21899414 .42037965 .23799134 .42037965 .272995 .4113617 .272995 .35334779 .272995 .32235719 .2559967 .25532533 .21899414 .11528015 .20298767 .053268434 .16799927 .011245728 .12399292 .011245728 .117996219 .011245728 .09498596 .011245728 .07398987 .024276734 .09899902 .029266358 .12098694 .05027771 .12098694 .07827759 .12098694 .105270389 .09899902 .11328125 .083999637 .11328125 .053985597 .11328125 .0289917 .08728027 .0289917 .055267335 .0289917 .009246826 .07899475-.0107421879 .12298584-.0107421879 .18899536-.0107421879 .22499085 .059280397 .22799683 .0652771 .23999024 .028274537 .27598573-.0107421879 .33599855-.0107421879 .43899537-.0107421879 .49598695 .118270877 .49598695 .14328003 .49598695 .1532898 .4869995 .1532898 .48399354 .1532898 .47499085 .1532898 .47299195 .14929199 .47099305 .14228821 .43798829 .03527832 .36999513 .011245728 .33799745 .011245728 .29899598 .011245728 .2829895 .043273927 .2829895 .07727051 .2829895 .09927368 .2889862 .121276859 .2999878 .16529846L.33399964 .30233766Z"/>
<path id="font_4_2" d="M.48599244 .38136292C.48999024 .39537049 .48999024 .39736939 .48999024 .40437318 .48999024 .42237855 .47599793 .43138124 .46099855 .43138124 .45098878 .43138124 .43499757 .42536927 .42599488 .41036988 .42399598 .405365 .41600038 .37435914 .4119873 .35635377 .40499879 .33035279 .397995 .30334474 .3919983 .27633668L.34700013 .09628296C.34298707 .08126831 .2999878 .011245728 .23399353 .011245728 .18299866 .011245728 .17199707 .055267335 .17199707 .0922699 .17199707 .1382904 .18899536 .20030213 .22299195 .28833009 .23899842 .3293457 .24299622 .3403473 .24299622 .36035157 .24299622 .405365 .21099854 .4423828 .16099549 .4423828 .06599426 .4423828 .0289917 .29733277 .0289917 .28833009 .0289917 .27833558 .038986207 .27833558 .040985109 .27833558 .050994874 .27833558 .051986696 .28033448 .056991579 .29634095 .083999637 .3903656 .12399292 .42037965 .1579895 .42037965 .1659851 .42037965 .18299866 .42037965 .18299866 .3883667 .18299866 .36335755 .17298889 .3373413 .1659851 .31834413 .12599182 .21231079 .10798645 .1552887 .10798645 .10827637 .10798645 .019256592 .17098999-.0107421879 .22999573-.0107421879 .2689972-.0107421879 .30299378 .0062561037 .33099366 .03425598 .31799317-.017745972 .30599977-.06674194 .2659912-.11973572 .23999024-.15385437 .20199585-.18309021 .1559906-.18309021 .14199829-.18309021 .09700012-.18005371 .07998657-.14074707 .09599304-.14074707 .10899353-.14074707 .12298584-.1287384 .1329956-.11973572 .14299011-.10673523 .14299011-.08773804 .14299011-.056747438 .115997318-.052734376 .10598755-.052734376 .08299255-.052734376 .049987794-.068740848 .049987794-.11773682 .049987794-.16796875 .09399414-.20507813 .1559906-.20507813 .25898744-.20507813 .3619995-.11373901 .3899994-.00074768069L.48599244 .38136292Z"/>
</defs>
<path transform="matrix(1.00002,0,0,-1,6.581848,187.069)" stroke-width=".3985" stroke-linecap="butt" stroke-miterlimit="10" stroke-linejoin="miter" fill="none" stroke="#bfbfbf" d="M0 0V181.94062M30.32338 0V181.94062M60.64676 0V181.94062M121.29353 0V181.94062M151.61693 0V181.94062M181.9403 0V181.94062"/>
<path transform="matrix(1.00002,0,0,-1,6.581848,187.069)" stroke-width=".3985" stroke-linecap="butt" stroke-miterlimit="10" stroke-linejoin="miter" fill="none" stroke="#bfbfbf" d="M0 49.62016H181.9403M0 82.70027H181.9403M0 115.7804H181.9403M0 148.8605H181.9403M0 181.94062H181.9403"/>
<path transform="matrix(1.00002,0,0,-1,6.581848,187.069)" stroke-width=".19925" stroke-linecap="butt" stroke-miterlimit="10" stroke-linejoin="miter" fill="none" stroke="#7f807f" d="M0 14.4138V18.66628M30.32338 14.4138V18.66628M60.64676 14.4138V18.66628M121.29353 14.4138V18.66628M151.61693 14.4138V18.66628M181.9403 14.4138V18.66628"/>
<path transform="matrix(1.00002,0,0,-1,6.581848,187.069)" stroke-width=".19925" stroke-linecap="butt" stroke-miterlimit="10" stroke-linejoin="miter" fill="none" stroke="#7f807f" d="M88.84425 49.62016H93.09602M88.84425 82.70027H93.09602M88.84425 115.7804H93.09602M88.84425 148.8605H93.09602M88.84425 181.94062H93.09602"/>
<path transform="matrix(1.00002,0,0,-1,6.581848,187.069)" stroke-width=".3985" stroke-linecap="butt" stroke-miterlimit="10" stroke-linejoin="miter" fill="none" stroke="#000000" d="M0 16.54005H179.94779"/>
<path transform="matrix(1.00002,0,0,-1,186.53324,170.52895)" d="M1.99252 0-1.19551 1.59401 0 0-1.19551-1.59401"/>
<path transform="matrix(1.00002,0,0,-1,6.581848,187.069)" stroke-width=".3985" stroke-linecap="butt" stroke-miterlimit="10" stroke-linejoin="miter" fill="none" stroke="#000000" d="M90.97015 0V179.94809"/>
<path transform="matrix(0,-1,-1.00002,-0,97.553829,7.1209108)" d="M1.99252 0-1.19551 1.59401 0 0-1.19551-1.59401"/>
<use data-text="&#x2212;" xlink:href="#font_1_1" transform="matrix(9.962799,0,0,-9.9626,.21672058,182.595)"/>
<use data-text="3" xlink:href="#font_2_4" transform="matrix(9.962799,0,0,-9.9626,7.9658815,182.595)"/>
<use data-text="&#x2212;" xlink:href="#font_1_1" transform="matrix(9.962799,0,0,-9.9626,30.540329,182.595)"/>
<use data-text="2" xlink:href="#font_2_3" transform="matrix(9.962799,0,0,-9.9626,38.28949,182.595)"/>
<use data-text="&#x2212;" xlink:href="#font_1_1" transform="matrix(9.962799,0,0,-9.9626,60.864938,182.595)"/>
<use data-text="1" xlink:href="#font_2_2" transform="matrix(9.962799,0,0,-9.9626,68.6141,182.595)"/>
<use data-text="1" xlink:href="#font_2_2" transform="matrix(9.962799,0,0,-9.9626,125.38723,182.595)"/>
<use data-text="2" xlink:href="#font_2_3" transform="matrix(9.962799,0,0,-9.9626,155.71085,182.595)"/>
<use data-text="3" xlink:href="#font_2_4" transform="matrix(9.962799,0,0,-9.9626,186.03545,182.595)"/>
<use data-text="2" xlink:href="#font_2_3" transform="matrix(9.962799,0,0,-9.9626,86.92646,140.659)"/>
<use data-text="4" xlink:href="#font_2_5" transform="matrix(9.962799,0,0,-9.9626,86.92646,107.579)"/>
<use data-text="6" xlink:href="#font_2_6" transform="matrix(9.962799,0,0,-9.9626,86.92646,74.499)"/>
<use data-text="8" xlink:href="#font_2_7" transform="matrix(9.962799,0,0,-9.9626,86.92646,41.419008)"/>
<use data-text="1" xlink:href="#font_2_2" transform="matrix(9.962799,0,0,-9.9626,81.94536,8.3390049)"/>
<use data-text="0" xlink:href="#font_2_1" transform="matrix(9.962799,0,0,-9.9626,86.926769,8.3390049)"/>
<g clip-path="url(#clip_3)">
<path transform="matrix(1.00002,0,0,-1,6.581848,187.069)" stroke-width="1.99255" stroke-linecap="butt" stroke-miterlimit="10" stroke-linejoin="miter" fill="none" stroke="#0000ff" d="M0 148.8605 .91426 146.08327 1.82854 143.40064 2.74281 140.77852 3.65707 138.2087 4.57135 135.6946 5.48563 133.2308 6.3999 130.8163 7.31416 128.45468 8.22844 126.1391 9.14272 123.87276 10.05698 121.65257 10.97127 119.47957 11.88554 117.35037 12.79982 115.26648 13.71408 113.22577 14.62836 111.2246 15.54263 109.2669 16.4569 107.34991 17.37117 105.47162 18.28545 103.63306 19.19972 101.8315 20.11398 100.06898 21.02826 98.34187 21.94255 96.64984 22.85681 94.99286 23.77109 93.37074 24.68536 91.78125 25.59964 90.2245 26.5139 88.70102 27.42818 87.20909 28.34245 85.74828 29.25671 84.31671 30.17099 82.91628 31.08527 81.54362 31.99954 80.19841 32.91382 78.88165 33.8281 77.59335 34.74237 76.33037 35.65663 75.09349 36.5709 73.88326 37.48518 72.69734 38.39946 71.53622 39.31372 70.39842 40.228 69.28513 41.14227 68.19397 42.05653 67.1255 42.97081 66.08049 43.8851 65.056 44.79938 64.05249 45.71364 63.06937 46.62791 62.10823 47.54219 61.16478 48.45645 60.24217 49.37073 59.33827 50.285 58.4542 51.19928 57.58733 52.11354 56.7385 53.02782 55.9077 53.9421 55.09277 54.85637 54.2957 55.77065 53.51485 56.68492 52.74985 57.5992 52.00142 58.51346 51.26852 59.42773 50.54987 60.34201 49.84674 61.25627 49.15802 62.17055 48.48367 63.08482 47.82274 63.9991 47.17603 64.91338 46.54254 65.82765 45.9223 66.74193 45.31477 67.6562 44.72 68.57047 44.13661 69.48474 43.56601 70.39902 43.0073 71.3133 42.45998 72.22757 41.92374 73.14185 41.39876 74.0561 40.88501 74.97038 40.38155 75.88466 39.88881 76.79893 39.4055 77.71321 38.93312 78.62749 38.47 79.54176 38.01648 80.45604 37.57239 81.3703 37.13771 82.28458 36.71178 83.19885 36.29451 84.11313 35.88612 85.02739 35.48586 85.94167 35.09418 86.85594 34.71045 87.77023 34.33498 88.68451 33.96696 89.59877 33.60657 90.51305 33.25375 91.42732 32.91206 92.3416 32.57281 93.25587 32.24202 94.17015 31.91617 95.08441 31.59845 95.99869 31.28716 96.91296 30.9828 97.82722 30.68344 98.74152 30.39067 99.65579 30.10455 100.57007 29.82486 101.48434 29.5503 102.3986 29.28052 103.31288 29.01752 104.22716 28.75934 105.14143 28.50612 106.0557 28.25818 106.96997 28.01653 107.88425 27.78017 108.79852 27.54662 109.71281 27.31854 110.62708 27.09656 111.54135 26.87842 112.45563 26.66487 113.3699 26.4548 114.28416 26.24974 115.19844 26.04959 116.11272 25.85258 117.027 25.65907 117.94127 25.47035 118.85553 25.28673 119.7698 25.10483 120.6841 24.92767 121.59837 24.754 122.51265 24.58511 123.42691 24.41806 124.34119 24.25597 125.25546 24.09552 126.16972 23.94006 127.084 23.78624 127.99828 23.63737 128.91255 23.49016 129.82682 23.34628 130.74109 23.20535 131.65538 23.06805 132.56964 22.9326 133.48392 22.80013 134.3982 22.67111 135.31247 22.54376 136.22673 22.4197 137.141 22.29895 138.05529 22.1797 138.96955 22.06244 139.88382 21.94814 140.7981 21.83731 141.71237 21.7265 142.62665 21.62047 143.54093 21.5148 144.4552 21.41208 145.36946 21.31136 146.28374 21.21194 147.19802 21.11601 148.11229 21.02158 149.02655 20.92896 149.94083 20.83815 150.8551 20.74883 151.76937 20.661 152.68364 20.57664 153.59793 20.49228 154.5122 20.41125 155.42647 20.33185 156.34075 20.25229 157.25502 20.17638 158.16928 20.10013 159.08356 20.02753 159.99784 19.95457 160.91211 19.88362 161.82637 19.81561 162.74065 19.74783 163.65493 19.68166 164.5692 19.61551 165.48348 19.55249 166.39775 19.48962 167.31203 19.42859 168.22629 19.36906 169.14057 19.31099 170.05484 19.25311 170.9691 19.19685 171.88338 19.14229 172.79766 19.08937 173.71193 19.03627 174.62619 18.98334 175.54048 18.93387 176.45476 18.88411 177.36902 18.83612 178.2833 18.78833 179.19757 18.74187 180.11185 18.69571 181.02611 18.6509 181.94039 18.60754"/>
</g>
<use data-text="x" xlink:href="#font_4_1" transform="matrix(9.962799,0,0,-9.9626,179.34832,167.006)"/>
<use data-text="y" xlink:href="#font_4_2" transform="matrix(9.962799,0,0,-9.9626,101.09474,12.895004)"/>
</svg>
