<svg xmlns="http://www.w3.org/2000/svg" xmlns:xlink="http://www.w3.org/1999/xlink" xmlns:inkscape="http://www.inkscape.org/namespaces/inkscape" version="1.1" width="204" height="165" viewBox="0 0 204 165">
<defs>
<path id="font_1_1" d="M.6589966 .23046875C.6759949 .23046875 .69400027 .23046875 .69400027 .25045777 .69400027 .27046205 .6759949 .27046205 .6589966 .27046205H.117996219C.100997928 .27046205 .08299255 .27046205 .08299255 .25045777 .08299255 .23046875 .100997928 .23046875 .117996219 .23046875H.6589966Z"/>
<path id="font_2_2" d="M.1269989 .07699585 .23298645 .18003845C.3889923 .31811524 .44898988 .3721466 .44898988 .47216798 .44898988 .5860901 .35899354 .6660156 .23699951 .6660156 .12399292 .6660156 .049987794 .57411196 .049987794 .48516847 .049987794 .4291687 .099990848 .4291687 .102996829 .4291687 .11999512 .4291687 .15499878 .44117738 .15499878 .48217774 .15499878 .5081787 .13699341 .5341797 .101989749 .5341797 .09399414 .5341797 .09199524 .5341797 .08898926 .5331726 .11199951 .59806826 .1659851 .63500979 .22399903 .63500979 .31498719 .63500979 .35798646 .5541382 .35798646 .47216798 .35798646 .39215089 .30799867 .31311036 .25299073 .25108338L.06098938 .036987306C.049987794 .025985718 .049987794 .023986817 .049987794 0H.42099L.44898988 .17404175H.42399598C.4189911 .14402771 .4119873 .1000061 .4019928 .084991458 .394989 .07699585 .32899476 .07699585 .30699159 .07699585H.1269989Z"/>
<path id="font_2_1" d="M.2939911 .64004519C.2939911 .66400149 .2939911 .6660156 .2709961 .6660156 .20899964 .60227969 .12098694 .60227969 .08898926 .60227969V.57128909C.10899353 .57128909 .16799927 .57128909 .21998596 .5972748V.07902527C.21998596 .042999269 .21699524 .0309906 .1269989 .0309906H.09498596V0C.12998963 .0029907227 .21699524 .0029907227 .25698854 .0029907227 .29699708 .0029907227 .38398744 .0029907227 .4189911 0V.0309906H.3869934C.29699708 .0309906 .2939911 .041992189 .2939911 .07902527V.64004519Z"/>
<clipPath id="clip_3">
<path transform="matrix(1.00002,0,0,-1.00002,6.581848,163.18994)" d="M0 0H194.26912V161.39028H0Z"/>
</clipPath>
<path id="font_4_1" d="M.33399964 .30233766C.33999635 .32835389 .36299134 .42037965 .43299867 .42037965 .43798829 .42037965 .46199037 .42037965 .48298646 .40734864 .45498658 .402359 .43499757 .37734986 .43499757 .35334779 .43499757 .33735658 .44599916 .31835938 .47299195 .31835938 .49499513 .31835938 .5269928 .3363495 .5269928 .37635804 .5269928 .42837525 .46798707 .4423828 .43399049 .4423828 .37599183 .4423828 .34098817 .38935853 .32899476 .36634828 .3039856 .43237306 .25 .4423828 .22099304 .4423828 .116989139 .4423828 .05999756 .3133545 .05999756 .28834535 .05999756 .27833558 .069992069 .27833558 .07199097 .27833558 .07998657 .27833558 .08299255 .28033448 .084991458 .28933717 .11898804 .39535523 .18499756 .42037965 .21899414 .42037965 .23799134 .42037965 .272995 .4113617 .272995 .35334779 .272995 .32235719 .2559967 .25532533 .21899414 .11528015 .20298767 .053268434 .16799927 .011245728 .12399292 .011245728 .117996219 .011245728 .09498596 .011245728 .07398987 .024276734 .09899902 .029266358 .12098694 .05027771 .12098694 .07827759 .12098694 .105270389 .09899902 .11328125 .083999637 .11328125 .053985597 .11328125 .0289917 .08728027 .0289917 .055267335 .0289917 .009246826 .07899475-.0107421879 .12298584-.0107421879 .18899536-.0107421879 .22499085 .059280397 .22799683 .0652771 .23999024 .028274537 .27598573-.0107421879 .33599855-.0107421879 .43899537-.0107421879 .49598695 .118270877 .49598695 .14328003 .49598695 .1532898 .4869995 .1532898 .48399354 .1532898 .47499085 .1532898 .47299195 .14929199 .47099305 .14228821 .43798829 .03527832 .36999513 .011245728 .33799745 .011245728 .29899598 .011245728 .2829895 .043273927 .2829895 .07727051 .2829895 .09927368 .2889862 .121276859 .2999878 .16529846L.33399964 .30233766Z"/>
<path id="font_4_2" d="M.48599244 .38136292C.48999024 .39537049 .48999024 .39736939 .48999024 .40437318 .48999024 .42237855 .47599793 .43138124 .46099855 .43138124 .45098878 .43138124 .43499757 .42536927 .42599488 .41036988 .42399598 .405365 .41600038 .37435914 .4119873 .35635377 .40499879 .33035279 .397995 .30334474 .3919983 .27633668L.34700013 .09628296C.34298707 .08126831 .2999878 .011245728 .23399353 .011245728 .18299866 .011245728 .17199707 .055267335 .17199707 .0922699 .17199707 .1382904 .18899536 .20030213 .22299195 .28833009 .23899842 .3293457 .24299622 .3403473 .24299622 .36035157 .24299622 .405365 .21099854 .4423828 .16099549 .4423828 .06599426 .4423828 .0289917 .29733277 .0289917 .28833009 .0289917 .27833558 .038986207 .27833558 .040985109 .27833558 .050994874 .27833558 .051986696 .28033448 .056991579 .29634095 .083999637 .3903656 .12399292 .42037965 .1579895 .42037965 .1659851 .42037965 .18299866 .42037965 .18299866 .3883667 .18299866 .36335755 .17298889 .3373413 .1659851 .31834413 .12599182 .21231079 .10798645 .1552887 .10798645 .10827637 .10798645 .019256592 .17098999-.0107421879 .22999573-.0107421879 .2689972-.0107421879 .30299378 .0062561037 .33099366 .03425598 .31799317-.017745972 .30599977-.06674194 .2659912-.11973572 .23999024-.15385437 .20199585-.18309021 .1559906-.18309021 .14199829-.18309021 .09700012-.18005371 .07998657-.14074707 .09599304-.14074707 .10899353-.14074707 .12298584-.1287384 .1329956-.11973572 .14299011-.10673523 .14299011-.08773804 .14299011-.056747438 .115997318-.052734376 .10598755-.052734376 .08299255-.052734376 .049987794-.068740848 .049987794-.11773682 .049987794-.16796875 .09399414-.20507813 .1559906-.20507813 .25898744-.20507813 .3619995-.11373901 .3899994-.00074768069L.48599244 .38136292Z"/>
</defs>
<path transform="matrix(1.00002,0,0,-1.00002,6.581848,163.18994)" stroke-width=".19925" stroke-linecap="butt" stroke-miterlimit="10" stroke-linejoin="miter" fill="none" stroke="#7f807f" d="M0 78.56915V82.8211M48.56728 78.56915V82.8211M145.70183 78.56915V82.8211M194.26912 78.56915V82.8211"/>
<path transform="matrix(1.00002,0,0,-1.00002,6.581848,163.18994)" stroke-width=".19925" stroke-linecap="butt" stroke-miterlimit="10" stroke-linejoin="miter" fill="none" stroke="#7f807f" d="M95.00867 26.89838H99.26042M95.00867 134.4919H99.26042"/>
<path transform="matrix(1.00002,0,0,-1.00002,6.581848,163.18994)" stroke-width=".3985" stroke-linecap="butt" stroke-miterlimit="10" stroke-linejoin="miter" fill="none" stroke="#000000" d="M0 80.69513H192.2766"/>
<path transform="matrix(1.00002,0,0,-1.00002,198.86229,82.493198)" d="M1.99252 0-1.19551 1.59401 0 0-1.19551-1.59401"/>
<path transform="matrix(1.00002,0,0,-1.00002,6.581848,163.18994)" stroke-width=".3985" stroke-linecap="butt" stroke-miterlimit="10" stroke-linejoin="miter" fill="none" stroke="#000000" d="M97.13455 0V159.39775"/>
<path transform="matrix(0,-1.00002,-1.00002,-0,103.718349,3.7890015)" d="M1.99252 0-1.19551 1.59401 0 0-1.19551-1.59401"/>
<use data-text="&#x2212;" xlink:href="#font_1_1" transform="matrix(9.962799,0,0,-9.962799,.21672058,94.55957)"/>
<use data-text="2" xlink:href="#font_2_2" transform="matrix(9.962799,0,0,-9.962799,7.9658815,94.55957)"/>
<use data-text="&#x2212;" xlink:href="#font_1_1" transform="matrix(9.962799,0,0,-9.962799,48.784696,94.55957)"/>
<use data-text="1" xlink:href="#font_2_1" transform="matrix(9.962799,0,0,-9.962799,56.533857,94.55957)"/>
<use data-text="1" xlink:href="#font_2_1" transform="matrix(9.962799,0,0,-9.962799,149.79572,94.55957)"/>
<use data-text="2" xlink:href="#font_2_2" transform="matrix(9.962799,0,0,-9.962799,198.3637,94.55957)"/>
<use data-text="&#x2212;" xlink:href="#font_1_1" transform="matrix(9.962799,0,0,-9.962799,85.34243,139.08646)"/>
<use data-text="2" xlink:href="#font_2_2" transform="matrix(9.962799,0,0,-9.962799,93.09159,139.08646)"/>
<use data-text="2" xlink:href="#font_2_2" transform="matrix(9.962799,0,0,-9.962799,93.09058,31.90532)"/>
<g clip-path="url(#clip_3)">
<path transform="matrix(1.00002,0,0,-1.00002,6.581848,163.18994)" stroke-width=".79701" stroke-linecap="butt" stroke-miterlimit="10" stroke-linejoin="miter" fill="none" stroke="#0000ff" d="M0 106.48529 .09717 106.48315 .19434 106.48148 .29152 106.47815 .38869 106.4764 .48589 106.47406 .58305 106.47272 .68022 106.47029 .7774 106.4678 .87457 106.46632 .97177 106.46375 1.06894 106.46112 1.16612 106.45949 1.26329 106.45677 1.36046 106.45506 1.45766 106.45222 1.55482 106.45044 1.65201 106.44751 1.74918 106.44508 1.84636 106.44206 1.94354 106.44058 2.04071 106.43852 2.1379 106.43535 2.23506 106.43268 2.33224 106.43102 2.42943 106.42877 2.52661 106.42542 2.62378 106.42358 2.72095 106.42119 2.81813 106.41924 2.91531 106.41675 3.0125 106.4142 3.10966 106.41159 3.20685 106.40947 3.30402 106.40677 3.4012 106.40454 3.49838 106.40225 3.59555 106.40045 3.69273 106.39705 3.7899 106.39511 3.8871 106.39264 3.98427 106.38957 4.08144 106.38803 4.17862 106.38539 4.27579 106.3827 4.37299 106.38101 4.47015 106.3782 4.56734 106.37589 4.6645 106.373 4.76167 106.37006 4.85887 106.36707 4.95604 106.36505 5.05322 106.36246 5.15039 106.35983 5.24757 106.35713 5.34476 106.3549 5.44193 106.35162 5.53911 106.34877 5.63628 106.34741 5.73346 106.34496 5.83064 106.34247 5.92783 106.33893 6.025 106.3363 6.12216 106.33366 6.21935 106.33047 6.31653 106.32773 6.41371 106.3264 6.51088 106.32355 6.60806 106.32013 6.70523 106.31766 6.80241 106.31516 6.8996 106.31207 6.99677 106.30943 7.09395 106.30727 7.19112 106.30354 7.28831 106.30272 7.38548 106.29889 7.48265 106.2965 7.57983 106.29355 7.677 106.29004 7.7742 106.28699 7.87137 106.28438 7.96855 106.28218 8.06572 106.27898 8.16289 106.27568 8.26009 106.27286 8.35725 106.26947 8.45444 106.267 8.5516 106.26451 8.64879 106.26193 8.74597 106.25835 8.84314 106.25566 8.94032 106.25194 9.03749 106.25014 9.13467 106.24728 9.23186 106.24342 9.32904 106.24095 9.42621 106.2389 9.52338 106.23584 9.62056 106.2327 9.71774 106.22905 9.81493 106.22678 9.9121 106.22346 10.00928 106.22108 10.10645 106.21817 10.20363 106.21516 10.30081 106.21263 10.39798 106.20857 10.49516 106.20494 10.59233 106.2022 10.68953 106.19893 10.7867 106.19562 10.88387 106.19319 10.98105 106.19023 11.07822 106.18672 11.17542 106.18411 11.27258 106.18051 11.36977 106.1778 11.46693 106.17455 11.5641 106.17075 11.6613 106.16786 11.75847 106.16444 11.85565 106.16093 11.95282 106.15883 12.05 106.1557 12.14719 106.15157 12.24435 106.14832 12.34154 106.14499 12.4387 106.14258 12.53589 106.1396 12.63307 106.13612 12.73024 106.13306 12.82742 106.12943 12.92459 106.12576 13.02177 106.12206 13.11896 106.11919 13.21614 106.1158 13.31331 106.11191 13.41048 106.10889 13.50766 106.1053 13.60484 106.10216 13.70203 106.09848 13.7992 106.09563 13.89638 106.09138 13.99355 106.08846 14.09073 106.08406 14.18791 106.08145 14.28508 106.07695 14.38226 106.07378 14.47943 106.07051 14.57663 106.06718 14.6738 106.06383 14.77097 106.06036 14.86815 106.05641 14.96532 106.05333 15.06252 106.04968 15.15968 106.046 15.25687 106.04224 15.35403 106.03934 15.4512 106.035 15.5484 106.03198 15.64557 106.02753 15.74275 106.023 15.83992 106.01978 15.9371 106.01604 16.03429 106.0127 16.13145 106.00882 16.22864 106.00534 16.3258 106.00136 16.42299 105.99773 16.52017 105.99405 16.61736 105.98987 16.71452 105.9865 16.81169 105.98262 16.90887 105.97826 17.00606 105.97559 17.10324 105.97107 17.20041 105.96696 17.29759 105.96365 17.39476 105.95938 17.49194 105.95639 17.58913 105.95288 17.6863 105.94798 17.78348 105.94391 17.88065 105.93976 17.97784 105.93643 18.07501 105.93213 18.17218 105.92781 18.26936 105.9234 18.36653 105.91977 18.46373 105.91566 18.5609 105.91109 18.65808 105.90726 18.75525 105.90253 18.85242 105.89903 18.94962 105.89458 19.04678 105.89136 19.14397 105.88681 19.24113 105.8826 19.33832 105.87787 19.4355 105.87482 19.53267 105.87083 19.62985 105.86635 19.72702 105.86223 19.8242 105.85805 19.92139 105.85379 20.01857 105.84944 20.11574 105.8442 20.2129 105.84016 20.31009 105.83603 20.40727 105.83144 20.50446 105.82762 20.60162 105.82329 20.6988 105.81804 20.79597 105.81403 20.89316 105.80907 20.99034 105.80531 21.08751 105.80023 21.1847 105.79634 21.28186 105.79109 21.37906 105.7879 21.47623 105.78294 21.5734 105.77791 21.67058 105.77408 21.76775 105.76933 21.86494 105.76494 21.96211 105.76047 22.0593 105.7551 22.15646 105.75006 22.25363 105.74661 22.35083 105.7406 22.448 105.73619 22.54518 105.73128 22.64235 105.7263 22.73953 105.72168 22.83672 105.71695 22.93388 105.71176 23.03107 105.70734 23.12823 105.70158 23.22542 105.6978 23.3226 105.69232 23.41978 105.68758 23.51695 105.68317 23.61412 105.6783 23.7113 105.67291 23.80849 105.66829 23.90567 105.66397 24.00284 105.6584 24.10002 105.65314 24.19719 105.64738 24.29437 105.64278 24.39156 105.63771 24.48872 105.63254 24.5859 105.6269 24.68307 105.62161 24.78026 105.61702 24.87744 105.61156 24.97461 105.60603 25.0718 105.60124 25.16896 105.59633 25.26616 105.59058 25.36333 105.58594 25.4605 105.58 25.55768 105.5752 25.65485 105.57072 25.75204 105.56459 25.84921 105.55914 25.9464 105.55403 26.04356 105.54768 26.14073 105.54239 26.23793 105.53665 26.3351 105.53123 26.43228 105.52571 26.52945 105.52052 26.62663 105.51488 26.72382 105.50911 26.82098 105.5033 26.91817 105.4978 27.01534 105.49184 27.11252 105.48576 27.2097 105.48157 27.30688 105.47536 27.40405 105.4706 27.50122 105.46423 27.5984 105.45894 27.69559 105.45241 27.79277 105.44617 27.88994 105.44102 27.98712 105.43501 28.08429 105.42892 28.18147 105.42236 28.27866 105.4169 28.37582 105.41054 28.473 105.40453 28.57018 105.39842 28.66737 105.39221 28.76454 105.38556 28.86171 105.38074 28.9589 105.37505 29.05606 105.36852 29.15326 105.36267 29.25043 105.35599 29.34761 105.34995 29.44478 105.34386 29.54195 105.3373 29.63914 105.33064 29.73631 105.32355 29.8335 105.31712 29.93066 105.31097 30.02785 105.30435 30.12503 105.29805 30.2222 105.29128 30.31938 105.28477 30.41655 105.27858 30.51373 105.27191 30.61092 105.26553 30.7081 105.25945 30.80527 105.25253 30.90244 105.24628 30.99962 105.23917 31.0968 105.23201 31.19398 105.22551 31.29115 105.21886 31.38834 105.2118 31.4855 105.20467 31.58269 105.1978 31.67987 105.19154 31.77704 105.18414 31.87422 105.17773 31.97139 105.17049 32.06859 105.1632 32.16576 105.15617 32.26292 105.14973 32.3601 105.14253 32.45728 105.13559 32.55447 105.12817 32.65164 105.12035 32.74883 105.1128 32.846 105.10622 32.94316 105.09845 33.04036 105.09131 33.13753 105.0834 33.23471 105.07608 33.33188 105.06905 33.42906 105.06122 33.52625 105.05365 33.62341 105.04631 33.7206 105.03856 33.81776 105.03107 33.91495 105.02382 34.01213 105.0158 34.10931 105.00804 34.20648 104.9998 34.30365 104.9922 34.40083 104.98418 34.49802 104.97668 34.5952 104.96848 34.69237 104.96051 34.78955 104.95349 34.88672 104.94495 34.9839 104.93637 35.08109 104.92906 35.17825 104.92128 35.27544 104.91345 35.3726 104.90482 35.4698 104.89645 35.56697 104.88795 35.66414 104.88008 35.76132 104.87143 35.85849 104.86366 35.95569 104.85483 36.05286 104.84624 36.15004 104.83784 36.24721 104.82907 36.34438 104.82086 36.44157 104.81253 36.53874 104.80379 36.63593 104.79562 36.7331 104.78668 36.83026 104.7773 36.92746 104.76918 37.02463 104.75963 37.12181 104.75061 37.21898 104.74187 37.31616 104.73268 37.41335 104.72374 37.51051 104.71436 37.6077 104.70587 37.70486 104.69696 37.80205 104.68759 37.89923 104.67882 37.99641 104.66962 38.09358 104.66028 38.19075 104.65054 38.28793 104.64107 38.38512 104.6311 38.4823 104.62238 38.57947 104.61226 38.67665 104.60268 38.77382 104.59265 38.871 104.58353 38.96819 104.57397 39.06535 104.56396 39.16254 104.55453 39.2597 104.54436 39.3569 104.53473 39.45407 104.52463 39.55124 104.51414 39.64842 104.50421 39.74559 104.49446 39.84279 104.48431 39.93996 104.47374 40.03714 104.46431 40.13431 104.45416 40.23148 104.44392 40.32867 104.43355 40.42584 104.42342 40.52303 104.41223 40.6202 104.40126 40.71738 104.3908 40.81456 104.37994 40.91173 104.36958 41.00891 104.35849 41.10608 104.34793 41.20326 104.33759 41.30045 104.3262 41.39763 104.31529 41.4948 104.30557 41.59196 104.29387 41.68915 104.28204 41.78633 104.27074 41.88351 104.25874 41.98068 104.24812 42.07787 104.23622 42.17503 104.2254 42.27222 104.21387 42.3694 104.20285 42.46657 104.19173 42.56375 104.1802 42.66092 104.16762 42.75812 104.15646 42.85529 104.14432 42.95245 104.13202 43.04964 104.12024 43.1468 104.10837 43.244 104.09578 43.34117 104.08395 43.43835 104.07204 43.53552 104.06032 43.63269 104.04756 43.72989 104.03532 43.82706 104.02269 43.92424 104.0099 44.02141 103.99733 44.11859 103.98465 44.21577 103.97185 44.31294 103.95924 44.41013 103.94653 44.5073 103.93459 44.60448 103.92133 44.70166 103.90857 44.79884 103.89453 44.89601 103.88153 44.99318 103.86786 45.09036 103.85466 45.18755 103.84163 45.28473 103.82788 45.3819 103.81464 45.47908 103.80098 45.57625 103.78806 45.67343 103.7739 45.77061 103.75989 45.86778 103.74521 45.96497 103.73184 46.06213 103.71751 46.15933 103.70332 46.2565 103.68907 46.35367 103.67554 46.45085 103.66104 46.54802 103.64668 46.64522 103.63225 46.74239 103.6174 46.83957 103.60243 46.93674 103.58794 47.0339 103.57303 47.1311 103.55803 47.22827 103.54341 47.32545 103.52846 47.42262 103.51393 47.5198 103.49815 47.61699 103.48283 47.71416 103.46687 47.81134 103.4513 47.90851 103.43538 48.00569 103.42017 48.10287 103.40451 48.20006 103.38904 48.29723 103.37373 48.3944 103.35724 48.49158 103.34087 48.58876 103.32385 48.68594 103.30888 48.78311 103.29272 48.88028 103.27562 48.97746 103.25896 49.07465 103.24377 49.17183 103.22633 49.269 103.20984 49.36618 103.19165 49.46335 103.17467 49.56053 103.1565 49.65771 103.14113 49.75488 103.12352 49.85207 103.10632 49.94923 103.08769 50.04643 103.06949 50.1436 103.0522 50.24077 103.03323 50.33795 103.01753 50.43512 102.99886 50.53232 102.9816 50.62949 102.96217 50.72667 102.94572 50.82384 102.9258 50.921 102.9073 51.0182 102.88947 51.11537 102.86894 51.21255 102.8506 51.30972 102.83292 51.4069 102.81458 51.50409 102.79385 51.60126 102.77428 51.69844 102.75484 51.79561 102.73528 51.89279 102.71559 51.98997 102.69455 52.08716 102.6769 52.18433 102.65686 52.2815 102.63646 52.37868 102.61594 52.47586 102.5948 52.57304 102.57576 52.67021 102.55293 52.7674 102.53366 52.86456 102.5128 52.96175 102.49084 53.05893 102.46951 53.1561 102.44853 53.25328 102.42647 53.35045 102.40598 53.44765 102.38489 53.54482 102.36273 53.64198 102.34018 53.73917 102.31898 53.83633 102.29622 53.93353 102.27478 54.0307 102.25058 54.12788 102.2289 54.22505 102.2071 54.32222 102.1847 54.41942 102.16005 54.51659 102.13625 54.61377 102.11467 54.71094 102.09062 54.80812 102.06715 54.9053 102.04218 55.00247 102.0199 55.09966 101.99493 55.19682 101.97054 55.294 101.9451 55.39119 101.92188 55.48837 101.89714 55.58554 101.87321 55.68271 101.848 55.77989 101.82246 55.87708 101.79704 55.97426 101.77129 56.07143 101.74493 56.16861 101.72054 56.26578 101.69397 56.36296 101.66821 56.46014 101.64096 56.55731 101.61452 56.6545 101.58841 56.75166 101.56174 56.84886 101.53517 56.94603 101.50716 57.0432 101.4797 57.14038 101.45148 57.23755 101.42468 57.33475 101.39645 57.43192 101.369 57.5291 101.34055 57.62627 101.31265 57.72343 101.28311 57.82063 101.25456 57.9178 101.22568 58.01498 101.19624 58.11215 101.16759 58.20934 101.13687 58.30652 101.10777 58.40369 101.0777 58.50087 101.04817 58.59804 101.01617 58.69522 100.98538 58.7924 100.95427 58.88959 100.92346 58.98676 100.8936 59.08392 100.86154 59.1811 100.82938 59.27829 100.79796 59.37547 100.76581 59.47264 100.73312 59.56982 100.70119 59.66699 100.6675 59.76418 100.63472 59.86136 100.60165 59.95853 100.56932 60.05571 100.53482 60.15288 100.50066 60.25008 100.46637 60.34724 100.4322 60.44441 100.39777 60.5416 100.36299 60.63876 100.32735 60.73596 100.29242 60.83313 100.25656 60.9303 100.22105 61.02748 100.18423 61.12465 100.14793 61.22185 100.11116 61.31902 100.0743 61.4162 100.03772 61.51337 99.9999 61.61053 99.96239 61.70773 99.92401 61.8049 99.88612 61.90208 99.84816 61.99925 99.80896 62.09644 99.7695 62.19362 99.73012 62.29079 99.69148 62.38797 99.6514 62.48514 99.61086 62.58232 99.56985 62.6795 99.52956 62.77669 99.48898 62.87386 99.44646 62.97102 99.4052 63.0682 99.36292 63.16539 99.32115 63.26257 99.27835 63.35974 99.23497 63.45692 99.19186 63.5541 99.14854 63.65128 99.10498 63.74846 99.06041 63.84563 99.01561 63.94281 98.97115 64.03998 98.9257 64.13718 98.88004 64.23434 98.83395 64.33151 98.78781 64.4287 98.74164 64.52586 98.69435 64.62306 98.64684 64.72023 98.59946 64.81741 98.55151 64.91458 98.50264 65.01175 98.45409 65.10895 98.4055 65.20612 98.35565 65.3033 98.3056 65.40047 98.2557 65.49765 98.20526 65.59483 98.15392 65.692 98.10222 65.78918 98.05067 65.88635 97.99895 65.98354 97.946 66.08072 97.89287 66.1779 97.83955 66.27507 97.78575 66.37224 97.73108 66.46942 97.67657 66.5666 97.62175 66.66379 97.56558 66.76096 97.50975 66.85814 97.45361 66.9553 97.39648 67.05249 97.33904 67.14967 97.28128 67.24684 97.22322 67.34402 97.16422 67.4412 97.10506 67.53839 97.04578 67.63556 96.9854 67.73273 96.92458 67.82991 96.86394 67.92708 96.80193 68.02428 96.74011 68.12144 96.67787 68.21863 96.61472 68.3158 96.55101 68.41296 96.48721 68.51016 96.42204 68.60733 96.35664 68.70451 96.29132 68.80168 96.22531 68.89886 96.15826 68.99605 96.09166 69.09322 96.02357 69.1904 95.95512 69.28757 95.88649 69.38475 95.81688 69.48193 95.74677 69.57912 95.67647 69.67628 95.60478 69.77345 95.53337 69.87064 95.46104 69.96782 95.3878 70.065 95.3144 70.16217 95.2398 70.25935 95.16508 70.35652 95.09023 70.4537 95.0133 70.55089 94.937 70.64806 94.8603 70.74524 94.78172 70.8424 94.70337 70.9396 94.62401 71.03677 94.54387 71.13394 94.46379 71.23112 94.38205 71.3283 94.30055 71.42549 94.21744 71.52266 94.13411 71.61984 94.0509 71.71701 93.96526 71.81418 93.88115 71.91138 93.79451 72.00854 93.70729 72.10573 93.61983 72.2029 93.53127 72.30008 93.44257 72.39726 93.35295 72.49443 93.2627 72.59161 93.171 72.68878 93.0795 72.78596 92.98685 72.88315 92.89253 72.98032 92.7987 73.0775 92.70284 73.17467 92.6075 73.27185 92.51082 73.36903 92.41306 73.46622 92.31416 73.56339 92.21568 73.66055 92.11499 73.75774 92.01425 73.85492 91.91214 73.9521 91.81012 74.04927 91.70573 74.14645 91.60234 74.24362 91.49654 74.3408 91.3911 74.43799 91.28365 74.53516 91.17659 74.63234 91.06685 74.7295 90.9579 74.8267 90.84755 74.92387 90.73615 75.02104 90.62277 75.11823 90.5099 75.2154 90.39651 75.31259 90.28064 75.40976 90.1643 75.50694 90.04745 75.60411 89.92984 75.70128 89.81027 75.79848 89.69037 75.89565 89.57011 75.99283 89.44778 76.09 89.32433 76.18718 89.20071 76.28436 89.0758 76.38153 88.95111 76.47871 88.82437 76.57588 88.69583 76.67307 88.56656 76.77025 88.43692 76.86743 88.30647 76.9646 88.17581 77.06177 88.04172 77.15895 87.90858 77.25613 87.77385 77.35332 87.63702 77.45049 87.5011 77.54767 87.36304 77.64484 87.22472 77.74202 87.08464 77.8392 86.94308 77.93637 86.80157 78.03355 86.65916 78.13072 86.51462 78.22792 86.37 78.32509 86.22394 78.42226 86.07713 78.51944 85.92897 78.61661 85.78104 78.7138 85.63089 78.81097 85.48065 78.90816 85.32758 79.00533 85.17557 79.1025 85.02173 79.19969 84.86728 79.29686 84.7125 79.39404 84.5562 79.49121 84.39972 79.5884 84.24142 79.68558 84.08194 79.78275 83.92334 79.87993 83.7625 79.9771 83.60098 80.07428 83.44003 80.17146 83.27681 80.26865 83.11444 80.36581 82.95013 80.46298 82.78555 80.56017 82.62025 80.65735 82.45511 80.75453 82.28787 80.8517 82.12088 80.94888 81.95479 81.04605 81.78638 81.14323 81.61887 81.24042 81.45023 81.33759 81.28175 81.43477 81.11389 81.53194 80.94382 81.62914 80.775 81.7263 80.60646 81.82347 80.4375 81.92065 80.26817 82.01782 80.0987 82.11502 79.931 82.21219 79.76248 82.30937 79.59514 82.40654 79.42787 82.50371 79.2612 82.6009 79.09525 82.69807 78.92926 82.79526 78.76508 82.89243 78.6021 82.98961 78.44073 83.08679 78.27946 83.18396 78.12079 83.28114 77.96286 83.37831 77.80588 83.4755 77.65071 83.57268 77.49931 83.66986 77.34868 83.76703 77.19997 83.8642 77.05487 83.96138 76.91176 84.05856 76.772 84.15575 76.63426 84.25291 76.49965 84.3501 76.36865 84.44727 76.2421 84.54445 76.11835 84.64163 75.99986 84.7388 75.8848 84.83598 75.7741 84.93315 75.66882 85.03035 75.56755 85.12752 75.47226 85.22469 75.383 85.32187 75.29916 85.41904 75.22197 85.51624 75.15102 85.6134 75.08656 85.71057 75.02884 85.80775 74.97891 85.90492 74.9368 86.00212 74.90295 86.09929 74.87737 86.19647 74.86057 86.29364 74.85272 86.39081 74.8541 86.488 74.8657 86.58517 74.88725 86.68236 74.9191 86.77953 74.96179 86.87671 75.0156 86.97389 75.08083 87.07106 75.15782 87.16824 75.24667 87.26541 75.3479 87.3626 75.46187 87.45978 75.58861 87.55696 75.72838 87.65413 75.88084 87.7513 76.04712 87.84848 76.22635 87.94566 76.41872 88.04285 76.62537 88.14001 76.84462 88.2372 77.07672 88.33437 77.32211 88.43155 77.57983 88.52873 77.85007 88.6259 78.13167 88.72308 78.42424 88.82025 78.72649 88.91745 79.03827 89.01462 79.35724 89.11179 79.68405 89.20897 80.0159 89.30614 80.3523 89.40334 80.69003 89.5005 81.02702 89.59769 81.36385 89.69485 81.69449 89.79202 82.01793 89.88922 82.33064 89.98639 82.63152 90.08357 82.9148 90.18074 83.17932 90.27792 83.41942 90.3751 83.63167 90.47227 83.8128 90.56946 83.95912 90.66663 84.066 90.76381 84.12997 90.861 84.14749 90.95818 84.11554 91.05534 84.03123 91.15251 83.89267 91.2497 83.69836 91.34688 83.4486 91.44406 83.14423 91.54123 82.78746 91.63841 82.38371 91.73558 81.93909 91.83276 81.46202 91.92995 80.963 92.02711 80.45692 92.1243 79.95848 92.22147 79.48595 92.31866 79.0594 92.41583 78.70241 92.513 78.43149 92.61018 78.274 92.70735 78.24413 92.80455 78.35571 92.90173 78.61526 92.9989 79.01527 93.09607 79.54259 93.19325 80.16919 93.29044 80.83899 93.38762 81.49481 93.48479 82.059 93.58197 82.45175 93.67914 82.60231 93.77632 82.4577 93.8735 82.00934 93.97069 81.309 94.06786 80.47662 94.16504 79.70242 94.26222 79.2125 94.3594 79.1957 94.45657 79.72325 94.55374 80.6515 94.65092 81.58798 94.74811 82.01352 94.84529 81.58237 94.94246 80.4959 95.03964 79.61723 95.13681 79.88565 95.23401 81.12552 95.33118 81.66791 95.42836 80.51605 95.52553 79.855 95.62271 81.23965 95.7199 80.87184 95.81706 80.1542 95.91425 81.27887 96.01141 80.27559 96.1086 80.57385 96.2058 81.157 96.30296 81.13728 96.40013 80.6309 96.49731 80.95238 96.59448 80.97124 96.69168 80.7666 96.78885 80.84288 96.88603 80.77856 96.9832 80.73366 97.08037 80.66602 97.17757 80.67322 97.27475 80.75319 97.37192 80.64436 97.4691 80.80826 97.56627 80.55869 97.66347 80.50246 97.76064 80.9805 97.8578 80.3253 97.95499 80.91066 98.05215 80.92937 98.14935 80.31863 98.24654 80.51004 98.3437 81.11343 98.44087 80.33496 98.53806 80.65901 98.63524 81.37022 98.73242 79.94113 98.82959 80.3481 98.92677 81.60683 99.02394 81.26176 99.12112 79.99928 99.2183 79.57814 99.31549 80.36382 99.41266 81.4797 99.50984 82.0101 99.60703 81.67111 99.7042 80.76686 99.80138 79.81483 99.89854 79.22974 99.99573 79.1836 100.09291 79.62837 100.1901 80.38048 100.28726 81.21606 100.38445 81.94025 100.48161 82.4214 100.57881 82.6013 100.67598 82.48424 100.77316 82.11464 100.87033 81.56442 100.9675 80.9168 101.0647 80.24487 101.16187 79.6114 101.25905 79.07037 101.35622 78.65279 101.4534 78.37788 101.5506 78.24944 101.64777 78.26468 101.74493 78.40793 101.84212 78.66718 101.93929 79.0173 102.03648 79.43451 102.13365 79.90266 102.23083 80.39899 102.328 80.9057 102.42517 81.40572 102.52237 81.8858 102.61954 82.33453 102.71672 82.74373 102.81389 83.10579 102.91107 83.41638 103.00826 83.6727 103.10542 83.87315 103.2026 84.0181 103.29977 84.1085 103.39696 84.14645 103.49414 84.1345 103.59132 84.07555 103.68849 83.97336 103.78566 83.83174 103.88284 83.65445 103.98003 83.44487 104.07721 83.20813 104.17438 82.94711 104.27156 82.66534 104.36873 82.36674 104.46591 82.05458 104.5631 81.73207 104.66026 81.40186 104.75745 81.06613 104.85461 80.72852 104.95181 80.39064 105.04898 80.0546 105.14615 79.72171 105.24333 79.39468 105.3405 79.07382 105.4377 78.76198 105.53487 78.4583 105.63205 78.16476 105.72922 77.8817 105.82639 77.61035 105.92358 77.35112 106.02075 77.10434 106.11794 76.87048 106.2151 76.64983 106.31227 76.4422 106.40947 76.2477 106.50664 76.0666 106.60382 75.8994 106.70099 75.74496 106.79817 75.60347 106.89536 75.47563 106.99252 75.3606 107.0897 75.25772 107.18687 75.1673 107.28406 75.08907 107.38124 75.02257 107.47842 74.96716 107.57559 74.92358 107.67276 74.89012 107.76994 74.8677 107.86713 74.85516 107.96431 74.85231 108.06148 74.85919 108.15866 74.87512 108.25583 74.89964 108.35301 74.93263 108.4502 74.97395 108.54736 75.02292 108.64455 75.07956 108.74171 75.14258 108.83891 75.2131 108.93608 75.2902 109.03325 75.3731 109.13043 75.46223 109.2276 75.55687 109.3248 75.65721 109.42197 75.76167 109.51915 75.87206 109.61632 75.98608 109.71349 76.10478 109.81068 76.22826 109.90785 76.35452 110.00504 76.48488 110.1022 76.61821 110.19939 76.75581 110.29657 76.8957 110.39374 77.0381 110.49092 77.18327 110.58809 77.33133 110.68527 77.48167 110.78246 77.63309 110.87964 77.78781 110.9768 77.94437 111.07397 78.10161 111.17116 78.26079 111.26834 78.42162 111.36552 78.58386 111.46269 78.74666 111.55988 78.9104 111.65704 79.07597 111.75423 79.24245 111.85141 79.40805 111.94858 79.57555 112.04576 79.7435 112.14293 79.91177 112.24013 80.08005 112.3373 80.24922 112.43446 80.41821 112.53165 80.58684 112.62881 80.75587 112.72601 80.92456 112.82318 81.09352 112.92036 81.26288 113.01753 81.43025 113.1147 81.59955 113.2119 81.76791 113.30907 81.9342 113.40625 82.10225 113.50342 82.26974 113.6006 82.43605 113.69778 82.60098 113.79495 82.76598 113.89214 82.93074 113.9893 83.09566 114.08649 83.25877 114.18367 83.42126 114.28085 83.5836 114.37802 83.74419 114.47519 83.90485 114.57237 84.06432 114.66956 84.22304 114.76674 84.38127 114.8639 84.53865 114.96109 84.69458 115.05826 84.8501 115.15544 85.00548 115.25262 85.15775 115.3498 85.31123 115.44698 85.46344 115.54414 85.61436 115.64134 85.7628 115.73851 85.91245 115.83568 86.06078 115.93286 86.20744 116.03003 86.35356 116.12723 86.49785 116.2244 86.64279 116.32158 86.78506 116.41875 86.9272 116.51591 87.06883 116.61311 87.20813 116.71028 87.34633 116.80746 87.48537 116.90463 87.62283 117.00182 87.7581 117.099 87.89293 117.19617 88.02597 117.29335 88.1603 117.39052 88.29062 117.4877 88.42288 117.58488 88.55254 117.68207 88.6817 117.77924 88.81027 117.8764 88.93623 117.97359 89.06186 118.07077 89.18692 118.16795 89.31032 118.26512 89.43404 118.36229 89.55617 118.45947 89.6767 118.55666 89.79651 118.65384 89.91504 118.751 90.03448 118.84819 90.15068 118.94536 90.26788 119.04254 90.3837 119.13972 90.49738 119.2369 90.61043 119.33408 90.7225 119.43124 90.83456 119.52844 90.94574 119.62561 91.05486 119.72278 91.16367 119.81996 91.2709 119.91713 91.37866 120.01433 91.48494 120.1115 91.58968 120.20868 91.69453 120.30585 91.79759 120.40302 91.90099 120.50021 92.00252 120.59738 92.10321 120.69456 92.20345 120.79173 92.30331 120.88892 92.40218 120.9861 92.49881 121.08327 92.596 121.18045 92.69194 121.27762 92.78777 121.3748 92.88196 121.47198 92.9761 121.56917 93.06885 121.66634 93.16045 121.7635 93.25224 121.86069 93.34206 121.95787 93.43288 122.05505 93.52097 122.15222 93.60963 122.2494 93.69736 122.34657 93.78412 122.44376 93.87071 122.54094 93.95622 122.6381 94.04155 122.73529 94.12514 122.83246 94.20815 122.92966 94.29124 123.02682 94.37273 123.124 94.45471 123.22118 94.53535 123.31834 94.61475 123.41554 94.69437 123.51271 94.77315 123.6099 94.85141 123.70706 94.92824 123.80423 95.00511 123.90143 95.08171 123.9986 95.15642 124.09578 95.2317 124.19295 95.3057 124.29013 95.3789 124.38731 95.4529 124.48448 95.52475 124.58167 95.59691 124.67883 95.66827 124.77602 95.73871 124.8732 95.80835 124.97038 95.87903 125.06755 95.94734 125.16472 96.01593 125.2619 96.08383 125.35909 96.1506 125.45627 96.21764 125.55344 96.28426 125.65062 96.34941 125.74779 96.41447 125.84497 96.4798 125.94215 96.54327 126.03932 96.60715 126.1365 96.67044 126.23367 96.73268 126.33087 96.7948 126.42804 96.85683 126.5252 96.91743 126.62239 96.97826 126.71956 97.03912 126.81676 97.0984 126.91393 97.15706 127.01111 97.2164 127.10828 97.27463 127.20544 97.33221 127.30264 97.38965 127.39981 97.44711 127.497 97.50325 127.59416 97.55907 127.69135 97.61523 127.78853 97.67041 127.8857 97.72491 127.98288 97.77924 128.08005 97.83357 128.17723 97.8867 128.27442 97.93983 128.3716 97.99278 128.46877 98.04468 128.56594 98.0964 128.66312 98.1481 128.7603 98.19943 128.85749 98.24971 128.95465 98.29979 129.05184 98.35 129.149 98.39969 129.24619 98.44862 129.34337 98.49736 129.44054 98.54623 129.53772 98.59439 129.63489 98.6414 129.73209 98.68874 129.82926 98.73569 129.92642 98.78276 130.0236 98.82852 130.12078 98.87462 130.21797 98.92067 130.31514 98.96613 130.41231 99.01079 130.50949 99.05502 130.60666 99.09996 130.70386 99.14409 130.80103 99.18686 130.89821 99.23015 130.99538 99.27336 131.09255 99.31635 131.18975 99.35814 131.28691 99.40002 131.3841 99.44206 131.48126 99.48404 131.57845 99.5246 131.67563 99.56549 131.7728 99.60591 131.86998 99.64665 131.96715 99.68655 132.06433 99.7258 132.16152 99.76556 132.2587 99.80484 132.35587 99.84387 132.45304 99.88182 132.55022 99.91971 132.6474 99.95811 132.74459 99.99564 132.84175 100.03387 132.93894 100.07043 133.0361 100.10732 133.13329 100.1441 133.23047 100.18062 133.32764 100.21684 133.42482 100.25238 133.52199 100.28761 133.61919 100.32378 133.71636 100.35944 133.81352 100.39442 133.9107 100.42827 134.00788 100.46223 134.10507 100.49632 134.20224 100.53174 134.29943 100.56459 134.39659 100.59798 134.49376 100.63084 134.59096 100.66466 134.68813 100.69753 134.78531 100.73012 134.88248 100.76176 134.97966 100.79393 135.07685 100.82556 135.17401 100.85732 135.2712 100.88982 135.36837 100.92053 135.46555 100.95198 135.56273 100.9827 135.65991 101.01329 135.75708 101.04424 135.85425 101.07376 135.95143 101.10406 136.04862 101.13295 136.1458 101.16368 136.24297 101.19345 136.34015 101.22354 136.43732 101.25113 136.5345 101.27925 136.63169 101.3088 136.72885 101.33781 136.82604 101.3654 136.9232 101.39441 137.0204 101.42154 137.11757 101.44945 137.21474 101.47615 137.31192 101.50383 137.40909 101.53163 137.50629 101.55844 137.60346 101.58467 137.70064 101.61148 137.7978 101.6377 137.89498 101.66518 137.99217 101.6912 138.08934 101.71754 138.18653 101.74196 138.28369 101.7683 138.38088 101.79362 138.47806 101.81998 138.57523 101.84439 138.67241 101.87051 138.76958 101.89423 138.86676 101.91875 138.96395 101.94269 139.06113 101.96698 139.1583 101.99207 139.25547 102.01752 139.35265 102.04053 139.44983 102.06436 139.54701 102.08806 139.64418 102.11 139.74137 102.13347 139.83853 102.15659 139.93572 102.18028 140.0329 102.20436 140.13007 102.22618 140.22725 102.24835 140.32442 102.27232 140.42162 102.29355 140.51879 102.31631 140.61595 102.33897 140.71314 102.36057 140.8103 102.38155 140.9075 102.40288 141.00467 102.42386 141.10186 102.44643 141.19902 102.4674 141.29619 102.48877 141.39339 102.51097 141.49056 102.53162 141.58774 102.5509 141.6849 102.57155 141.78209 102.59279 141.87928 102.61319 141.97644 102.63322 142.07363 102.65489 142.17079 102.6727 142.26798 102.69313 142.36516 102.71368 142.46233 102.73338 142.55951 102.75345 142.65668 102.7724 142.75386 102.79224 142.85105 102.8107 142.94823 102.82828 143.0454 102.84955 143.14257 102.86739 143.23975 102.88766 143.33693 102.90527 143.43412 102.92326 143.53128 102.94319 143.62847 102.96121 143.72563 102.98013 143.82282 102.99637 143.92 103.0135 144.01717 103.03261 144.11435 103.0508 144.21152 103.06836 144.30872 103.08606 144.40589 103.10391 144.50305 103.11981 144.60024 103.13979 144.6974 103.1552 144.7946 103.17256 144.89177 103.19063 144.98896 103.20726 145.08612 103.22482 145.18329 103.23933 145.28049 103.258 145.37766 103.27469 145.47484 103.28857 145.572 103.30663 145.66919 103.32323 145.76638 103.33945 145.86354 103.35555 145.96073 103.37129 146.05789 103.38715 146.15508 103.4029 146.25226 103.41824 146.34944 103.43405 146.44661 103.44946 146.54378 103.46501 146.64096 103.48102 146.73815 103.49689 146.83533 103.51237 146.9325 103.52637 147.02968 103.54137 147.12685 103.55623 147.22403 103.57126 147.32122 103.5862 147.41838 103.60127 147.51557 103.61623 147.61273 103.63055 147.70993 103.6453 147.8071 103.65933 147.90427 103.6736 148.00145 103.68715 148.09862 103.70143 148.19582 103.71587 148.29299 103.73024 148.39017 103.74417 148.48734 103.75801 148.5845 103.7726 148.6817 103.7865 148.77887 103.79941 148.87606 103.81306 148.97322 103.82637 149.0704 103.83981 149.16759 103.85313 149.26476 103.86667 149.36194 103.88007 149.4591 103.89305 149.55629 103.90712 149.65348 103.91989 149.75066 103.93314 149.84783 103.94539 149.94499 103.95786 150.04218 103.97076 150.13936 103.98328 150.23654 103.99599 150.33371 104.00858 150.4309 104.02132 150.52806 104.03432 150.62525 104.04626 150.72243 104.059 150.8196 104.07103 150.91678 104.08269 151.01395 104.09451 151.11115 104.10709 151.20832 104.11873 151.30548 104.13051 151.40267 104.14279 151.49983 104.1547 151.59703 104.16644 151.6942 104.17871 151.79138 104.19058 151.88855 104.20172 151.98572 104.21275 152.08292 104.22398 152.18009 104.23543 152.27727 104.24704 152.37444 104.25824 152.47162 104.2694 152.5688 104.28099 152.66597 104.2925 152.76316 104.30359 152.86032 104.3143 152.9575 104.32486 153.05469 104.33563 153.15187 104.34634 153.24904 104.35721 153.3462 104.36768 153.44339 104.37868 153.54058 104.38956 153.63776 104.40002 153.73493 104.41135 153.8321 104.42126 153.92928 104.43268 154.02646 104.44272 154.12364 104.45302 154.22081 104.46284 154.318 104.4732 154.41516 104.48286 154.51235 104.49335 154.60953 104.50339 154.7067 104.51367 154.80388 104.52292 154.90105 104.5333 154.99825 104.5436 155.09542 104.55348 155.19258 104.56358 155.28977 104.57228 155.38694 104.58218 155.48413 104.59166 155.5813 104.60133 155.67848 104.61095 155.77565 104.62077 155.87282 104.63014 155.97002 104.63976 156.06719 104.64964 156.16437 104.6587 156.26154 104.66803 156.35872 104.67793 156.4559 104.6867 156.55307 104.69574 156.65026 104.70465 156.74742 104.71417 156.8446 104.72289 156.94179 104.7315 157.03897 104.74072 157.13614 104.74948 157.2333 104.75847 157.33049 104.76773 157.42768 104.77652 157.52486 104.7859 157.62203 104.79454 157.71921 104.80305 157.81638 104.81146 157.91356 104.82011 158.01074 104.82837 158.10791 104.83649 158.2051 104.84485 158.30226 104.85384 158.39946 104.86234 158.49663 104.8704 158.5938 104.87874 158.69098 104.88733 158.78815 104.89581 158.88535 104.90419 158.98252 104.91217 159.0797 104.92036 159.17687 104.92847 159.27404 104.93651 159.37123 104.94408 159.4684 104.95224 159.56558 104.96 159.66275 104.96797 159.75994 104.97551 159.85712 104.98296 159.95429 104.99138 160.05147 104.99934 160.14864 105.00685 160.24582 105.01535 160.343 105.02269 160.44019 105.03062 160.53736 105.03813 160.63452 105.04523 160.7317 105.05254 160.82889 105.0601 160.92607 105.06763 161.02324 105.07503 161.12042 105.08234 161.21759 105.09029 161.31478 105.09741 161.41196 105.1048 161.50913 105.11177 161.60631 105.12006 161.70348 105.1272 161.80068 105.13458 161.89785 105.14229 161.99501 105.14877 162.0922 105.1552 162.18936 105.16226 162.28656 105.16884 162.38373 105.17607 162.48091 105.18285 162.57808 105.18991 162.67525 105.19652 162.77245 105.20413 162.86962 105.21094 162.9668 105.218 163.06397 105.22462 163.16115 105.23117 163.25833 105.23907 163.3555 105.24544 163.45269 105.25172 163.54985 105.2579 163.64704 105.26474 163.74422 105.2711 163.8414 105.27817 163.93857 105.28438 164.03574 105.29123 164.13292 105.2973 164.2301 105.30435 164.32729 105.31023 164.42446 105.31712 164.52164 105.3236 164.6188 105.32994 164.71599 105.33621 164.81317 105.34242 164.91034 105.34927 165.00753 105.35532 165.10469 105.36127 165.20189 105.36787 165.29906 105.37364 165.39623 105.37936 165.49341 105.38571 165.59058 105.39124 165.68778 105.39781 165.78495 105.40395 165.88213 105.40959 165.9793 105.41594 166.07646 105.4222 166.17366 105.42838 166.27083 105.43407 166.36801 105.44008 166.46518 105.44604 166.56237 105.45189 166.65955 105.45804 166.75672 105.46375 166.8539 105.46935 166.95107 105.47449 167.04825 105.48033 167.14543 105.4861 167.2426 105.49136 167.33979 105.4966 167.43695 105.5025 167.53414 105.50832 167.63132 105.51445 167.7285 105.51936 167.82567 105.52493 167.92284 105.53084 168.02002 105.53629 168.1172 105.54204 168.21439 105.54732 168.31156 105.55368 168.40874 105.55882 168.5059 105.56425 168.60309 105.5696 168.70027 105.57451 168.79744 105.57932 168.89463 105.58522 168.99179 105.5895 169.08899 105.59607 169.18616 105.60016 169.28333 105.60576 169.38051 105.61093 169.47768 105.6164 169.57488 105.62138 169.67205 105.62671 169.76923 105.63194 169.8664 105.63751 169.96356 105.64182 170.06076 105.6468 170.15793 105.65256 170.25511 105.65782 170.35228 105.66302 170.44947 105.66855 170.54665 105.67278 170.64382 105.67818 170.741 105.68306 170.83817 105.68745 170.93535 105.69182 171.03253 105.69731 171.12972 105.7019 171.22689 105.70645 171.32405 105.71132 171.42124 105.7169 171.51842 105.7208 171.6156 105.72588 171.71277 105.73044 171.80995 105.73535 171.90712 105.74019 172.0043 105.74579 172.10149 105.75006 172.19866 105.75468 172.29584 105.76009 172.393 105.76456 172.4902 105.76855 172.58737 105.77373 172.68454 105.77798 172.78173 105.78217 172.87889 105.78673 172.97609 105.79077 173.07326 105.796 173.17044 105.79993 173.26761 105.80417 173.36478 105.80835 173.46198 105.81372 173.55915 105.81778 173.65633 105.8226 173.7535 105.82692 173.85068 105.83119 173.94786 105.83495 174.04503 105.84035 174.14221 105.84395 174.23938 105.84837 174.33657 105.8527 174.43375 105.85739 174.53093 105.86162 174.6281 105.86574 174.72527 105.87065 174.82245 105.8738 174.91963 105.87814 175.01682 105.882 175.11399 105.88667 175.21117 105.89081 175.30834 105.89445 175.40552 105.89803 175.5027 105.90286 175.59987 105.9063 175.69705 105.91098 175.79422 105.91473 175.89142 105.91972 175.98859 105.92331 176.08576 105.92685 176.18294 105.93123 176.2801 105.9355 176.3773 105.93971 176.47447 105.9439 176.57166 105.94797 176.66883 105.95198 176.76599 105.95506 176.86319 105.95895 176.96036 105.96277 177.05754 105.96742 177.15471 105.97023 177.25189 105.97473 177.34908 105.97873 177.44625 105.98224 177.54343 105.98567 177.6406 105.98947 177.73778 105.99368 177.83496 105.99693 177.93215 106.00053 178.02931 106.00453 178.12648 106.00848 178.22367 106.0128 178.32085 106.01614 178.41803 106.01991 178.5152 106.02315 178.61238 106.0272 178.70955 106.03123 178.80673 106.03517 178.90392 106.03859 179.00109 106.04243 179.09827 106.04619 179.19544 106.04897 179.29262 106.0526 179.3898 106.0571 179.48697 106.0606 179.58415 106.06311 179.68132 106.06653 179.77852 106.06984 179.87569 106.07309 179.97286 106.0772 180.07004 106.08034 180.1672 106.08434 180.2644 106.08688 180.36157 106.09123 180.45876 106.0941 180.55593 106.09784 180.65309 106.10155 180.75029 106.1047 180.84746 106.10826 180.94464 106.11133 181.04181 106.11523 181.13899 106.11908 181.23618 106.12239 181.33335 106.12521 181.43053 106.12886 181.5277 106.13295 181.62488 106.13559 181.72206 106.13907 181.81925 106.1425 181.91641 106.14493 182.01358 106.14873 182.11077 106.152 182.20795 106.15422 182.30513 106.15785 182.4023 106.16092 182.49948 106.16441 182.59665 106.16739 182.69384 106.17123 182.79102 106.17311 182.88819 106.17688 182.98537 106.1796 183.08254 106.18224 183.17974 106.18579 183.2769 106.18886 183.37407 106.19228 183.47126 106.19566 183.56842 106.19853 183.66562 106.20227 183.76279 106.20549 183.85997 106.20816 183.95714 106.21176 184.0543 106.2148 184.1515 106.21779 184.24868 106.22025 184.34586 106.22311 184.44303 106.22737 184.5402 106.22919 184.63739 106.23138 184.73456 106.23549 184.83174 106.2381 184.92891 106.24014 185.0261 106.24406 185.12328 106.246 185.22046 106.24985 185.31763 106.25262 185.4148 106.25633 185.51198 106.25806 185.60916 106.26166 185.70635 106.26422 185.80352 106.26675 185.9007 106.2702 185.99787 106.2716 186.09505 106.27641 186.19223 106.27824 186.2894 106.28096 186.38658 106.28412 186.48375 106.28725 186.58095 106.28983 186.67812 106.29283 186.77529 106.29579 186.87247 106.2992 186.96964 106.30254 187.06684 106.30432 187.164 106.3071 187.26119 106.30927 187.35836 106.31189 187.45552 106.31448 187.55272 106.3175 187.64989 106.32048 187.74707 106.3234 187.84424 106.32578 187.94142 106.32758 188.0386 106.32983 188.13578 106.33253 188.23296 106.33571 188.33013 106.3378 188.4273 106.34087 188.52449 106.34386 188.62168 106.34682 188.71884 106.34918 188.81601 106.35155 188.9132 106.35384 189.01038 106.35606 189.10756 106.3603 189.20473 106.36241 189.30191 106.36499 189.39908 106.36755 189.49626 106.369 189.59345 106.37196 189.69062 106.37587 189.7878 106.37769 189.88497 106.3805 189.98217 106.3827 190.07933 106.38438 190.1765 106.38649 190.27368 106.3896 190.37085 106.39163 190.46805 106.39516 190.56522 106.39706 190.6624 106.39948 190.75957 106.4018 190.85674 106.40408 190.95394 106.40578 191.0511 106.40955 191.14829 106.41168 191.24546 106.41426 191.34262 106.41632 191.43982 106.41882 191.53699 106.42128 191.63417 106.42421 191.73134 106.42448 191.82852 106.42783 191.9257 106.43008 192.02288 106.43283 192.12006 106.4355 192.21723 106.43814 192.3144 106.44073 192.41159 106.44223 192.50878 106.44524 192.60594 106.44716 192.70311 106.44902 192.8003 106.45189 192.89748 106.4547 192.99466 106.45697 193.09183 106.45917 193.18901 106.46132 193.28618 106.46342 193.38336 106.46495 193.48055 106.46747 193.57772 106.46944 193.6749 106.4719 193.77207 106.4732 193.86927 106.47554 193.96643 106.47787 194.0636 106.48012 194.16078 106.48286 194.25795 106.48503"/>
</g>
<use data-text="x" xlink:href="#font_4_1" transform="matrix(9.962799,0,0,-9.962799,191.68456,78.95525)"/>
<use data-text="y" xlink:href="#font_4_2" transform="matrix(9.962799,0,0,-9.962799,107.25386,9.582855)"/>
</svg>
