<svg xmlns="http://www.w3.org/2000/svg" xmlns:xlink="http://www.w3.org/1999/xlink" xmlns:inkscape="http://www.inkscape.org/namespaces/inkscape" version="1.1" width="200" height="171" viewBox="0 0 200 171">
<defs>
<path id="font_1_1" d="M.6589966 .23046875C.6759949 .23046875 .69400027 .23046875 .69400027 .25045777 .69400027 .27046205 .6759949 .27046205 .6589966 .27046205H.117996219C.100997928 .27046205 .08299255 .27046205 .08299255 .25045777 .08299255 .23046875 .100997928 .23046875 .117996219 .23046875H.6589966Z"/>
<path id="font_2_6" d="M.2899933 .35191346C.37199403 .37893678 .42999269 .4490509 .42999269 .52809146 .42999269 .6100464 .34199525 .6660156 .24598694 .6660156 .14498902 .6660156 .068984989 .60606387 .068984989 .53009036 .068984989 .49710084 .09098816 .47808839 .11999512 .47808839 .15098572 .47808839 .17098999 .50009158 .17098999 .5290985 .17098999 .57910159 .12399292 .57910159 .10899353 .57910159 .13999939 .62802127 .20599365 .64100649 .24198914 .64100649 .2829895 .64100649 .33799745 .6190338 .33799745 .5290985 .33799745 .51708987 .33599855 .45906068 .30999757 .4149933 .27999879 .36691285 .24598694 .36390687 .22099304 .36291505 .21299744 .36190797 .18899536 .35990907 .18199158 .35990907 .17399597 .35890199 .16699219 .35791017 .16699219 .3479004 .16699219 .33691407 .17399597 .33691407 .19099427 .33691407H.23498535C.31698609 .33691407 .35398866 .2686615 .35398866 .17037964 .35398866 .034469606 .2849884 .0055389406 .24099732 .0055389406 .19799805 .0055389406 .12298584 .022491456 .08799744 .08137512 .12298584 .07637024 .1539917 .09837341 .1539917 .1363678 .1539917 .17237854 .1269989 .19238281 .09799194 .19238281 .07398987 .19238281 .041992189 .17837525 .041992189 .1343689 .041992189 .043441774 .1349945-.022460938 .24398804-.022460938 .3659973-.022460938 .45700074 .06838989 .45700074 .17037964 .45700074 .252594 .3939972 .33088685 .2899933 .35191346Z"/>
<path id="font_3_1" d="M.2649994 .37265016H.37799073C.34498597 .22489929 .33599855 .18196106 .33599855 .11508179 .33599855 .100097659 .33599855 .073150638 .34399415 .03919983 .35398866-.0047454836 .36499024-.0107421879 .37998963-.0107421879 .3999939-.0107421879 .42099 .007247925 .42099 .02722168 .42099 .033218385 .42099 .035202028 .4149933 .049179079 .38598634 .12106323 .38598634 .18595886 .38598634 .21391297 .38598634 .26683045 .3929901 .32073976 .4039917 .37265016H.5179901C.5309906 .37265016 .5669861 .37265016 .5669861 .406662 .5669861 .43066407 .54599 .43066407 .5269928 .43066407H.19198609C.16999817 .43066407 .13198853 .43066407 .08799744 .38365174 .052993776 .34469605 .026992798 .29878236 .026992798 .29379273 .026992798 .29278565 .026992798 .28379823 .038986207 .28379823 .04699707 .28379823 .04899597 .28779603 .054992677 .29577638 .10398865 .37265016 .1619873 .37265016 .18199158 .37265016H.23899842C.20698548 .25186158 .15299988 .13105774 .11099243 .04020691 .102996829 .025222779 .102996829 .023223877 .102996829 .016235352 .102996829-.002746582 .11898804-.0107421879 .13198853-.0107421879 .1619873-.0107421879 .16999817 .017242432 .18199158 .05418396 .19599915 .100097659 .19599915 .10209656 .20899964 .15202332L.2649994 .37265016Z"/>
<path id="font_2_5" d="M.1269989 .07699585 .23298645 .18003845C.3889923 .31811524 .44898988 .3721466 .44898988 .47216798 .44898988 .5860901 .35899354 .6660156 .23699951 .6660156 .12399292 .6660156 .049987794 .57411196 .049987794 .48516847 .049987794 .4291687 .099990848 .4291687 .102996829 .4291687 .11999512 .4291687 .15499878 .44117738 .15499878 .48217774 .15499878 .5081787 .13699341 .5341797 .101989749 .5341797 .09399414 .5341797 .09199524 .5341797 .08898926 .5331726 .11199951 .59806826 .1659851 .63500979 .22399903 .63500979 .31498719 .63500979 .35798646 .5541382 .35798646 .47216798 .35798646 .39215089 .30799867 .31311036 .25299073 .25108338L.06098938 .036987306C.049987794 .025985718 .049987794 .023986817 .049987794 0H.42099L.44898988 .17404175H.42399598C.4189911 .14402771 .4119873 .1000061 .4019928 .084991458 .394989 .07699585 .32899476 .07699585 .30699159 .07699585H.1269989Z"/>
<path id="font_4_1" d="M.74398806 .2263794C.7599945 .2263794 .7839966 .2263794 .7839966 .25038148 .7839966 .27539063 .7609863 .27539063 .74398806 .27539063H.147995C.13198853 .27539063 .10798645 .27539063 .10798645 .25138856 .10798645 .2263794 .1309967 .2263794 .147995 .2263794H.74398806Z"/>
<path id="font_5_1" d="M.31098939 .36265565H.42999269C.4149933 .30274964 .3929901 .2118988 .3929901 .13302613 .3929901 .09309387 .397995 .06613159 .4039917 .044174196 .41999818-.0057678224 .43299867-.009765625 .44898988-.009765625 .47200013-.009765625 .49598695 .011230469 .49598695 .035186769 .49598695 .043182374 .49398805 .047164918 .48799134 .057159425 .46899415 .09408569 .45098878 .15100098 .45098878 .23286438 .45098878 .25183106 .45098878 .29177857 .46499635 .36265565H.58999636C.60798647 .36265565 .6159973 .36265565 .6269989 .37065126 .6409912 .380661 .6439972 .39665223 .6439972 .4016571 .6439972 .43066407 .6179962 .43066407 .6009979 .43066407H.22399903C.18299866 .43066407 .15499878 .42166139 .10998535 .37965394 .083999637 .35665895 .04499817 .30274964 .04499817 .2937622 .04499817 .28178407 .057998659 .28178407 .06199646 .28178407 .07299805 .28178407 .07398987 .28378297 .07998657 .2927704 .1309967 .36265565 .19299317 .36265565 .21499634 .36265565H.27598573C.24499512 .25283814 .19099427 .13502503 .16099549 .07511902 .15499878 .062149049 .14498902 .04118347 .14199829 .03718567 .14099121 .033187868 .13899231 .029190064 .13899231 .022201539 .13899231 .006225586 .15098572-.009765625 .17399597-.009765625 .21398926-.009765625 .22499085 .035186769 .24899292 .12504578L.31098939 .36265565Z"/>
<path id="font_6_1" d="M.5049896 .18203736H.47099305C.46798707 .16001892 .45799256 .100997928 .44499208 .09098816 .43699647 .084991458 .3600006 .084991458 .34599305 .084991458H.1619873C.2669983 .17803955 .3019867 .20603943 .3619995 .25306703 .43598939 .312088 .5049896 .374115 .5049896 .46914674 .5049896 .5900879 .39898683 .6640625 .2709961 .6640625 .14698792 .6640625 .06298828 .57710269 .06298828 .4851532 .06298828 .43414308 .10598755 .42915345 .115997318 .42915345 .13999939 .42915345 .16899109 .44615174 .16899109 .48214723 .16899109 .5001526 .1619873 .53515627 .10998535 .53515627 .14099121 .6060791 .20899964 .62805178 .2559967 .62805178 .35598756 .62805178 .4079895 .5501404 .4079895 .46914674 .4079895 .38212586 .34599305 .3130951 .31399537 .27708436L.07299805 .038986207C.06298828 .02999878 .06298828 .027999878 .06298828 0H.47499085L.5049896 .18203736Z"/>
<path id="font_6_2" d="M.272995 .33428956C.35099793 .33428956 .40699769 .2803192 .40699769 .1733551 .40699769 .04940796 .33499146 .012466431 .2769928 .012466431 .23699951 .012466431 .14898682 .0234375 .10699463 .082351688 .1539917 .084350589 .16499329 .11735535 .16499329 .13835144 .16499329 .17034912 .14099121 .19335938 .10998535 .19335938 .08198547 .19335938 .053985597 .17634583 .053985597 .13534546 .053985597 .041412355 .1579895-.01953125 .2789917-.01953125 .41799928-.01953125 .5139923 .07336426 .5139923 .1733551 .5139923 .2513275 .44999696 .32929994 .33999635 .35229493 .44499208 .39024354 .48298646 .4650879 .48298646 .5260773 .48298646 .60505679 .3919983 .6640625 .2809906 .6640625 .16999817 .6640625 .084991458 .61006167 .084991458 .5300751 .084991458 .49606324 .10699463 .47706605 .13699341 .47706605 .16799927 .47706605 .18798828 .5000763 .18798828 .5280762 .18798828 .5570679 .16799927 .57806399 .13699341 .5800781 .17199707 .62405398 .24099732 .63505557 .27799989 .63505557 .32299806 .63505557 .38598634 .6130676 .38598634 .5260773 .38598634 .48406983 .37199403 .43814088 .34599305 .4072113 .31298829 .36927796 .2849884 .3672943 .23498535 .36428834 .20999146 .3623047 .20799256 .3623047 .20298767 .3612976 .20098877 .3612976 .19299317 .3592987 .19299317 .34829713 .19299317 .33428956 .20199585 .33428956 .21899414 .33428956H.272995Z"/>
<path id="font_2_4" d="M.2939911 .64004519C.2939911 .66400149 .2939911 .6660156 .2709961 .6660156 .20899964 .60227969 .12098694 .60227969 .08898926 .60227969V.57128909C.10899353 .57128909 .16799927 .57128909 .21998596 .5972748V.07902527C.21998596 .042999269 .21699524 .0309906 .1269989 .0309906H.09498596V0C.12998963 .0029907227 .21699524 .0029907227 .25698854 .0029907227 .29699708 .0029907227 .38398744 .0029907227 .4189911 0V.0309906H.3869934C.29699708 .0309906 .2939911 .041992189 .2939911 .07902527V.64004519Z"/>
<path id="font_2_3" d="M.45999146 .31976319C.45999146 .39982606 .45498658 .47988893 .41999818 .5539398 .37399293 .65000918 .2919922 .6660156 .25 .6660156 .18998719 .6660156 .116989139 .64001467 .07598877 .54693606 .04399109 .47789 .038986207 .39982606 .038986207 .31976319 .038986207 .24472046 .042999269 .15464783 .083999637 .07859802 .1269989-.0024719239 .19999695-.022460938 .24899292-.022460938 .30299378-.022460938 .3789978-.0014648438 .4229889 .09359741 .45498658 .16265869 .45999146 .2407074 .45999146 .31976319M.24899292-.00047302247C.20999146-.00047302247 .15098572 .024551392 .1329956 .12062073 .12199402 .18066406 .12199402 .2727356 .12199402 .3317871 .12199402 .39582826 .12199402 .46188355 .12998963 .5159149 .14898682 .63500979 .22399903 .64401248 .24899292 .64401248 .28199769 .64401248 .34799195 .6259918 .36698915 .52693179 .3769989 .47088624 .3769989 .39482118 .3769989 .3317871 .3769989 .25672914 .3769989 .18867493 .3659973 .12461853 .35099793 .029556275 .2939911-.00047302247 .24899292-.00047302247Z"/>
<path id="font_2_7" d="M.44898988 .20022583C.44898988 .3193512 .36698915 .41944886 .25898744 .41944886 .21099854 .41944886 .16799927 .40345765 .13198853 .36842347V.5637665C.1519928 .5577698 .18499756 .55078127 .21699524 .55078127 .33999635 .55078127 .4099884 .6417694 .4099884 .6547699 .4099884 .6607666 .40699769 .6657715 .3999939 .6657715 .39898683 .6657715 .39698792 .6657715 .3919983 .66278079 .37199403 .6537781 .32299806 .6337738 .2559967 .6337738 .21598816 .6337738 .16999817 .6407776 .12298584 .6617737 .114990238 .66477969 .11299133 .66477969 .11099243 .66477969 .100997928 .66477969 .100997928 .6567688 .100997928 .6407776V.34439088C.100997928 .32637025 .100997928 .31835938 .114990238 .31835938 .12199402 .31835938 .12399292 .32136537 .12799073 .32736207 .13899231 .3433838 .17599488 .39746095 .25698854 .39746095 .30899049 .39746095 .33399964 .35139466 .34199525 .33337403 .35798646 .29632569 .3600006 .25727845 .3600006 .20722962 .3600006 .17222595 .3600006 .11222839 .33599855 .07035828 .31199647 .031463624 .2749939 .0055389406 .22898865 .0055389406 .1559906 .0055389406 .09899902 .058380128 .08198547 .11723328 .084991458 .1162262 .08799744 .115234378 .09899902 .115234378 .13198853 .115234378 .14898682 .14022827 .14898682 .16423035 .14898682 .18823242 .13198853 .21322632 .09899902 .21322632 .084991458 .21322632 .049987794 .20622254 .049987794 .16023255 .049987794 .07434082 .11898804-.022460938 .23098755-.022460938 .34700013-.022460938 .44898988 .073349 .44898988 .20022583Z"/>
<clipPath id="clip_7">
<path transform="matrix(1.00003,0,0,-1.00006,-4.702553,168.18932)" d="M8.71686 1.6543H202.98902V163.05066H8.71686Z"/>
</clipPath>
<path id="font_3_2" d="M.33399964 .30233766C.33999635 .32835389 .36299134 .42037965 .43299867 .42037965 .43798829 .42037965 .46199037 .42037965 .48298646 .40734864 .45498658 .402359 .43499757 .37734986 .43499757 .35334779 .43499757 .33735658 .44599916 .31835938 .47299195 .31835938 .49499513 .31835938 .5269928 .3363495 .5269928 .37635804 .5269928 .42837525 .46798707 .4423828 .43399049 .4423828 .37599183 .4423828 .34098817 .38935853 .32899476 .36634828 .3039856 .43237306 .25 .4423828 .22099304 .4423828 .116989139 .4423828 .05999756 .3133545 .05999756 .28834535 .05999756 .27833558 .069992069 .27833558 .07199097 .27833558 .07998657 .27833558 .08299255 .28033448 .084991458 .28933717 .11898804 .39535523 .18499756 .42037965 .21899414 .42037965 .23799134 .42037965 .272995 .4113617 .272995 .35334779 .272995 .32235719 .2559967 .25532533 .21899414 .11528015 .20298767 .053268434 .16799927 .011245728 .12399292 .011245728 .117996219 .011245728 .09498596 .011245728 .07398987 .024276734 .09899902 .029266358 .12098694 .05027771 .12098694 .07827759 .12098694 .105270389 .09899902 .11328125 .083999637 .11328125 .053985597 .11328125 .0289917 .08728027 .0289917 .055267335 .0289917 .009246826 .07899475-.0107421879 .12298584-.0107421879 .18899536-.0107421879 .22499085 .059280397 .22799683 .0652771 .23999024 .028274537 .27598573-.0107421879 .33599855-.0107421879 .43899537-.0107421879 .49598695 .118270877 .49598695 .14328003 .49598695 .1532898 .4869995 .1532898 .48399354 .1532898 .47499085 .1532898 .47299195 .14929199 .47099305 .14228821 .43798829 .03527832 .36999513 .011245728 .33799745 .011245728 .29899598 .011245728 .2829895 .043273927 .2829895 .07727051 .2829895 .09927368 .2889862 .121276859 .2999878 .16529846L.33399964 .30233766Z"/>
<path id="font_3_3" d="M.48599244 .38136292C.48999024 .39537049 .48999024 .39736939 .48999024 .40437318 .48999024 .42237855 .47599793 .43138124 .46099855 .43138124 .45098878 .43138124 .43499757 .42536927 .42599488 .41036988 .42399598 .405365 .41600038 .37435914 .4119873 .35635377 .40499879 .33035279 .397995 .30334474 .3919983 .27633668L.34700013 .09628296C.34298707 .08126831 .2999878 .011245728 .23399353 .011245728 .18299866 .011245728 .17199707 .055267335 .17199707 .0922699 .17199707 .1382904 .18899536 .20030213 .22299195 .28833009 .23899842 .3293457 .24299622 .3403473 .24299622 .36035157 .24299622 .405365 .21099854 .4423828 .16099549 .4423828 .06599426 .4423828 .0289917 .29733277 .0289917 .28833009 .0289917 .27833558 .038986207 .27833558 .040985109 .27833558 .050994874 .27833558 .051986696 .28033448 .056991579 .29634095 .083999637 .3903656 .12399292 .42037965 .1579895 .42037965 .1659851 .42037965 .18299866 .42037965 .18299866 .3883667 .18299866 .36335755 .17298889 .3373413 .1659851 .31834413 .12599182 .21231079 .10798645 .1552887 .10798645 .10827637 .10798645 .019256592 .17098999-.0107421879 .22999573-.0107421879 .2689972-.0107421879 .30299378 .0062561037 .33099366 .03425598 .31799317-.017745972 .30599977-.06674194 .2659912-.11973572 .23999024-.15385437 .20199585-.18309021 .1559906-.18309021 .14199829-.18309021 .09700012-.18005371 .07998657-.14074707 .09599304-.14074707 .10899353-.14074707 .12298584-.1287384 .1329956-.11973572 .14299011-.10673523 .14299011-.08773804 .14299011-.056747438 .115997318-.052734376 .10598755-.052734376 .08299255-.052734376 .049987794-.068740848 .049987794-.11773682 .049987794-.16796875 .09399414-.20507813 .1559906-.20507813 .25898744-.20507813 .3619995-.11373901 .3899994-.00074768069L.48599244 .38136292Z"/>
<path id="font_2_10" d="M.20799256 .19424439C.22999573 .19024658 .31199647 .17424011 .31199647 .102249149 .31199647 .051254274 .2769928 .011245728 .19898987 .011245728 .114990238 .011245728 .07899475 .06825256 .05999756 .15324402 .056991579 .1662445 .055999757 .17024231 .04598999 .17024231 .032989503 .17024231 .032989503 .16323853 .032989503 .14524842V.013244629C.032989503-.003753662 .032989503-.0107421879 .04399109-.0107421879 .04899597-.0107421879 .049987794-.009750366 .068984989 .009246826 .070999149 .011245728 .070999149 .013244629 .08898926 .03224182 .1329956-.009750366 .17799378-.0107421879 .19898987-.0107421879 .31399537-.0107421879 .3600006 .056243898 .3600006 .12825012 .3600006 .1812439 .32998658 .21124268 .31799317 .22323609 .2849884 .25523377 .24598694 .26324464 .20399475 .27124024 .147995 .28224183 .08099365 .2952423 .08099365 .35324098 .08099365 .38822938 .10699463 .42922975 .19299317 .42922975 .30299378 .42922975 .30799867 .3392334 .30999757 .3082428 .31098939 .2992401 .31999208 .2992401 .32199098 .2992401 .33499146 .2992401 .33499146 .304245 .33499146 .3232422V.4242401C.33499146 .4412384 .33499146 .4482422 .32398988 .4482422 .31900025 .4482422 .31698609 .4482422 .3039856 .43623353 .30099488 .43223573 .29100038 .42323304 .2869873 .42022706 .24899292 .4482422 .20799256 .4482422 .19299317 .4482422 .070999149 .4482422 .032989503 .38124085 .032989503 .3252411 .032989503 .29023744 .04899597 .26223756 .07598877 .24023438 .10798645 .21424866 .13598633 .2082367 .20799256 .19424439Z"/>
<path id="font_2_9" d="M.11199951 .2524414C.117996219 .40126039 .20199585 .426239 .23599243 .426239 .33898927 .426239 .34899903 .2913971 .34899903 .2524414H.11199951M.11099243 .23144531H.3899994C.4119873 .23144531 .4149933 .23144531 .4149933 .2524414 .4149933 .35131837 .36099244 .4482422 .23599243 .4482422 .11999512 .4482422 .027999878 .34532167 .027999878 .22042847 .027999878 .08631897 .1329956-.0107421879 .24798584-.0107421879 .36999513-.0107421879 .4149933 .10032654 .4149933 .11933899 .4149933 .12934876 .40699769 .13134766 .4019928 .13134766 .3929901 .13134766 .3909912 .12535095 .3889923 .11734009 .35398866 .014251709 .2639923 .014251709 .2539978 .014251709 .20399475 .014251709 .1639862 .044281007 .14099121 .08131409 .11099243 .12934876 .11099243 .19540406 .11099243 .23144531Z"/>
<path id="font_2_8" d="M.116989139 .21801758C.116989139 .38093568 .19898987 .42323304 .2519989 .42323304 .26098634 .42323304 .32398988 .42222596 .35899354 .38594056 .31799317 .38293458 .31199647 .3529358 .31199647 .3399353 .31199647 .31393434 .32998658 .2939453 .35798646 .2939453 .38398744 .2939453 .4039917 .3109436 .4039917 .34094239 .4039917 .40911866 .32798768 .4482422 .25099183 .4482422 .12599182 .4482422 .033996583 .3399353 .033996583 .21601868 .033996583 .08816528 .1329956-.0107421879 .24899292-.0107421879 .3829956-.0107421879 .4149933 .10914612 .4149933 .119140628 .4149933 .12911988 .40499879 .12911988 .4019928 .12911988 .3929901 .12911988 .3909912 .12512207 .3889923 .119140628 .3600006 .026229859 .29499818 .014251709 .2579956 .014251709 .20498657 .014251709 .116989139 .0572052 .116989139 .21801758Z"/>
<path id="font_2_1" d="M.33099366-.2400055C.33099366-.23701477 .33099366-.23500061 .31399537-.21800232 .18899536-.0920105 .15699768 .09700012 .15699768 .25 .15699768 .42399598 .19499207 .59799197 .31799317 .72299197 .33099366 .73498538 .33099366 .7369995 .33099366 .73999026 .33099366 .746994 .32699586 .75 .32099916 .75 .31098939 .75 .22099304 .6819916 .1619873 .5549927 .11099243 .44499208 .09899902 .33399964 .09899902 .25 .09899902 .17199707 .10998535 .050994874 .16499329-.06201172 .22499085-.18501282 .31098939-.25 .32099916-.25 .32699586-.25 .33099366-.24700928 .33099366-.2400055Z"/>
<path id="font_2_2" d="M.2889862 .25C.2889862 .32798768 .27799989 .44898988 .22299195 .56199648 .16299439 .68499758 .07699585 .75 .066986087 .75 .06098938 .75 .056991579 .74598696 .056991579 .73999026 .056991579 .7369995 .056991579 .73498538 .07598877 .71699526 .17399597 .6179962 .23098755 .45899964 .23098755 .25 .23098755 .07899475 .19400025-.09700012 .069992069-.2230072 .056991579-.23500061 .056991579-.23701477 .056991579-.2400055 .056991579-.2460022 .06098938-.25 .066986087-.25 .07699585-.25 .16699219-.18200684 .22599793-.055007936 .2769928 .054992677 .2889862 .16600037 .2889862 .25Z"/>
</defs>
<path transform="matrix(1.00003,0,0,-1.00006,-4.702553,168.18932)" stroke-width=".19925" stroke-linecap="butt" stroke-miterlimit="10" stroke-linejoin="miter" fill="none" stroke="#7f807f" d="M14.30434 80.22662V84.47835M44.82054 80.22662V84.47835M75.33675 80.22662V84.47835M90.59491 80.22662V84.47835M121.11098 80.22662V84.47835M136.36914 80.22662V84.47835M151.62734 80.22662V84.47835M166.88533 80.22662V84.47835M197.40154 80.22662V84.47835"/>
<path transform="matrix(1.00003,0,0,-1.00006,-4.702553,168.18932)" stroke-width=".19925" stroke-linecap="butt" stroke-miterlimit="10" stroke-linejoin="miter" fill="none" stroke="#7f807f" d="M103.72711 1.6543H107.97874M103.72711 42.00339H107.97874M103.72711 122.70157H107.97874M103.72711 163.05066H107.97874"/>
<path transform="matrix(1.00003,0,0,-1.00006,-4.702553,168.18932)" stroke-width=".3985" stroke-linecap="butt" stroke-miterlimit="10" stroke-linejoin="miter" fill="none" stroke="#000000" d="M8.71686 82.35248H200.99649"/>
<path transform="matrix(1.00003,0,0,-1.00006,196.29999,85.8319)" d="M1.99252 0-1.19551 1.59401 0 0-1.19551-1.59401"/>
<path transform="matrix(1.00003,0,0,-1.00006,-4.702553,168.18932)" stroke-width=".3985" stroke-linecap="butt" stroke-miterlimit="10" stroke-linejoin="miter" fill="none" stroke="#000000" d="M105.85294 1.6543V161.05814"/>
<path transform="matrix(0,-1.00006,-1.00003,-0,101.15357,7.121521)" d="M1.99252 0-1.19551 1.59401 0 0-1.19551-1.59401"/>
<use data-text="&#x2212;" xlink:href="#font_1_1" transform="matrix(9.962899,0,0,-9.963197,.21859741,97.8991)"/>
<use data-text="3" xlink:href="#font_2_6" transform="matrix(9.962899,0,0,-9.963197,7.966835,97.8991)"/>
<use data-text="&#x03c0;" xlink:href="#font_3_1" transform="matrix(9.962899,0,0,-9.963197,12.948982,97.8991)"/>
<use data-text="&#x2212;" xlink:href="#font_1_1" transform="matrix(9.962899,0,0,-9.963197,30.735512,97.8991)"/>
<use data-text="2" xlink:href="#font_2_5" transform="matrix(9.962899,0,0,-9.963197,38.48375,97.8991)"/>
<use data-text="&#x03c0;" xlink:href="#font_3_1" transform="matrix(9.962899,0,0,-9.963197,43.465898,97.8991)"/>
<use data-text="&#x2212;" xlink:href="#font_1_1" transform="matrix(9.962899,0,0,-9.963197,63.7435,97.29007)"/>
<use data-text="&#x03c0;" xlink:href="#font_3_1" transform="matrix(9.962899,0,0,-9.963197,71.49174,97.29007)"/>
<use data-text="&#x2212;" xlink:href="#font_4_1" transform="matrix(6.9740097,0,0,-6.9742186,80.326007,95.79597)"/>
<use data-text="&#x03c0;" xlink:href="#font_5_1" transform="matrix(6.9740097,0,0,-6.9742186,86.553188,95.79597)"/>
<path transform="matrix(1.00003,0,0,-1.00006,-9.284691,-48.53469)" stroke-width=".3985" stroke-linecap="butt" stroke-miterlimit="10" stroke-linejoin="miter" fill="none" stroke="#000000" d="M89.608-145.753H100.744"/>
<use data-text="2" xlink:href="#font_6_1" transform="matrix(6.9740097,0,0,-6.9742186,83.90811,103.154399)"/>
<use data-text="&#x03c0;" xlink:href="#font_5_1" transform="matrix(6.9740097,0,0,-6.9742186,113.957019,94.481899)"/>
<path transform="matrix(1.00003,0,0,-1.00006,24.346322,-49.848764)" stroke-width=".3985" stroke-linecap="butt" stroke-miterlimit="10" stroke-linejoin="miter" fill="none" stroke="#000000" d="M89.608-145.753H94.517"/>
<use data-text="2" xlink:href="#font_6_1" transform="matrix(6.9740097,0,0,-6.9742186,114.42603,101.840328)"/>
<use data-text="&#x03c0;" xlink:href="#font_3_1" transform="matrix(9.962899,0,0,-9.963197,128.65247,95.767978)"/>
<use data-text="3" xlink:href="#font_6_2" transform="matrix(6.9740097,0,0,-6.9742186,142.48886,95.97298)"/>
<use data-text="&#x03c0;" xlink:href="#font_5_1" transform="matrix(6.9740097,0,0,-6.9742186,146.45999,95.97298)"/>
<path transform="matrix(1.00003,0,0,-1.00006,52.878175,-48.35768)" stroke-width=".3985" stroke-linecap="butt" stroke-miterlimit="10" stroke-linejoin="miter" fill="none" stroke="#000000" d="M89.608-145.753H98.488"/>
<use data-text="2" xlink:href="#font_6_1" transform="matrix(6.9740097,0,0,-6.9742186,144.94394,103.331409)"/>
<use data-text="2" xlink:href="#font_2_5" transform="matrix(9.962899,0,0,-9.963197,156.67832,97.8991)"/>
<use data-text="&#x03c0;" xlink:href="#font_3_1" transform="matrix(9.962899,0,0,-9.963197,161.65946,97.8991)"/>
<use data-text="3" xlink:href="#font_2_6" transform="matrix(9.962899,0,0,-9.963197,187.19623,97.8991)"/>
<use data-text="&#x03c0;" xlink:href="#font_3_1" transform="matrix(9.962899,0,0,-9.963197,192.17737,97.8991)"/>
<use data-text="&#x2212;" xlink:href="#font_1_1" transform="matrix(9.962899,0,0,-9.963197,77.79593,169.33039)"/>
<use data-text="1" xlink:href="#font_2_4" transform="matrix(9.962899,0,0,-9.963197,85.54417,169.33039)"/>
<use data-text="0" xlink:href="#font_2_3" transform="matrix(9.962899,0,0,-9.963197,90.52561,169.33039)"/>
<use data-text="&#x2212;" xlink:href="#font_1_1" transform="matrix(9.962899,0,0,-9.963197,82.77707,128.97898)"/>
<use data-text="5" xlink:href="#font_2_7" transform="matrix(9.962899,0,0,-9.963197,90.52531,128.97898)"/>
<use data-text="5" xlink:href="#font_2_7" transform="matrix(9.962899,0,0,-9.963197,90.526309,48.691156)"/>
<use data-text="1" xlink:href="#font_2_4" transform="matrix(9.962899,0,0,-9.963197,85.54516,8.339737)"/>
<use data-text="0" xlink:href="#font_2_3" transform="matrix(9.962899,0,0,-9.963197,90.52661,8.339737)"/>
<g clip-path="url(#clip_7)">
<path transform="matrix(1.00003,0,0,-1.00006,-4.702553,168.18932)" stroke-width=".79701" stroke-linecap="butt" stroke-miterlimit="10" stroke-linejoin="miter" fill="none" stroke="#ff0000" d="M0 .0242 .14375 10.76753 .2875 19.02539 .43127 25.55872 .57504 30.85736 .7188 35.24734 .86255 38.93607 1.00632 42.0841 1.15009 44.79474 1.29384 47.16162 1.43759 49.23637 1.58136 51.0771 1.72513 52.71527 1.86888 54.1864 2.01265 55.50984 2.1564 56.71225 2.30016 57.80571 2.44392 58.80396 2.58769 59.71907 2.73146 60.56154 2.8752 61.33868 3.01897 62.05852 3.16273 62.72668 3.30649 63.34888 3.45024 63.92747 3.59401 64.46976 3.73778 64.97574 3.88153 65.45107 4.0253 65.89812 4.16905 66.31615 4.3128 66.71318 4.45659 67.086 4.60034 67.43947 4.74411 67.77194 4.88786 68.08827 5.03162 68.38928 5.17538 68.67334 5.31914 68.94287 5.46292 69.2003 5.60666 69.444 5.75044 69.67722 5.8942 69.89835 6.03795 70.11058 6.18173 70.31232 6.32547 70.506 6.46924 70.68999 6.61299 70.8651 6.75677 71.03375 6.90051 71.19514 7.04427 71.34929 7.18805 71.49696 7.3318 71.63818 7.47557 71.77376 7.61932 71.90448 7.76309 72.02876 7.90685 72.1482 8.05061 72.26277 8.19438 72.37254 8.33812 72.47664 8.4819 72.57831 8.62566 72.67514 8.76942 72.76796 8.91318 72.85753 9.05693 72.94228 9.2007 73.02458 9.34445 73.10286 9.48824 73.17711 9.63199 73.24892 9.77576 73.31831 9.91951 73.38449 10.06326 73.44743 10.20703 73.50797 10.35078 73.56445 10.49455 73.61931 10.6383 73.67177 10.78209 73.721 10.92584 73.76863 11.06958 73.813 11.21336 73.85576 11.35712 73.89532 11.50089 73.93404 11.64465 73.96954 11.7884 74.00426 11.93216 74.03572 12.07593 74.06558 12.2197 74.09221 12.36345 74.11804 12.5072 74.14143 12.65097 74.16403 12.79474 74.1834 12.93849 74.20197 13.08224 74.21811 13.22601 74.23181 13.36978 74.24554 13.51355 74.25523 13.6573 74.26491 13.80106 74.27136 13.94482 74.27701 14.08858 74.28105 14.23235 74.28267H14.37611L14.51987 74.28105 14.66362 74.27701 14.8074 74.27136 14.95116 74.26491 15.09491 74.25523 15.23868 74.24554 15.38243 74.23181 15.5262 74.21811 15.66997 74.20197 15.81374 74.1834 15.95747 74.16403 16.10124 74.14143 16.24501 74.11804 16.38876 74.09221 16.53252 74.06558 16.67628 74.03572 16.82005 74.00426 16.96382 73.96954 17.10757 73.93404 17.25133 73.89532 17.39508 73.85576 17.53886 73.813 17.68262 73.76863 17.82639 73.721 17.97014 73.67177 18.11389 73.61931 18.25766 73.56445 18.40143 73.50797 18.5452 73.44743 18.68893 73.38449 18.83272 73.31831 18.97647 73.24892 19.12022 73.17711 19.264 73.10286 19.40775 73.02458 19.55151 72.94228 19.69528 72.85753 19.83905 72.76796 19.98279 72.67514 20.12654 72.57831 20.27032 72.47826 20.41408 72.37254 20.55786 72.26277 20.7016 72.1482 20.84537 72.02876 20.98912 71.90448 21.13289 71.77376 21.27666 71.63818 21.4204 71.49858 21.56418 71.35008 21.70793 71.19514 21.8517 71.03375 21.99547 70.8651 22.1392 70.68999 22.28297 70.506 22.42674 70.31232 22.57051 70.11058 22.71426 69.89995 22.85803 69.67722 23.00179 69.444 23.14554 69.2003 23.28932 68.94287 23.43306 68.67334 23.57683 68.38928 23.72058 68.08987 23.86436 67.77356 24.00812 67.43947 24.15187 67.086 24.29564 66.71397 24.43939 66.31775 24.58316 65.89812 24.72693 65.45107 24.87068 64.97574 25.01443 64.46976 25.1582 63.92747 25.30197 63.34888 25.44572 62.72832 25.58948 62.06012 25.73325 61.3395 25.87701 60.56236 26.02077 59.71986 26.16452 58.80476 26.30829 57.8065 26.45204 56.71466 26.59583 55.51227 26.73958 54.1864 26.88333 52.71768 27.02708 51.0771 27.17085 49.23878 27.31462 47.16162 27.45837 44.79959 27.60214 42.09216 27.7459 38.94331 27.88966 35.2546 28.03343 30.86705 28.17719 25.57082 28.32094 19.03023 28.4647 10.77965 28.60847 .04034"/>
<path transform="matrix(1.00003,0,0,-1.00006,-4.702553,168.18932)" stroke-width=".79701" stroke-linecap="butt" stroke-dasharray="2.98883,2.98883" stroke-miterlimit="10" stroke-linejoin="miter" fill="none" stroke="#0000ff" d="M15.25797 0 15.40173 10.749 15.54549 19.01491 15.68927 25.54662 15.83302 30.85736 15.97678 35.24734 16.12054 38.93607 16.2643 42.0841 16.40807 44.79474 16.55183 47.15921 16.6956 49.23637 16.83936 51.07468 16.98311 52.71527 17.12689 54.18396 17.27065 55.50903 17.41441 56.71063 17.55817 57.80411 17.70193 58.80396 17.84569 59.71503 17.98946 60.56154 18.13321 61.33705 18.27698 62.05852 18.42075 62.72668 18.56451 63.34888 18.70828 63.92747 18.85202 64.46814 18.99579 64.97574 19.13956 65.44943 19.28331 65.89651 19.4271 66.31615 19.57083 66.71318 19.71461 67.086 19.85837 67.43947 20.00214 67.77356 20.1459 68.08827 20.28964 68.38768 20.43343 68.67172 20.57718 68.94287 20.72096 69.19868 20.8647 69.444 21.00845 69.67722 21.15224 69.89835 21.29599 70.11058 21.43977 70.31232 21.58351 70.506 21.72728 70.68999 21.87105 70.8651 22.0148 71.03375 22.15857 71.19514 22.30232 71.35008 22.44609 71.49696 22.58986 71.63818 22.73363 71.77376 22.8774 71.90288 23.02113 72.02876 23.1649 72.1482 23.30867 72.26277 23.45244 72.37254 23.59619 72.47664 23.73994 72.57831 23.88371 72.67514 24.02748 72.76796 24.17125 72.85753 24.315 72.94228 24.45877 73.02458 24.60252 73.10286 24.74629 73.17711 24.89006 73.24892 25.0338 73.31831 25.17758 73.38287 25.32133 73.44743 25.46512 73.50797 25.60887 73.56445 25.75262 73.61852 25.8964 73.67177 26.04015 73.721 26.18393 73.76863 26.32768 73.813 26.47144 73.85576 26.6152 73.89532 26.75896 73.93404 26.90274 73.97037 27.04648 74.00426 27.19026 74.03572 27.33401 74.06558 27.47778 74.09221 27.62155 74.11804 27.76529 74.14143 27.90906 74.16403 28.05283 74.1834 28.1966 74.20197 28.34036 74.21811 28.48412 74.23264 28.62788 74.24393 28.77164 74.25523 28.9154 74.26491 29.05917 74.27136 29.20293 74.27701 29.34668 74.28105 29.49046 74.28267H29.63422L29.77798 74.28105 29.92174 74.27701 30.06549 74.27136 30.20927 74.26491 30.35303 74.25523 30.4968 74.24554 30.64055 74.23181 30.7843 74.21811 30.92809 74.20197 31.07184 74.1834 31.2156 74.16403 31.35936 74.14143 31.50313 74.11804 31.6469 74.09221 31.79065 74.06558 31.93442 74.03572 32.07817 74.00426 32.22194 73.97037 32.3657 73.93404 32.50946 73.89532 32.65323 73.85576 32.79698 73.813 32.94077 73.76863 33.08452 73.721 33.22827 73.67177 33.37204 73.61931 33.5158 73.56445 33.65956 73.50797 33.80333 73.44743 33.94708 73.38449 34.09085 73.31831 34.23462 73.24892 34.37839 73.17711 34.52214 73.10286 34.6659 73.02458 34.80966 72.94228 34.95343 72.85753 35.09718 72.76796 35.24097 72.67514 35.3847 72.57831 35.52847 72.47664 35.67224 72.37254 35.81601 72.26277 35.95978 72.1482 36.10352 72.02876 36.2473 71.90448 36.39105 71.77376 36.5348 71.63818 36.67857 71.49696 36.82233 71.34929 36.96611 71.19514 37.10986 71.03375 37.25365 70.8667 37.39738 70.68999 37.54114 70.506 37.68492 70.31232 37.82867 70.11058 37.97244 69.89835 38.1162 69.67722 38.25996 69.444 38.40373 69.2003 38.54749 68.94287 38.69127 68.67334 38.835 68.38928 38.97878 68.08827 39.12254 67.77356 39.26631 67.43947 39.41006 67.08762 39.55382 66.71318 39.69759 66.31775 39.84135 65.89812 39.98512 65.45107 40.12888 64.97574 40.27263 64.46976 40.4164 63.92747 40.56017 63.34888 40.70393 62.72668 40.84767 62.06012 40.99146 61.3395 41.13521 60.56154 41.27898 59.71907 41.42274 58.80396 41.5665 57.80571 41.71027 56.71306 41.85402 55.51227 41.9978 54.1864 42.14156 52.71768 42.2853 51.0771 42.42908 49.23878 42.57283 47.16162 42.71661 44.79959 42.86035 42.08571 43.00414 38.93848 43.14789 35.25218 43.29164 30.86705 43.43542 25.55872 43.57916 19.02539 43.72293 10.76753 43.8667 .00807"/>
<path transform="matrix(1.00003,0,0,-1.00006,-4.702553,168.18932)" stroke-width=".79701" stroke-linecap="butt" stroke-miterlimit="10" stroke-linejoin="miter" fill="none" stroke="#ff0000" d="M30.51619 164.6969 30.65996 153.93741 30.80371 145.67958 30.94746 139.14626 31.09123 133.84438 31.235 129.45278 31.37874 125.7665 31.5225 122.61926 31.66628 119.90941 31.81004 117.54819 31.9538 115.4686 32.09755 113.6303 32.24132 111.9897 32.38507 110.51857 32.52885 109.19592 32.6726 107.99272 32.81636 106.89926 32.96011 105.90102 33.1039 104.9859 33.24765 104.14342 33.3914 103.36548 33.53517 102.64485 33.67892 101.97829 33.8227 101.3561 33.96645 100.7775 34.11023 100.2352 34.25397 99.72923 34.39772 99.2539 34.5415 98.80846 34.68526 98.38882 34.82901 97.99179 34.97278 97.61896 35.11655 97.2655 35.2603 96.93301 35.40407 96.61668 35.54782 96.31569 35.69157 96.03163 35.83534 95.7621 35.97911 95.50467 36.12288 95.26097 36.26663 95.02774 36.41039 94.80663 36.55415 94.59439 36.69792 94.39265 36.84169 94.19897 36.98543 94.01498 37.1292 93.83987 37.27296 93.6712 37.41672 93.50981 37.56047 93.35568 37.70424 93.20801 37.848 93.06677 37.99176 92.93121 38.13553 92.80049 38.27928 92.6762 38.42303 92.55676 38.56682 92.44217 38.71057 92.33243 38.85434 92.22833 38.9981 92.12665 39.14185 92.0298 39.28561 91.937 39.42937 91.84744 39.57315 91.7627 39.71689 91.68039 39.86067 91.60211 40.00443 91.52786 40.1482 91.45605 40.29196 91.38666 40.4357 91.32048 40.57947 91.25752 40.72322 91.197 40.867 91.14052 41.01074 91.08644 41.15451 91.03319 41.29828 90.98395 41.44203 90.93634 41.5858 90.89197 41.72955 90.8492 41.87332 90.80965 42.01707 90.77094 42.16084 90.7354 42.30461 90.70071 42.44835 90.66925 42.59213 90.63937 42.73589 90.61273 42.87965 90.58693 43.0234 90.56352 43.16716 90.54092 43.31093 90.52156 43.4547 90.503 43.59846 90.48686 43.74222 90.47234 43.88599 90.46104 44.02974 90.44974 44.1735 90.44006 44.31726 90.4336 44.46101 90.42796 44.60478 90.42392 44.74854 90.4223H44.89232L45.03607 90.42392 45.17981 90.42796 45.3236 90.4336 45.46735 90.44006 45.61111 90.44974 45.75488 90.45943 45.89864 90.47234 46.04239 90.48686 46.18616 90.503 46.32993 90.52156 46.47368 90.54092 46.61745 90.56352 46.7612 90.58693 46.90497 90.61273 47.04874 90.63937 47.19249 90.66925 47.33624 90.70071 47.48001 90.7354 47.62378 90.77094 47.76753 90.80965 47.91129 90.8492 48.05505 90.89197 48.1988 90.93634 48.34258 90.98395 48.48634 91.03319 48.6301 91.08565 48.77385 91.14052 48.91763 91.197 49.06139 91.25752 49.20514 91.32048 49.3489 91.38666 49.49266 91.45605 49.63643 91.52786 49.7802 91.60211 49.92397 91.68039 50.0677 91.7627 50.21147 91.84744 50.35524 91.937 50.499 92.0298 50.64275 92.12665 50.78651 92.22833 50.93028 92.33243 51.07405 92.44217 51.2178 92.55676 51.36156 92.6762 51.50531 92.80049 51.6491 92.93121 51.79285 93.06677 51.93661 93.20801 52.08037 93.35487 52.22412 93.50981 52.36789 93.6712 52.51166 93.83987 52.65543 94.01498 52.79916 94.19897 52.94295 94.39265 53.0867 94.59439 53.23045 94.80502 53.37424 95.02774 53.51797 95.26097 53.66174 95.50467 53.80551 95.7605 53.94928 96.03163 54.09302 96.31569 54.23677 96.61507 54.38055 96.93141 54.5243 97.2655 54.66809 97.61896 54.81183 97.99179 54.9556 98.3872 55.09935 98.80685 55.24312 99.2539 55.38689 99.72841 55.53062 100.2352 55.67441 100.77588 55.81816 101.35449 55.96193 101.97665 56.10568 102.64485 56.24944 103.36548 56.3932 104.14342 56.53696 104.98509 56.68074 105.9002 56.8245 106.89845 56.96825 107.99272 57.11201 109.19511 57.25577 110.51857 57.39954 111.98727 57.54327 113.62625 57.68706 115.46617 57.83081 117.54254 57.97458 119.90538 58.11835 122.61684 58.26208 125.75923 58.40585 129.45038 58.54962 133.83792 58.69339 139.14302 58.83714 145.67473 58.98091 153.92531 59.12466 164.68077"/>
<path transform="matrix(1.00003,0,0,-1.00006,-4.702553,168.18932)" stroke-width=".79701" stroke-linecap="butt" stroke-dasharray="2.98883,2.98883" stroke-miterlimit="10" stroke-linejoin="miter" fill="none" stroke="#0000ff" d="M45.77417 164.70497 45.91794 153.94388 46.06168 145.69007 46.20546 139.1535 46.34921 133.84438 46.49298 129.45763 46.63675 125.7689 46.7805 122.62086 46.92426 119.91345 47.06802 117.54819 47.21179 115.4702 47.35556 113.6303 47.49931 111.99292 47.64308 110.5226 47.78685 109.19756 47.9306 107.99513 48.07437 106.90086 48.21812 105.90102 48.36188 104.9859 48.50566 104.14342 48.64941 103.36629 48.79318 102.64645 48.93694 101.97829 49.0807 101.3561 49.22447 100.7775 49.36823 100.23682 49.512 99.72923 49.65575 99.2539 49.79951 98.80846 49.94328 98.38882 50.08704 97.99179 50.2308 97.61896 50.37456 97.2655 50.51834 96.93301 50.6621 96.61668 50.80586 96.31569 50.94962 96.03325 51.09337 95.7621 51.23714 95.50467 51.3809 95.26097 51.52466 95.02774 51.66843 94.80663 51.8122 94.59439 51.95596 94.39265 52.09972 94.19897 52.24347 94.0158 52.38724 93.83987 52.531 93.6712 52.67476 93.50981 52.81854 93.35568 52.96228 93.20801 53.10605 93.06677 53.24982 92.93121 53.39359 92.80049 53.53735 92.6762 53.68109 92.55676 53.82487 92.44217 53.96863 92.33243 54.11238 92.22833 54.25616 92.12665 54.3999 92.0298 54.54369 91.937 54.68744 91.84744 54.8312 91.7627 54.97496 91.6812 55.11871 91.60211 55.2625 91.52786 55.40625 91.45605 55.55002 91.38666 55.69377 91.32048 55.83752 91.25752 55.98131 91.197 56.12506 91.14052 56.26884 91.08565 56.41258 91.03319 56.55635 90.98395 56.70012 90.93634 56.84387 90.89197 56.98764 90.8492 57.1314 90.80965 57.27516 90.77094 57.41893 90.7354 57.5627 90.70071 57.70647 90.66925 57.8502 90.63937 57.99397 90.61273 58.13774 90.58693 58.28151 90.56352 58.42525 90.54092 58.56903 90.52156 58.71278 90.503 58.85655 90.48686 59.00032 90.47234 59.14407 90.46104 59.28784 90.44974 59.4316 90.44006 59.57538 90.4336 59.71913 90.42796 59.86288 90.42392 60.00665 90.4223H60.1504L60.29419 90.42392 60.43794 90.42796 60.58171 90.4336 60.72546 90.44006 60.86922 90.44974 61.013 90.45943 61.15674 90.47234 61.3005 90.48686 61.44427 90.503 61.58804 90.52156 61.73181 90.54092 61.87555 90.56352 62.01933 90.58693 62.16309 90.61273 62.30685 90.63937 62.45062 90.66925 62.59438 90.70071 62.73813 90.7346 62.8819 90.77094 63.02567 90.80965 63.16943 90.8492 63.31319 90.89197 63.45695 90.93634 63.60071 90.98395 63.74448 91.03319 63.88824 91.08565 64.032 91.14052 64.17575 91.197 64.31953 91.25752 64.46329 91.32048 64.60704 91.38666 64.75081 91.45605 64.89458 91.52786 65.03835 91.60211 65.1821 91.68039 65.32587 91.7627 65.46962 91.84744 65.61337 91.937 65.75716 92.0298 65.90091 92.12665 66.04468 92.22833 66.18843 92.33243 66.33221 92.44217 66.47597 92.55676 66.61972 92.6762 66.76349 92.80049 66.90724 92.93121 67.05101 93.06677 67.19478 93.20801 67.33853 93.35487 67.4823 93.50981 67.62605 93.6712 67.76984 93.83987 67.91359 94.01498 68.05734 94.19897 68.20111 94.39265 68.34488 94.59439 68.48863 94.80663 68.6324 95.02774 68.77615 95.26097 68.91992 95.50467 69.06369 95.7605 69.20744 96.03163 69.35123 96.31569 69.49496 96.61507 69.63873 96.93141 69.7825 97.2655 69.92625 97.61896 70.07004 97.99179 70.21378 98.3872 70.35756 98.80685 70.50131 99.2539 70.64508 99.72923 70.78883 100.2352 70.93259 100.7775 71.07637 101.3561 71.22012 101.97829 71.36389 102.64485 71.50764 103.36548 71.6514 104.14342 71.79518 104.9859 71.93893 105.90102 72.08272 106.89926 72.22646 107.99272 72.37021 109.19511 72.51399 110.51857 72.65775 111.98727 72.80151 113.62787 72.94527 115.4686 73.08904 117.54335 73.2328 119.90941 73.37656 122.61926 73.52032 125.7665 73.66408 129.45038 73.80785 133.83792 73.95161 139.14626 74.09538 145.67473 74.23912 153.92531 74.38289 164.68077"/>
<path transform="matrix(1.00003,0,0,-1.00006,-4.702553,168.18932)" stroke-width=".79701" stroke-linecap="butt" stroke-miterlimit="10" stroke-linejoin="miter" fill="none" stroke="#ff0000" d="M61.03238 .0242 61.17616 10.76753 61.31992 19.01491 61.46365 25.55872 61.60742 30.85736 61.75119 35.24734 61.89496 38.93607 62.0387 42.0841 62.18248 44.79474 62.32623 47.16162 62.46999 49.23637 62.61377 51.0771 62.7575 52.71527 62.90128 54.1864 63.04504 55.50984 63.18881 56.71225 63.33257 57.80571 63.4763 58.80396 63.62009 59.71907 63.76384 60.56154 63.90761 61.33868 64.05138 62.05852 64.19513 62.72668 64.33888 63.34888 64.48265 63.92747 64.62642 64.46976 64.77017 64.97574 64.91393 65.45107 65.0577 65.89812 65.20146 66.31615 65.34521 66.71318 65.48897 67.086 65.63274 67.43947 65.77649 67.77194 65.92027 68.08827 66.06403 68.38928 66.20778 68.67334 66.35153 68.94287 66.4953 69.2003 66.63907 69.444 66.78284 69.67722 66.92659 69.89835 67.07034 70.11058 67.21413 70.31232 67.35788 70.506 67.50163 70.68999 67.64539 70.8651 67.78915 71.03375 67.93292 71.19514 68.07668 71.34929 68.22046 71.49696 68.3642 71.63818 68.50795 71.77376 68.65173 71.90448 68.79549 72.02876 68.93924 72.1482 69.08301 72.26277 69.22678 72.37254 69.37053 72.47664 69.5143 72.57831 69.65805 72.67514 69.8018 72.76796 69.94557 72.85753 70.08934 72.94228 70.23311 73.02458 70.37686 73.10286 70.52061 73.17711 70.66438 73.24892 70.80815 73.31831 70.95192 73.38449 71.09566 73.44743 71.23943 73.50797 71.3832 73.56445 71.52695 73.61931 71.6707 73.67177 71.81447 73.721 71.95824 73.76863 72.10199 73.813 72.24576 73.85576 72.38951 73.89532 72.53326 73.93404 72.67705 73.96954 72.8208 74.00426 72.96457 74.03572 73.10832 74.06558 73.25209 74.09221 73.39584 74.11804 73.5396 74.14143 73.68338 74.16403 73.82712 74.1834 73.9709 74.20197 74.11465 74.21811 74.25842 74.23181 74.40219 74.24554 74.54593 74.25523 74.6897 74.26491 74.83345 74.27136 74.97723 74.27701 75.12097 74.28105 75.26474 74.28267H75.40851L75.55226 74.28105 75.69603 74.27701 75.83978 74.27136 75.98355 74.26491 76.1273 74.25523 76.27107 74.24554 76.41484 74.23181 76.55858 74.21811 76.70236 74.20197 76.84612 74.1834 76.98988 74.16403 77.13365 74.14143 77.27739 74.11804 77.42116 74.09221 77.56493 74.06558 77.7087 74.03572 77.85245 74.00426 77.99622 73.96954 78.13997 73.93404 78.28372 73.89532 78.42749 73.85576 78.57124 73.813 78.71501 73.76863 78.85876 73.721 79.00255 73.67177 79.1463 73.61931 79.29004 73.56445 79.43382 73.50797 79.57758 73.44743 79.72134 73.38449 79.86511 73.31831 80.00887 73.24892 80.15262 73.17711 80.29639 73.10286 80.44016 73.02458 80.58391 72.94228 80.72768 72.85753 80.87143 72.76796 81.0152 72.67514 81.15897 72.57831 81.30272 72.47826 81.44647 72.37254 81.59024 72.26277 81.73401 72.1482 81.87776 72.02876 82.02151 71.90448 82.16528 71.77376 82.30904 71.63818 82.4528 71.49858 82.59657 71.35008 82.74033 71.19514 82.88408 71.03375 83.02786 70.8651 83.17162 70.68999 83.31537 70.506 83.45914 70.31232 83.60289 70.11058 83.74666 69.89995 83.89043 69.67722 84.0342 69.444 84.17793 69.2003 84.3217 68.94287 84.46547 68.67334 84.60922 68.38928 84.75298 68.08987 84.89674 67.77356 85.04051 67.43947 85.18428 67.086 85.32803 66.71397 85.47179 66.31775 85.61554 65.89812 85.75932 65.45107 85.90308 64.97574 86.04684 64.46976 86.1906 63.92747 86.33435 63.34888 86.47812 62.72832 86.62187 62.06012 86.76566 61.3395 86.9094 60.56236 87.05316 59.71986 87.19693 58.80476 87.34068 57.8065 87.48445 56.71466 87.6282 55.51227 87.77197 54.1864 87.91573 52.71768 88.0595 51.0771 88.20325 49.23878 88.347 47.16162 88.49077 44.79959 88.63454 42.09216 88.7783 38.94331 88.92204 35.2546 89.06583 30.86705 89.20958 25.57082 89.35333 19.03023 89.49712 10.77965 89.64085 .04034"/>
<path transform="matrix(1.00003,0,0,-1.00006,-4.702553,168.18932)" stroke-width=".79701" stroke-linecap="butt" stroke-dasharray="2.98883,2.98883" stroke-miterlimit="10" stroke-linejoin="miter" fill="none" stroke="#0000ff" d="M76.29036 0 76.43413 10.749 76.5779 19.01491 76.72163 25.54662 76.86542 30.85736 77.00917 35.24734 77.15294 38.93607 77.2967 42.0841 77.44046 44.79474 77.58423 47.15921 77.72798 49.23637 77.87177 51.07468 78.01552 52.71527 78.15926 54.18396 78.30304 55.50903 78.4468 56.71063 78.59058 57.80411 78.73433 58.80396 78.8781 59.71503 79.02185 60.56154 79.1656 61.33705 79.30939 62.05852 79.45313 62.72668 79.5969 63.34888 79.74066 63.92747 79.88443 64.46814 80.0282 64.97574 80.17194 65.44943 80.3157 65.89651 80.45947 66.31615 80.60324 66.71318 80.74701 67.086 80.89076 67.43947 81.03453 67.77356 81.17828 68.08827 81.32205 68.38768 81.46582 68.67172 81.60957 68.94287 81.75333 69.19868 81.89711 69.444 82.04086 69.67722 82.18463 69.89835 82.32838 70.11058 82.47215 70.31232 82.61592 70.506 82.75967 70.68999 82.90344 70.8651 83.0472 71.03375 83.19095 71.19514 83.33473 71.35008 83.47849 71.49696 83.62225 71.63818 83.766 71.77376 83.90979 71.90288 84.05354 72.02876 84.1973 72.1482 84.34106 72.26277 84.48482 72.37254 84.6286 72.47664 84.77235 72.57831 84.91612 72.67514 85.05988 72.76796 85.20363 72.85753 85.34741 72.94228 85.49117 73.02458 85.63492 73.10286 85.77869 73.17711 85.92245 73.24892 86.06621 73.31831 86.20998 73.38287 86.35373 73.44743 86.4975 73.50797 86.64127 73.56445 86.78503 73.61852 86.92879 73.67177 87.07254 73.721 87.21631 73.76863 87.36008 73.813 87.50383 73.85576 87.64761 73.89532 87.79135 73.93404 87.93512 73.97037 88.07889 74.00426 88.22266 74.03572 88.36642 74.06558 88.51016 74.09221 88.65395 74.11804 88.7977 74.14143 88.94145 74.16403 89.08522 74.1834 89.22897 74.20197 89.37276 74.21811 89.51651 74.23264 89.6603 74.24393 89.80403 74.25523 89.94778 74.26491 90.09157 74.27136 90.23532 74.27701 90.37909 74.28105 90.52284 74.28267H90.66661L90.81038 74.28105 90.95413 74.27701 91.09792 74.27136 91.24165 74.26491 91.38542 74.25523 91.52919 74.24554 91.67296 74.23181 91.81671 74.21811 91.96046 74.20197 92.10423 74.1834 92.248 74.16403 92.39177 74.14143 92.53552 74.11804 92.67929 74.09221 92.82304 74.06558 92.96681 74.03572 93.11058 74.00426 93.25432 73.97037 93.3981 73.93404 93.54185 73.89532 93.68564 73.85576 93.82939 73.813 93.97314 73.76863 94.11691 73.721 94.26067 73.67177 94.40445 73.61931 94.5482 73.56445 94.69196 73.50797 94.83572 73.44743 94.97948 73.38449 95.12326 73.31831 95.267 73.24892 95.41078 73.17711 95.55453 73.10286 95.69829 73.02458 95.84207 72.94228 95.98581 72.85753 96.12958 72.76796 96.27335 72.67514 96.41711 72.57831 96.56088 72.47664 96.70462 72.37254 96.8484 72.26277 96.99216 72.1482 97.13593 72.02876 97.2797 71.90448 97.42345 71.77376 97.5672 71.63818 97.71097 71.49696 97.85474 71.34929 97.9985 71.19514 98.14226 71.03375 98.28603 70.8667 98.4298 70.68999 98.57355 70.506 98.7173 70.31232 98.86107 70.11058 99.00484 69.89835 99.1486 69.67722 99.29236 69.444 99.43613 69.2003 99.57988 68.94287 99.72365 68.67334 99.86742 68.38928 100.01117 68.08827 100.15494 67.77356 100.29869 67.43947 100.44246 67.08762 100.58623 66.71318 100.72998 66.31775 100.87375 65.89812 101.0175 65.45107 101.16129 64.97574 101.30504 64.46976 101.44879 63.92747 101.59256 63.34888 101.73631 62.72668 101.88008 62.06012 102.02385 61.3395 102.1676 60.56154 102.31137 59.71907 102.45514 58.80396 102.5989 57.80571 102.74266 56.71306 102.88641 55.51227 103.03018 54.1864 103.17395 52.71768 103.3177 51.0771 103.46147 49.23878 103.60522 47.16162 103.749 44.79959 103.89276 42.08571 104.03653 38.93848 104.1803 35.25218 104.32404 30.86705 104.4678 25.55872 104.61157 19.02539 104.75533 10.76753 104.8991 .00807"/>
<path transform="matrix(1.00003,0,0,-1.00006,-4.702553,168.18932)" stroke-width=".79701" stroke-linecap="butt" stroke-miterlimit="10" stroke-linejoin="miter" fill="none" stroke="#ff0000" d="M91.54857 164.6969 91.69235 153.93741 91.8361 145.67958 91.97987 139.14626 92.12361 133.84438 92.2674 129.45278 92.41115 125.7665 92.5549 122.61926 92.69867 119.90941 92.84242 117.54819 92.98619 115.4686 93.12996 113.6303 93.27373 111.9897 93.41747 110.51857 93.56123 109.19592 93.705 107.99272 93.84875 106.89926 93.99252 105.90102 94.13628 104.9859 94.28004 104.14342 94.4238 103.36548 94.56757 102.64485 94.71133 101.97829 94.85507 101.3561 94.99886 100.7775 95.14261 100.2352 95.28638 99.72923 95.43013 99.2539 95.57388 98.80846 95.71765 98.38882 95.8614 97.99179 96.00519 97.61896 96.14893 97.2655 96.2927 96.93301 96.43646 96.61668 96.58022 96.31569 96.72398 96.03163 96.86772 95.7621 97.0115 95.50467 97.15526 95.26097 97.29903 95.02774 97.4428 94.80663 97.58653 94.59439 97.7303 94.39265 97.87407 94.19897 98.01784 94.01498 98.16159 93.83987 98.30536 93.6712 98.44911 93.50981 98.59286 93.35568 98.73665 93.20801 98.8804 93.06677 99.02415 92.93121 99.16792 92.80049 99.31169 92.6762 99.45544 92.55676 99.5992 92.44217 99.74297 92.33243 99.88672 92.22833 100.0305 92.12665 100.17426 92.0298 100.31801 91.937 100.46176 91.84744 100.60553 91.7627 100.7493 91.68039 100.89305 91.60211 101.03682 91.52786 101.18057 91.45605 101.32434 91.38666 101.46811 91.32048 101.61186 91.25752 101.75562 91.197 101.89938 91.14052 102.04315 91.08644 102.1869 91.03319 102.33069 90.98395 102.47443 90.93634 102.61818 90.89197 102.76196 90.8492 102.90572 90.80965 103.04947 90.77094 103.19324 90.7354 103.337 90.70071 103.48076 90.66925 103.62453 90.63937 103.76828 90.61273 103.91203 90.58693 104.0558 90.56352 104.19957 90.54092 104.34334 90.52156 104.48708 90.503 104.63084 90.48686 104.77461 90.47234 104.91837 90.46104 105.06215 90.44974 105.20589 90.44006 105.34966 90.4336 105.49342 90.42796 105.63718 90.42392 105.78093 90.4223H105.9247L106.06847 90.42392 106.21222 90.42796 106.356 90.4336 106.49974 90.44006 106.6435 90.44974 106.78728 90.45943 106.93103 90.47234 107.0748 90.48686 107.21855 90.503 107.36232 90.52156 107.50607 90.54092 107.64984 90.56352 107.79361 90.58693 107.93735 90.61273 108.08113 90.63937 108.22488 90.66925 108.36865 90.70071 108.51242 90.7354 108.65616 90.77094 108.79993 90.80965 108.94368 90.8492 109.08746 90.89197 109.2312 90.93634 109.37497 90.98395 109.51874 91.03319 109.66249 91.08565 109.80626 91.14052 109.95001 91.197 110.09378 91.25752 110.23753 91.32048 110.3813 91.38666 110.52507 91.45605 110.66881 91.52786 110.81259 91.60211 110.95634 91.68039 111.10011 91.7627 111.24388 91.84744 111.38762 91.937 111.53139 92.0298 111.67516 92.12665 111.81892 92.22833 111.96268 92.33243 112.10645 92.44217 112.2502 92.55676 112.39397 92.6762 112.53772 92.80049 112.68147 92.93121 112.82524 93.06677 112.969 93.20801 113.11278 93.35487 113.25653 93.50981 113.40028 93.6712 113.54405 93.83987 113.6878 94.01498 113.83157 94.19897 113.97534 94.39265 114.1191 94.59358 114.26285 94.80502 114.40662 95.02774 114.55038 95.26097 114.69414 95.50467 114.8379 95.7605 114.98166 96.03163 115.12543 96.31569 115.2692 96.61507 115.41295 96.93141 115.5567 97.2655 115.70047 97.61896 115.84424 97.99098 115.98799 98.3872 116.13174 98.80685 116.27551 99.2531 116.41927 99.72841 116.56303 100.2352 116.7068 100.77588 116.85056 101.35449 116.99431 101.97665 117.13809 102.64485 117.28185 103.36548 117.4256 104.14261 117.56935 104.9859 117.71312 105.90102 117.85689 106.89682 118.00064 107.9903 118.14442 109.19269 118.28816 110.51857 118.43192 111.98727 118.57568 113.62625 118.71945 115.46455 118.8632 117.54254 119.00696 119.90378 119.15074 122.61684 119.2945 125.76166 119.43825 129.45038 119.58202 133.83792 119.72577 139.14302 119.86954 145.67473 120.0133 153.91887 120.15707 164.66463"/>
<path transform="matrix(1.00003,0,0,-1.00006,-4.702553,168.18932)" stroke-width=".79701" stroke-linecap="butt" stroke-dasharray="2.98883,2.98883" stroke-miterlimit="10" stroke-linejoin="miter" fill="none" stroke="#0000ff" d="M106.80655 164.70497 106.95033 153.94388 107.09409 145.69007 107.23787 139.1535 107.3816 133.84438 107.52536 129.45763 107.66914 125.7689 107.8129 122.62086 107.95668 119.91345 108.10042 117.54819 108.24419 115.4702 108.38795 113.6303 108.53171 111.99292 108.67549 110.5226 108.81923 109.19592 108.963 107.99432 109.10677 106.90169 109.25052 105.90102 109.3943 104.9859 109.53804 104.14342 109.68181 103.36629 109.82558 102.64645 109.96935 101.97829 110.1131 101.3561 110.25685 100.77829 110.40062 100.23682 110.54439 99.72923 110.68816 99.25552 110.83191 98.80846 110.97568 98.38882 111.11943 97.99179 111.2632 97.61896 111.40697 97.2655 111.55072 96.93301 111.69449 96.61668 111.83824 96.31729 111.98203 96.03163 112.12578 95.7621 112.26953 95.50467 112.4133 95.26097 112.55705 95.02774 112.70084 94.80663 112.84459 94.59439 112.98836 94.39265 113.13211 94.19897 113.27586 94.0158 113.41965 93.83987 113.56339 93.6712 113.70717 93.50981 113.85092 93.35568 113.99469 93.20801 114.13846 93.06677 114.2822 92.93121 114.42598 92.8021 114.56973 92.6762 114.7135 92.55676 114.85727 92.44217 115.00102 92.33243 115.14479 92.22833 115.28854 92.12665 115.43231 92.0298 115.57608 91.937 115.71983 91.84744 115.86359 91.7627 116.00737 91.6812 116.15112 91.60211 116.29489 91.52786 116.43864 91.45605 116.58241 91.38666 116.72618 91.32048 116.86993 91.25752 117.01369 91.197 117.15746 91.14052 117.30121 91.08644 117.44499 91.03319 117.58875 90.98395 117.73251 90.93634 117.87627 90.89197 118.02003 90.8492 118.1638 90.80965 118.30756 90.77094 118.45132 90.7346 118.59508 90.70071 118.73886 90.66925 118.88261 90.63937 119.02637 90.61273 119.17014 90.58693 119.31389 90.56352 119.45766 90.54092 119.60143 90.52156 119.74518 90.503 119.88895 90.48686 120.0327 90.47314 120.17648 90.45943 120.32024 90.44974 120.46399 90.44006 120.60776 90.4336 120.75153 90.42796 120.89528 90.42392 121.03905 90.4223H121.1828L121.32657 90.42392 121.47034 90.42796 121.6141 90.4336 121.75787 90.44006 121.90161 90.44974 122.04538 90.45943 122.18915 90.47234 122.3329 90.48686 122.47668 90.503 122.62042 90.52156 122.7642 90.54092 122.90796 90.56352 123.05173 90.58693 123.19548 90.61273 123.33923 90.63937 123.48302 90.66925 123.62677 90.70071 123.77055 90.7346 123.91429 90.77094 124.05804 90.80965 124.20183 90.8492 124.34558 90.89197 124.48936 90.93634 124.6331 90.98395 124.77687 91.03319 124.92064 91.08565 125.06439 91.14052 125.20816 91.197 125.35191 91.25752 125.49568 91.32048 125.63945 91.38666 125.78322 91.45605 125.92697 91.52786 126.07072 91.60211 126.2145 91.68039 126.35826 91.7627 126.50203 91.84744 126.64577 91.937 126.78954 92.0298 126.9333 92.12665 127.07707 92.22833 127.22084 92.33243 127.3646 92.44217 127.50836 92.55676 127.65211 92.6762 127.79588 92.80049 127.93965 92.93121 128.08339 93.06677 128.22718 93.20801 128.37093 93.35487 128.51471 93.50981 128.65847 93.6712 128.80222 93.83987 128.94599 94.01498 129.08974 94.19897 129.23352 94.39265 129.37726 94.59439 129.52103 94.80663 129.6648 95.02774 129.80855 95.26097 129.95233 95.50467 130.09607 95.7605 130.23986 96.03163 130.3836 96.31569 130.52738 96.61668 130.67115 96.93141 130.81488 97.2655 130.95865 97.61896 131.10242 97.99179 131.24619 98.3872 131.38996 98.80685 131.5337 99.2539 131.67748 99.72923 131.82123 100.2352 131.965 100.7775 132.10875 101.3561 132.25252 101.97829 132.39627 102.64485 132.54006 103.36548 132.6838 104.14342 132.82756 104.9859 132.97133 105.90102 133.1151 106.89926 133.25887 107.99272 133.40262 109.19511 133.54639 110.51857 133.69014 111.98727 133.8339 113.62787 133.97768 115.4686 134.12143 117.54576 134.2652 119.90538 134.40895 122.61684 134.55272 125.76166 134.69649 129.45038 134.84024 133.83792 134.98401 139.14626 135.12776 145.67473 135.27153 153.92531 135.4153 164.6969"/>
<path transform="matrix(1.00003,0,0,-1.00006,-4.702553,168.18932)" stroke-width=".79701" stroke-linecap="butt" stroke-miterlimit="10" stroke-linejoin="miter" fill="none" stroke="#ff0000" d="M122.06477 .00807 122.20854 10.7611 122.35231 19.01491 122.49606 25.55872 122.63982 30.86058 122.78358 35.24734 122.92734 38.93607 123.0711 42.08571 123.21487 44.79556 123.35864 47.15921 123.50238 49.23637 123.64615 51.07468 123.78992 52.71527 123.93367 54.1864 124.07744 55.50903 124.22119 56.71063 124.36496 57.80411 124.50871 58.80313 124.65248 59.71907 124.79623 60.56154 124.93999 61.3395 125.08377 62.06012 125.22752 62.72668 125.37129 63.34888 125.51505 63.92747 125.6588 64.46976 125.80257 64.97574 125.94632 65.45107 126.0901 65.89651 126.23384 66.31615 126.37761 66.71318 126.52138 67.086 126.66513 67.43947 126.80888 67.77194 126.95265 68.08827 127.09642 68.38928 127.24017 68.67334 127.38396 68.94287 127.5277 69.2003 127.67145 69.444 127.81523 69.67722 127.95898 69.89835 128.10276 70.11058 128.24649 70.31232 128.39028 70.506 128.53403 70.68918 128.67778 70.8651 128.82157 71.03375 128.9653 71.19514 129.10907 71.34929 129.25284 71.49696 129.3966 71.63818 129.54036 71.77376 129.68412 71.90448 129.82788 72.02876 129.97164 72.1482 130.11542 72.26277 130.25916 72.37254 130.40293 72.47664 130.54669 72.57831 130.69045 72.67514 130.83422 72.76796 130.97797 72.85753 131.12174 72.94228 131.26549 73.02458 131.40927 73.10286 131.55303 73.17711 131.69676 73.24892 131.84053 73.31831 131.9843 73.38449 132.12807 73.44743 132.27182 73.50797 132.41559 73.56445 132.55934 73.61852 132.7031 73.67177 132.84688 73.721 132.99063 73.76863 133.13439 73.813 133.27816 73.85576 133.42192 73.89532 133.56568 73.93404 133.70943 73.96954 133.8532 74.00426 133.99695 74.03572 134.14073 74.06558 134.28449 74.09221 134.42824 74.11804 134.572 74.14143 134.71576 74.16403 134.85953 74.1834 135.0033 74.20197 135.14705 74.21811 135.2908 74.23181 135.43457 74.24554 135.57834 74.25523 135.72209 74.26491 135.86585 74.27136 136.00962 74.27701 136.15338 74.28105 136.29714 74.28267H136.44092L136.58466 74.28105 136.72841 74.27701 136.8722 74.27136 137.01595 74.26491 137.1597 74.25523 137.30347 74.24554 137.44724 74.23181 137.59099 74.21811 137.73476 74.20197 137.87851 74.1834 138.02227 74.16403 138.16605 74.14143 138.3098 74.11804 138.45357 74.09221 138.5973 74.06558 138.74108 74.03572 138.88484 74.00426 139.02861 73.97037 139.17238 73.93404 139.31612 73.89532 139.45989 73.85576 139.60366 73.813 139.7474 73.76863 139.89116 73.721 140.03493 73.67177 140.1787 73.61931 140.32245 73.56445 140.46623 73.50797 140.60997 73.44743 140.75373 73.38449 140.8975 73.31831 141.04126 73.24892 141.18503 73.17711 141.32878 73.10286 141.47255 73.02458 141.6163 72.94228 141.76007 72.85753 141.90384 72.76796 142.04758 72.67514 142.19136 72.57831 142.33512 72.47664 142.47888 72.37254 142.62265 72.26277 142.76639 72.1482 142.91016 72.02876 143.05391 71.90448 143.1977 71.77376 143.34143 71.63818 143.4852 71.49696 143.62897 71.35008 143.77272 71.19514 143.91649 71.03375 144.06024 70.8651 144.20401 70.68999 144.34777 70.506 144.49153 70.31232 144.6353 70.11058 144.77904 69.89835 144.92282 69.67722 145.06658 69.444 145.21035 69.2003 145.35411 68.94447 145.49787 68.67334 145.64162 68.38928 145.78539 68.08987 145.92916 67.77356 146.0729 67.43947 146.21668 67.086 146.36043 66.71397 146.5042 66.31775 146.64795 65.89812 146.7917 65.45107 146.93547 64.97574 147.07923 64.46976 147.223 63.9291 147.36676 63.35048 147.51052 62.72832 147.65427 62.06012 147.79804 61.3395 147.9418 60.56236 148.08556 59.71986 148.22933 58.80476 148.37308 57.80571 148.51685 56.71306 148.66062 55.51227 148.80437 54.1864 148.94812 52.71768 149.09188 51.0771 149.23566 49.2404 149.37941 47.16243 149.52318 44.8012 149.66693 42.08812 149.81069 38.94331 149.95446 35.2546 150.09822 30.86705 150.24198 25.57082 150.38573 19.03023 150.5295 10.77965 150.67327 .04034"/>
<path transform="matrix(1.00003,0,0,-1.00006,-4.702553,168.18932)" stroke-width=".79701" stroke-linecap="butt" stroke-dasharray="2.98883,2.98883" stroke-miterlimit="10" stroke-linejoin="miter" fill="none" stroke="#0000ff" d="M137.32277 0 137.46652 10.7611 137.61028 19.01491 137.75405 25.54662 137.89781 30.85736 138.04157 35.2433 138.18534 38.93607 138.3291 42.0841 138.47287 44.79556 138.61663 47.15677 138.76038 49.23476 138.90415 51.07468 139.04792 52.71527 139.19167 54.18396 139.33545 55.50903 139.47919 56.71063 139.62296 57.80411 139.76673 58.80313 139.91049 59.71907 140.05426 60.55994 140.198 61.33705 140.34177 62.05852 140.48554 62.72668 140.62929 63.34888 140.77307 63.92747 140.91681 64.46976 141.0606 64.97574 141.20435 65.45107 141.34812 65.89651 141.49187 66.31615 141.63562 66.71318 141.7794 67.086 141.92316 67.43864 142.06693 67.77194 142.21068 68.08827 142.35443 68.38768 142.49822 68.67172 142.64197 68.94287 142.78575 69.19868 142.92949 69.444 143.07326 69.67722 143.21703 69.89835 143.36078 70.11058 143.50455 70.31232 143.6483 70.506 143.79207 70.68999 143.93584 70.8651 144.0796 71.03375 144.22336 71.19514 144.36711 71.34929 144.51088 71.49696 144.65465 71.63818 144.79842 71.77376 144.94216 71.90448 145.08594 72.02876 145.22969 72.1482 145.37346 72.26277 145.51723 72.37254 145.66098 72.47664 145.80475 72.57831 145.9485 72.67514 146.09229 72.76796 146.23604 72.85753 146.37978 72.94228 146.52356 73.02377 146.66732 73.10286 146.8111 73.17711 146.95485 73.24892 147.09862 73.31831 147.24237 73.38449 147.38613 73.44743 147.5299 73.50797 147.67365 73.56445 147.81742 73.61852 147.96118 73.67177 148.10495 73.721 148.24872 73.76863 148.39246 73.813 148.53624 73.85576 148.68 73.89532 148.82376 73.93404 148.96753 73.97037 149.11127 74.00426 149.25504 74.03572 149.3988 74.06558 149.54257 74.09221 149.68634 74.11804 149.8301 74.14143 149.97385 74.16403 150.11762 74.1834 150.26139 74.20197 150.40514 74.21811 150.5489 74.23264 150.69266 74.24393 150.83644 74.25523 150.9802 74.26491 151.12395 74.27136 151.26772 74.27701 151.41149 74.28105 151.55525 74.28267H151.699L151.84278 74.28105 151.98653 74.27701 152.13028 74.27136 152.27407 74.26491 152.41782 74.25523 152.56159 74.24554 152.70534 74.23181 152.84912 74.21811 152.99288 74.20197 153.13663 74.1834 153.2804 74.16403 153.42415 74.14143 153.56792 74.11804 153.71169 74.09221 153.85544 74.06558 153.9992 74.03572 154.14296 74.00426 154.28675 73.97037 154.4305 73.93404 154.57425 73.89532 154.71802 73.85576 154.86179 73.813 155.00554 73.76863 155.1493 73.721 155.29306 73.67177 155.43683 73.61931 155.5806 73.56445 155.72437 73.50797 155.86814 73.44743 156.01187 73.38449 156.15564 73.31831 156.29941 73.24892 156.44318 73.17711 156.58695 73.10286 156.73069 73.02458 156.87447 72.94228 157.01822 72.85753 157.16197 72.76796 157.30574 72.67514 157.4495 72.57831 157.59328 72.47664 157.73703 72.37254 157.8808 72.26277 158.02455 72.1482 158.1683 72.02876 158.31209 71.90448 158.45584 71.77376 158.59961 71.63818 158.74337 71.49696 158.88712 71.35008 159.0309 71.19514 159.17465 71.03375 159.31844 70.8651 159.46218 70.68999 159.60594 70.506 159.74971 70.31232 159.89347 70.11058 160.03722 69.89995 160.18099 69.67722 160.32476 69.444 160.46852 69.2003 160.61229 68.94287 160.75605 68.67334 160.8998 68.38928 161.04357 68.08987 161.18733 67.77356 161.3311 67.43947 161.47484 67.086 161.61862 66.71318 161.76238 66.31775 161.90615 65.89812 162.04991 65.45107 162.19367 64.97655 162.33744 64.46976 162.48119 63.92747 162.62497 63.34888 162.76873 62.72832 162.91248 62.06012 163.05625 61.3395 163.2 60.56154 163.34378 59.71986 163.48752 58.80396 163.6313 57.8065 163.77506 56.71306 163.91881 55.51227 164.06259 54.1864 164.20633 52.71768 164.3501 51.0771 164.49387 49.23878 164.63764 47.16162 164.7814 44.79959 164.92514 42.08571 165.06893 38.93848 165.21268 35.25218 165.35645 30.86705 165.50022 25.55872 165.64397 19.02539 165.78772 10.76753 165.93149 .00807"/>
<path transform="matrix(1.00003,0,0,-1.00006,-4.702553,168.18932)" stroke-width=".79701" stroke-linecap="butt" stroke-miterlimit="10" stroke-linejoin="miter" fill="none" stroke="#ff0000" d="M152.58098 164.6969 152.72473 153.93741 152.8685 145.67958 153.01226 139.14626 153.15602 133.84438 153.29979 129.45763 153.44355 125.7689 153.5873 122.62086 153.73107 119.90941 153.87483 117.54576 154.01859 115.4686 154.16236 113.6303 154.3061 111.9897 154.44988 110.51857 154.59363 109.19511 154.73738 107.99272 154.88115 106.89926 155.0249 105.90102 155.16869 104.9859 155.31244 104.14342 155.45619 103.36629 155.59996 102.64645 155.74372 101.97829 155.88748 101.3561 156.03125 100.7775 156.175 100.23682 156.31876 99.72923 156.46253 99.2539 156.6063 98.80685 156.75005 98.38882 156.8938 97.99179 157.03757 97.61896 157.18134 97.2655 157.32509 96.93301 157.46887 96.61668 157.61261 96.31729 157.75637 96.03163 157.90015 95.7621 158.0439 95.50629 158.18766 95.26097 158.33142 95.02774 158.47519 94.80663 158.61894 94.59439 158.7627 94.39265 158.90647 94.19897 159.05022 94.01498 159.19399 93.83987 159.33776 93.6712 159.48152 93.50981 159.62526 93.35568 159.76903 93.20801 159.9128 93.06677 160.05655 92.93121 160.20034 92.8021 160.34407 92.6762 160.48784 92.55676 160.6316 92.44217 160.77536 92.33243 160.91912 92.22833 161.06288 92.12665 161.20665 92.0298 161.3504 91.937 161.49417 91.84744 161.63793 91.7627 161.78168 91.6812 161.92546 91.60211 162.06922 91.52786 162.21298 91.45605 162.35672 91.38666 162.5005 91.32048 162.64426 91.25752 162.78801 91.197 162.9318 91.14052 163.07553 91.08565 163.2193 91.03319 163.36307 90.98395 163.50684 90.93634 163.65059 90.89197 163.79434 90.8492 163.93811 90.80965 164.08187 90.77094 164.22565 90.7354 164.36939 90.70071 164.51316 90.66925 164.65692 90.63937 164.80068 90.61273 164.94445 90.58693 165.0882 90.56352 165.23197 90.54092 165.37572 90.52156 165.5195 90.503 165.66326 90.48686 165.80699 90.47234 165.95076 90.46104 166.09453 90.44974 166.2383 90.44006 166.38205 90.4336 166.52582 90.42796 166.66957 90.42392 166.81333 90.4223H166.9571L167.10086 90.42392 167.24462 90.42796 167.38838 90.4336 167.53215 90.44006 167.6759 90.44974 167.81966 90.45943 167.96343 90.47234 168.10718 90.48686 168.25096 90.503 168.39472 90.52156 168.53847 90.54092 168.68224 90.56352 168.82599 90.58693 168.96976 90.61273 169.11353 90.63937 169.25728 90.66925 169.40103 90.70071 169.5448 90.7354 169.68857 90.77094 169.83232 90.80965 169.97608 90.8492 170.11985 90.89197 170.26361 90.93634 170.40737 90.98395 170.55115 91.03319 170.69489 91.08565 170.83864 91.14052 170.98242 91.197 171.12618 91.25752 171.26993 91.32048 171.4137 91.38666 171.55747 91.45605 171.70122 91.52786 171.84499 91.60211 171.98874 91.68039 172.13249 91.7627 172.27628 91.84744 172.42003 91.937 172.5638 92.0298 172.70755 92.12665 172.8513 92.22833 172.99507 92.33243 173.13884 92.44217 173.28261 92.55676 173.42635 92.6762 173.57012 92.80049 173.71389 92.93121 173.85764 93.06677 174.00139 93.20801 174.14516 93.35487 174.28893 93.50981 174.43268 93.6712 174.57646 93.83987 174.7202 94.01498 174.86396 94.19897 175.00774 94.39265 175.15149 94.59358 175.29526 94.80502 175.43901 95.02774 175.58278 95.26097 175.72653 95.50467 175.8703 95.7605 176.01407 96.03163 176.1578 96.31569 176.30159 96.61507 176.44535 96.93141 176.58911 97.2655 176.73288 97.61896 176.87662 97.99098 177.02039 98.3872 177.16414 98.80685 177.30792 99.2531 177.45166 99.72841 177.59543 100.2352 177.7392 100.77588 177.88295 101.35449 178.02672 101.97665 178.17047 102.64485 178.31424 103.36548 178.458 104.14261 178.60176 104.9859 178.74553 105.90102 178.88927 106.89682 179.03304 107.9903 179.1768 109.19269 179.32057 110.51857 179.46433 111.98727 179.60808 113.62625 179.75185 115.46455 179.8956 117.54254 180.03937 119.90378 180.18314 122.61684 180.32689 125.76166 180.47064 129.45038 180.61443 133.83792 180.75818 139.14302 180.90192 145.67473 181.04569 153.91887 181.18946 164.66463"/>
<path transform="matrix(1.00003,0,0,-1.00006,-4.702553,168.18932)" stroke-width=".79701" stroke-linecap="butt" stroke-dasharray="2.98883,2.98883" stroke-miterlimit="10" stroke-linejoin="miter" fill="none" stroke="#0000ff" d="M167.83896 164.70497 167.98273 153.94388 168.12648 145.69007 168.27024 139.1535 168.41402 133.84438 168.55777 129.45763 168.70153 125.7689 168.84529 122.62086 168.98906 119.91345 169.13283 117.54819 169.27658 115.4702 169.42035 113.6303 169.5641 111.99292 169.70786 110.5226 169.85164 109.19592 169.99539 107.99432 170.13916 106.90169 170.28292 105.90102 170.4267 104.9859 170.57045 104.14342 170.7142 103.36629 170.85797 102.64645 171.00173 101.97829 171.1455 101.3561 171.28926 100.77829 171.43303 100.23682 171.57678 99.72923 171.72054 99.25552 171.86432 98.80846 172.00807 98.38882 172.15183 97.99179 172.2956 97.61896 172.43935 97.2655 172.58312 96.93301 172.72689 96.61668 172.87064 96.31729 173.0144 96.03163 173.15818 95.7621 173.30194 95.50467 173.4457 95.26097 173.58945 95.02774 173.73322 94.80663 173.87699 94.59439 174.02074 94.39265 174.16452 94.19897 174.30826 94.0158 174.45203 93.83987 174.5958 93.6712 174.73955 93.50981 174.88333 93.35568 175.02707 93.20801 175.17086 93.06677 175.3146 92.93121 175.45836 92.8021 175.60213 92.6762 175.74588 92.55676 175.88967 92.44217 176.03342 92.33243 176.1772 92.22833 176.32094 92.12665 176.46469 92.0298 176.60848 91.937 176.75223 91.84744 176.896 91.7627 177.03975 91.6812 177.18352 91.60211 177.32729 91.52786 177.47104 91.45605 177.61483 91.38666 177.75856 91.32048 177.90233 91.25752 178.0461 91.197 178.18987 91.14052 178.3336 91.08644 178.47737 91.03319 178.62114 90.98395 178.76491 90.93634 178.90868 90.89197 179.05243 90.8492 179.1962 90.80965 179.33995 90.77094 179.48372 90.7346 179.62749 90.70071 179.77123 90.66925 179.91501 90.63937 180.05876 90.61273 180.20253 90.58693 180.3463 90.56352 180.49005 90.54092 180.63382 90.52156 180.77758 90.503 180.92136 90.48686 181.06511 90.47314 181.20885 90.45943 181.35263 90.44974 181.49639 90.44006 181.64017 90.4336 181.7839 90.42796 181.92769 90.42392 182.07144 90.4223H182.2152L182.35898 90.42392 182.50272 90.42796 182.64649 90.4336 182.79026 90.44006 182.93402 90.44974 183.07779 90.45943 183.22153 90.47234 183.36531 90.48686 183.50907 90.503 183.65283 90.52156 183.7966 90.54092 183.94036 90.56352 184.0841 90.58693 184.22788 90.61273 184.37165 90.63937 184.5154 90.66925 184.65917 90.70071 184.80294 90.7346 184.9467 90.77094 185.09046 90.80965 185.2342 90.8492 185.37798 90.89197 185.52173 90.93634 185.66551 90.98395 185.80927 91.03319 185.95304 91.08565 186.09679 91.14052 186.24056 91.197 186.38433 91.25752 186.52808 91.32048 186.67185 91.38666 186.8156 91.45605 186.95937 91.52786 187.10314 91.60211 187.24689 91.68039 187.39066 91.7627 187.53441 91.84744 187.67819 91.937 187.82195 92.0298 187.9657 92.12665 188.10947 92.22833 188.25322 92.33243 188.39699 92.44217 188.54076 92.55676 188.68451 92.6762 188.82828 92.80049 188.97203 92.93121 189.1158 93.06677 189.25957 93.20801 189.40332 93.35487 189.54709 93.50981 189.69086 93.6712 189.83461 93.83987 189.97838 94.01498 190.12213 94.19897 190.2659 94.39265 190.40967 94.59439 190.55344 94.80663 190.69719 95.02774 190.84095 95.26097 190.98471 95.50467 191.12848 95.7605 191.27223 96.03163 191.416 96.31569 191.55976 96.61668 191.70354 96.93141 191.84729 97.2655 191.99106 97.61896 192.13481 97.99179 192.27857 98.3872 192.42235 98.80685 192.5661 99.2539 192.70987 99.72923 192.85363 100.2352 192.99738 100.7775 193.14116 101.3561 193.28491 101.97829 193.4287 102.64485 193.57244 103.36548 193.7162 104.14342 193.85997 104.9859 194.00373 105.90102 194.14748 106.89926 194.29125 107.99272 194.43502 109.19511 194.57878 110.51857 194.72255 111.98727 194.86629 113.62787 195.01006 115.4686 195.15383 117.54576 195.29759 119.90538 195.44136 122.61684 195.58512 125.76166 195.72888 129.45038 195.87264 133.83792 196.0164 139.14626 196.16017 145.67473 196.30391 153.92531 196.4477 164.6969"/>
<path transform="matrix(1.00003,0,0,-1.00006,-4.702553,168.18932)" stroke-width=".79701" stroke-linecap="butt" stroke-miterlimit="10" stroke-linejoin="miter" fill="none" stroke="#ff0000" d="M183.09717 .00807 183.24095 10.7611 183.38469 19.01491 183.52846 25.55872 183.67221 30.86058 183.81598 35.24734 183.95975 38.93607 184.10349 42.08571 184.24727 44.79556 184.39102 47.15921 184.53479 49.23637 184.67856 51.07468 184.8223 52.71527 184.96607 54.1864 185.10982 55.50903 185.2536 56.71063 185.39734 57.80411 185.5411 58.80313 185.68488 59.71907 185.82863 60.56154 185.9724 61.3395 186.11615 62.06012 186.25992 62.72668 186.40367 63.34888 186.54746 63.92747 186.69121 64.46976 186.83495 64.97574 186.97872 65.45107 187.12248 65.89651 187.26625 66.31615 187.41 66.71318 187.55377 67.086 187.69753 67.43947 187.84128 67.77194 187.98506 68.08827 188.12882 68.38928 188.27257 68.67334 188.41634 68.94287 188.5601 69.2003 188.70386 69.444 188.8476 69.67722 188.99138 69.89835 189.13513 70.11058 189.2789 70.31232 189.42267 70.506 189.56642 70.68918 189.71018 70.8651 189.85395 71.03375 189.99771 71.19514 190.14147 71.34929 190.28524 71.49696 190.42899 71.63818 190.57276 71.77376 190.71652 71.90448 190.86028 72.02876 191.00403 72.1482 191.1478 72.26277 191.29157 72.37254 191.43532 72.47664 191.5791 72.57831 191.72284 72.67514 191.8666 72.76796 192.01038 72.85753 192.15413 72.94228 192.29788 73.02458 192.44165 73.10286 192.58542 73.17711 192.72917 73.24892 192.87293 73.31831 193.0167 73.38449 193.16045 73.44743 193.30422 73.50797 193.44799 73.56445 193.59175 73.61852 193.73549 73.67177 193.87926 73.721 194.02303 73.76863 194.16678 73.813 194.31056 73.85576 194.4543 73.89532 194.59807 73.93404 194.74184 73.96954 194.88559 74.00426 195.02936 74.03572 195.17311 74.06558 195.31688 74.09221 195.46063 74.11804 195.60442 74.14143 195.74816 74.16403 195.8919 74.1834 196.03569 74.20197 196.17945 74.21811 196.32321 74.23181 196.46695 74.24554 196.61074 74.25523 196.75449 74.26491 196.89824 74.27136 197.04203 74.27701 197.18576 74.28105 197.32953 74.28267H197.4733L197.61707 74.28105 197.76082 74.27701 197.90457 74.27136 198.04834 74.26491 198.1921 74.25523 198.33588 74.24554 198.47962 74.23181 198.62339 74.21811 198.76715 74.20197 198.9109 74.1834 199.05467 74.16403 199.19843 74.14143 199.3422 74.11804 199.48595 74.09221 199.62973 74.06558 199.77349 74.03572 199.91722 74.00426 200.06099 73.97037 200.20476 73.93404 200.34853 73.89532 200.49228 73.85576 200.63605 73.813 200.7798 73.76863 200.92356 73.721 201.06734 73.67177 201.21109 73.61931 201.35485 73.56445 201.49861 73.50797 201.64238 73.44743 201.78614 73.38449 201.92989 73.31831 202.07366 73.24892 202.2174 73.17711 202.36119 73.10286 202.50495 73.02458 202.6487 72.94228 202.79247 72.85753 202.93622 72.76796 203.07999 72.67514 203.22376 72.57831 203.36751 72.47664 203.51126 72.37254 203.65503 72.26277 203.7988 72.1482 203.94255 72.02876 204.0863 71.90448 204.23007 71.77376 204.37384 71.63818 204.5176 71.49696 204.66138 71.35008 204.80512 71.19514 204.94887 71.03375 205.09265 70.8651 205.2364 70.68999 205.38016 70.506 205.52393 70.31232 205.6677 70.11058 205.81145 69.89835 205.95522 69.67722 206.09897 69.444 206.24272 69.2003 206.3865 68.94447 206.53026 68.67334 206.67403 68.38928 206.81778 68.08987 206.96154 67.77356 207.1053 67.43947 207.24906 67.086 207.39284 66.71397 207.53658 66.31775 207.68035 65.89812 207.82411 65.45107 207.96787 64.97574 208.11162 64.46976 208.25539 63.92747 208.39916 63.35048 208.54291 62.72832 208.68669 62.06012 208.83043 61.3395 208.97418 60.56236 209.11795 59.71986 209.26172 58.80476 209.40549 57.80571 209.54923 56.71306 209.69301 55.51227 209.83676 54.1864 209.98052 52.71768 210.12429 51.0771 210.26804 49.23878 210.4118 47.16243 210.55556 44.8012 210.69934 42.08812 210.8431 38.94331 210.98683 35.2546 211.13062 30.86705 211.27437 25.57082 211.41814 19.03023 211.56188 10.77965 211.70566 .04034"/>
<path transform="matrix(1.00003,0,0,-1.00006,-4.702553,168.18932)" stroke-width=".79701" stroke-linecap="butt" stroke-dasharray="2.98883,2.98883" stroke-miterlimit="10" stroke-linejoin="miter" fill="none" stroke="#0000ff" d="M198.35515 0 198.49893 10.7611 198.64269 19.01491 198.78643 25.54662 198.9302 30.85736 199.07396 35.2433 199.21775 38.93607 199.3615 42.0841 199.50527 44.79556 199.64902 47.15677 199.79277 49.23476 199.93656 51.07468 200.08029 52.71527 200.22406 54.18396 200.36783 55.50903 200.5116 56.71063 200.65537 57.80411 200.7991 58.80313 200.94289 59.71907 201.08664 60.55994 201.23041 61.33705 201.37418 62.05852 201.51793 62.72668 201.66168 63.34888 201.80545 63.92747 201.94922 64.46976 202.09299 64.97574 202.23674 65.45107 202.38051 65.89651 202.52428 66.31615 202.66803 66.71318 202.81179 67.086 202.95555 67.43864 203.0993 67.77194 203.24309 68.08827 203.38684 68.38768 203.5306 68.67172 203.67436 68.94287 203.81813 69.19868 203.9619 69.444 204.10565 69.67722 204.24942 69.89835 204.39318 70.11058 204.53694 70.31232 204.68071 70.506 204.82447 70.68999 204.96823 70.8651 205.11199 71.03375 205.25577 71.19514 205.39952 71.34929 205.54328 71.49696 205.68704 71.63818 205.8308 71.77376 205.97457 71.90448 206.11833 72.02876 206.26209 72.1482 206.40586 72.26277 206.5496 72.37254 206.69339 72.47664 206.83715 72.57831 206.9809 72.67514 207.12467 72.76796 207.26844 72.85753 207.41219 72.94228 207.55596 73.02458 207.6997 73.10286 207.84348 73.17711 207.98725 73.24892 208.13101 73.31831 208.27478 73.38449 208.41852 73.44743 208.56229 73.50797 208.70606 73.56445 208.84981 73.61852 208.99358 73.67177 209.13733 73.721 209.28112 73.76863 209.42487 73.813 209.56864 73.85576 209.71239 73.89532 209.85614 73.93404 209.99993 73.97037 210.14368 74.00426 210.28745 74.03572 210.4312 74.06558 210.57495 74.09221 210.71874 74.11804 210.86249 74.14143 211.00627 74.16403 211.15001 74.1834 211.29378 74.20197 211.43755 74.21811 211.5813 74.23264 211.72507 74.24393 211.86882 74.25523 212.01259 74.26491 212.15636 74.27136 212.30011 74.27701 212.44388 74.28105 212.58763 74.28267H212.7314L212.87517 74.28105 213.01894 74.27701 213.16268 74.27136 213.30644 74.26491 213.45021 74.25523 213.59398 74.24554 213.73775 74.23181 213.88149 74.21811 214.02527 74.20197 214.16902 74.1834 214.31279 74.16403 214.45656 74.14143 214.6003 74.11804 214.74408 74.09221 214.88784 74.06558 215.03162 74.03572 215.17537 74.00426 215.31912 73.97037 215.46289 73.93404 215.60665 73.89532 215.75043 73.85576 215.89417 73.813 216.03794 73.76863 216.1817 73.721 216.32546 73.67177 216.46924 73.61931 216.61298 73.56445 216.75676 73.50797 216.90052 73.44743 217.04428 73.38449 217.18805 73.31831 217.33179 73.24892 217.47556 73.17711 217.61933 73.10286 217.76309 73.02458 217.90686 72.94228 218.05062 72.85753 218.19438 72.76796 218.33814 72.67514 218.4819 72.57831 218.62566 72.47664 218.76943 72.37254 218.91318 72.26277 219.05696 72.1482 219.20072 72.02876 219.34447 71.90448 219.48824 71.77376 219.632 71.63818 219.77577 71.49696 219.91953 71.35008 220.06328 71.19514 220.20705 71.03375 220.3508 70.8651 220.49459 70.68999 220.63834 70.506 220.7821 70.31232 220.92586 70.11058 221.06963 69.89995 221.2134 69.67722 221.35715 69.444 221.50092 69.2003 221.64467 68.94287 221.78844 68.67334 221.9322 68.38928 222.07595 68.08987 222.21973 67.77356 222.36348 67.43947 222.50727 67.086 222.65102 66.71318 222.79477 66.31775 222.93854 65.89812 223.08229 65.45107 223.22606 64.97574 223.36983 64.46976 223.51358 63.92747 223.65735 63.34888 223.80112 62.72668 223.94489 62.06012 224.08864 61.3395 224.23239 60.56154 224.37616 59.71907 224.51993 58.80396 224.66368 57.80571 224.80745 56.71225 224.9512 55.51227 225.09497 54.1864 225.23874 52.71768 225.3825 51.0771 225.52626 49.23878 225.67002 47.16162 225.8138 44.79959 225.95755 42.08571 226.1013 38.93848 226.24507 35.25218 226.38883 30.86705 226.53261 25.55872 226.67636 19.02539 226.82015 10.76753 226.96389 .00807"/>
<path transform="matrix(1.00003,0,0,-1.00006,-4.702553,168.18932)" stroke-width=".79701" stroke-linecap="butt" stroke-miterlimit="10" stroke-linejoin="miter" fill="none" stroke="#ff0000" d="M91.54857 164.6969 91.69235 153.93741 91.8361 145.67958 91.97987 139.14626 92.12361 133.84438 92.2674 129.45278 92.41115 125.7665 92.5549 122.61926 92.69867 119.90941 92.84242 117.54819 92.98619 115.4686 93.12996 113.6303 93.27373 111.9897 93.41747 110.51857 93.56123 109.19592 93.705 107.99272 93.84875 106.89926 93.99252 105.90102 94.13628 104.9859 94.28004 104.14342 94.4238 103.36548 94.56757 102.64485 94.71133 101.97829 94.85507 101.3561 94.99886 100.7775 95.14261 100.2352 95.28638 99.72923 95.43013 99.2539 95.57388 98.80846 95.71765 98.38882 95.8614 97.99179 96.00519 97.61896 96.14893 97.2655 96.2927 96.93301 96.43646 96.61668 96.58022 96.31569 96.72398 96.03163 96.86772 95.7621 97.0115 95.50467 97.15526 95.26097 97.29903 95.02774 97.4428 94.80663 97.58653 94.59439 97.7303 94.39265 97.87407 94.19897 98.01784 94.01498 98.16159 93.83987 98.30536 93.6712 98.44911 93.50981 98.59286 93.35568 98.73665 93.20801 98.8804 93.06677 99.02415 92.93121 99.16792 92.80049 99.31169 92.6762 99.45544 92.55676 99.5992 92.44217 99.74297 92.33243 99.88672 92.22833 100.0305 92.12665 100.17426 92.0298 100.31801 91.937 100.46176 91.84744 100.60553 91.7627 100.7493 91.68039 100.89305 91.60211 101.03682 91.52786 101.18057 91.45605 101.32434 91.38666 101.46811 91.32048 101.61186 91.25752 101.75562 91.197 101.89938 91.14052 102.04315 91.08644 102.1869 91.03319 102.33069 90.98395 102.47443 90.93634 102.61818 90.89197 102.76196 90.8492 102.90572 90.80965 103.04947 90.77094 103.19324 90.7354 103.337 90.70071 103.48076 90.66925 103.62453 90.63937 103.76828 90.61273 103.91203 90.58693 104.0558 90.56352 104.19957 90.54092 104.34334 90.52156 104.48708 90.503 104.63084 90.48686 104.77461 90.47234 104.91837 90.46104 105.06215 90.44974 105.20589 90.44006 105.34966 90.4336 105.49342 90.42796 105.63718 90.42392 105.78093 90.4223H105.9247L106.06847 90.42392 106.21222 90.42796 106.356 90.4336 106.49974 90.44006 106.6435 90.44974 106.78728 90.45943 106.93103 90.47234 107.0748 90.48686 107.21855 90.503 107.36232 90.52156 107.50607 90.54092 107.64984 90.56352 107.79361 90.58693 107.93735 90.61273 108.08113 90.63937 108.22488 90.66925 108.36865 90.70071 108.51242 90.7354 108.65616 90.77094 108.79993 90.80965 108.94368 90.8492 109.08746 90.89197 109.2312 90.93634 109.37497 90.98395 109.51874 91.03319 109.66249 91.08565 109.80626 91.14052 109.95001 91.197 110.09378 91.25752 110.23753 91.32048 110.3813 91.38666 110.52507 91.45605 110.66881 91.52786 110.81259 91.60211 110.95634 91.68039 111.10011 91.7627 111.24388 91.84744 111.38762 91.937 111.53139 92.0298 111.67516 92.12665 111.81892 92.22833 111.96268 92.33243 112.10645 92.44217 112.2502 92.55676 112.39397 92.6762 112.53772 92.80049 112.68147 92.93121 112.82524 93.06677 112.969 93.20801 113.11278 93.35487 113.25653 93.50981 113.40028 93.6712 113.54405 93.83987 113.6878 94.01498 113.83157 94.19897 113.97534 94.39265 114.1191 94.59358 114.26285 94.80502 114.40662 95.02774 114.55038 95.26097 114.69414 95.50467 114.8379 95.7605 114.98166 96.03163 115.12543 96.31569 115.2692 96.61507 115.41295 96.93141 115.5567 97.2655 115.70047 97.61896 115.84424 97.99098 115.98799 98.3872 116.13174 98.80685 116.27551 99.2531 116.41927 99.72841 116.56303 100.2352 116.7068 100.77588 116.85056 101.35449 116.99431 101.97665 117.13809 102.64485 117.28185 103.36548 117.4256 104.14261 117.56935 104.9859 117.71312 105.90102 117.85689 106.89682 118.00064 107.9903 118.14442 109.19269 118.28816 110.51857 118.43192 111.98727 118.57568 113.62625 118.71945 115.46455 118.8632 117.54254 119.00696 119.90378 119.15074 122.61684 119.2945 125.76166 119.43825 129.45038 119.58202 133.83792 119.72577 139.14302 119.86954 145.67473 120.0133 153.91887 120.15707 164.66463"/>
<path transform="matrix(1.00003,0,0,-1.00006,-4.702553,168.18932)" stroke-width=".79701" stroke-linecap="butt" stroke-dasharray="2.98883,2.98883" stroke-miterlimit="10" stroke-linejoin="miter" fill="none" stroke="#0000ff" d="M106.80655 164.70497 106.95033 153.94388 107.09409 145.69007 107.23787 139.1535 107.3816 133.84438 107.52536 129.45763 107.66914 125.7689 107.8129 122.62086 107.95668 119.91345 108.10042 117.54819 108.24419 115.4702 108.38795 113.6303 108.53171 111.99292 108.67549 110.5226 108.81923 109.19592 108.963 107.99432 109.10677 106.90169 109.25052 105.90102 109.3943 104.9859 109.53804 104.14342 109.68181 103.36629 109.82558 102.64645 109.96935 101.97829 110.1131 101.3561 110.25685 100.77829 110.40062 100.23682 110.54439 99.72923 110.68816 99.25552 110.83191 98.80846 110.97568 98.38882 111.11943 97.99179 111.2632 97.61896 111.40697 97.2655 111.55072 96.93301 111.69449 96.61668 111.83824 96.31729 111.98203 96.03163 112.12578 95.7621 112.26953 95.50467 112.4133 95.26097 112.55705 95.02774 112.70084 94.80663 112.84459 94.59439 112.98836 94.39265 113.13211 94.19897 113.27586 94.0158 113.41965 93.83987 113.56339 93.6712 113.70717 93.50981 113.85092 93.35568 113.99469 93.20801 114.13846 93.06677 114.2822 92.93121 114.42598 92.8021 114.56973 92.6762 114.7135 92.55676 114.85727 92.44217 115.00102 92.33243 115.14479 92.22833 115.28854 92.12665 115.43231 92.0298 115.57608 91.937 115.71983 91.84744 115.86359 91.7627 116.00737 91.6812 116.15112 91.60211 116.29489 91.52786 116.43864 91.45605 116.58241 91.38666 116.72618 91.32048 116.86993 91.25752 117.01369 91.197 117.15746 91.14052 117.30121 91.08644 117.44499 91.03319 117.58875 90.98395 117.73251 90.93634 117.87627 90.89197 118.02003 90.8492 118.1638 90.80965 118.30756 90.77094 118.45132 90.7346 118.59508 90.70071 118.73886 90.66925 118.88261 90.63937 119.02637 90.61273 119.17014 90.58693 119.31389 90.56352 119.45766 90.54092 119.60143 90.52156 119.74518 90.503 119.88895 90.48686 120.0327 90.47314 120.17648 90.45943 120.32024 90.44974 120.46399 90.44006 120.60776 90.4336 120.75153 90.42796 120.89528 90.42392 121.03905 90.4223H121.1828L121.32657 90.42392 121.47034 90.42796 121.6141 90.4336 121.75787 90.44006 121.90161 90.44974 122.04538 90.45943 122.18915 90.47234 122.3329 90.48686 122.47668 90.503 122.62042 90.52156 122.7642 90.54092 122.90796 90.56352 123.05173 90.58693 123.19548 90.61273 123.33923 90.63937 123.48302 90.66925 123.62677 90.70071 123.77055 90.7346 123.91429 90.77094 124.05804 90.80965 124.20183 90.8492 124.34558 90.89197 124.48936 90.93634 124.6331 90.98395 124.77687 91.03319 124.92064 91.08565 125.06439 91.14052 125.20816 91.197 125.35191 91.25752 125.49568 91.32048 125.63945 91.38666 125.78322 91.45605 125.92697 91.52786 126.07072 91.60211 126.2145 91.68039 126.35826 91.7627 126.50203 91.84744 126.64577 91.937 126.78954 92.0298 126.9333 92.12665 127.07707 92.22833 127.22084 92.33243 127.3646 92.44217 127.50836 92.55676 127.65211 92.6762 127.79588 92.80049 127.93965 92.93121 128.08339 93.06677 128.22718 93.20801 128.37093 93.35487 128.51471 93.50981 128.65847 93.6712 128.80222 93.83987 128.94599 94.01498 129.08974 94.19897 129.23352 94.39265 129.37726 94.59439 129.52103 94.80663 129.6648 95.02774 129.80855 95.26097 129.95233 95.50467 130.09607 95.7605 130.23986 96.03163 130.3836 96.31569 130.52738 96.61668 130.67115 96.93141 130.81488 97.2655 130.95865 97.61896 131.10242 97.99179 131.24619 98.3872 131.38996 98.80685 131.5337 99.2539 131.67748 99.72923 131.82123 100.2352 131.965 100.7775 132.10875 101.3561 132.25252 101.97829 132.39627 102.64485 132.54006 103.36548 132.6838 104.14342 132.82756 104.9859 132.97133 105.90102 133.1151 106.89926 133.25887 107.99272 133.40262 109.19511 133.54639 110.51857 133.69014 111.98727 133.8339 113.62787 133.97768 115.4686 134.12143 117.54576 134.2652 119.90538 134.40895 122.61684 134.55272 125.76166 134.69649 129.45038 134.84024 133.83792 134.98401 139.14626 135.12776 145.67473 135.27153 153.92531 135.4153 164.6969"/>
</g>
<use data-text="x" xlink:href="#font_3_2" transform="matrix(9.962899,0,0,-9.963197,189.11429,82.297168)"/>
<use data-text="y" xlink:href="#font_3_3" transform="matrix(9.962899,0,0,-9.963197,104.69373,12.91301)"/>
<path transform="matrix(1.00003,0,0,-1.00006,-4.702553,168.18932)" d="M144.90709 129.7346H198.90348V159.62279H144.90709Z" fill="#ffffff"/>
<path transform="matrix(1.00003,0,0,-1.00006,-4.702553,168.18932)" stroke-width=".3985" stroke-linecap="butt" stroke-miterlimit="10" stroke-linejoin="miter" fill="none" stroke="#000000" d="M144.90709 129.7346H198.90348V159.62279H144.90709Z"/>
<path transform="matrix(1.00003,0,0,-1.00006,143.59589,17.026246)" stroke-width=".79701" stroke-linecap="butt" stroke-miterlimit="10" stroke-linejoin="miter" fill="none" stroke="#ff0000" d="M0 0H8.50412 17.00826"/>
<use data-text="s" xlink:href="#font_2_10" transform="matrix(9.962899,0,0,-9.963197,162.99547,20.015427)"/>
<use data-text="e" xlink:href="#font_2_9" transform="matrix(9.962899,0,0,-9.963197,166.92084,20.015427)"/>
<use data-text="c" xlink:href="#font_2_8" transform="matrix(9.962899,0,0,-9.963197,171.34436,20.015427)"/>
<use data-text="(" xlink:href="#font_2_1" transform="matrix(9.962899,0,0,-9.963197,175.76792,20.015427)"/>
<use data-text="x" xlink:href="#font_3_2" transform="matrix(9.962899,0,0,-9.963197,179.65598,20.015427)"/>
<use data-text=")" xlink:href="#font_2_2" transform="matrix(9.962899,0,0,-9.963197,185.35013,20.015427)"/>
<path transform="matrix(1.00003,0,0,-1.00006,143.59589,29.978028)" stroke-width=".79701" stroke-linecap="butt" stroke-dasharray="2.98883,2.98883" stroke-miterlimit="10" stroke-linejoin="miter" fill="none" stroke="#0000ff" d="M0 0H8.50412 17.00826"/>
<use data-text="c" xlink:href="#font_2_8" transform="matrix(9.962899,0,0,-9.963197,162.99547,32.96721)"/>
<use data-text="s" xlink:href="#font_2_10" transform="matrix(9.962899,0,0,-9.963197,167.41899,32.96721)"/>
<use data-text="c" xlink:href="#font_2_8" transform="matrix(9.962899,0,0,-9.963197,171.34436,32.96721)"/>
<use data-text="(" xlink:href="#font_2_1" transform="matrix(9.962899,0,0,-9.963197,175.76792,32.96721)"/>
<use data-text="x" xlink:href="#font_3_2" transform="matrix(9.962899,0,0,-9.963197,179.65598,32.96721)"/>
<use data-text=")" xlink:href="#font_2_2" transform="matrix(9.962899,0,0,-9.963197,185.35013,32.96721)"/>
</svg>
