<svg xmlns="http://www.w3.org/2000/svg" xmlns:xlink="http://www.w3.org/1999/xlink" xmlns:inkscape="http://www.inkscape.org/namespaces/inkscape" version="1.1" width="200" height="171" viewBox="0 0 200 171">
<defs>
<path id="font_1_1" d="M.6589966 .23046875C.6759949 .23046875 .69400027 .23046875 .69400027 .25045777 .69400027 .27046205 .6759949 .27046205 .6589966 .27046205H.117996219C.100997928 .27046205 .08299255 .27046205 .08299255 .25045777 .08299255 .23046875 .100997928 .23046875 .117996219 .23046875H.6589966Z"/>
<path id="font_2_6" d="M.2899933 .35191346C.37199403 .37893678 .42999269 .4490509 .42999269 .52809146 .42999269 .6100464 .34199525 .6660156 .24598694 .6660156 .14498902 .6660156 .068984989 .60606387 .068984989 .53009036 .068984989 .49710084 .09098816 .47808839 .11999512 .47808839 .15098572 .47808839 .17098999 .50009158 .17098999 .5290985 .17098999 .57910159 .12399292 .57910159 .10899353 .57910159 .13999939 .62802127 .20599365 .64100649 .24198914 .64100649 .2829895 .64100649 .33799745 .6190338 .33799745 .5290985 .33799745 .51708987 .33599855 .45906068 .30999757 .4149933 .27999879 .36691285 .24598694 .36390687 .22099304 .36291505 .21299744 .36190797 .18899536 .35990907 .18199158 .35990907 .17399597 .35890199 .16699219 .35791017 .16699219 .3479004 .16699219 .33691407 .17399597 .33691407 .19099427 .33691407H.23498535C.31698609 .33691407 .35398866 .2686615 .35398866 .17037964 .35398866 .034469606 .2849884 .0055389406 .24099732 .0055389406 .19799805 .0055389406 .12298584 .022491456 .08799744 .08137512 .12298584 .07637024 .1539917 .09837341 .1539917 .1363678 .1539917 .17237854 .1269989 .19238281 .09799194 .19238281 .07398987 .19238281 .041992189 .17837525 .041992189 .1343689 .041992189 .043441774 .1349945-.022460938 .24398804-.022460938 .3659973-.022460938 .45700074 .06838989 .45700074 .17037964 .45700074 .252594 .3939972 .33088685 .2899933 .35191346Z"/>
<path id="font_3_1" d="M.2649994 .37265016H.37799073C.34498597 .22489929 .33599855 .18196106 .33599855 .11508179 .33599855 .100097659 .33599855 .073150638 .34399415 .03919983 .35398866-.0047454836 .36499024-.0107421879 .37998963-.0107421879 .3999939-.0107421879 .42099 .007247925 .42099 .02722168 .42099 .033218385 .42099 .035202028 .4149933 .049179079 .38598634 .12106323 .38598634 .18595886 .38598634 .21391297 .38598634 .26683045 .3929901 .32073976 .4039917 .37265016H.5179901C.5309906 .37265016 .5669861 .37265016 .5669861 .406662 .5669861 .43066407 .54599 .43066407 .5269928 .43066407H.19198609C.16999817 .43066407 .13198853 .43066407 .08799744 .38365174 .052993776 .34469605 .026992798 .29878236 .026992798 .29379273 .026992798 .29278565 .026992798 .28379823 .038986207 .28379823 .04699707 .28379823 .04899597 .28779603 .054992677 .29577638 .10398865 .37265016 .1619873 .37265016 .18199158 .37265016H.23899842C.20698548 .25186158 .15299988 .13105774 .11099243 .04020691 .102996829 .025222779 .102996829 .023223877 .102996829 .016235352 .102996829-.002746582 .11898804-.0107421879 .13198853-.0107421879 .1619873-.0107421879 .16999817 .017242432 .18199158 .05418396 .19599915 .100097659 .19599915 .10209656 .20899964 .15202332L.2649994 .37265016Z"/>
<path id="font_2_5" d="M.1269989 .07699585 .23298645 .18003845C.3889923 .31811524 .44898988 .3721466 .44898988 .47216798 .44898988 .5860901 .35899354 .6660156 .23699951 .6660156 .12399292 .6660156 .049987794 .57411196 .049987794 .48516847 .049987794 .4291687 .099990848 .4291687 .102996829 .4291687 .11999512 .4291687 .15499878 .44117738 .15499878 .48217774 .15499878 .5081787 .13699341 .5341797 .101989749 .5341797 .09399414 .5341797 .09199524 .5341797 .08898926 .5331726 .11199951 .59806826 .1659851 .63500979 .22399903 .63500979 .31498719 .63500979 .35798646 .5541382 .35798646 .47216798 .35798646 .39215089 .30799867 .31311036 .25299073 .25108338L.06098938 .036987306C.049987794 .025985718 .049987794 .023986817 .049987794 0H.42099L.44898988 .17404175H.42399598C.4189911 .14402771 .4119873 .1000061 .4019928 .084991458 .394989 .07699585 .32899476 .07699585 .30699159 .07699585H.1269989Z"/>
<path id="font_4_1" d="M.74398806 .2263794C.7599945 .2263794 .7839966 .2263794 .7839966 .25038148 .7839966 .27539063 .7609863 .27539063 .74398806 .27539063H.147995C.13198853 .27539063 .10798645 .27539063 .10798645 .25138856 .10798645 .2263794 .1309967 .2263794 .147995 .2263794H.74398806Z"/>
<path id="font_5_1" d="M.31098939 .36265565H.42999269C.4149933 .30274964 .3929901 .2118988 .3929901 .13302613 .3929901 .09309387 .397995 .06613159 .4039917 .044174196 .41999818-.0057678224 .43299867-.009765625 .44898988-.009765625 .47200013-.009765625 .49598695 .011230469 .49598695 .035186769 .49598695 .043182374 .49398805 .047164918 .48799134 .057159425 .46899415 .09408569 .45098878 .15100098 .45098878 .23286438 .45098878 .25183106 .45098878 .29177857 .46499635 .36265565H.58999636C.60798647 .36265565 .6159973 .36265565 .6269989 .37065126 .6409912 .380661 .6439972 .39665223 .6439972 .4016571 .6439972 .43066407 .6179962 .43066407 .6009979 .43066407H.22399903C.18299866 .43066407 .15499878 .42166139 .10998535 .37965394 .083999637 .35665895 .04499817 .30274964 .04499817 .2937622 .04499817 .28178407 .057998659 .28178407 .06199646 .28178407 .07299805 .28178407 .07398987 .28378297 .07998657 .2927704 .1309967 .36265565 .19299317 .36265565 .21499634 .36265565H.27598573C.24499512 .25283814 .19099427 .13502503 .16099549 .07511902 .15499878 .062149049 .14498902 .04118347 .14199829 .03718567 .14099121 .033187868 .13899231 .029190064 .13899231 .022201539 .13899231 .006225586 .15098572-.009765625 .17399597-.009765625 .21398926-.009765625 .22499085 .035186769 .24899292 .12504578L.31098939 .36265565Z"/>
<path id="font_6_1" d="M.5049896 .18203736H.47099305C.46798707 .16001892 .45799256 .100997928 .44499208 .09098816 .43699647 .084991458 .3600006 .084991458 .34599305 .084991458H.1619873C.2669983 .17803955 .3019867 .20603943 .3619995 .25306703 .43598939 .312088 .5049896 .374115 .5049896 .46914674 .5049896 .5900879 .39898683 .6640625 .2709961 .6640625 .14698792 .6640625 .06298828 .57710269 .06298828 .4851532 .06298828 .43414308 .10598755 .42915345 .115997318 .42915345 .13999939 .42915345 .16899109 .44615174 .16899109 .48214723 .16899109 .5001526 .1619873 .53515627 .10998535 .53515627 .14099121 .6060791 .20899964 .62805178 .2559967 .62805178 .35598756 .62805178 .4079895 .5501404 .4079895 .46914674 .4079895 .38212586 .34599305 .3130951 .31399537 .27708436L.07299805 .038986207C.06298828 .02999878 .06298828 .027999878 .06298828 0H.47499085L.5049896 .18203736Z"/>
<path id="font_6_2" d="M.272995 .33428956C.35099793 .33428956 .40699769 .2803192 .40699769 .1733551 .40699769 .04940796 .33499146 .012466431 .2769928 .012466431 .23699951 .012466431 .14898682 .0234375 .10699463 .082351688 .1539917 .084350589 .16499329 .11735535 .16499329 .13835144 .16499329 .17034912 .14099121 .19335938 .10998535 .19335938 .08198547 .19335938 .053985597 .17634583 .053985597 .13534546 .053985597 .041412355 .1579895-.01953125 .2789917-.01953125 .41799928-.01953125 .5139923 .07336426 .5139923 .1733551 .5139923 .2513275 .44999696 .32929994 .33999635 .35229493 .44499208 .39024354 .48298646 .4650879 .48298646 .5260773 .48298646 .60505679 .3919983 .6640625 .2809906 .6640625 .16999817 .6640625 .084991458 .61006167 .084991458 .5300751 .084991458 .49606324 .10699463 .47706605 .13699341 .47706605 .16799927 .47706605 .18798828 .5000763 .18798828 .5280762 .18798828 .5570679 .16799927 .57806399 .13699341 .5800781 .17199707 .62405398 .24099732 .63505557 .27799989 .63505557 .32299806 .63505557 .38598634 .6130676 .38598634 .5260773 .38598634 .48406983 .37199403 .43814088 .34599305 .4072113 .31298829 .36927796 .2849884 .3672943 .23498535 .36428834 .20999146 .3623047 .20799256 .3623047 .20298767 .3612976 .20098877 .3612976 .19299317 .3592987 .19299317 .34829713 .19299317 .33428956 .20199585 .33428956 .21899414 .33428956H.272995Z"/>
<path id="font_2_4" d="M.2939911 .64004519C.2939911 .66400149 .2939911 .6660156 .2709961 .6660156 .20899964 .60227969 .12098694 .60227969 .08898926 .60227969V.57128909C.10899353 .57128909 .16799927 .57128909 .21998596 .5972748V.07902527C.21998596 .042999269 .21699524 .0309906 .1269989 .0309906H.09498596V0C.12998963 .0029907227 .21699524 .0029907227 .25698854 .0029907227 .29699708 .0029907227 .38398744 .0029907227 .4189911 0V.0309906H.3869934C.29699708 .0309906 .2939911 .041992189 .2939911 .07902527V.64004519Z"/>
<path id="font_2_3" d="M.45999146 .31976319C.45999146 .39982606 .45498658 .47988893 .41999818 .5539398 .37399293 .65000918 .2919922 .6660156 .25 .6660156 .18998719 .6660156 .116989139 .64001467 .07598877 .54693606 .04399109 .47789 .038986207 .39982606 .038986207 .31976319 .038986207 .24472046 .042999269 .15464783 .083999637 .07859802 .1269989-.0024719239 .19999695-.022460938 .24899292-.022460938 .30299378-.022460938 .3789978-.0014648438 .4229889 .09359741 .45498658 .16265869 .45999146 .2407074 .45999146 .31976319M.24899292-.00047302247C.20999146-.00047302247 .15098572 .024551392 .1329956 .12062073 .12199402 .18066406 .12199402 .2727356 .12199402 .3317871 .12199402 .39582826 .12199402 .46188355 .12998963 .5159149 .14898682 .63500979 .22399903 .64401248 .24899292 .64401248 .28199769 .64401248 .34799195 .6259918 .36698915 .52693179 .3769989 .47088624 .3769989 .39482118 .3769989 .3317871 .3769989 .25672914 .3769989 .18867493 .3659973 .12461853 .35099793 .029556275 .2939911-.00047302247 .24899292-.00047302247Z"/>
<path id="font_2_7" d="M.44898988 .20022583C.44898988 .3193512 .36698915 .41944886 .25898744 .41944886 .21099854 .41944886 .16799927 .40345765 .13198853 .36842347V.5637665C.1519928 .5577698 .18499756 .55078127 .21699524 .55078127 .33999635 .55078127 .4099884 .6417694 .4099884 .6547699 .4099884 .6607666 .40699769 .6657715 .3999939 .6657715 .39898683 .6657715 .39698792 .6657715 .3919983 .66278079 .37199403 .6537781 .32299806 .6337738 .2559967 .6337738 .21598816 .6337738 .16999817 .6407776 .12298584 .6617737 .114990238 .66477969 .11299133 .66477969 .11099243 .66477969 .100997928 .66477969 .100997928 .6567688 .100997928 .6407776V.34439088C.100997928 .32637025 .100997928 .31835938 .114990238 .31835938 .12199402 .31835938 .12399292 .32136537 .12799073 .32736207 .13899231 .3433838 .17599488 .39746095 .25698854 .39746095 .30899049 .39746095 .33399964 .35139466 .34199525 .33337403 .35798646 .29632569 .3600006 .25727845 .3600006 .20722962 .3600006 .17222595 .3600006 .11222839 .33599855 .07035828 .31199647 .031463624 .2749939 .0055389406 .22898865 .0055389406 .1559906 .0055389406 .09899902 .058380128 .08198547 .11723328 .084991458 .1162262 .08799744 .115234378 .09899902 .115234378 .13198853 .115234378 .14898682 .14022827 .14898682 .16423035 .14898682 .18823242 .13198853 .21322632 .09899902 .21322632 .084991458 .21322632 .049987794 .20622254 .049987794 .16023255 .049987794 .07434082 .11898804-.022460938 .23098755-.022460938 .34700013-.022460938 .44898988 .073349 .44898988 .20022583Z"/>
<clipPath id="clip_7">
<path transform="matrix(1.00003,0,0,-1.00006,-4.702553,167.78029)" d="M8.71686 1.24516H202.98902V162.64153H8.71686Z"/>
</clipPath>
<path id="font_3_2" d="M.33399964 .30233766C.33999635 .32835389 .36299134 .42037965 .43299867 .42037965 .43798829 .42037965 .46199037 .42037965 .48298646 .40734864 .45498658 .402359 .43499757 .37734986 .43499757 .35334779 .43499757 .33735658 .44599916 .31835938 .47299195 .31835938 .49499513 .31835938 .5269928 .3363495 .5269928 .37635804 .5269928 .42837525 .46798707 .4423828 .43399049 .4423828 .37599183 .4423828 .34098817 .38935853 .32899476 .36634828 .3039856 .43237306 .25 .4423828 .22099304 .4423828 .116989139 .4423828 .05999756 .3133545 .05999756 .28834535 .05999756 .27833558 .069992069 .27833558 .07199097 .27833558 .07998657 .27833558 .08299255 .28033448 .084991458 .28933717 .11898804 .39535523 .18499756 .42037965 .21899414 .42037965 .23799134 .42037965 .272995 .4113617 .272995 .35334779 .272995 .32235719 .2559967 .25532533 .21899414 .11528015 .20298767 .053268434 .16799927 .011245728 .12399292 .011245728 .117996219 .011245728 .09498596 .011245728 .07398987 .024276734 .09899902 .029266358 .12098694 .05027771 .12098694 .07827759 .12098694 .105270389 .09899902 .11328125 .083999637 .11328125 .053985597 .11328125 .0289917 .08728027 .0289917 .055267335 .0289917 .009246826 .07899475-.0107421879 .12298584-.0107421879 .18899536-.0107421879 .22499085 .059280397 .22799683 .0652771 .23999024 .028274537 .27598573-.0107421879 .33599855-.0107421879 .43899537-.0107421879 .49598695 .118270877 .49598695 .14328003 .49598695 .1532898 .4869995 .1532898 .48399354 .1532898 .47499085 .1532898 .47299195 .14929199 .47099305 .14228821 .43798829 .03527832 .36999513 .011245728 .33799745 .011245728 .29899598 .011245728 .2829895 .043273927 .2829895 .07727051 .2829895 .09927368 .2889862 .121276859 .2999878 .16529846L.33399964 .30233766Z"/>
<path id="font_3_3" d="M.48599244 .38136292C.48999024 .39537049 .48999024 .39736939 .48999024 .40437318 .48999024 .42237855 .47599793 .43138124 .46099855 .43138124 .45098878 .43138124 .43499757 .42536927 .42599488 .41036988 .42399598 .405365 .41600038 .37435914 .4119873 .35635377 .40499879 .33035279 .397995 .30334474 .3919983 .27633668L.34700013 .09628296C.34298707 .08126831 .2999878 .011245728 .23399353 .011245728 .18299866 .011245728 .17199707 .055267335 .17199707 .0922699 .17199707 .1382904 .18899536 .20030213 .22299195 .28833009 .23899842 .3293457 .24299622 .3403473 .24299622 .36035157 .24299622 .405365 .21099854 .4423828 .16099549 .4423828 .06599426 .4423828 .0289917 .29733277 .0289917 .28833009 .0289917 .27833558 .038986207 .27833558 .040985109 .27833558 .050994874 .27833558 .051986696 .28033448 .056991579 .29634095 .083999637 .3903656 .12399292 .42037965 .1579895 .42037965 .1659851 .42037965 .18299866 .42037965 .18299866 .3883667 .18299866 .36335755 .17298889 .3373413 .1659851 .31834413 .12599182 .21231079 .10798645 .1552887 .10798645 .10827637 .10798645 .019256592 .17098999-.0107421879 .22999573-.0107421879 .2689972-.0107421879 .30299378 .0062561037 .33099366 .03425598 .31799317-.017745972 .30599977-.06674194 .2659912-.11973572 .23999024-.15385437 .20199585-.18309021 .1559906-.18309021 .14199829-.18309021 .09700012-.18005371 .07998657-.14074707 .09599304-.14074707 .10899353-.14074707 .12298584-.1287384 .1329956-.11973572 .14299011-.10673523 .14299011-.08773804 .14299011-.056747438 .115997318-.052734376 .10598755-.052734376 .08299255-.052734376 .049987794-.068740848 .049987794-.11773682 .049987794-.16796875 .09399414-.20507813 .1559906-.20507813 .25898744-.20507813 .3619995-.11373901 .3899994-.00074768069L.48599244 .38136292Z"/>
<path id="font_2_12" d="M.17298889 .3996582H.31599427V.43066407H.17298889V.6147156H.147995C.14698792 .5326996 .116989139 .42565919 .018997193 .42166139V.3996582H.10398865V.12416077C.10398865 .0012512207 .19699097-.0107421879 .23298645-.0107421879 .3039856-.0107421879 .33198548 .06021118 .33198548 .12416077V.18112183H.30699159V.12615967C.30699159 .052215578 .2769928 .014251709 .23999024 .014251709 .17298889 .014251709 .17298889 .10517883 .17298889 .122161868V.3996582Z"/>
<path id="font_2_8" d="M.33299256 .076156619C.33699037 .036132814 .3639984-.005859375 .41099549-.005859375 .43199159-.005859375 .49299623 .008132935 .49299623 .089157108V.14518738H.46798707V.089157108C.46798707 .031143189 .44299317 .025131226 .43199159 .025131226 .39898683 .025131226 .394989 .07015991 .394989 .075149539V.27514649C.394989 .31707765 .394989 .3560791 .35899354 .39312745 .31999208 .43223573 .269989 .4482422 .22200012 .4482422 .13999939 .4482422 .070999149 .40115357 .070999149 .335083 .070999149 .30508424 .09098816 .28808595 .116989139 .28808595 .14498902 .28808595 .16299439 .30807496 .16299439 .33407594 .16299439 .3460846 .1579895 .3790741 .11199951 .38008119 .13899231 .41519166 .18798828 .426239 .21998596 .426239 .2689972 .426239 .32598878 .38710023 .32598878 .29808045V.26123048C.2749939 .2582245 .20498657 .25523377 .14199829 .22523499 .066986087 .1912384 .041992189 .13923645 .041992189 .09524536 .041992189 .014251709 .13899231-.0107421879 .20199585-.0107421879 .2679901-.010864258 .31399537 .029129029 .33299256 .076156619M.32598878 .24023438V.1401825C.32598878 .045135499 .2539978 .011138916 .20899964 .011138916 .1599884 .011138916 .11898804 .046142579 .11898804 .09616089 .11898804 .15118408 .16099549 .23422241 .32598878 .24023438Z"/>
<path id="font_2_10" d="M.10998535 .34429933V.076034549C.10998535 .0309906 .09899902 .0309906 .03199768 .0309906V0C.066986087 .0009918213 .117996219 .0029907227 .14498902 .0029907227 .17098999 .0029907227 .22299195 .0009918213 .25698854 0V.0309906C.18998719 .0309906 .1789856 .0309906 .1789856 .076034549V.2602234C.1789856 .36431886 .25 .42037965 .31399537 .42037965 .3769989 .42037965 .3880005 .36631776 .3880005 .30926515V.076034549C.3880005 .0309906 .3769989 .0309906 .30999757 .0309906V0C.34498597 .0009918213 .3959961 .0029907227 .4229889 .0029907227 .44898988 .0029907227 .5009918 .0009918213 .5349884 0V.0309906C.48298646 .0309906 .45799256 .0309906 .45700074 .061019899V.25221253C.45700074 .3383026 .45700074 .36932374 .42599488 .405365 .4119873 .42237855 .3789978 .4423828 .32099916 .4423828 .24798584 .4423828 .20098877 .39935304 .17298889 .33729554V.4423828L.03199768 .43138124V.40037538C.101989749 .4003601 .10998535 .39335633 .10998535 .34429933Z"/>
<path id="font_2_1" d="M.33099366-.2400055C.33099366-.23701477 .33099366-.23500061 .31399537-.21800232 .18899536-.0920105 .15699768 .09700012 .15699768 .25 .15699768 .42399598 .19499207 .59799197 .31799317 .72299197 .33099366 .73498538 .33099366 .7369995 .33099366 .73999026 .33099366 .746994 .32699586 .75 .32099916 .75 .31098939 .75 .22099304 .6819916 .1619873 .5549927 .11099243 .44499208 .09899902 .33399964 .09899902 .25 .09899902 .17199707 .10998535 .050994874 .16499329-.06201172 .22499085-.18501282 .31098939-.25 .32099916-.25 .32699586-.25 .33099366-.24700928 .33099366-.2400055Z"/>
<path id="font_2_2" d="M.2889862 .25C.2889862 .32798768 .27799989 .44898988 .22299195 .56199648 .16299439 .68499758 .07699585 .75 .066986087 .75 .06098938 .75 .056991579 .74598696 .056991579 .73999026 .056991579 .7369995 .056991579 .73498538 .07598877 .71699526 .17399597 .6179962 .23098755 .45899964 .23098755 .25 .23098755 .07899475 .19400025-.09700012 .069992069-.2230072 .056991579-.23500061 .056991579-.23701477 .056991579-.2400055 .056991579-.2460022 .06098938-.25 .066986087-.25 .07699585-.25 .16699219-.18200684 .22599793-.055007936 .2769928 .054992677 .2889862 .16600037 .2889862 .25Z"/>
<path id="font_2_9" d="M.116989139 .21801758C.116989139 .38093568 .19898987 .42323304 .2519989 .42323304 .26098634 .42323304 .32398988 .42222596 .35899354 .38594056 .31799317 .38293458 .31199647 .3529358 .31199647 .3399353 .31199647 .31393434 .32998658 .2939453 .35798646 .2939453 .38398744 .2939453 .4039917 .3109436 .4039917 .34094239 .4039917 .40911866 .32798768 .4482422 .25099183 .4482422 .12599182 .4482422 .033996583 .3399353 .033996583 .21601868 .033996583 .08816528 .1329956-.0107421879 .24899292-.0107421879 .3829956-.0107421879 .4149933 .10914612 .4149933 .119140628 .4149933 .12911988 .40499879 .12911988 .4019928 .12911988 .3929901 .12911988 .3909912 .12512207 .3889923 .119140628 .3600006 .026229859 .29499818 .014251709 .2579956 .014251709 .20498657 .014251709 .116989139 .0572052 .116989139 .21801758Z"/>
<path id="font_2_11" d="M.47099305 .21424866C.47099305 .34223939 .37098695 .4482422 .25 .4482422 .125 .4482422 .027999878 .3392334 .027999878 .21424866 .027999878 .085250858 .13198853-.0107421879 .24899292-.0107421879 .36999513-.0107421879 .47099305 .087249759 .47099305 .21424866M.25 .014251709C.20698548 .014251709 .16299439 .035247804 .13598633 .08125305 .11099243 .12524414 .11099243 .18624878 .11099243 .22224427 .11099243 .26124574 .11099243 .31523133 .1349945 .35923768 .1619873 .40522767 .20899964 .426239 .24899292 .426239 .29299928 .426239 .33599855 .40423585 .3619995 .36123658 .3880005 .3182373 .3880005 .26023866 .3880005 .22224427 .3880005 .18624878 .3880005 .13224793 .3659973 .08824158 .34399415 .04324341 .2999878 .014251709 .25 .014251709Z"/>
</defs>
<path transform="matrix(1.00003,0,0,-1.00006,-4.702553,167.78029)" stroke-width=".19925" stroke-linecap="butt" stroke-miterlimit="10" stroke-linejoin="miter" fill="none" stroke="#7f807f" d="M14.30434 79.81747V84.0692M44.82054 79.81747V84.0692M75.33675 79.81747V84.0692M90.59491 79.81747V84.0692M121.11098 79.81747V84.0692M136.36914 79.81747V84.0692M151.62734 79.81747V84.0692M166.88533 79.81747V84.0692M197.40154 79.81747V84.0692"/>
<path transform="matrix(1.00003,0,0,-1.00006,-4.702553,167.78029)" stroke-width=".19925" stroke-linecap="butt" stroke-miterlimit="10" stroke-linejoin="miter" fill="none" stroke="#7f807f" d="M103.72711 1.24516H107.97874M103.72711 41.59425H107.97874M103.72711 122.29243H107.97874M103.72711 162.64153H107.97874"/>
<path transform="matrix(1.00003,0,0,-1.00006,-4.702553,167.78029)" stroke-width=".3985" stroke-linecap="butt" stroke-miterlimit="10" stroke-linejoin="miter" fill="none" stroke="#000000" d="M8.71686 81.94334H200.99649"/>
<path transform="matrix(1.00003,0,0,-1.00006,196.29999,85.83204)" d="M1.99252 0-1.19551 1.59401 0 0-1.19551-1.59401"/>
<path transform="matrix(1.00003,0,0,-1.00006,-4.702553,167.78029)" stroke-width=".3985" stroke-linecap="butt" stroke-miterlimit="10" stroke-linejoin="miter" fill="none" stroke="#000000" d="M105.85294 1.24516V160.649"/>
<path transform="matrix(0,-1.00006,-1.00003,-0,101.15357,7.1216585)" d="M1.99252 0-1.19551 1.59401 0 0-1.19551-1.59401"/>
<use data-text="&#x2212;" xlink:href="#font_1_1" transform="matrix(9.962899,0,0,-9.963197,.21859741,97.8991)"/>
<use data-text="3" xlink:href="#font_2_6" transform="matrix(9.962899,0,0,-9.963197,7.966835,97.8991)"/>
<use data-text="&#x03c0;" xlink:href="#font_3_1" transform="matrix(9.962899,0,0,-9.963197,12.948982,97.8991)"/>
<use data-text="&#x2212;" xlink:href="#font_1_1" transform="matrix(9.962899,0,0,-9.963197,30.735512,97.8991)"/>
<use data-text="2" xlink:href="#font_2_5" transform="matrix(9.962899,0,0,-9.963197,38.48375,97.8991)"/>
<use data-text="&#x03c0;" xlink:href="#font_3_1" transform="matrix(9.962899,0,0,-9.963197,43.465898,97.8991)"/>
<use data-text="&#x2212;" xlink:href="#font_1_1" transform="matrix(9.962899,0,0,-9.963197,63.7435,97.29006)"/>
<use data-text="&#x03c0;" xlink:href="#font_3_1" transform="matrix(9.962899,0,0,-9.963197,71.49174,97.29006)"/>
<use data-text="&#x2212;" xlink:href="#font_4_1" transform="matrix(6.9740097,0,0,-6.9742186,80.326007,95.794979)"/>
<use data-text="&#x03c0;" xlink:href="#font_5_1" transform="matrix(6.9740097,0,0,-6.9742186,86.553188,95.794979)"/>
<path transform="matrix(1.00003,0,0,-1.00006,-9.284691,-48.125665)" stroke-width=".3985" stroke-linecap="butt" stroke-miterlimit="10" stroke-linejoin="miter" fill="none" stroke="#000000" d="M89.608-145.344H100.744"/>
<use data-text="2" xlink:href="#font_6_1" transform="matrix(6.9740097,0,0,-6.9742186,83.90811,103.153408)"/>
<use data-text="&#x03c0;" xlink:href="#font_5_1" transform="matrix(6.9740097,0,0,-6.9742186,113.957019,94.480899)"/>
<path transform="matrix(1.00003,0,0,-1.00006,24.346322,-49.439744)" stroke-width=".3985" stroke-linecap="butt" stroke-miterlimit="10" stroke-linejoin="miter" fill="none" stroke="#000000" d="M89.608-145.344H94.517"/>
<use data-text="2" xlink:href="#font_6_1" transform="matrix(6.9740097,0,0,-6.9742186,114.42603,101.839328)"/>
<use data-text="&#x03c0;" xlink:href="#font_3_1" transform="matrix(9.962899,0,0,-9.963197,128.65247,95.76797)"/>
<use data-text="3" xlink:href="#font_6_2" transform="matrix(6.9740097,0,0,-6.9742186,142.48886,95.971988)"/>
<use data-text="&#x03c0;" xlink:href="#font_5_1" transform="matrix(6.9740097,0,0,-6.9742186,146.45999,95.971988)"/>
<path transform="matrix(1.00003,0,0,-1.00006,52.878175,-47.948656)" stroke-width=".3985" stroke-linecap="butt" stroke-miterlimit="10" stroke-linejoin="miter" fill="none" stroke="#000000" d="M89.608-145.344H98.488"/>
<use data-text="2" xlink:href="#font_6_1" transform="matrix(6.9740097,0,0,-6.9742186,144.94394,103.330417)"/>
<use data-text="2" xlink:href="#font_2_5" transform="matrix(9.962899,0,0,-9.963197,156.67832,97.8991)"/>
<use data-text="&#x03c0;" xlink:href="#font_3_1" transform="matrix(9.962899,0,0,-9.963197,161.65946,97.8991)"/>
<use data-text="3" xlink:href="#font_2_6" transform="matrix(9.962899,0,0,-9.963197,187.19623,97.8991)"/>
<use data-text="&#x03c0;" xlink:href="#font_3_1" transform="matrix(9.962899,0,0,-9.963197,192.17737,97.8991)"/>
<use data-text="&#x2212;" xlink:href="#font_1_1" transform="matrix(9.962899,0,0,-9.963197,77.79593,169.33039)"/>
<use data-text="1" xlink:href="#font_2_4" transform="matrix(9.962899,0,0,-9.963197,85.54417,169.33039)"/>
<use data-text="0" xlink:href="#font_2_3" transform="matrix(9.962899,0,0,-9.963197,90.52561,169.33039)"/>
<use data-text="&#x2212;" xlink:href="#font_1_1" transform="matrix(9.962899,0,0,-9.963197,82.77707,128.97896)"/>
<use data-text="5" xlink:href="#font_2_7" transform="matrix(9.962899,0,0,-9.963197,90.52531,128.97896)"/>
<use data-text="5" xlink:href="#font_2_7" transform="matrix(9.962899,0,0,-9.963197,90.526309,48.691148)"/>
<use data-text="1" xlink:href="#font_2_4" transform="matrix(9.962899,0,0,-9.963197,85.54516,8.339722)"/>
<use data-text="0" xlink:href="#font_2_3" transform="matrix(9.962899,0,0,-9.963197,90.52661,8.339722)"/>
<g clip-path="url(#clip_7)">
<path transform="matrix(1.00003,0,0,-1.00006,-4.702553,167.78029)" stroke-width=".79701" stroke-linecap="butt" stroke-miterlimit="10" stroke-linejoin="miter" fill="none" stroke="#ff0000" d="M0 .01613 .14375 10.81757 .2875 19.13506 .43127 25.72897 .57504 31.08614 .7188 35.53398 .86255 39.28531 1.00632 42.49379 1.15009 45.26384 1.29384 47.69116 1.43759 49.82603 1.58136 51.72858 1.72513 53.42686 1.86888 54.95891 2.01265 56.34425 2.1564 57.60727 2.30016 58.76173 2.44392 59.82074 2.58769 60.79782 2.73146 61.7023 2.8752 62.54187 3.01897 63.32376 3.16273 64.05417 3.30649 64.73904 3.45024 65.38109 3.59401 65.9852 3.73778 66.55467 3.88153 67.09358 4.0253 67.60408 4.16905 68.08722 4.3128 68.54768 4.45659 68.98555 4.60034 69.40236 4.74411 69.80109 4.88786 70.18214 5.03162 70.5481 5.17538 70.8982 5.31914 71.23468 5.46292 71.55806 5.60666 71.86938 5.75044 72.16957 5.8942 72.45903 6.03795 72.73866 6.18173 73.009 6.32547 73.27031 6.46924 73.52394 6.61299 73.7691 6.75677 74.00772 6.90051 74.23924 7.04427 74.46422 7.18805 74.68341 7.3318 74.89677 7.47557 75.10426 7.61932 75.3073 7.76309 75.50523 7.90685 75.69827 8.05061 75.88727 8.19438 76.0719 8.33812 76.25266 8.4819 76.42947 8.62566 76.60281 8.76942 76.77284 8.91318 76.93956 9.05693 77.10362 9.2007 77.2647 9.34445 77.42279 9.48824 77.57854 9.63199 77.7317 9.77576 77.88261 9.91951 78.03117 10.06326 78.17764 10.20703 78.32216 10.35078 78.4646 10.49455 78.6055 10.6383 78.74446 10.78209 78.8818 10.92584 79.01755 11.06958 79.15224 11.21336 79.28523 11.35712 79.41684 11.50089 79.54749 11.64465 79.67677 11.7884 79.80524 11.93216 79.93266 12.07593 80.05911 12.2197 80.18443 12.36345 80.3092 12.5072 80.43323 12.65097 80.55646 12.79474 80.6792 12.93849 80.80113 13.08224 80.92267 13.22601 81.04396 13.36978 81.16458 13.51355 81.28496 13.6573 81.40515 13.80106 81.525 13.94482 81.64462 14.08858 81.76413 14.23235 81.88362 14.37611 82.00299 14.51987 82.12247 14.66362 82.24188 14.8074 82.3616 14.95116 82.48145 15.09491 82.60146 15.23868 82.72177 15.38243 82.84247 15.5262 82.96378 15.66997 83.08522 15.81374 83.20732 15.95747 83.32999 16.10124 83.45337 16.24501 83.5773 16.38876 83.70224 16.53252 83.82756 16.67628 83.95377 16.82005 84.08136 16.96382 84.20967 17.10757 84.33894 17.25133 84.46944 17.39508 84.60146 17.53886 84.73444 17.68262 84.8688 17.82639 85.0047 17.97014 85.14188 18.11389 85.28093 18.25766 85.42184 18.40143 85.56427 18.5452 85.70895 18.68893 85.85535 18.83272 86.004 18.97647 86.15474 19.12022 86.30798 19.264 86.46341 19.40775 86.62166 19.55151 86.78273 19.69528 86.9463 19.83905 87.11359 19.98279 87.28339 20.12654 87.45688 20.27032 87.63377 20.41408 87.81454 20.55786 87.99924 20.7016 88.18816 20.84537 88.38129 20.98912 88.57915 21.13289 88.78203 21.27666 88.98967 21.4204 89.20296 21.56418 89.42189 21.70793 89.64719 21.8517 89.87839 21.99547 90.1171 22.1392 90.36258 22.28297 90.61581 22.42674 90.87737 22.57051 91.14777 22.71426 91.4274 22.85803 91.71669 23.00179 92.0168 23.14554 92.32838 23.28932 92.652 23.43306 92.9877 23.57683 93.33833 23.72058 93.70332 23.86436 94.08478 24.00812 94.4835 24.15187 94.90105 24.29564 95.33852 24.43939 95.79842 24.58316 96.28236 24.72693 96.79286 24.87068 97.33159 25.01443 97.90076 25.1582 98.50558 25.30197 99.14763 25.44572 99.83115 25.58948 100.56097 25.73325 101.34302 25.87701 102.1827 26.02077 103.08658 26.16452 104.0635 26.30829 105.12364 26.45204 106.27715 26.59583 107.54016 26.73958 108.92654 26.88333 110.45805 27.02708 112.15811 27.17085 114.05798 27.31462 116.1957 27.45837 118.61711 27.60214 121.3849 27.7459 124.59361 27.88966 128.3436 28.03343 132.79068 28.17719 138.14575 28.32094 144.74591 28.4647 153.05652 28.60847 163.85282"/>
<path transform="matrix(1.00003,0,0,-1.00006,-4.702553,167.78029)" stroke-width=".79701" stroke-linecap="butt" stroke-dasharray="2.98883,2.98883" stroke-miterlimit="10" stroke-linejoin="miter" fill="none" stroke="#0000ff" d="M15.25797 163.89636 15.40173 153.08806 15.54549 144.7614 15.68927 138.16963 15.83302 132.80159 15.97678 128.35166 16.12054 124.60136 16.2643 121.39288 16.40807 118.62283 16.55183 116.1973 16.6956 114.06065 16.83936 112.16118 16.98311 110.46007 17.12689 108.92961 17.27065 107.54323 17.41441 106.28119 17.55817 105.12575 17.70193 104.06595 17.84569 103.09006 17.98946 102.18462 18.13321 101.34586 18.27698 100.56291 18.42075 99.8325 18.56451 99.14795 18.70828 98.5059 18.85202 97.90237 18.99579 97.33209 19.13956 96.79375 19.28331 96.28342 19.4271 95.79945 19.57083 95.33965 19.71461 94.90161 19.85837 94.484 20.00214 94.08527 20.1459 93.70462 20.28964 93.33922 20.43343 92.98898 20.57718 92.65256 20.72096 92.32896 20.8647 92.01768 21.00845 91.71759 21.15224 91.42789 21.29599 91.14801 21.43977 90.87767 21.58351 90.61629 21.72728 90.36284 21.87105 90.11758 22.0148 89.87895 22.15857 89.64719 22.30232 89.42221 22.44609 89.20328 22.58986 88.99014 22.73363 88.78244 22.8774 88.57964 23.02113 88.38176 23.1649 88.18857 23.30867 87.99965 23.45244 87.81479 23.59619 87.63443 23.73994 87.4572 23.88371 87.28387 24.02748 87.11366 24.17125 86.9467 24.315 86.78305 24.45877 86.62173 24.60252 86.46388 24.74629 86.30798 24.89006 86.15482 25.0338 86.00432 25.17758 85.85559 25.32133 85.7092 25.46512 85.56476 25.60887 85.42209 25.75262 85.28142 25.8964 85.14221 26.04015 85.00504 26.18393 84.86913 26.32768 84.7347 26.47144 84.60146 26.6152 84.46968 26.75896 84.33919 26.90274 84.20967 27.04648 84.08144 27.19026 83.95401 27.33401 83.8278 27.47778 83.70224 27.62155 83.57756 27.76529 83.45361 27.90906 83.33022 28.05283 83.20757 28.1966 83.08554 28.34036 82.96402 28.48412 82.84271 28.62788 82.722 28.77164 82.60172 28.9154 82.48152 29.05917 82.36168 29.20293 82.24188 29.34668 82.12247 29.49046 82.00307 29.63422 81.88368 29.77798 81.76437 29.92174 81.64488 30.06549 81.52524 30.20927 81.40523 30.35303 81.28522 30.4968 81.16483 30.64055 81.0442 30.7843 80.92293 30.92809 80.80121 31.07184 80.6792 31.2156 80.55669 31.35936 80.4333 31.50313 80.30937 31.6469 80.18468 31.79065 80.05904 31.93442 79.93266 32.07817 79.80531 32.22194 79.67702 32.3657 79.54773 32.50946 79.41708 32.65323 79.28531 32.79698 79.15224 32.94077 79.01787 33.08452 78.88197 33.22827 78.74461 33.37204 78.60574 33.5158 78.46478 33.65956 78.32216 33.80333 78.17772 33.94708 78.03134 34.09085 77.88286 34.23462 77.73193 34.37839 77.5787 34.52214 77.42328 34.6659 77.26501 34.80966 77.10388 34.95343 76.94022 35.09718 76.77325 35.24097 76.6033 35.3847 76.4298 35.52847 76.25275 35.67224 76.07222 35.81601 75.88727 35.95978 75.69852 36.10352 75.50523 36.2473 75.30753 36.39105 75.10472 36.5348 74.89677 36.67857 74.68365 36.82233 74.46431 36.96611 74.23972 37.10986 74.00829 37.25365 73.76982 37.39738 73.52411 37.54114 73.27072 37.68492 73.00925 37.82867 72.73866 37.97244 72.4592 38.1162 72.16982 38.25996 71.86963 38.40373 71.55829 38.54749 71.23468 38.69127 70.8982 38.835 70.5481 38.97878 70.18263 39.12254 69.8014 39.26631 69.40317 39.41006 68.9858 39.55382 68.54776 39.69759 68.08827 39.84135 67.60431 39.98512 67.09381 40.12888 66.55484 40.27263 65.9856 40.4164 65.38109 40.56017 64.73904 40.70393 64.05554 40.84767 63.32489 40.99146 62.5435 41.13521 61.70279 41.27898 60.7988 41.42274 59.82074 41.5665 58.76173 41.71027 57.608 41.85402 56.34653 41.9978 54.95891 42.14156 53.43001 42.2853 51.72792 42.42908 49.82893 42.57283 47.69116 42.71661 45.26956 42.86035 42.49582 43.00414 39.28764 43.14789 35.54042 43.29164 31.09485 43.43542 25.72897 43.57916 19.13506 43.72293 10.81757 43.8667 0"/>
<path transform="matrix(1.00003,0,0,-1.00006,-4.702553,167.78029)" stroke-width=".79701" stroke-linecap="butt" stroke-miterlimit="10" stroke-linejoin="miter" fill="none" stroke="#ff0000" d="M30.51619 0 30.65996 10.81757 30.80371 19.13579 30.94746 25.72768 31.09123 31.08849 31.235 35.54042 31.37874 39.28764 31.5225 42.49582 31.66628 45.26617 31.81004 47.6867 31.9538 49.82603 32.09755 51.72623 32.24132 53.42664 32.38507 54.95891 32.52885 56.34344 32.6726 57.60695 32.81636 58.76173 32.96011 59.82074 33.1039 60.79823 33.24765 61.70279 33.3914 62.5426 33.53517 63.32489 33.67892 64.05417 33.8227 64.73856 33.96645 65.38036 34.11023 65.9852 34.25397 66.55484 34.39772 67.09358 34.5415 67.60344 34.68526 68.08722 34.82901 68.54727 34.97278 68.98506 35.11655 69.40285 35.2603 69.80109 35.40407 70.18279 35.54782 70.54836 35.69157 70.8982 35.83534 71.23436 35.97911 71.55806 36.12288 71.86914 36.26663 72.16933 36.41039 72.4588 36.55415 72.73866 36.69792 73.00883 36.84169 73.27055 36.98543 73.52394 37.1292 73.7691 37.27296 74.00772 37.41672 74.23932 37.56047 74.46431 37.70424 74.68341 37.848 74.89653 37.99176 75.10426 38.13553 75.3073 38.27928 75.50508 38.42303 75.6981 38.56682 75.88702 38.71057 76.0719 38.85434 76.25233 38.9981 76.42947 39.14185 76.60281 39.28561 76.77301 39.42937 76.93997 39.57315 77.10362 39.71689 77.26494 39.86067 77.42279 40.00443 77.57854 40.1482 77.7317 40.29196 77.88235 40.4357 78.03108 40.57947 78.17749 40.72322 78.322 40.867 78.46478 41.01074 78.60535 41.15451 78.74446 41.29828 78.8818 41.44203 79.01755 41.5858 79.15224 41.72955 79.28523 41.87332 79.41699 42.01707 79.54758 42.16084 79.67694 42.30461 79.80524 42.44835 79.9325 42.59213 80.05887 42.73589 80.18443 42.87965 80.30913 43.0234 80.43323 43.16716 80.55646 43.31093 80.67911 43.4547 80.80113 43.59846 80.92284 43.74222 81.04396 43.88599 81.16467 44.02974 81.28505 44.1735 81.40515 44.31726 81.525 44.46101 81.64462 44.60478 81.76413 44.74854 81.88345 44.89232 82.00299 45.03607 82.1223 45.17981 82.24182 45.3236 82.36145 45.46735 82.48145 45.61111 82.60146 45.75488 82.72185 45.89864 82.84256 46.04239 82.96378 46.18616 83.08546 46.32993 83.20732 46.47368 83.32999 46.61745 83.4532 46.7612 83.5773 46.90497 83.702 47.04874 83.82756 47.19249 83.95377 47.33624 84.08136 47.48001 84.20967 47.62378 84.33894 47.76753 84.46944 47.91129 84.60121 48.05505 84.73444 48.1988 84.8688 48.34258 85.0047 48.48634 85.14206 48.6301 85.28102 48.77385 85.42192 48.91763 85.56427 49.06139 85.70895 49.20514 85.85527 49.3489 86.00375 49.49266 86.15457 49.63643 86.3079 49.7802 86.46341 49.92397 86.62173 50.0677 86.78273 50.21147 86.94662 50.35524 87.11359 50.499 87.28339 50.64275 87.4572 50.78651 87.63402 50.93028 87.81479 51.07405 87.99924 51.2178 88.18816 51.36156 88.38129 51.50531 88.57915 51.6491 88.7818 51.79285 88.98967 51.93661 89.20303 52.08037 89.42195 52.22412 89.64719 52.36789 89.87872 52.51166 90.1171 52.65543 90.36275 52.79916 90.61581 52.94295 90.8776 53.0867 91.14777 53.23045 91.42674 53.37424 91.71646 53.51797 92.0168 53.66174 92.32838 53.80551 92.65158 53.94928 92.9877 54.09302 93.33833 54.23677 93.70348 54.38055 94.08504 54.5243 94.4831 54.66809 94.90105 54.81183 95.33891 54.9556 95.79842 55.09935 96.28236 55.24312 96.79253 55.38689 97.33095 55.53062 97.90108 55.67441 98.50471 55.81816 99.14633 55.96193 99.83026 56.10568 100.56097 56.24944 101.34302 56.3932 102.18388 56.53696 103.08658 56.68074 104.06392 56.8245 105.12341 56.96825 106.2794 57.11201 107.54242 57.25577 108.92679 57.39954 110.45691 57.54327 112.15698 57.68706 114.05798 57.83081 116.19423 57.97458 118.61711 58.11835 121.38795 58.26208 124.59209 58.40585 128.3436 58.54962 132.79183 58.69339 138.15383 58.83714 144.74662 58.98091 153.05652 59.12466 163.87056"/>
<path transform="matrix(1.00003,0,0,-1.00006,-4.702553,167.78029)" stroke-width=".79701" stroke-linecap="butt" stroke-dasharray="2.98883,2.98883" stroke-miterlimit="10" stroke-linejoin="miter" fill="none" stroke="#0000ff" d="M45.77417 163.89636 45.91794 153.07541 46.06168 144.7614 46.20546 138.16576 46.34921 132.79723 46.49298 128.35269 46.63675 124.60136 46.7805 121.39288 46.92426 118.6256 47.06802 116.19997 47.21179 114.06194 47.35556 112.16231 47.49931 110.46216 47.64308 108.93059 47.78685 107.545 47.9306 106.28183 48.07437 105.12575 48.21812 104.06642 48.36188 103.08885 48.50566 102.18437 48.64941 101.3448 48.79318 100.56268 48.93694 99.8325 49.0807 99.14812 49.22447 98.50632 49.36823 97.9022 49.512 97.332 49.65575 96.79309 49.79951 96.28342 49.94328 95.80003 50.08704 95.33989 50.2308 94.90201 50.37456 94.48448 50.51834 94.08559 50.6621 93.7043 50.80586 93.33858 50.94962 92.98898 51.09337 92.65256 51.23714 92.32863 51.3809 92.01729 51.52466 91.7171 51.66843 91.42789 51.8122 91.14801 51.95596 90.87784 52.09972 90.61653 52.24347 90.36314 52.38724 90.11768 52.531 89.8792 52.67476 89.64743 52.81854 89.42245 52.96228 89.20343 53.10605 88.9899 53.24982 88.78244 53.39359 88.57939 53.53735 88.3816 53.68109 88.18842 53.82487 87.99965 53.96863 87.81479 54.11238 87.63434 54.25616 87.4572 54.3999 87.28387 54.54369 87.1139 54.68744 86.9467 54.8312 86.78305 54.97496 86.62215 55.11871 86.46388 55.2625 86.30798 55.40625 86.15497 55.55002 86.00407 55.69377 85.85535 55.83752 85.70895 55.98131 85.56451 56.12506 85.42192 56.26884 85.28117 56.41258 85.14221 56.55635 85.00487 56.70012 84.8689 56.84387 84.7346 56.98764 84.60172 57.1314 84.46983 57.27516 84.33919 57.41893 84.2099 57.5627 84.08144 57.70647 83.95418 57.8502 83.82765 57.99397 83.70224 58.13774 83.57756 58.28151 83.45346 58.42525 83.33022 58.56903 83.20757 58.71278 83.08554 58.85655 82.96385 59.00032 82.84271 59.14407 82.72185 59.28784 82.60172 59.4316 82.48152 59.57538 82.36185 59.71913 82.24205 59.86288 82.12247 60.00665 82.00307 60.1504 81.88368 60.29419 81.76437 60.43794 81.64479 60.58171 81.52507 60.72546 81.40515 60.86922 81.28522 61.013 81.16483 61.15674 81.04411 61.3005 80.92284 61.44427 80.80121 61.58804 80.6792 61.73181 80.55669 61.87555 80.4333 62.01933 80.30945 62.16309 80.18468 62.30685 80.05911 62.45062 79.9329 62.59438 79.80531 62.73813 79.67702 62.8819 79.54758 63.02567 79.41708 63.16943 79.28523 63.31319 79.15224 63.45695 79.01787 63.60071 78.88197 63.74448 78.74446 63.88824 78.60567 64.032 78.46478 64.17575 78.3224 64.31953 78.17787 64.46329 78.03142 64.60704 77.88286 64.75081 77.73193 64.89458 77.5787 65.03835 77.42303 65.1821 77.26494 65.32587 77.10388 65.46962 76.94005 65.61337 76.77309 65.75716 76.60321 65.90091 76.42957 66.04468 76.25275 66.18843 76.0719 66.33221 75.88727 66.47597 75.69867 66.61972 75.50531 66.76349 75.30753 66.90724 75.10472 67.05101 74.897 67.19478 74.68365 67.33853 74.46472 67.4823 74.23949 67.62605 74.00797 67.76984 73.76958 67.91359 73.52394 68.05734 73.27039 68.20111 73.009 68.34488 72.73866 68.48863 72.4592 68.6324 72.16957 68.77615 71.86963 68.91992 71.55853 69.06369 71.23524 69.20744 70.89859 69.35123 70.5481 69.49496 70.1832 69.63873 69.80164 69.7825 69.40317 69.92625 68.98563 70.07004 68.54768 70.21378 68.08788 70.35756 67.60408 70.50131 67.09381 70.64508 66.55508 70.78883 65.9852 70.93259 65.38077 71.07637 64.73904 71.22012 64.05505 71.36389 63.32489 71.50764 62.54367 71.6514 61.70279 71.79518 60.7988 71.93893 59.82211 72.08272 58.76198 72.22646 57.60727 72.37021 56.34483 72.51399 54.95891 72.65775 53.42903 72.80151 51.72858 72.94527 49.82603 73.08904 47.69098 73.2328 45.26617 73.37656 42.49582 73.52032 39.28764 73.66408 35.54309 73.80785 31.096 73.95161 25.72897 74.09538 19.14006 74.23912 10.83015 74.38289 .01613"/>
<path transform="matrix(1.00003,0,0,-1.00006,-4.702553,167.78029)" stroke-width=".79701" stroke-linecap="butt" stroke-miterlimit="10" stroke-linejoin="miter" fill="none" stroke="#ff0000" d="M61.03238 .01613 61.17616 10.81757 61.31992 19.12529 61.46365 25.72897 61.60742 31.08614 61.75119 35.53398 61.89496 39.28531 62.0387 42.49379 62.18248 45.26384 62.32623 47.69116 62.46999 49.82603 62.61377 51.72858 62.7575 53.42686 62.90128 54.95891 63.04504 56.34425 63.18881 57.60727 63.33257 58.76173 63.4763 59.82074 63.62009 60.79782 63.76384 61.7023 63.90761 62.54187 64.05138 63.32376 64.19513 64.05417 64.33888 64.73904 64.48265 65.38109 64.62642 65.9852 64.77017 66.55467 64.91393 67.09358 65.0577 67.60408 65.20146 68.08722 65.34521 68.54768 65.48897 68.98442 65.63274 69.40236 65.77649 69.80109 65.92027 70.18214 66.06403 70.5481 66.20778 70.8982 66.35153 71.23468 66.4953 71.55806 66.63907 71.86938 66.78284 72.16957 66.92659 72.45903 67.07034 72.73866 67.21413 73.009 67.35788 73.27031 67.50163 73.52394 67.64539 73.7691 67.78915 74.00772 67.93292 74.23924 68.07668 74.46422 68.22046 74.68341 68.3642 74.89677 68.50795 75.10426 68.65173 75.3073 68.79549 75.50523 68.93924 75.69827 69.08301 75.88727 69.22678 76.0719 69.37053 76.25266 69.5143 76.42947 69.65805 76.60281 69.8018 76.77284 69.94557 76.93956 70.08934 77.10362 70.23311 77.2647 70.37686 77.42279 70.52061 77.57854 70.66438 77.7317 70.80815 77.88261 70.95192 78.03117 71.09566 78.17764 71.23943 78.32216 71.3832 78.4646 71.52695 78.6055 71.6707 78.74446 71.81447 78.8818 71.95824 79.01755 72.10199 79.15224 72.24576 79.28523 72.38951 79.41684 72.53326 79.54749 72.67705 79.67677 72.8208 79.80524 72.96457 79.93266 73.10832 80.05911 73.25209 80.18443 73.39584 80.3092 73.5396 80.43323 73.68338 80.55646 73.82712 80.6792 73.9709 80.80113 74.11465 80.92267 74.25842 81.04396 74.40219 81.16458 74.54593 81.28496 74.6897 81.40515 74.83345 81.525 74.97723 81.64462 75.12097 81.76413 75.26474 81.88362 75.40851 82.00299 75.55226 82.12247 75.69603 82.24188 75.83978 82.3616 75.98355 82.48145 76.1273 82.60146 76.27107 82.72177 76.41484 82.84247 76.55858 82.96378 76.70236 83.08522 76.84612 83.20732 76.98988 83.32999 77.13365 83.45337 77.27739 83.5773 77.42116 83.70224 77.56493 83.82756 77.7087 83.95377 77.85245 84.08136 77.99622 84.20967 78.13997 84.33894 78.28372 84.46944 78.42749 84.60146 78.57124 84.73444 78.71501 84.8688 78.85876 85.0047 79.00255 85.14188 79.1463 85.28093 79.29004 85.42184 79.43382 85.56427 79.57758 85.70895 79.72134 85.85535 79.86511 86.004 80.00887 86.15474 80.15262 86.30798 80.29639 86.46341 80.44016 86.62166 80.58391 86.78273 80.72768 86.9463 80.87143 87.11359 81.0152 87.28339 81.15897 87.45688 81.30272 87.63377 81.44647 87.81454 81.59024 87.99924 81.73401 88.18816 81.87776 88.38129 82.02151 88.57915 82.16528 88.78203 82.30904 88.98967 82.4528 89.20296 82.59657 89.42189 82.74033 89.64719 82.88408 89.87839 83.02786 90.1171 83.17162 90.36258 83.31537 90.61581 83.45914 90.87737 83.60289 91.14777 83.74666 91.4274 83.89043 91.71669 84.0342 92.0168 84.17793 92.32838 84.3217 92.652 84.46547 92.9877 84.60922 93.33833 84.75298 93.70332 84.89674 94.08478 85.04051 94.4835 85.18428 94.90105 85.32803 95.33852 85.47179 95.79842 85.61554 96.28236 85.75932 96.79286 85.90308 97.33159 86.04684 97.90076 86.1906 98.50558 86.33435 99.14763 86.47812 99.83115 86.62187 100.56097 86.76566 101.34302 86.9094 102.1827 87.05316 103.08658 87.19693 104.0635 87.34068 105.12364 87.48445 106.27715 87.6282 107.54016 87.77197 108.92654 87.91573 110.45805 88.0595 112.15811 88.20325 114.05798 88.347 116.1957 88.49077 118.61711 88.63454 121.3849 88.7783 124.59361 88.92204 128.3436 89.06583 132.79068 89.20958 138.14575 89.35333 144.74591 89.49712 153.05652 89.64085 163.85282"/>
<path transform="matrix(1.00003,0,0,-1.00006,-4.702553,167.78029)" stroke-width=".79701" stroke-linecap="butt" stroke-dasharray="2.98883,2.98883" stroke-miterlimit="10" stroke-linejoin="miter" fill="none" stroke="#0000ff" d="M76.29036 163.89636 76.43413 153.08806 76.5779 144.7614 76.72163 138.16963 76.86542 132.80159 77.00917 128.35166 77.15294 124.60136 77.2967 121.39288 77.44046 118.62283 77.58423 116.1973 77.72798 114.06065 77.87177 112.16118 78.01552 110.46007 78.15926 108.92961 78.30304 107.54323 78.4468 106.28119 78.59058 105.12575 78.73433 104.06595 78.8781 103.09006 79.02185 102.18462 79.1656 101.34586 79.30939 100.56291 79.45313 99.8325 79.5969 99.14795 79.74066 98.5059 79.88443 97.90237 80.0282 97.33209 80.17194 96.79375 80.3157 96.28342 80.45947 95.79945 80.60324 95.33965 80.74701 94.90161 80.89076 94.484 81.03453 94.08527 81.17828 93.70462 81.32205 93.33922 81.46582 92.98898 81.60957 92.65256 81.75333 92.32896 81.89711 92.01768 82.04086 91.71759 82.18463 91.42789 82.32838 91.14801 82.47215 90.87767 82.61592 90.61629 82.75967 90.36284 82.90344 90.11758 83.0472 89.87895 83.19095 89.64719 83.33473 89.42221 83.47849 89.20328 83.62225 88.99014 83.766 88.78244 83.90979 88.57964 84.05354 88.38176 84.1973 88.18857 84.34106 87.99965 84.48482 87.81479 84.6286 87.63443 84.77235 87.4572 84.91612 87.28387 85.05988 87.11366 85.20363 86.9467 85.34741 86.78305 85.49117 86.62173 85.63492 86.46388 85.77869 86.30798 85.92245 86.15482 86.06621 86.00432 86.20998 85.85559 86.35373 85.7092 86.4975 85.56476 86.64127 85.42209 86.78503 85.28142 86.92879 85.14221 87.07254 85.00504 87.21631 84.86913 87.36008 84.7347 87.50383 84.60146 87.64761 84.46968 87.79135 84.33919 87.93512 84.20967 88.07889 84.08144 88.22266 83.95401 88.36642 83.8278 88.51016 83.70224 88.65395 83.57756 88.7977 83.45361 88.94145 83.33022 89.08522 83.20757 89.22897 83.08554 89.37276 82.96402 89.51651 82.84271 89.6603 82.722 89.80403 82.60172 89.94778 82.48152 90.09157 82.36168 90.23532 82.24188 90.37909 82.12247 90.52284 82.00307 90.66661 81.88368 90.81038 81.76437 90.95413 81.64488 91.09792 81.52524 91.24165 81.40523 91.38542 81.28522 91.52919 81.16483 91.67296 81.0442 91.81671 80.92293 91.96046 80.80121 92.10423 80.6792 92.248 80.55669 92.39177 80.4333 92.53552 80.30937 92.67929 80.18468 92.82304 80.05904 92.96681 79.93266 93.11058 79.80531 93.25432 79.67702 93.3981 79.54773 93.54185 79.41708 93.68564 79.28531 93.82939 79.15224 93.97314 79.01787 94.11691 78.88197 94.26067 78.74461 94.40445 78.60574 94.5482 78.46478 94.69196 78.32216 94.83572 78.17772 94.97948 78.03134 95.12326 77.88286 95.267 77.73193 95.41078 77.5787 95.55453 77.42328 95.69829 77.26501 95.84207 77.10388 95.98581 76.94022 96.12958 76.77325 96.27335 76.6033 96.41711 76.4298 96.56088 76.25275 96.70462 76.07222 96.8484 75.88727 96.99216 75.69852 97.13593 75.50523 97.2797 75.30753 97.42345 75.10472 97.5672 74.89677 97.71097 74.68365 97.85474 74.46431 97.9985 74.23972 98.14226 74.00829 98.28603 73.76982 98.4298 73.52411 98.57355 73.27072 98.7173 73.00925 98.86107 72.73866 99.00484 72.4592 99.1486 72.16982 99.29236 71.86963 99.43613 71.55829 99.57988 71.23468 99.72365 70.8982 99.86742 70.5481 100.01117 70.18263 100.15494 69.8014 100.29869 69.40317 100.44246 68.9858 100.58623 68.54776 100.72998 68.08827 100.87375 67.60431 101.0175 67.09381 101.16129 66.55484 101.30504 65.9856 101.44879 65.38109 101.59256 64.73904 101.73631 64.05554 101.88008 63.32489 102.02385 62.5435 102.1676 61.70279 102.31137 60.7988 102.45514 59.82074 102.5989 58.76173 102.74266 57.608 102.88641 56.34653 103.03018 54.95891 103.17395 53.43001 103.3177 51.72792 103.46147 49.82893 103.60522 47.69116 103.749 45.26956 103.89276 42.49582 104.03653 39.28764 104.1803 35.54042 104.32404 31.09485 104.4678 25.72897 104.61157 19.13506 104.75533 10.81757 104.8991 0"/>
<path transform="matrix(1.00003,0,0,-1.00006,-4.702553,167.78029)" stroke-width=".79701" stroke-linecap="butt" stroke-miterlimit="10" stroke-linejoin="miter" fill="none" stroke="#ff0000" d="M91.54857 0 91.69235 10.81757 91.8361 19.13579 91.97987 25.72768 92.12361 31.08849 92.2674 35.54042 92.41115 39.28764 92.5549 42.49582 92.69867 45.26617 92.84242 47.6867 92.98619 49.82603 93.12996 51.72623 93.27373 53.42664 93.41747 54.95891 93.56123 56.34344 93.705 57.60695 93.84875 58.76173 93.99252 59.82074 94.13628 60.79823 94.28004 61.70279 94.4238 62.5426 94.56757 63.32489 94.71133 64.05417 94.85507 64.73856 94.99886 65.38036 95.14261 65.9852 95.28638 66.55484 95.43013 67.09358 95.57388 67.60344 95.71765 68.08722 95.8614 68.54727 96.00519 68.98506 96.14893 69.40285 96.2927 69.80109 96.43646 70.18279 96.58022 70.54836 96.72398 70.8982 96.86772 71.23436 97.0115 71.55806 97.15526 71.86914 97.29903 72.16933 97.4428 72.4588 97.58653 72.73866 97.7303 73.00883 97.87407 73.27055 98.01784 73.52394 98.16159 73.7691 98.30536 74.00772 98.44911 74.23932 98.59286 74.46431 98.73665 74.68341 98.8804 74.89653 99.02415 75.10426 99.16792 75.3073 99.31169 75.50508 99.45544 75.6981 99.5992 75.88702 99.74297 76.0719 99.88672 76.25233 100.0305 76.42947 100.17426 76.60281 100.31801 76.77301 100.46176 76.93997 100.60553 77.10362 100.7493 77.26494 100.89305 77.42279 101.03682 77.57854 101.18057 77.7317 101.32434 77.88235 101.46811 78.03108 101.61186 78.17749 101.75562 78.322 101.89938 78.46478 102.04315 78.60535 102.1869 78.74446 102.33069 78.8818 102.47443 79.01755 102.61818 79.15224 102.76196 79.28523 102.90572 79.41699 103.04947 79.54758 103.19324 79.67694 103.337 79.80524 103.48076 79.9325 103.62453 80.05887 103.76828 80.18443 103.91203 80.30913 104.0558 80.43323 104.19957 80.55646 104.34334 80.67911 104.48708 80.80113 104.63084 80.92284 104.77461 81.04396 104.91837 81.16467 105.06215 81.28505 105.20589 81.40515 105.34966 81.525 105.49342 81.64462 105.63718 81.76413 105.78093 81.88345 105.9247 82.00299 106.06847 82.1223 106.21222 82.24182 106.356 82.36145 106.49974 82.48145 106.6435 82.60146 106.78728 82.72185 106.93103 82.84256 107.0748 82.96378 107.21855 83.08546 107.36232 83.20732 107.50607 83.32999 107.64984 83.4532 107.79361 83.5773 107.93735 83.702 108.08113 83.82756 108.22488 83.95377 108.36865 84.08136 108.51242 84.20967 108.65616 84.33911 108.79993 84.46959 108.94368 84.60146 109.08746 84.73444 109.2312 84.8688 109.37497 85.0047 109.51874 85.14188 109.66249 85.28093 109.80626 85.42184 109.95001 85.56427 110.09378 85.7088 110.23753 85.85527 110.3813 86.00381 110.52507 86.15457 110.66881 86.3079 110.81259 86.46341 110.95634 86.62173 111.10011 86.78273 111.24388 86.94646 111.38762 87.11359 111.53139 87.28339 111.67516 87.45673 111.81892 87.63393 111.96268 87.81447 112.10645 87.99901 112.2502 88.18816 112.39397 88.38136 112.53772 88.57915 112.68147 88.78195 112.82524 88.98967 112.969 89.20303 113.11278 89.42189 113.25653 89.64719 113.40028 89.87872 113.54405 90.1171 113.6878 90.36275 113.83157 90.61581 113.97534 90.87737 114.1191 91.14745 114.26285 91.4274 114.40662 91.71646 114.55038 92.0168 114.69414 92.32814 114.8379 92.65143 114.98166 92.9877 115.12543 93.33833 115.2692 93.70348 115.41295 94.08504 115.5567 94.48383 115.70047 94.90105 115.84424 95.33842 115.98799 95.79816 116.13174 96.28195 116.27551 96.7923 116.41927 97.33095 116.56303 97.90076 116.7068 98.50485 116.85056 99.14674 116.99431 99.83075 117.13809 100.56131 117.28185 101.34317 117.4256 102.1827 117.56935 103.08788 117.71312 104.06506 117.85689 105.1226 118.00064 106.27715 118.14442 107.53926 118.28816 108.92654 118.43192 110.45691 118.57568 112.15698 118.71945 114.05678 118.8632 116.1939 119.00696 118.61534 119.15074 121.38885 119.2945 124.59442 119.43825 128.3436 119.58202 132.79183 119.72577 138.15383 119.86954 144.74662 120.0133 153.04877 120.15707 163.85282"/>
<path transform="matrix(1.00003,0,0,-1.00006,-4.702553,167.78029)" stroke-width=".79701" stroke-linecap="butt" stroke-dasharray="2.98883,2.98883" stroke-miterlimit="10" stroke-linejoin="miter" fill="none" stroke="#0000ff" d="M106.80655 163.89636 106.95033 153.07541 107.09409 144.7614 107.23787 138.16576 107.3816 132.79723 107.52536 128.35269 107.66914 124.60136 107.8129 121.39288 107.95668 118.6256 108.10042 116.19997 108.24419 114.06194 108.38795 112.16231 108.53171 110.46216 108.67549 108.93059 108.81923 107.54323 108.963 106.28119 109.10677 105.12769 109.25052 104.06642 109.3943 103.08885 109.53804 102.18437 109.68181 101.34456 109.82558 100.56291 109.96935 99.8325 110.1131 99.14795 110.25685 98.5072 110.40062 97.9022 110.54439 97.33209 110.68816 96.79399 110.83191 96.28372 110.97568 95.79953 111.11943 95.33965 111.2632 94.90161 111.40697 94.48448 111.55072 94.08559 111.69449 93.70453 111.83824 93.33922 111.98203 92.98851 112.12578 92.652 112.26953 92.32846 112.4133 92.01753 112.55705 91.7171 112.70084 91.42789 112.84459 91.1485 112.98836 90.87823 113.13211 90.61653 113.27586 90.36314 113.41965 90.11768 113.56339 89.87895 113.70717 89.64735 113.85092 89.42245 113.99469 89.20328 114.13846 88.9899 114.2822 88.78227 114.42598 88.57964 114.56973 88.38176 114.7135 88.18857 114.85727 87.9995 115.00102 87.8147 115.14479 87.63434 115.28854 87.4572 115.43231 87.28387 115.57608 87.11366 115.71983 86.9467 115.86359 86.78305 116.00737 86.62215 116.15112 86.46388 116.29489 86.30815 116.43864 86.15497 116.58241 86.00407 116.72618 85.85559 116.86993 85.7092 117.01369 85.56451 117.15746 85.42192 117.30121 85.28134 117.44499 85.14221 117.58875 85.00487 117.73251 84.86905 117.87627 84.7346 118.02003 84.60155 118.1638 84.46983 118.30756 84.33919 118.45132 84.20967 118.59508 84.08144 118.73886 83.95401 118.88261 83.8278 119.02637 83.70224 119.17014 83.57747 119.31389 83.45346 119.45766 83.33006 119.60143 83.20757 119.74518 83.08554 119.88895 82.96402 120.0327 82.84271 120.17648 82.72209 120.32024 82.60172 120.46399 82.48169 120.60776 82.36168 120.75153 82.24205 120.89528 82.12254 121.03905 82.00307 121.1828 81.88368 121.32657 81.76437 121.47034 81.64488 121.6141 81.52507 121.75787 81.40523 121.90161 81.28506 122.04538 81.16483 122.18915 81.04411 122.3329 80.92293 122.47668 80.80147 122.62042 80.67937 122.7642 80.55669 122.90796 80.43347 123.05173 80.30937 123.19548 80.18443 123.33923 80.05911 123.48302 79.9329 123.62677 79.80531 123.77055 79.67702 123.91429 79.54749 124.05804 79.41708 124.20183 79.28523 124.34558 79.15224 124.48936 79.01778 124.6331 78.88197 124.77687 78.7448 124.92064 78.60567 125.06439 78.46478 125.20816 78.3224 125.35191 78.17772 125.49568 78.03142 125.63945 77.88286 125.78322 77.73193 125.92697 77.5787 126.07072 77.42303 126.2145 77.26494 126.35826 77.10388 126.50203 76.94005 126.64577 76.77325 126.78954 76.60321 126.9333 76.4298 127.07707 76.25275 127.22084 76.07222 127.3646 75.88766 127.50836 75.69852 127.65211 75.5054 127.79588 75.30753 127.93965 75.10464 128.08339 74.897 128.22718 74.68365 128.37093 74.46472 128.51471 74.23949 128.65847 74.00797 128.80222 73.76958 128.94599 73.52394 129.08974 73.27072 129.23352 73.0091 129.37726 72.73866 129.52103 72.4592 129.6648 72.16998 129.80855 71.86987 129.95233 71.55829 130.09607 71.23509 130.23986 70.8982 130.3836 70.54836 130.52738 70.18279 130.67115 69.80164 130.81488 69.40317 130.95865 68.98563 131.10242 68.54768 131.24619 68.08788 131.38996 67.60408 131.5337 67.09381 131.67748 66.55508 131.82123 65.98592 131.965 65.38109 132.10875 64.73904 132.25252 64.05554 132.39627 63.32489 132.54006 62.5426 132.6838 61.70326 132.82756 60.7988 132.97133 59.82162 133.1151 58.76173 133.25887 57.60727 133.40262 56.34425 133.54639 54.95891 133.69014 53.42863 133.8339 51.72792 133.97768 49.82634 134.12143 47.68971 134.2652 45.26956 134.40895 42.49783 134.55272 39.29306 134.69649 35.54309 134.84024 31.096 134.98401 25.72897 135.12776 19.14006 135.27153 10.83015 135.4153 0"/>
<path transform="matrix(1.00003,0,0,-1.00006,-4.702553,167.78029)" stroke-width=".79701" stroke-linecap="butt" stroke-miterlimit="10" stroke-linejoin="miter" fill="none" stroke="#ff0000" d="M122.06477 0 122.20854 10.8113 122.35231 19.12593 122.49606 25.72768 122.63982 31.08849 122.78358 35.53503 122.92734 39.28629 123.0711 42.49582 123.21487 45.26617 123.35864 47.68971 123.50238 49.82603 123.64615 51.72623 123.78992 53.42664 123.93367 54.95891 124.07744 56.34344 124.22119 57.60548 124.36496 58.76093 124.50871 59.81969 124.65248 60.79782 124.79623 61.70279 124.93999 62.54243 125.08377 63.32489 125.22752 64.05505 125.37129 64.73904 125.51505 65.38109 125.6588 65.9852 125.80257 66.55508 125.94632 67.09381 126.0901 67.60327 126.23384 68.08722 126.37761 68.54727 126.52138 68.98466 126.66513 69.40236 126.80888 69.80109 126.95265 70.18214 127.09642 70.54787 127.24017 70.8982 127.38396 71.23445 127.5277 71.55821 127.67145 71.86938 127.81523 72.16933 127.95898 72.4592 128.10276 72.73866 128.24649 73.00844 128.39028 73.27031 128.53403 73.5237 128.67778 73.7691 128.82157 74.00772 128.9653 74.23932 129.10907 74.46431 129.25284 74.68326 129.3966 74.89677 129.54036 75.10464 129.68412 75.3073 129.82788 75.50523 129.97164 75.69827 130.11542 75.88702 130.25916 76.07158 130.40293 76.25233 130.54669 76.42947 130.69045 76.60281 130.83422 76.77301 130.97797 76.9398 131.12174 77.10362 131.26549 77.2647 131.40927 77.42279 131.55303 77.5787 131.69676 77.73187 131.84053 77.88261 131.9843 78.03108 132.12807 78.17749 132.27182 78.32216 132.41559 78.46452 132.55934 78.60535 132.7031 78.74446 132.84688 78.8818 132.99063 79.01762 133.13439 79.152 133.27816 79.28514 133.42192 79.41699 133.56568 79.54749 133.70943 79.67677 133.8532 79.80524 133.99695 79.93266 134.14073 80.05887 134.28449 80.18443 134.42824 80.3092 134.572 80.43306 134.71576 80.55646 134.85953 80.67911 135.0033 80.80113 135.14705 80.92267 135.2908 81.04396 135.43457 81.16466 135.57834 81.28496 135.72209 81.40498 135.86585 81.525 136.00962 81.64462 136.15338 81.76413 136.29714 81.88362 136.44092 82.00299 136.58466 82.1223 136.72841 82.24182 136.8722 82.36145 137.01595 82.48128 137.1597 82.60138 137.30347 82.72185 137.44724 82.84247 137.59099 82.96378 137.73476 83.08522 137.87851 83.20732 138.02227 83.33006 138.16605 83.45337 138.3098 83.57747 138.45357 83.702 138.5973 83.82756 138.74108 83.95377 138.88484 84.08119 139.02861 84.20935 139.17238 84.33911 139.31612 84.46944 139.45989 84.60121 139.60366 84.73444 139.7474 84.8688 139.89116 85.0047 140.03493 85.14206 140.1787 85.28102 140.32245 85.42184 140.46623 85.56451 140.60997 85.70895 140.75373 85.85535 140.8975 86.00375 141.04126 86.15457 141.18503 86.3079 141.32878 86.46341 141.47255 86.62166 141.6163 86.7828 141.76007 86.94662 141.90384 87.11359 142.04758 87.28339 142.19136 87.45673 142.33512 87.63393 142.47888 87.8147 142.62265 87.9994 142.76639 88.18816 142.91016 88.38136 143.05391 88.57915 143.1977 88.7818 143.34143 88.98967 143.4852 89.20303 143.62897 89.42195 143.77272 89.64671 143.91649 89.87872 144.06024 90.1171 144.20401 90.36258 144.34777 90.61598 144.49153 90.87767 144.6353 91.14777 144.77904 91.42747 144.92282 91.71686 145.06658 92.0168 145.21035 92.32814 145.35411 92.65143 145.49787 92.9877 145.64162 93.33807 145.78539 93.70348 145.92916 94.08504 146.0729 94.48334 146.21668 94.90105 146.36043 95.33852 146.5042 95.79816 146.64795 96.28236 146.7917 96.79286 146.93547 97.33183 147.07923 97.90108 147.223 98.50471 147.36676 99.14674 147.51052 99.83026 147.65427 100.56131 147.79804 101.34302 147.9418 102.18228 148.08556 103.0865 148.22933 104.06392 148.37308 105.1247 148.51685 106.27869 148.66062 107.54016 148.80437 108.92654 148.94812 110.45764 149.09188 112.15811 149.23566 114.05638 149.37941 116.1939 149.52318 118.61534 149.66693 121.38885 149.81069 124.59361 149.95446 128.3436 150.09822 132.79183 150.24198 138.14575 150.38573 144.74591 150.5295 153.05652 150.67327 163.85282"/>
<path transform="matrix(1.00003,0,0,-1.00006,-4.702553,167.78029)" stroke-width=".79701" stroke-linecap="butt" stroke-dasharray="2.98883,2.98883" stroke-miterlimit="10" stroke-linejoin="miter" fill="none" stroke="#0000ff" d="M137.32277 163.89636 137.46652 153.07541 137.61028 144.7614 137.75405 138.16963 137.89781 132.80159 138.04157 128.35448 138.18534 124.60136 138.3291 121.39288 138.47287 118.62123 138.61663 116.19997 138.76038 114.06194 138.90415 112.16045 139.04792 110.46007 139.19167 108.92961 139.33545 107.54323 139.47919 106.28119 139.62296 105.12575 139.76673 104.06699 139.91049 103.08885 140.05426 102.18552 140.198 101.34586 140.34177 100.56291 140.48554 99.8325 140.62929 99.14795 140.77307 98.50632 140.91681 97.90149 141.0606 97.33209 141.20435 96.79341 141.34812 96.28342 141.49187 95.79945 141.63562 95.3394 141.7794 94.90227 141.92316 94.48473 142.06693 94.08583 142.21068 93.70462 142.35443 93.33922 142.49822 92.98882 142.64197 92.65256 142.78575 92.32896 142.92949 92.01753 143.07326 91.71759 143.21703 91.42764 143.36078 91.14825 143.50455 90.87807 143.6483 90.61636 143.79207 90.36284 143.93584 90.11734 144.0796 89.87878 144.22336 89.64743 144.36711 89.4226 144.51088 89.20343 144.65465 88.99031 144.79842 88.78244 144.94216 88.57947 145.08594 88.38176 145.22969 88.18842 145.37346 87.99965 145.51723 87.81479 145.66098 87.63434 145.80475 87.4572 145.9485 87.28387 146.09229 87.11366 146.23604 86.9467 146.37978 86.78296 146.52356 86.62215 146.66732 86.46405 146.8111 86.30815 146.95485 86.15506 147.09862 86.00432 147.24237 85.85559 147.38613 85.7092 147.5299 85.56476 147.67365 85.42209 147.81742 85.28134 147.96118 85.14221 148.10495 85.00487 148.24872 84.8689 148.39246 84.7346 148.53624 84.60146 148.68 84.46968 148.82376 84.33919 148.96753 84.2099 149.11127 84.08144 149.25504 83.95418 149.3988 83.8278 149.54257 83.70224 149.68634 83.57747 149.8301 83.45361 149.97385 83.33006 150.11762 83.20757 150.26139 83.08546 150.40514 82.96402 150.5489 82.84271 150.69266 82.722 150.83644 82.60162 150.9802 82.48169 151.12395 82.36168 151.26772 82.24205 151.41149 82.12254 151.55525 82.00322 151.699 81.88387 151.84278 81.76445 151.98653 81.64488 152.13028 81.52507 152.27407 81.40523 152.41782 81.28522 152.56159 81.1649 152.70534 81.04411 152.84912 80.92293 152.99288 80.80121 153.13663 80.6792 153.2804 80.55663 153.42415 80.43323 153.56792 80.3092 153.71169 80.18468 153.85544 80.05911 153.9992 79.93306 154.14296 79.80531 154.28675 79.67702 154.4305 79.54758 154.57425 79.41708 154.71802 79.28548 154.86179 79.15224 155.00554 79.01778 155.1493 78.88197 155.29306 78.74461 155.43683 78.60567 155.5806 78.46478 155.72437 78.32216 155.86814 78.17772 156.01187 78.03134 156.15564 77.88286 156.29941 77.73193 156.44318 77.5788 156.58695 77.42328 156.73069 77.26494 156.87447 77.10371 157.01822 76.94005 157.16197 76.77325 157.30574 76.60321 157.4495 76.4298 157.59328 76.25275 157.73703 76.07222 157.8808 75.88727 158.02455 75.69852 158.1683 75.50523 158.31209 75.30745 158.45584 75.10464 158.59961 74.897 158.74337 74.68365 158.88712 74.46472 159.0309 74.23997 159.17465 74.00797 159.31844 73.76958 159.46218 73.52411 159.60594 73.27072 159.74971 73.0091 159.89347 72.7389 160.03722 72.45927 160.18099 72.16982 160.32476 71.86963 160.46852 71.55821 160.61229 71.23468 160.75605 70.89859 160.8998 70.54836 161.04357 70.1832 161.18733 69.8019 161.3311 69.40317 161.47484 68.98555 161.61862 68.54776 161.76238 68.08827 161.90615 67.60431 162.04991 67.09381 162.19367 66.55573 162.33744 65.9856 162.48119 65.38109 162.62497 64.73904 162.76873 64.05554 162.91248 63.32489 163.05625 62.5426 163.2 61.70279 163.34378 60.80017 163.48752 59.82211 163.6313 58.76328 163.77506 57.608 163.91881 56.34604 164.06259 54.96013 164.20633 53.43001 164.3501 51.72792 164.49387 49.82893 164.63764 47.69116 164.7814 45.26956 164.92514 42.49582 165.06893 39.28764 165.21268 35.54042 165.35645 31.09485 165.50022 25.72897 165.64397 19.13506 165.78772 10.81757 165.93149 0"/>
<path transform="matrix(1.00003,0,0,-1.00006,-4.702553,167.78029)" stroke-width=".79701" stroke-linecap="butt" stroke-miterlimit="10" stroke-linejoin="miter" fill="none" stroke="#ff0000" d="M152.58098 0 152.72473 10.81757 152.8685 19.13506 153.01226 25.72897 153.15602 31.08849 153.29979 35.53398 153.44355 39.28531 153.5873 42.49379 153.73107 45.26617 153.87483 47.68938 154.01859 49.82634 154.16236 51.7255 154.3061 53.42664 154.44988 54.95891 154.59363 56.34483 154.73738 57.60727 154.88115 58.76173 155.0249 59.82027 155.16869 60.79823 155.31244 61.70279 155.45619 62.54187 155.59996 63.32402 155.74372 64.05417 155.88748 64.73856 156.03125 65.38036 156.175 65.98447 156.31876 66.55467 156.46253 67.09358 156.6063 67.60384 156.75005 68.08722 156.8938 68.54727 157.03757 68.98555 157.18134 69.40285 157.32509 69.80109 157.46887 70.18239 157.61261 70.54747 157.75637 70.8982 157.90015 71.23445 158.0439 71.5578 158.18766 71.86914 158.33142 72.16957 158.47519 72.45903 158.61894 72.73866 158.7627 73.00883 158.90647 73.27039 159.05022 73.52394 159.19399 73.7691 159.33776 74.00789 159.48152 74.23924 159.62526 74.46431 159.76903 74.68326 159.9128 74.89677 160.05655 75.10426 160.20034 75.30698 160.34407 75.50491 160.48784 75.69827 160.6316 75.88702 160.77536 76.0719 160.91912 76.25266 161.06288 76.42947 161.20665 76.60306 161.3504 76.77301 161.49417 76.9398 161.63793 77.10362 161.78168 77.26453 161.92546 77.42279 162.06922 77.57854 162.21298 77.7317 162.35672 77.88261 162.5005 78.03134 162.64426 78.17749 162.78801 78.322 162.9318 78.4646 163.07553 78.6055 163.2193 78.74446 163.36307 78.8818 163.50684 79.01778 163.65059 79.15207 163.79434 79.28499 163.93811 79.41684 164.08187 79.54749 164.22565 79.67694 164.36939 79.80524 164.51316 79.9325 164.65692 80.05887 164.80068 80.18443 164.94445 80.30913 165.0882 80.43323 165.23197 80.55646 165.37572 80.67911 165.5195 80.80113 165.66326 80.92284 165.80699 81.04396 165.95076 81.16467 166.09453 81.28505 166.2383 81.40515 166.38205 81.525 166.52582 81.64462 166.66957 81.76413 166.81333 81.88345 166.9571 82.00299 167.10086 82.1223 167.24462 82.24182 167.38838 82.36145 167.53215 82.48145 167.6759 82.60146 167.81966 82.72185 167.96343 82.84256 168.10718 82.96378 168.25096 83.08546 168.39472 83.20732 168.53847 83.32999 168.68224 83.4532 168.82599 83.5773 168.96976 83.702 169.11353 83.82756 169.25728 83.95377 169.40103 84.08136 169.5448 84.20967 169.68857 84.33911 169.83232 84.46959 169.97608 84.60146 170.11985 84.73444 170.26361 84.8688 170.40737 85.0047 170.55115 85.14188 170.69489 85.28093 170.83864 85.42184 170.98242 85.56427 171.12618 85.7088 171.26993 85.85527 171.4137 86.00381 171.55747 86.15457 171.70122 86.3079 171.84499 86.46341 171.98874 86.62173 172.13249 86.78273 172.27628 86.94646 172.42003 87.11359 172.5638 87.28339 172.70755 87.45673 172.8513 87.63393 172.99507 87.81447 173.13884 87.99901 173.28261 88.18816 173.42635 88.38136 173.57012 88.57915 173.71389 88.78195 173.85764 88.98967 174.00139 89.20303 174.14516 89.42189 174.28893 89.64719 174.43268 89.87872 174.57646 90.1171 174.7202 90.36258 174.86396 90.61581 175.00774 90.87737 175.15149 91.14745 175.29526 91.4274 175.43901 91.71646 175.58278 92.0168 175.72653 92.32814 175.8703 92.65143 176.01407 92.9877 176.1578 93.33833 176.30159 93.70348 176.44535 94.08504 176.58911 94.48383 176.73288 94.90105 176.87662 95.33842 177.02039 95.79816 177.16414 96.28195 177.30792 96.7923 177.45166 97.33095 177.59543 97.90076 177.7392 98.50485 177.88295 99.14674 178.02672 99.83075 178.17047 100.56131 178.31424 101.34317 178.458 102.1827 178.60176 103.08788 178.74553 104.06506 178.88927 105.1226 179.03304 106.27715 179.1768 107.53926 179.32057 108.92654 179.46433 110.45691 179.60808 112.15698 179.75185 114.05678 179.8956 116.1939 180.03937 118.61534 180.18314 121.38885 180.32689 124.59442 180.47064 128.3436 180.61443 132.79183 180.75818 138.15383 180.90192 144.74662 181.04569 153.04877 181.18946 163.85282"/>
<path transform="matrix(1.00003,0,0,-1.00006,-4.702553,167.78029)" stroke-width=".79701" stroke-linecap="butt" stroke-dasharray="2.98883,2.98883" stroke-miterlimit="10" stroke-linejoin="miter" fill="none" stroke="#0000ff" d="M167.83896 163.89636 167.98273 153.07541 168.12648 144.7614 168.27024 138.16576 168.41402 132.79723 168.55777 128.35269 168.70153 124.60136 168.84529 121.39288 168.98906 118.6256 169.13283 116.19997 169.27658 114.06194 169.42035 112.16231 169.5641 110.46216 169.70786 108.93059 169.85164 107.54323 169.99539 106.28119 170.13916 105.12769 170.28292 104.06642 170.4267 103.08885 170.57045 102.18437 170.7142 101.34456 170.85797 100.56291 171.00173 99.8325 171.1455 99.14795 171.28926 98.5072 171.43303 97.9022 171.57678 97.33209 171.72054 96.79399 171.86432 96.28372 172.00807 95.79953 172.15183 95.33965 172.2956 94.90161 172.43935 94.48448 172.58312 94.08559 172.72689 93.70453 172.87064 93.33922 173.0144 92.98851 173.15818 92.652 173.30194 92.32846 173.4457 92.01753 173.58945 91.7171 173.73322 91.42789 173.87699 91.1485 174.02074 90.87823 174.16452 90.61653 174.30826 90.36314 174.45203 90.11768 174.5958 89.87895 174.73955 89.64735 174.88333 89.42245 175.02707 89.20328 175.17086 88.9899 175.3146 88.78227 175.45836 88.57964 175.60213 88.38176 175.74588 88.18857 175.88967 87.9995 176.03342 87.8147 176.1772 87.63434 176.32094 87.4572 176.46469 87.28387 176.60848 87.11366 176.75223 86.9467 176.896 86.78305 177.03975 86.62215 177.18352 86.46388 177.32729 86.30815 177.47104 86.15497 177.61483 86.00407 177.75856 85.85559 177.90233 85.7092 178.0461 85.56451 178.18987 85.42192 178.3336 85.28134 178.47737 85.14221 178.62114 85.00487 178.76491 84.86905 178.90868 84.7346 179.05243 84.60155 179.1962 84.46983 179.33995 84.33919 179.48372 84.20967 179.62749 84.08144 179.77123 83.95401 179.91501 83.8278 180.05876 83.70224 180.20253 83.57747 180.3463 83.45346 180.49005 83.33006 180.63382 83.20757 180.77758 83.08554 180.92136 82.96402 181.06511 82.84271 181.20885 82.72209 181.35263 82.60172 181.49639 82.48169 181.64017 82.36168 181.7839 82.24205 181.92769 82.12254 182.07144 82.00307 182.2152 81.88368 182.35898 81.76437 182.50272 81.64488 182.64649 81.52507 182.79026 81.40523 182.93402 81.28506 183.07779 81.16483 183.22153 81.04411 183.36531 80.92293 183.50907 80.80147 183.65283 80.67937 183.7966 80.55669 183.94036 80.43347 184.0841 80.30937 184.22788 80.18443 184.37165 80.05911 184.5154 79.9329 184.65917 79.80531 184.80294 79.67702 184.9467 79.54749 185.09046 79.41708 185.2342 79.28523 185.37798 79.15224 185.52173 79.01778 185.66551 78.88197 185.80927 78.7448 185.95304 78.60567 186.09679 78.46478 186.24056 78.3224 186.38433 78.17772 186.52808 78.03142 186.67185 77.88286 186.8156 77.73193 186.95937 77.5787 187.10314 77.42303 187.24689 77.26494 187.39066 77.10388 187.53441 76.94005 187.67819 76.77325 187.82195 76.60321 187.9657 76.4298 188.10947 76.25275 188.25322 76.07222 188.39699 75.88766 188.54076 75.69852 188.68451 75.5054 188.82828 75.30753 188.97203 75.10464 189.1158 74.897 189.25957 74.68365 189.40332 74.46472 189.54709 74.23949 189.69086 74.00797 189.83461 73.76958 189.97838 73.52394 190.12213 73.27072 190.2659 73.0091 190.40967 72.73866 190.55344 72.4592 190.69719 72.16998 190.84095 71.86987 190.98471 71.55829 191.12848 71.23509 191.27223 70.8982 191.416 70.54836 191.55976 70.18279 191.70354 69.80164 191.84729 69.40317 191.99106 68.98563 192.13481 68.54768 192.27857 68.08788 192.42235 67.60408 192.5661 67.09381 192.70987 66.55508 192.85363 65.98592 192.99738 65.38109 193.14116 64.73904 193.28491 64.05554 193.4287 63.32489 193.57244 62.5426 193.7162 61.70326 193.85997 60.7988 194.00373 59.82162 194.14748 58.76173 194.29125 57.60727 194.43502 56.34425 194.57878 54.95891 194.72255 53.42863 194.86629 51.72792 195.01006 49.82634 195.15383 47.68971 195.29759 45.26956 195.44136 42.49783 195.58512 39.29306 195.72888 35.54309 195.87264 31.096 196.0164 25.72897 196.16017 19.14006 196.30391 10.83015 196.4477 0"/>
<path transform="matrix(1.00003,0,0,-1.00006,-4.702553,167.78029)" stroke-width=".79701" stroke-linecap="butt" stroke-miterlimit="10" stroke-linejoin="miter" fill="none" stroke="#ff0000" d="M183.09717 0 183.24095 10.8113 183.38469 19.12593 183.52846 25.72768 183.67221 31.08849 183.81598 35.53503 183.95975 39.28629 184.10349 42.49582 184.24727 45.26617 184.39102 47.68971 184.53479 49.82603 184.67856 51.72623 184.8223 53.42664 184.96607 54.95891 185.10982 56.34344 185.2536 57.60548 185.39734 58.76093 185.5411 59.81969 185.68488 60.79782 185.82863 61.70279 185.9724 62.54243 186.11615 63.32489 186.25992 64.05505 186.40367 64.73904 186.54746 65.38109 186.69121 65.9852 186.83495 66.55508 186.97872 67.09381 187.12248 67.60327 187.26625 68.08722 187.41 68.54727 187.55377 68.98466 187.69753 69.40236 187.84128 69.80109 187.98506 70.18214 188.12882 70.54787 188.27257 70.8982 188.41634 71.23445 188.5601 71.55821 188.70386 71.86938 188.8476 72.16933 188.99138 72.4592 189.13513 72.73866 189.2789 73.00844 189.42267 73.27031 189.56642 73.5237 189.71018 73.7691 189.85395 74.00772 189.99771 74.23932 190.14147 74.46431 190.28524 74.68326 190.42899 74.89677 190.57276 75.10464 190.71652 75.3073 190.86028 75.50523 191.00403 75.69827 191.1478 75.88702 191.29157 76.07158 191.43532 76.25233 191.5791 76.42947 191.72284 76.60281 191.8666 76.77301 192.01038 76.9398 192.15413 77.10362 192.29788 77.2647 192.44165 77.42279 192.58542 77.5787 192.72917 77.73187 192.87293 77.88261 193.0167 78.03108 193.16045 78.17749 193.30422 78.32216 193.44799 78.46452 193.59175 78.60535 193.73549 78.74446 193.87926 78.8818 194.02303 79.01762 194.16678 79.152 194.31056 79.28514 194.4543 79.41699 194.59807 79.54749 194.74184 79.67677 194.88559 79.80524 195.02936 79.93266 195.17311 80.05887 195.31688 80.18443 195.46063 80.3092 195.60442 80.43306 195.74816 80.55646 195.8919 80.67911 196.03569 80.80113 196.17945 80.92267 196.32321 81.04396 196.46695 81.16466 196.61074 81.28496 196.75449 81.40498 196.89824 81.525 197.04203 81.64462 197.18576 81.76413 197.32953 81.88362 197.4733 82.00299 197.61707 82.1223 197.76082 82.24182 197.90457 82.36145 198.04834 82.48128 198.1921 82.60138 198.33588 82.72185 198.47962 82.84247 198.62339 82.96378 198.76715 83.08522 198.9109 83.20732 199.05467 83.33006 199.19843 83.45337 199.3422 83.57747 199.48595 83.702 199.62973 83.82756 199.77349 83.95377 199.91722 84.08119 200.06099 84.20935 200.20476 84.33911 200.34853 84.46944 200.49228 84.60121 200.63605 84.73444 200.7798 84.8688 200.92356 85.0047 201.06734 85.14206 201.21109 85.28102 201.35485 85.42184 201.49861 85.56451 201.64238 85.70895 201.78614 85.85535 201.92989 86.00375 202.07366 86.15457 202.2174 86.3079 202.36119 86.46341 202.50495 86.62166 202.6487 86.7828 202.79247 86.94662 202.93622 87.11359 203.07999 87.28339 203.22376 87.45673 203.36751 87.63393 203.51126 87.8147 203.65503 87.9994 203.7988 88.18816 203.94255 88.38136 204.0863 88.57915 204.23007 88.7818 204.37384 88.98967 204.5176 89.20303 204.66138 89.42195 204.80512 89.64671 204.94887 89.87872 205.09265 90.1171 205.2364 90.36258 205.38016 90.61598 205.52393 90.87767 205.6677 91.14777 205.81145 91.42747 205.95522 91.71686 206.09897 92.01729 206.24272 92.32814 206.3865 92.65143 206.53026 92.9877 206.67403 93.33807 206.81778 93.70348 206.96154 94.08504 207.1053 94.48334 207.24906 94.90105 207.39284 95.33852 207.53658 95.79816 207.68035 96.28236 207.82411 96.79286 207.96787 97.33183 208.11162 97.90108 208.25539 98.50542 208.39916 99.14674 208.54291 99.83026 208.68669 100.56131 208.83043 101.34302 208.97418 102.18228 209.11795 103.0865 209.26172 104.06392 209.40549 105.1247 209.54923 106.27869 209.69301 107.54016 209.83676 108.92654 209.98052 110.45764 210.12429 112.15811 210.26804 114.05798 210.4118 116.1939 210.55556 118.61534 210.69934 121.38885 210.8431 124.59361 210.98683 128.3436 211.13062 132.79183 211.27437 138.14575 211.41814 144.74591 211.56188 153.05652 211.70566 163.85282"/>
<path transform="matrix(1.00003,0,0,-1.00006,-4.702553,167.78029)" stroke-width=".79701" stroke-linecap="butt" stroke-dasharray="2.98883,2.98883" stroke-miterlimit="10" stroke-linejoin="miter" fill="none" stroke="#0000ff" d="M198.35515 163.89636 198.49893 153.07541 198.64269 144.7614 198.78643 138.16963 198.9302 132.80159 199.07396 128.35448 199.21775 124.60136 199.3615 121.39288 199.50527 118.62123 199.64902 116.19997 199.79277 114.06194 199.93656 112.16045 200.08029 110.46007 200.22406 108.92961 200.36783 107.54323 200.5116 106.28119 200.65537 105.12575 200.7991 104.06699 200.94289 103.08885 201.08664 102.18552 201.23041 101.34586 201.37418 100.56291 201.51793 99.8325 201.66168 99.14795 201.80545 98.50632 201.94922 97.90149 202.09299 97.33209 202.23674 96.79341 202.38051 96.28342 202.52428 95.79945 202.66803 95.3394 202.81179 94.90227 202.95555 94.48473 203.0993 94.08583 203.24309 93.70462 203.38684 93.33922 203.5306 92.98882 203.67436 92.65256 203.81813 92.32896 203.9619 92.01753 204.10565 91.71759 204.24942 91.42764 204.39318 91.14825 204.53694 90.87807 204.68071 90.61636 204.82447 90.36284 204.96823 90.11734 205.11199 89.8792 205.25577 89.64743 205.39952 89.4226 205.54328 89.20343 205.68704 88.99031 205.8308 88.78244 205.97457 88.57947 206.11833 88.38176 206.26209 88.18842 206.40586 87.99965 206.5496 87.81479 206.69339 87.63434 206.83715 87.4572 206.9809 87.28387 207.12467 87.11366 207.26844 86.9467 207.41219 86.78296 207.55596 86.62198 207.6997 86.46405 207.84348 86.30815 207.98725 86.15506 208.13101 86.00432 208.27478 85.85559 208.41852 85.7092 208.56229 85.56476 208.70606 85.42209 208.84981 85.28134 208.99358 85.14221 209.13733 85.00487 209.28112 84.8689 209.42487 84.7346 209.56864 84.60146 209.71239 84.46968 209.85614 84.33919 209.99993 84.20967 210.14368 84.08144 210.28745 83.95418 210.4312 83.8278 210.57495 83.70224 210.71874 83.57747 210.86249 83.45361 211.00627 83.33006 211.15001 83.20757 211.29378 83.08546 211.43755 82.96402 211.5813 82.84271 211.72507 82.722 211.86882 82.60162 212.01259 82.48169 212.15636 82.36168 212.30011 82.24205 212.44388 82.12247 212.58763 82.00322 212.7314 81.88387 212.87517 81.76445 213.01894 81.64488 213.16268 81.52507 213.30644 81.40523 213.45021 81.28522 213.59398 81.1649 213.73775 81.04411 213.88149 80.92293 214.02527 80.80121 214.16902 80.6792 214.31279 80.55663 214.45656 80.43323 214.6003 80.30937 214.74408 80.18468 214.88784 80.05911 215.03162 79.93306 215.17537 79.80531 215.31912 79.67702 215.46289 79.54758 215.60665 79.41708 215.75043 79.28548 215.89417 79.15224 216.03794 79.01778 216.1817 78.88197 216.32546 78.74461 216.46924 78.60567 216.61298 78.46478 216.75676 78.32216 216.90052 78.17772 217.04428 78.03142 217.18805 77.88286 217.33179 77.73193 217.47556 77.5788 217.61933 77.42328 217.76309 77.26494 217.90686 77.10371 218.05062 76.94005 218.19438 76.77325 218.33814 76.60321 218.4819 76.4298 218.62566 76.25275 218.76943 76.07222 218.91318 75.88727 219.05696 75.69852 219.20072 75.50523 219.34447 75.30745 219.48824 75.10472 219.632 74.897 219.77577 74.68365 219.91953 74.46472 220.06328 74.23997 220.20705 74.00797 220.3508 73.76958 220.49459 73.52411 220.63834 73.27072 220.7821 73.0091 220.92586 72.7389 221.06963 72.45927 221.2134 72.16982 221.35715 71.86963 221.50092 71.55821 221.64467 71.23468 221.78844 70.89859 221.9322 70.5481 222.07595 70.1832 222.21973 69.8019 222.36348 69.40317 222.50727 68.98563 222.65102 68.54776 222.79477 68.08827 222.93854 67.60431 223.08229 67.09381 223.22606 66.55484 223.36983 65.9856 223.51358 65.38109 223.65735 64.73904 223.80112 64.05554 223.94489 63.32489 224.08864 62.5435 224.23239 61.70279 224.37616 60.7988 224.51993 59.82074 224.66368 58.76173 224.80745 57.60695 224.9512 56.34653 225.09497 54.95891 225.23874 53.43001 225.3825 51.72792 225.52626 49.82893 225.67002 47.69116 225.8138 45.26956 225.95755 42.49582 226.1013 39.28764 226.24507 35.54042 226.38883 31.09485 226.53261 25.72897 226.67636 19.13506 226.82015 10.81757 226.96389 0"/>
<path transform="matrix(1.00003,0,0,-1.00006,-4.702553,167.78029)" stroke-width=".79701" stroke-linecap="butt" stroke-miterlimit="10" stroke-linejoin="miter" fill="none" stroke="#ff0000" d="M91.54857 0 91.69235 10.81757 91.8361 19.13579 91.97987 25.72768 92.12361 31.08849 92.2674 35.54042 92.41115 39.28764 92.5549 42.49582 92.69867 45.26617 92.84242 47.6867 92.98619 49.82603 93.12996 51.72623 93.27373 53.42664 93.41747 54.95891 93.56123 56.34344 93.705 57.60695 93.84875 58.76173 93.99252 59.82074 94.13628 60.79823 94.28004 61.70279 94.4238 62.5426 94.56757 63.32489 94.71133 64.05417 94.85507 64.73856 94.99886 65.38036 95.14261 65.9852 95.28638 66.55484 95.43013 67.09358 95.57388 67.60344 95.71765 68.08722 95.8614 68.54727 96.00519 68.98506 96.14893 69.40285 96.2927 69.80109 96.43646 70.18279 96.58022 70.54836 96.72398 70.8982 96.86772 71.23436 97.0115 71.55806 97.15526 71.86914 97.29903 72.16933 97.4428 72.4588 97.58653 72.73866 97.7303 73.00883 97.87407 73.27055 98.01784 73.52394 98.16159 73.7691 98.30536 74.00772 98.44911 74.23932 98.59286 74.46431 98.73665 74.68341 98.8804 74.89653 99.02415 75.10426 99.16792 75.3073 99.31169 75.50508 99.45544 75.6981 99.5992 75.88702 99.74297 76.0719 99.88672 76.25233 100.0305 76.42947 100.17426 76.60281 100.31801 76.77301 100.46176 76.93997 100.60553 77.10362 100.7493 77.26494 100.89305 77.42279 101.03682 77.57854 101.18057 77.7317 101.32434 77.88235 101.46811 78.03108 101.61186 78.17749 101.75562 78.322 101.89938 78.46478 102.04315 78.60535 102.1869 78.74446 102.33069 78.8818 102.47443 79.01755 102.61818 79.15224 102.76196 79.28523 102.90572 79.41699 103.04947 79.54758 103.19324 79.67694 103.337 79.80524 103.48076 79.9325 103.62453 80.05887 103.76828 80.18443 103.91203 80.30913 104.0558 80.43323 104.19957 80.55646 104.34334 80.67911 104.48708 80.80113 104.63084 80.92284 104.77461 81.04396 104.91837 81.16467 105.06215 81.28505 105.20589 81.40515 105.34966 81.525 105.49342 81.64462 105.63718 81.76413 105.78093 81.88345 105.9247 82.00299 106.06847 82.1223 106.21222 82.24182 106.356 82.36145 106.49974 82.48145 106.6435 82.60146 106.78728 82.72185 106.93103 82.84256 107.0748 82.96378 107.21855 83.08546 107.36232 83.20732 107.50607 83.32999 107.64984 83.4532 107.79361 83.5773 107.93735 83.702 108.08113 83.82756 108.22488 83.95377 108.36865 84.08136 108.51242 84.20967 108.65616 84.33911 108.79993 84.46959 108.94368 84.60146 109.08746 84.73444 109.2312 84.8688 109.37497 85.0047 109.51874 85.14188 109.66249 85.28093 109.80626 85.42184 109.95001 85.56427 110.09378 85.7088 110.23753 85.85527 110.3813 86.00381 110.52507 86.15457 110.66881 86.3079 110.81259 86.46341 110.95634 86.62173 111.10011 86.78273 111.24388 86.94646 111.38762 87.11359 111.53139 87.28339 111.67516 87.45673 111.81892 87.63393 111.96268 87.81447 112.10645 87.99901 112.2502 88.18816 112.39397 88.38136 112.53772 88.57915 112.68147 88.78195 112.82524 88.98967 112.969 89.20303 113.11278 89.42189 113.25653 89.64719 113.40028 89.87872 113.54405 90.1171 113.6878 90.36275 113.83157 90.61581 113.97534 90.87737 114.1191 91.14745 114.26285 91.4274 114.40662 91.71646 114.55038 92.0168 114.69414 92.32814 114.8379 92.65143 114.98166 92.9877 115.12543 93.33833 115.2692 93.70348 115.41295 94.08504 115.5567 94.48383 115.70047 94.90105 115.84424 95.33842 115.98799 95.79816 116.13174 96.28195 116.27551 96.7923 116.41927 97.33095 116.56303 97.90076 116.7068 98.50485 116.85056 99.14674 116.99431 99.83075 117.13809 100.56131 117.28185 101.34317 117.4256 102.1827 117.56935 103.08788 117.71312 104.06506 117.85689 105.1226 118.00064 106.27715 118.14442 107.53926 118.28816 108.92654 118.43192 110.45691 118.57568 112.15698 118.71945 114.05678 118.8632 116.1939 119.00696 118.61534 119.15074 121.38885 119.2945 124.59442 119.43825 128.3436 119.58202 132.79183 119.72577 138.15383 119.86954 144.74662 120.0133 153.04877 120.15707 163.85282"/>
<path transform="matrix(1.00003,0,0,-1.00006,-4.702553,167.78029)" stroke-width=".79701" stroke-linecap="butt" stroke-dasharray="2.98883,2.98883" stroke-miterlimit="10" stroke-linejoin="miter" fill="none" stroke="#0000ff" d="M106.80655 163.89636 106.95033 153.07541 107.09409 144.7614 107.23787 138.16576 107.3816 132.79723 107.52536 128.35269 107.66914 124.60136 107.8129 121.39288 107.95668 118.6256 108.10042 116.19997 108.24419 114.06194 108.38795 112.16231 108.53171 110.46216 108.67549 108.93059 108.81923 107.54323 108.963 106.28119 109.10677 105.12769 109.25052 104.06642 109.3943 103.08885 109.53804 102.18437 109.68181 101.34456 109.82558 100.56291 109.96935 99.8325 110.1131 99.14795 110.25685 98.5072 110.40062 97.9022 110.54439 97.33209 110.68816 96.79399 110.83191 96.28372 110.97568 95.79953 111.11943 95.33965 111.2632 94.90161 111.40697 94.48448 111.55072 94.08559 111.69449 93.70453 111.83824 93.33922 111.98203 92.98851 112.12578 92.652 112.26953 92.32846 112.4133 92.01753 112.55705 91.7171 112.70084 91.42789 112.84459 91.1485 112.98836 90.87823 113.13211 90.61653 113.27586 90.36314 113.41965 90.11768 113.56339 89.87895 113.70717 89.64735 113.85092 89.42245 113.99469 89.20328 114.13846 88.9899 114.2822 88.78227 114.42598 88.57964 114.56973 88.38176 114.7135 88.18857 114.85727 87.9995 115.00102 87.8147 115.14479 87.63434 115.28854 87.4572 115.43231 87.28387 115.57608 87.11366 115.71983 86.9467 115.86359 86.78305 116.00737 86.62215 116.15112 86.46388 116.29489 86.30815 116.43864 86.15497 116.58241 86.00407 116.72618 85.85559 116.86993 85.7092 117.01369 85.56451 117.15746 85.42192 117.30121 85.28134 117.44499 85.14221 117.58875 85.00487 117.73251 84.86905 117.87627 84.7346 118.02003 84.60155 118.1638 84.46983 118.30756 84.33919 118.45132 84.20967 118.59508 84.08144 118.73886 83.95401 118.88261 83.8278 119.02637 83.70224 119.17014 83.57747 119.31389 83.45346 119.45766 83.33006 119.60143 83.20757 119.74518 83.08554 119.88895 82.96402 120.0327 82.84271 120.17648 82.72209 120.32024 82.60172 120.46399 82.48169 120.60776 82.36168 120.75153 82.24205 120.89528 82.12254 121.03905 82.00307 121.1828 81.88368 121.32657 81.76437 121.47034 81.64488 121.6141 81.52507 121.75787 81.40523 121.90161 81.28506 122.04538 81.16483 122.18915 81.04411 122.3329 80.92293 122.47668 80.80147 122.62042 80.67937 122.7642 80.55669 122.90796 80.43347 123.05173 80.30937 123.19548 80.18443 123.33923 80.05911 123.48302 79.9329 123.62677 79.80531 123.77055 79.67702 123.91429 79.54749 124.05804 79.41708 124.20183 79.28523 124.34558 79.15224 124.48936 79.01778 124.6331 78.88197 124.77687 78.7448 124.92064 78.60567 125.06439 78.46478 125.20816 78.3224 125.35191 78.17772 125.49568 78.03142 125.63945 77.88286 125.78322 77.73193 125.92697 77.5787 126.07072 77.42303 126.2145 77.26494 126.35826 77.10388 126.50203 76.94005 126.64577 76.77325 126.78954 76.60321 126.9333 76.4298 127.07707 76.25275 127.22084 76.07222 127.3646 75.88766 127.50836 75.69852 127.65211 75.5054 127.79588 75.30753 127.93965 75.10464 128.08339 74.897 128.22718 74.68365 128.37093 74.46472 128.51471 74.23949 128.65847 74.00797 128.80222 73.76958 128.94599 73.52394 129.08974 73.27072 129.23352 73.0091 129.37726 72.73866 129.52103 72.4592 129.6648 72.16998 129.80855 71.86987 129.95233 71.55829 130.09607 71.23509 130.23986 70.8982 130.3836 70.54836 130.52738 70.18279 130.67115 69.80164 130.81488 69.40317 130.95865 68.98563 131.10242 68.54768 131.24619 68.08788 131.38996 67.60408 131.5337 67.09381 131.67748 66.55508 131.82123 65.98592 131.965 65.38109 132.10875 64.73904 132.25252 64.05554 132.39627 63.32489 132.54006 62.5426 132.6838 61.70326 132.82756 60.7988 132.97133 59.82162 133.1151 58.76173 133.25887 57.60727 133.40262 56.34425 133.54639 54.95891 133.69014 53.42863 133.8339 51.72792 133.97768 49.82634 134.12143 47.68971 134.2652 45.26956 134.40895 42.49783 134.55272 39.29306 134.69649 35.54309 134.84024 31.096 134.98401 25.72897 135.12776 19.14006 135.27153 10.83015 135.4153 0"/>
</g>
<use data-text="x" xlink:href="#font_3_2" transform="matrix(9.962899,0,0,-9.963197,189.11429,82.298168)"/>
<use data-text="y" xlink:href="#font_3_3" transform="matrix(9.962899,0,0,-9.963197,104.69373,12.912994)"/>
<path transform="matrix(1.00003,0,0,-1.00006,-4.702553,167.78029)" d="M143.30191 129.32546H198.90348V159.21364H143.30191Z" fill="#ffffff"/>
<path transform="matrix(1.00003,0,0,-1.00006,-4.702553,167.78029)" stroke-width=".3985" stroke-linecap="butt" stroke-miterlimit="10" stroke-linejoin="miter" fill="none" stroke="#000000" d="M143.30191 129.32546H198.90348V159.21364H143.30191Z"/>
<path transform="matrix(1.00003,0,0,-1.00006,141.99085,17.026246)" stroke-width=".79701" stroke-linecap="butt" stroke-miterlimit="10" stroke-linejoin="miter" fill="none" stroke="#ff0000" d="M0 0H8.50412 17.00826"/>
<use data-text="t" xlink:href="#font_2_12" transform="matrix(9.962899,0,0,-9.963197,161.39044,20.015427)"/>
<use data-text="a" xlink:href="#font_2_8" transform="matrix(9.962899,0,0,-9.963197,165.25605,20.015427)"/>
<use data-text="n" xlink:href="#font_2_10" transform="matrix(9.962899,0,0,-9.963197,170.23749,20.015427)"/>
<use data-text="(" xlink:href="#font_2_1" transform="matrix(9.962899,0,0,-9.963197,175.7669,20.015427)"/>
<use data-text="x" xlink:href="#font_3_2" transform="matrix(9.962899,0,0,-9.963197,179.65598,20.015427)"/>
<use data-text=")" xlink:href="#font_2_2" transform="matrix(9.962899,0,0,-9.963197,185.35016,20.015427)"/>
<path transform="matrix(1.00003,0,0,-1.00006,141.99085,29.978028)" stroke-width=".79701" stroke-linecap="butt" stroke-dasharray="2.98883,2.98883" stroke-miterlimit="10" stroke-linejoin="miter" fill="none" stroke="#0000ff" d="M0 0H8.50412 17.00826"/>
<use data-text="c" xlink:href="#font_2_9" transform="matrix(9.962899,0,0,-9.963197,161.94446,32.96721)"/>
<use data-text="o" xlink:href="#font_2_11" transform="matrix(9.962899,0,0,-9.963197,166.36798,32.96721)"/>
<use data-text="t" xlink:href="#font_2_12" transform="matrix(9.962899,0,0,-9.963197,171.34943,32.96721)"/>
<use data-text="(" xlink:href="#font_2_1" transform="matrix(9.962899,0,0,-9.963197,175.21506,32.96721)"/>
<use data-text="x" xlink:href="#font_3_2" transform="matrix(9.962899,0,0,-9.963197,179.10297,32.96721)"/>
<use data-text=")" xlink:href="#font_2_2" transform="matrix(9.962899,0,0,-9.963197,184.79715,32.96721)"/>
</svg>
