<svg xmlns="http://www.w3.org/2000/svg" xmlns:xlink="http://www.w3.org/1999/xlink" xmlns:inkscape="http://www.inkscape.org/namespaces/inkscape" version="1.1" width="190" height="192" viewBox="0 0 190 192">
<defs>
<path id="font_1_5" d="M.1269989 .07699585 .23298645 .18003845C.3889923 .31811524 .44898988 .3721466 .44898988 .47216798 .44898988 .5860901 .35899354 .6660156 .23699951 .6660156 .12399292 .6660156 .049987794 .57411196 .049987794 .48516847 .049987794 .4291687 .099990848 .4291687 .102996829 .4291687 .11999512 .4291687 .15499878 .44117738 .15499878 .48217774 .15499878 .5081787 .13699341 .5341797 .101989749 .5341797 .09399414 .5341797 .09199524 .5341797 .08898926 .5331726 .11199951 .59806826 .1659851 .63500979 .22399903 .63500979 .31498719 .63500979 .35798646 .5541382 .35798646 .47216798 .35798646 .39215089 .30799867 .31311036 .25299073 .25108338L.06098938 .036987306C.049987794 .025985718 .049987794 .023986817 .049987794 0H.42099L.44898988 .17404175H.42399598C.4189911 .14402771 .4119873 .1000061 .4019928 .084991458 .394989 .07699585 .32899476 .07699585 .30699159 .07699585H.1269989Z"/>
<path id="font_1_7" d="M.2939911 .16503906V.07800293C.2939911 .041992189 .2919922 .0309906 .21798706 .0309906H.19699097V0C.23799134 .0029907227 .2899933 .0029907227 .33198548 .0029907227 .37399293 .0029907227 .4269867 .0029907227 .46798707 0V.0309906H.44699098C.37298585 .0309906 .37098695 .041992189 .37098695 .07800293V.16503906H.47099305V.19602967H.37098695V.65075686C.37098695 .67074587 .37098695 .6767578 .35499574 .6767578 .34599305 .6767578 .34298707 .6767578 .33499146 .66474917L.027999878 .19602967V.16503906H.2939911M.2999878 .19602967H.055999757L.2999878 .5688019V.19602967Z"/>
<path id="font_1_8" d="M.13198853 .327713V.35173036C.13198853 .6047821 .2559967 .64100649 .30699159 .64100649 .33099366 .64100649 .37298585 .634964 .394989 .6007538 .37998963 .6007538 .33999635 .6007538 .33999635 .5557556 .33999635 .524765 .3639984 .5097656 .38598634 .5097656 .4019928 .5097656 .43199159 .51875308 .43199159 .5577545 .43199159 .6178589 .3880005 .6660156 .30499269 .6660156 .1769867 .6660156 .041992189 .5367584 .041992189 .31570436 .041992189 .048553468 .1579895-.022460938 .25099183-.022460938 .3619995-.022460938 .45700074 .07156372 .45700074 .2036438 .45700074 .33070375 .36799623 .4267578 .25698854 .4267578 .18899536 .4267578 .1519928 .37573243 .13198853 .327713M.25099183 .0055389406C.18798828 .0055389406 .1579895 .06556702 .1519928 .080566409 .13398743 .127594 .13398743 .2076416 .13398743 .22564698 .13398743 .30369569 .1659851 .40374757 .2559967 .40374757 .27198792 .40374757 .31799317 .40374757 .34899903 .34172059 .36698915 .30470277 .36698915 .2536621 .36698915 .20463562 .36698915 .15661621 .36698915 .10658264 .34999085 .0705719 .31999208 .010528564 .27398683 .0055389406 .25099183 .0055389406Z"/>
<path id="font_1_9" d="M.16299439 .4569702C.116989139 .486969 .11299133 .52098086 .11299133 .5379791 .11299133 .598999 .17799378 .64100649 .24899292 .64100649 .32199098 .64100649 .38598634 .58898928 .38598634 .51698306 .38598634 .45996095 .34700013 .4119568 .2869873 .37695313L.16299439 .4569702M.30899049 .36193849C.3809967 .3989563 .42999269 .45095826 .42999269 .51698306 .42999269 .6090088 .34098817 .6660156 .25 .6660156 .1499939 .6660156 .068984989 .59199526 .068984989 .49897767 .068984989 .4809723 .070999149 .43595887 .11299133 .38894654 .12399292 .37695313 .16099549 .35194398 .18598938 .33494569 .12799073 .30592347 .041992189 .24984741 .041992189 .15072632 .041992189 .04458618 .14399719-.022460938 .24899292-.022460938 .3619995-.022460938 .45700074 .06060791 .45700074 .16773987 .45700074 .20379639 .44599916 .24885559 .4079895 .2909088 .3889923 .31193543 .37298585 .3219452 .30899049 .36193849M.20899964 .3199463 .33198548 .24183655C.3600006 .2228241 .40699769 .19277954 .40699769 .13169861 .40699769 .05760193 .33198548 .0055389406 .25 .0055389406 .1639862 .0055389406 .09199524 .067611698 .09199524 .15072632 .09199524 .20880127 .12399292 .27288819 .20899964 .3199463Z"/>
<path id="font_1_4" d="M.2939911 .64004519C.2939911 .66400149 .2939911 .6660156 .2709961 .6660156 .20899964 .60227969 .12098694 .60227969 .08898926 .60227969V.57128909C.10899353 .57128909 .16799927 .57128909 .21998596 .5972748V.07902527C.21998596 .042999269 .21699524 .0309906 .1269989 .0309906H.09498596V0C.12998963 .0029907227 .21699524 .0029907227 .25698854 .0029907227 .29699708 .0029907227 .38398744 .0029907227 .4189911 0V.0309906H.3869934C.29699708 .0309906 .2939911 .041992189 .2939911 .07902527V.64004519Z"/>
<path id="font_1_3" d="M.45999146 .31976319C.45999146 .39982606 .45498658 .47988893 .41999818 .5539398 .37399293 .65000918 .2919922 .6660156 .25 .6660156 .18998719 .6660156 .116989139 .64001467 .07598877 .54693606 .04399109 .47789 .038986207 .39982606 .038986207 .31976319 .038986207 .24472046 .042999269 .15464783 .083999637 .07859802 .1269989-.0024719239 .19999695-.022460938 .24899292-.022460938 .30299378-.022460938 .3789978-.0014648438 .4229889 .09359741 .45498658 .16265869 .45999146 .2407074 .45999146 .31976319M.24899292-.00047302247C.20999146-.00047302247 .15098572 .024551392 .1329956 .12062073 .12199402 .18066406 .12199402 .2727356 .12199402 .3317871 .12199402 .39582826 .12199402 .46188355 .12998963 .5159149 .14898682 .63500979 .22399903 .64401248 .24899292 .64401248 .28199769 .64401248 .34799195 .6259918 .36698915 .52693179 .3769989 .47088624 .3769989 .39482118 .3769989 .3317871 .3769989 .25672914 .3769989 .18867493 .3659973 .12461853 .35099793 .029556275 .2939911-.00047302247 .24899292-.00047302247Z"/>
<path id="font_2_1" d="M.6589966 .23046875C.6759949 .23046875 .69400027 .23046875 .69400027 .25045777 .69400027 .27046205 .6759949 .27046205 .6589966 .27046205H.117996219C.100997928 .27046205 .08299255 .27046205 .08299255 .25045777 .08299255 .23046875 .100997928 .23046875 .117996219 .23046875H.6589966Z"/>
<path id="font_1_6" d="M.2899933 .35191346C.37199403 .37893678 .42999269 .4490509 .42999269 .52809146 .42999269 .6100464 .34199525 .6660156 .24598694 .6660156 .14498902 .6660156 .068984989 .60606387 .068984989 .53009036 .068984989 .49710084 .09098816 .47808839 .11999512 .47808839 .15098572 .47808839 .17098999 .50009158 .17098999 .5290985 .17098999 .57910159 .12399292 .57910159 .10899353 .57910159 .13999939 .62802127 .20599365 .64100649 .24198914 .64100649 .2829895 .64100649 .33799745 .6190338 .33799745 .5290985 .33799745 .51708987 .33599855 .45906068 .30999757 .4149933 .27999879 .36691285 .24598694 .36390687 .22099304 .36291505 .21299744 .36190797 .18899536 .35990907 .18199158 .35990907 .17399597 .35890199 .16699219 .35791017 .16699219 .3479004 .16699219 .33691407 .17399597 .33691407 .19099427 .33691407H.23498535C.31698609 .33691407 .35398866 .2686615 .35398866 .17037964 .35398866 .034469606 .2849884 .0055389406 .24099732 .0055389406 .19799805 .0055389406 .12298584 .022491456 .08799744 .08137512 .12298584 .07637024 .1539917 .09837341 .1539917 .1363678 .1539917 .17237854 .1269989 .19238281 .09799194 .19238281 .07398987 .19238281 .041992189 .17837525 .041992189 .1343689 .041992189 .043441774 .1349945-.022460938 .24398804-.022460938 .3659973-.022460938 .45700074 .06838989 .45700074 .17037964 .45700074 .252594 .3939972 .33088685 .2899933 .35191346Z"/>
<clipPath id="clip_3">
<path transform="matrix(1.00003,0,0,-1.00003,2.0536423,187.07523)" d="M0 0H181.94062V181.9403H0Z"/>
</clipPath>
<path id="font_4_1" d="M.33399964 .30233766C.33999635 .32835389 .36299134 .42037965 .43299867 .42037965 .43798829 .42037965 .46199037 .42037965 .48298646 .40734864 .45498658 .402359 .43499757 .37734986 .43499757 .35334779 .43499757 .33735658 .44599916 .31835938 .47299195 .31835938 .49499513 .31835938 .5269928 .3363495 .5269928 .37635804 .5269928 .42837525 .46798707 .4423828 .43399049 .4423828 .37599183 .4423828 .34098817 .38935853 .32899476 .36634828 .3039856 .43237306 .25 .4423828 .22099304 .4423828 .116989139 .4423828 .05999756 .3133545 .05999756 .28834535 .05999756 .27833558 .069992069 .27833558 .07199097 .27833558 .07998657 .27833558 .08299255 .28033448 .084991458 .28933717 .11898804 .39535523 .18499756 .42037965 .21899414 .42037965 .23799134 .42037965 .272995 .4113617 .272995 .35334779 .272995 .32235719 .2559967 .25532533 .21899414 .11528015 .20298767 .053268434 .16799927 .011245728 .12399292 .011245728 .117996219 .011245728 .09498596 .011245728 .07398987 .024276734 .09899902 .029266358 .12098694 .05027771 .12098694 .07827759 .12098694 .105270389 .09899902 .11328125 .083999637 .11328125 .053985597 .11328125 .0289917 .08728027 .0289917 .055267335 .0289917 .009246826 .07899475-.0107421879 .12298584-.0107421879 .18899536-.0107421879 .22499085 .059280397 .22799683 .0652771 .23999024 .028274537 .27598573-.0107421879 .33599855-.0107421879 .43899537-.0107421879 .49598695 .118270877 .49598695 .14328003 .49598695 .1532898 .4869995 .1532898 .48399354 .1532898 .47499085 .1532898 .47299195 .14929199 .47099305 .14228821 .43798829 .03527832 .36999513 .011245728 .33799745 .011245728 .29899598 .011245728 .2829895 .043273927 .2829895 .07727051 .2829895 .09927368 .2889862 .121276859 .2999878 .16529846L.33399964 .30233766Z"/>
<path id="font_4_2" d="M.48599244 .38136292C.48999024 .39537049 .48999024 .39736939 .48999024 .40437318 .48999024 .42237855 .47599793 .43138124 .46099855 .43138124 .45098878 .43138124 .43499757 .42536927 .42599488 .41036988 .42399598 .405365 .41600038 .37435914 .4119873 .35635377 .40499879 .33035279 .397995 .30334474 .3919983 .27633668L.34700013 .09628296C.34298707 .08126831 .2999878 .011245728 .23399353 .011245728 .18299866 .011245728 .17199707 .055267335 .17199707 .0922699 .17199707 .1382904 .18899536 .20030213 .22299195 .28833009 .23899842 .3293457 .24299622 .3403473 .24299622 .36035157 .24299622 .405365 .21099854 .4423828 .16099549 .4423828 .06599426 .4423828 .0289917 .29733277 .0289917 .28833009 .0289917 .27833558 .038986207 .27833558 .040985109 .27833558 .050994874 .27833558 .051986696 .28033448 .056991579 .29634095 .083999637 .3903656 .12399292 .42037965 .1579895 .42037965 .1659851 .42037965 .18299866 .42037965 .18299866 .3883667 .18299866 .36335755 .17298889 .3373413 .1659851 .31834413 .12599182 .21231079 .10798645 .1552887 .10798645 .10827637 .10798645 .019256592 .17098999-.0107421879 .22999573-.0107421879 .2689972-.0107421879 .30299378 .0062561037 .33099366 .03425598 .31799317-.017745972 .30599977-.06674194 .2659912-.11973572 .23999024-.15385437 .20199585-.18309021 .1559906-.18309021 .14199829-.18309021 .09700012-.18005371 .07998657-.14074707 .09599304-.14074707 .10899353-.14074707 .12298584-.1287384 .1329956-.11973572 .14299011-.10673523 .14299011-.08773804 .14299011-.056747438 .115997318-.052734376 .10598755-.052734376 .08299255-.052734376 .049987794-.068740848 .049987794-.11773682 .049987794-.16796875 .09399414-.20507813 .1559906-.20507813 .25898744-.20507813 .3619995-.11373901 .3899994-.00074768069L.48599244 .38136292Z"/>
<path id="font_1_10" d="M.68699648 .32714845C.70199587 .32714845 .72099307 .32714845 .72099307 .34713746 .72099307 .36714173 .70199587 .36714173 .6879883 .36714173H.08898926C.07499695 .36714173 .055999757 .36714173 .055999757 .34713746 .055999757 .32714845 .07499695 .32714845 .08999634 .32714845H.68699648M.6879883 .13284302C.70199587 .13284302 .72099307 .13284302 .72099307 .15284729 .72099307 .17285156 .70199587 .17285156 .68699648 .17285156H.08999634C.07499695 .17285156 .055999757 .17285156 .055999757 .15284729 .055999757 .13284302 .07499695 .13284302 .08898926 .13284302H.6879883Z"/>
<path id="font_1_12" d="M.1769867 .69433596 .032989503 .68333438V.6523285C.102996829 .6523285 .11099243 .6453247 .11099243 .5962982V.07601929C.11099243 .0309906 .099990848 .0309906 .032989503 .0309906V0C.06599426 .0009918213 .11898804 .0029907227 .14399719 .0029907227 .16899109 .0029907227 .21798706 .0009918213 .25498963 0V.0309906C.18798828 .0309906 .1769867 .0309906 .1769867 .07601929V.69433596Z"/>
<path id="font_1_13" d="M.47099305 .21424866C.47099305 .34223939 .37098695 .4482422 .25 .4482422 .125 .4482422 .027999878 .3392334 .027999878 .21424866 .027999878 .085250858 .13198853-.0107421879 .24899292-.0107421879 .36999513-.0107421879 .47099305 .087249759 .47099305 .21424866M.25 .014251709C.20698548 .014251709 .16299439 .035247804 .13598633 .08125305 .11099243 .12524414 .11099243 .18624878 .11099243 .22224427 .11099243 .26124574 .11099243 .31523133 .1349945 .35923768 .1619873 .40522767 .20899964 .426239 .24899292 .426239 .29299928 .426239 .33599855 .40423585 .3619995 .36123658 .3880005 .3182373 .3880005 .26023866 .3880005 .22224427 .3880005 .18624878 .3880005 .13224793 .3659973 .08824158 .34399415 .04324341 .2999878 .014251709 .25 .014251709Z"/>
<path id="font_1_11" d="M.22200012 .17240906C.1349945 .17240906 .1349945 .2723999 .1349945 .2953949 .1349945 .3223877 .13598633 .35438539 .15098572 .37937928 .15899658 .39137269 .18199158 .41937257 .22200012 .41937257 .30899049 .41937257 .30899049 .3193817 .30899049 .29638673 .30899049 .26939393 .30799867 .23739624 .29299928 .21240235 .2849884 .20040894 .2619934 .17240906 .22200012 .17240906M.10598755 .13330078C.10598755 .1373291 .10598755 .16040039 .12298584 .18040467 .1619873 .15240479 .20298767 .14941406 .22200012 .14941406 .31498719 .14941406 .38398744 .21839905 .38398744 .2953949 .38398744 .3323822 .36799623 .36938478 .34298707 .39237977 .3789978 .42637635 .4149933 .43138124 .43299867 .43138124 .43499757 .43138124 .43998719 .43138124 .44299317 .43037416 .43199159 .42637635 .4269867 .41537477 .4269867 .40338136 .4269867 .38638307 .43998719 .3743744 .45599366 .3743744 .46598817 .3743744 .4850006 .38137818 .4850006 .40437318 .4850006 .42137147 .47299195 .45336915 .43399049 .45336915 .4139862 .45336915 .36999513 .44737245 .32798768 .40637208 .28599549 .43937684 .24398804 .4423828 .22200012 .4423828 .1289978 .4423828 .05999756 .37338258 .05999756 .29638673 .05999756 .25239564 .08198547 .21440125 .10699463 .19340515 .09399414 .17840576 .07598877 .14538574 .07598877 .11013794 .07598877 .07891846 .08898926 .04083252 .11999512 .020828248 .05999756 .003829956 .027999878-.039138795 .027999878-.07911682 .027999878-.15107727 .1269989-.20605469 .24899292-.20605469 .36698915-.20605469 .47099305-.15507508 .47099305-.07711792 .47099305-.042144777 .45700074 .008834839 .4059906 .036834718 .35299684 .064834598 .29499818 .064834598 .23399353 .064834598 .20899964 .064834598 .1659851 .064834598 .15899658 .065841678 .1269989 .069869998 .10598755 .10107422 .10598755 .13330078M.25-.18305969C.14898682-.18305969 .07998657-.13209534 .07998657-.07911682 .07998657-.03314209 .117996219 .003829956 .1619873 .0068359377H.22099304C.30699159 .0068359377 .4189911 .0068359377 .4189911-.07911682 .4189911-.13308716 .34799195-.18305969 .25-.18305969Z"/>
<path id="font_5_1" d="M.2639923 .66430667C.2649994 .66630557 .2679901 .67930606 .2679901 .68029788 .2679901 .68530276 .2639923 .6943054 .2519989 .6943054 .23199463 .6943054 .14898682 .6863098 .12399292 .6843109 .115997318 .68330386 .101989749 .682312 .101989749 .66130068 .101989749 .64730837 .115997318 .64730837 .12799073 .64730837 .17599488 .64730837 .17599488 .64030459 .17599488 .63230898 .17599488 .62532046 .1659851 .58532717 .1599884 .5623474L.13699341 .4703827C.12799073 .43640138 .07299805 .21731568 .070999149 .20431519 .06599426 .18029785 .06599426 .16729737 .06599426 .1552887 .06599426 .054244996 .12998963-.009765625 .21299744-.009765625 .33799745-.009765625 .47099305 .12626648 .47099305 .27433778 .47099305 .39138795 .3899994 .44140626 .32099916 .44140626 .2689972 .44140626 .22499085 .4123993 .19499207 .38638307L.2639923 .66430667M.21398926 .018234253C.16499329 .018234253 .13699341 .06124878 .13699341 .120269779 .13699341 .1572876 .1459961 .19129944 .17399597 .3043518 .17999268 .32336427 .17999268 .32536317 .19898987 .34736634 .23699951 .39138795 .28199769 .4133911 .31799317 .4133911 .35699464 .4133911 .3909912 .38438417 .3909912 .31636048 .3909912 .27534486 .36898805 .17329407 .33898927 .11526489 .31498719 .06625366 .2649994 .018234253 .21398926 .018234253Z"/>
<path id="font_1_1" d="M.33099366-.2400055C.33099366-.23701477 .33099366-.23500061 .31399537-.21800232 .18899536-.0920105 .15699768 .09700012 .15699768 .25 .15699768 .42399598 .19499207 .59799197 .31799317 .72299197 .33099366 .73498538 .33099366 .7369995 .33099366 .73999026 .33099366 .746994 .32699586 .75 .32099916 .75 .31098939 .75 .22099304 .6819916 .1619873 .5549927 .11099243 .44499208 .09899902 .33399964 .09899902 .25 .09899902 .17199707 .10998535 .050994874 .16499329-.06201172 .22499085-.18501282 .31098939-.25 .32099916-.25 .32699586-.25 .33099366-.24700928 .33099366-.2400055Z"/>
<path id="font_1_2" d="M.2889862 .25C.2889862 .32798768 .27799989 .44898988 .22299195 .56199648 .16299439 .68499758 .07699585 .75 .066986087 .75 .06098938 .75 .056991579 .74598696 .056991579 .73999026 .056991579 .7369995 .056991579 .73498538 .07598877 .71699526 .17399597 .6179962 .23098755 .45899964 .23098755 .25 .23098755 .07899475 .19400025-.09700012 .069992069-.2230072 .056991579-.23500061 .056991579-.23701477 .056991579-.2400055 .056991579-.2460022 .06098938-.25 .066986087-.25 .07699585-.25 .16699219-.18200684 .22599793-.055007936 .2769928 .054992677 .2889862 .16600037 .2889862 .25Z"/>
</defs>
<path transform="matrix(1.00003,0,0,-1.00003,2.0536423,187.07523)" stroke-width=".3985" stroke-linecap="butt" stroke-miterlimit="10" stroke-linejoin="miter" fill="none" stroke="#bfbfbf" d="M49.62016 0V181.9403M82.70027 0V181.9403M115.7804 0V181.9403M148.8605 0V181.9403M181.94062 0V181.9403"/>
<path transform="matrix(1.00003,0,0,-1.00003,2.0536423,187.07523)" stroke-width=".3985" stroke-linecap="butt" stroke-miterlimit="10" stroke-linejoin="miter" fill="none" stroke="#bfbfbf" d="M0 0H181.94062M0 30.32338H181.94062M0 60.64676H181.94062M0 121.29353H181.94062M0 151.61693H181.94062M0 181.9403H181.94062"/>
<path transform="matrix(1.00003,0,0,-1.00003,2.0536423,187.07523)" stroke-width=".19925" stroke-linecap="butt" stroke-miterlimit="10" stroke-linejoin="miter" fill="none" stroke="#7f807f" d="M49.62016 88.84425V93.09602M82.70027 88.84425V93.09602M115.7804 88.84425V93.09602M148.8605 88.84425V93.09602M181.94062 88.84425V93.09602"/>
<path transform="matrix(1.00003,0,0,-1.00003,2.0536423,187.07523)" stroke-width=".19925" stroke-linecap="butt" stroke-miterlimit="10" stroke-linejoin="miter" fill="none" stroke="#7f807f" d="M14.4138 0H18.66628M14.4138 30.32338H18.66628M14.4138 60.64676H18.66628M14.4138 121.29353H18.66628M14.4138 151.61693H18.66628M14.4138 181.9403H18.66628"/>
<path transform="matrix(1.00003,0,0,-1.00003,2.0536423,187.07523)" stroke-width=".3985" stroke-linecap="butt" stroke-miterlimit="10" stroke-linejoin="miter" fill="none" stroke="#000000" d="M0 90.97015H179.94809"/>
<path transform="matrix(1.00003,0,0,-1.00003,182.00714,96.10234)" d="M1.99252 0-1.19551 1.59401 0 0-1.19551-1.59401"/>
<path transform="matrix(1.00003,0,0,-1.00003,2.0536423,187.07523)" stroke-width=".3985" stroke-linecap="butt" stroke-miterlimit="10" stroke-linejoin="miter" fill="none" stroke="#000000" d="M16.54005 0V179.94779"/>
<path transform="matrix(0,-1.00003,-1.00003,-0,18.59419,7.12204)" d="M1.99252 0-1.19551 1.59401 0 0-1.19551-1.59401"/>
<use data-text="2" xlink:href="#font_1_5" transform="matrix(9.962899,0,0,-9.962899,49.18406,108.16885)"/>
<use data-text="4" xlink:href="#font_1_7" transform="matrix(9.962899,0,0,-9.962899,82.26605,108.16885)"/>
<use data-text="6" xlink:href="#font_1_8" transform="matrix(9.962899,0,0,-9.962899,115.347049,108.16885)"/>
<use data-text="8" xlink:href="#font_1_9" transform="matrix(9.962899,0,0,-9.962899,148.42804,108.16885)"/>
<use data-text="1" xlink:href="#font_1_4" transform="matrix(9.962899,0,0,-9.962899,179.01795,108.16885)"/>
<use data-text="0" xlink:href="#font_1_3" transform="matrix(9.962899,0,0,-9.962899,183.9994,108.16885)"/>
<use data-text="&#x2212;" xlink:href="#font_2_1" transform="matrix(9.962899,0,0,-9.962899,.21759033,189.87032)"/>
<use data-text="3" xlink:href="#font_1_6" transform="matrix(9.962899,0,0,-9.962899,7.9668276,189.87032)"/>
<use data-text="&#x2212;" xlink:href="#font_2_1" transform="matrix(9.962899,0,0,-9.962899,.21759033,159.5464)"/>
<use data-text="2" xlink:href="#font_1_5" transform="matrix(9.962899,0,0,-9.962899,7.9668276,159.5464)"/>
<use data-text="&#x2212;" xlink:href="#font_2_1" transform="matrix(9.962899,0,0,-9.962899,.21759033,129.22148)"/>
<use data-text="1" xlink:href="#font_1_4" transform="matrix(9.962899,0,0,-9.962899,7.9668276,129.22148)"/>
<use data-text="1" xlink:href="#font_1_4" transform="matrix(9.962899,0,0,-9.962899,7.96682,68.98868)"/>
<use data-text="2" xlink:href="#font_1_5" transform="matrix(9.962899,0,0,-9.962899,7.96682,38.663774)"/>
<use data-text="3" xlink:href="#font_1_6" transform="matrix(9.962899,0,0,-9.962899,7.96682,8.339859)"/>
<g clip-path="url(#clip_3)">
<path transform="matrix(1.00003,0,0,-1.00003,2.0536423,187.07523)" stroke-width="1.99255" stroke-linecap="butt" stroke-miterlimit="10" stroke-linejoin="miter" fill="none" stroke="#0000ff" d="M18.60754 0 18.6509 .91426 18.69571 1.82854 18.74187 2.74281 18.78833 3.65707 18.83612 4.57135 18.88411 5.48563 18.93387 6.3999 18.98334 7.31416 19.03627 8.22844 19.08937 9.14272 19.14229 10.05698 19.19685 10.97127 19.25311 11.88554 19.31099 12.79982 19.36906 13.71408 19.42859 14.62836 19.48962 15.54263 19.55249 16.4569 19.61551 17.37117 19.68166 18.28545 19.74783 19.19972 19.81561 20.11398 19.88362 21.02826 19.95457 21.94255 20.02753 22.85681 20.10013 23.77109 20.17638 24.68536 20.25229 25.59964 20.33185 26.5139 20.41125 27.42818 20.49228 28.34245 20.57664 29.25671 20.661 30.17099 20.74883 31.08527 20.83815 31.99954 20.92896 32.91382 21.02158 33.8281 21.11601 34.74237 21.21194 35.65663 21.31136 36.5709 21.41208 37.48518 21.5148 38.39946 21.62047 39.31372 21.7265 40.228 21.83731 41.14227 21.94814 42.05653 22.06244 42.97081 22.1797 43.8851 22.29895 44.79938 22.4197 45.71364 22.54376 46.62791 22.67111 47.54219 22.80013 48.45645 22.9326 49.37073 23.06805 50.285 23.20535 51.19928 23.34628 52.11354 23.49016 53.02782 23.63737 53.9421 23.78624 54.85637 23.94006 55.77065 24.09552 56.68492 24.25597 57.5992 24.41806 58.51346 24.58511 59.42773 24.754 60.34201 24.92767 61.25627 25.10483 62.17055 25.28673 63.08482 25.47035 63.9991 25.65907 64.91338 25.85258 65.82765 26.04959 66.74193 26.24974 67.6562 26.4548 68.57047 26.66487 69.48474 26.87842 70.39902 27.09656 71.3133 27.32002 72.22757 27.54662 73.14185 27.78017 74.0561 28.01653 74.97038 28.25818 75.88466 28.50612 76.79893 28.75934 77.71321 29.01752 78.62749 29.28052 79.54176 29.5503 80.45604 29.82486 81.3703 30.10455 82.28458 30.39067 83.19885 30.68344 84.11313 30.9828 85.02739 31.28716 85.94167 31.59845 86.85594 31.91617 87.77023 32.24202 88.68451 32.57281 89.59877 32.91206 90.51305 33.25375 91.42732 33.60657 92.3416 33.96696 93.25587 34.33498 94.17015 34.71077 95.08441 35.09418 95.99869 35.48586 96.91296 35.88612 97.82722 36.29451 98.74152 36.71178 99.65579 37.13771 100.57007 37.57239 101.48434 38.01648 102.3986 38.47018 103.31288 38.93312 104.22716 39.4055 105.14143 39.88881 106.0557 40.38155 106.96997 40.88501 107.88425 41.39876 108.79852 41.92424 109.71281 42.45998 110.62708 43.0073 111.54135 43.56601 112.45563 44.13661 113.3699 44.72 114.28416 45.31477 115.19844 45.9223 116.11272 46.54254 117.027 47.17636 117.94127 47.82274 118.85553 48.48367 119.7698 49.15802 120.6841 49.84674 121.59837 50.54987 122.51265 51.26852 123.42691 52.0016 124.34119 52.74985 125.25546 53.51485 126.16972 54.2957 127.084 55.09277 127.99828 55.9077 128.91255 56.7385 129.82682 57.58733 130.74109 58.4542 131.65538 59.33943 132.56964 60.24217 133.48392 61.16478 134.3982 62.10823 135.31247 63.06937 136.22673 64.05249 137.141 65.056 138.05529 66.08049 138.96955 67.1255 139.88382 68.19496 140.7981 69.28513 141.71237 70.39842 142.62665 71.53622 143.54093 72.69734 144.4552 73.88326 145.36946 75.09349 146.28374 76.33084 147.19802 77.59335 148.11229 78.88165 149.02655 80.19841 149.94083 81.54362 150.8551 82.91628 151.76937 84.31671 152.68364 85.74828 153.59793 87.20909 154.5122 88.70265 155.42647 90.2245 156.34075 91.78125 157.25502 93.37074 158.16928 94.99286 159.08356 96.64984 159.99784 98.34187 160.91211 100.06898 161.82637 101.8315 162.74065 103.63402 163.65493 105.47162 164.5692 107.34991 165.48348 109.2669 166.39775 111.2246 167.31203 113.22577 168.22629 115.26648 169.14057 117.35251 170.05484 119.47957 170.9691 121.65257 171.88338 123.87276 172.79766 126.1391 173.71193 128.45468 174.62619 130.8163 175.54048 133.23131 176.45476 135.6946 177.36902 138.21102 178.2833 140.77852 179.19757 143.40064 180.11185 146.08327 181.02611 148.8605 181.94039"/>
</g>
<use data-text="x" xlink:href="#font_4_1" transform="matrix(9.962899,0,0,-9.962899,174.82285,92.564388)"/>
<use data-text="y" xlink:href="#font_4_2" transform="matrix(9.962899,0,0,-9.962899,22.11824,16.079087)"/>
<use data-text="=" xlink:href="#font_1_10" transform="matrix(9.962899,0,0,-9.962899,30.127488,16.079087)"/>
<use data-text="l" xlink:href="#font_1_12" transform="matrix(9.962899,0,0,-9.962899,40.628389,16.079087)"/>
<use data-text="o" xlink:href="#font_1_13" transform="matrix(9.962899,0,0,-9.962899,43.388116,16.079087)"/>
<use data-text="g" xlink:href="#font_1_11" transform="matrix(9.962899,0,0,-9.962899,48.36956,16.079087)"/>
<use data-text="b" xlink:href="#font_5_1" transform="matrix(6.9740097,0,0,-6.9740097,53.51319,18.51416)"/>
<use data-text="(" xlink:href="#font_1_1" transform="matrix(9.962899,0,0,-9.962899,57.515306,16.079087)"/>
<use data-text="x" xlink:href="#font_4_1" transform="matrix(9.962899,0,0,-9.962899,61.38942,16.079087)"/>
<use data-text=")" xlink:href="#font_1_2" transform="matrix(9.962899,0,0,-9.962899,67.08359,16.079087)"/>
</svg>
