<svg xmlns="http://www.w3.org/2000/svg" xmlns:xlink="http://www.w3.org/1999/xlink" xmlns:inkscape="http://www.inkscape.org/namespaces/inkscape" version="1.1" width="204" height="181" viewBox="0 0 204 181">
<defs>
<path id="font_1_1" d="M.6589966 .23046875C.6759949 .23046875 .69400027 .23046875 .69400027 .25045777 .69400027 .27046205 .6759949 .27046205 .6589966 .27046205H.117996219C.100997928 .27046205 .08299255 .27046205 .08299255 .25045777 .08299255 .23046875 .100997928 .23046875 .117996219 .23046875H.6589966Z"/>
<path id="font_2_6" d="M.16299439 .4569702C.116989139 .486969 .11299133 .52098086 .11299133 .5379791 .11299133 .598999 .17799378 .64100649 .24899292 .64100649 .32199098 .64100649 .38598634 .58898928 .38598634 .51698306 .38598634 .45996095 .34700013 .4119568 .2869873 .37695313L.16299439 .4569702M.30899049 .36193849C.3809967 .3989563 .42999269 .45095826 .42999269 .51698306 .42999269 .6090088 .34098817 .6660156 .25 .6660156 .1499939 .6660156 .068984989 .59199526 .068984989 .49897767 .068984989 .4809723 .070999149 .43595887 .11299133 .38894654 .12399292 .37695313 .16099549 .35194398 .18598938 .33494569 .12799073 .30592347 .041992189 .24984741 .041992189 .15072632 .041992189 .04458618 .14399719-.022460938 .24899292-.022460938 .3619995-.022460938 .45700074 .06060791 .45700074 .16773987 .45700074 .20379639 .44599916 .24885559 .4079895 .2909088 .3889923 .31193543 .37298585 .3219452 .30899049 .36193849M.20899964 .3199463 .33198548 .24183655C.3600006 .2228241 .40699769 .19277954 .40699769 .13169861 .40699769 .05760193 .33198548 .0055389406 .25 .0055389406 .1639862 .0055389406 .09199524 .067611698 .09199524 .15072632 .09199524 .20880127 .12399292 .27288819 .20899964 .3199463Z"/>
<path id="font_2_5" d="M.13198853 .327713V.35173036C.13198853 .6047821 .2559967 .64100649 .30699159 .64100649 .33099366 .64100649 .37298585 .634964 .394989 .6007538 .37998963 .6007538 .33999635 .6007538 .33999635 .5557556 .33999635 .524765 .3639984 .5097656 .38598634 .5097656 .4019928 .5097656 .43199159 .51875308 .43199159 .5577545 .43199159 .6178589 .3880005 .6660156 .30499269 .6660156 .1769867 .6660156 .041992189 .5367584 .041992189 .31570436 .041992189 .048553468 .1579895-.022460938 .25099183-.022460938 .3619995-.022460938 .45700074 .07156372 .45700074 .2036438 .45700074 .33070375 .36799623 .4267578 .25698854 .4267578 .18899536 .4267578 .1519928 .37573243 .13198853 .327713M.25099183 .0055389406C.18798828 .0055389406 .1579895 .06556702 .1519928 .080566409 .13398743 .127594 .13398743 .2076416 .13398743 .22564698 .13398743 .30369569 .1659851 .40374757 .2559967 .40374757 .27198792 .40374757 .31799317 .40374757 .34899903 .34172059 .36698915 .30470277 .36698915 .2536621 .36698915 .20463562 .36698915 .15661621 .36698915 .10658264 .34999085 .0705719 .31999208 .010528564 .27398683 .0055389406 .25099183 .0055389406Z"/>
<path id="font_2_4" d="M.2939911 .16503906V.07800293C.2939911 .041992189 .2919922 .0309906 .21798706 .0309906H.19699097V0C.23799134 .0029907227 .2899933 .0029907227 .33198548 .0029907227 .37399293 .0029907227 .4269867 .0029907227 .46798707 0V.0309906H.44699098C.37298585 .0309906 .37098695 .041992189 .37098695 .07800293V.16503906H.47099305V.19602967H.37098695V.65075686C.37098695 .67074587 .37098695 .6767578 .35499574 .6767578 .34599305 .6767578 .34298707 .6767578 .33499146 .66474917L.027999878 .19602967V.16503906H.2939911M.2999878 .19602967H.055999757L.2999878 .5688019V.19602967Z"/>
<path id="font_2_2" d="M.1269989 .07699585 .23298645 .18003845C.3889923 .31811524 .44898988 .3721466 .44898988 .47216798 .44898988 .5860901 .35899354 .6660156 .23699951 .6660156 .12399292 .6660156 .049987794 .57411196 .049987794 .48516847 .049987794 .4291687 .099990848 .4291687 .102996829 .4291687 .11999512 .4291687 .15499878 .44117738 .15499878 .48217774 .15499878 .5081787 .13699341 .5341797 .101989749 .5341797 .09399414 .5341797 .09199524 .5341797 .08898926 .5331726 .11199951 .59806826 .1659851 .63500979 .22399903 .63500979 .31498719 .63500979 .35798646 .5541382 .35798646 .47216798 .35798646 .39215089 .30799867 .31311036 .25299073 .25108338L.06098938 .036987306C.049987794 .025985718 .049987794 .023986817 .049987794 0H.42099L.44898988 .17404175H.42399598C.4189911 .14402771 .4119873 .1000061 .4019928 .084991458 .394989 .07699585 .32899476 .07699585 .30699159 .07699585H.1269989Z"/>
<path id="font_2_1" d="M.2939911 .64004519C.2939911 .66400149 .2939911 .6660156 .2709961 .6660156 .20899964 .60227969 .12098694 .60227969 .08898926 .60227969V.57128909C.10899353 .57128909 .16799927 .57128909 .21998596 .5972748V.07902527C.21998596 .042999269 .21699524 .0309906 .1269989 .0309906H.09498596V0C.12998963 .0029907227 .21699524 .0029907227 .25698854 .0029907227 .29699708 .0029907227 .38398744 .0029907227 .4189911 0V.0309906H.3869934C.29699708 .0309906 .2939911 .041992189 .2939911 .07902527V.64004519Z"/>
<path id="font_2_3" d="M.2899933 .35191346C.37199403 .37893678 .42999269 .4490509 .42999269 .52809146 .42999269 .6100464 .34199525 .6660156 .24598694 .6660156 .14498902 .6660156 .068984989 .60606387 .068984989 .53009036 .068984989 .49710084 .09098816 .47808839 .11999512 .47808839 .15098572 .47808839 .17098999 .50009158 .17098999 .5290985 .17098999 .57910159 .12399292 .57910159 .10899353 .57910159 .13999939 .62802127 .20599365 .64100649 .24198914 .64100649 .2829895 .64100649 .33799745 .6190338 .33799745 .5290985 .33799745 .51708987 .33599855 .45906068 .30999757 .4149933 .27999879 .36691285 .24598694 .36390687 .22099304 .36291505 .21299744 .36190797 .18899536 .35990907 .18199158 .35990907 .17399597 .35890199 .16699219 .35791017 .16699219 .3479004 .16699219 .33691407 .17399597 .33691407 .19099427 .33691407H.23498535C.31698609 .33691407 .35398866 .2686615 .35398866 .17037964 .35398866 .034469606 .2849884 .0055389406 .24099732 .0055389406 .19799805 .0055389406 .12298584 .022491456 .08799744 .08137512 .12298584 .07637024 .1539917 .09837341 .1539917 .1363678 .1539917 .17237854 .1269989 .19238281 .09799194 .19238281 .07398987 .19238281 .041992189 .17837525 .041992189 .1343689 .041992189 .043441774 .1349945-.022460938 .24398804-.022460938 .3659973-.022460938 .45700074 .06838989 .45700074 .17037964 .45700074 .252594 .3939972 .33088685 .2899933 .35191346Z"/>
<clipPath id="clip_3">
<path transform="matrix(1.00002,0,0,-1,6.581848,166.524)" d="M0 0H194.26856V161.39484H0Z"/>
</clipPath>
<path id="font_4_1" d="M.33399964 .30233766C.33999635 .32835389 .36299134 .42037965 .43299867 .42037965 .43798829 .42037965 .46199037 .42037965 .48298646 .40734864 .45498658 .402359 .43499757 .37734986 .43499757 .35334779 .43499757 .33735658 .44599916 .31835938 .47299195 .31835938 .49499513 .31835938 .5269928 .3363495 .5269928 .37635804 .5269928 .42837525 .46798707 .4423828 .43399049 .4423828 .37599183 .4423828 .34098817 .38935853 .32899476 .36634828 .3039856 .43237306 .25 .4423828 .22099304 .4423828 .116989139 .4423828 .05999756 .3133545 .05999756 .28834535 .05999756 .27833558 .069992069 .27833558 .07199097 .27833558 .07998657 .27833558 .08299255 .28033448 .084991458 .28933717 .11898804 .39535523 .18499756 .42037965 .21899414 .42037965 .23799134 .42037965 .272995 .4113617 .272995 .35334779 .272995 .32235719 .2559967 .25532533 .21899414 .11528015 .20298767 .053268434 .16799927 .011245728 .12399292 .011245728 .117996219 .011245728 .09498596 .011245728 .07398987 .024276734 .09899902 .029266358 .12098694 .05027771 .12098694 .07827759 .12098694 .105270389 .09899902 .11328125 .083999637 .11328125 .053985597 .11328125 .0289917 .08728027 .0289917 .055267335 .0289917 .009246826 .07899475-.0107421879 .12298584-.0107421879 .18899536-.0107421879 .22499085 .059280397 .22799683 .0652771 .23999024 .028274537 .27598573-.0107421879 .33599855-.0107421879 .43899537-.0107421879 .49598695 .118270877 .49598695 .14328003 .49598695 .1532898 .4869995 .1532898 .48399354 .1532898 .47499085 .1532898 .47299195 .14929199 .47099305 .14228821 .43798829 .03527832 .36999513 .011245728 .33799745 .011245728 .29899598 .011245728 .2829895 .043273927 .2829895 .07727051 .2829895 .09927368 .2889862 .121276859 .2999878 .16529846L.33399964 .30233766Z"/>
<path id="font_4_2" d="M.48599244 .38136292C.48999024 .39537049 .48999024 .39736939 .48999024 .40437318 .48999024 .42237855 .47599793 .43138124 .46099855 .43138124 .45098878 .43138124 .43499757 .42536927 .42599488 .41036988 .42399598 .405365 .41600038 .37435914 .4119873 .35635377 .40499879 .33035279 .397995 .30334474 .3919983 .27633668L.34700013 .09628296C.34298707 .08126831 .2999878 .011245728 .23399353 .011245728 .18299866 .011245728 .17199707 .055267335 .17199707 .0922699 .17199707 .1382904 .18899536 .20030213 .22299195 .28833009 .23899842 .3293457 .24299622 .3403473 .24299622 .36035157 .24299622 .405365 .21099854 .4423828 .16099549 .4423828 .06599426 .4423828 .0289917 .29733277 .0289917 .28833009 .0289917 .27833558 .038986207 .27833558 .040985109 .27833558 .050994874 .27833558 .051986696 .28033448 .056991579 .29634095 .083999637 .3903656 .12399292 .42037965 .1579895 .42037965 .1659851 .42037965 .18299866 .42037965 .18299866 .3883667 .18299866 .36335755 .17298889 .3373413 .1659851 .31834413 .12599182 .21231079 .10798645 .1552887 .10798645 .10827637 .10798645 .019256592 .17098999-.0107421879 .22999573-.0107421879 .2689972-.0107421879 .30299378 .0062561037 .33099366 .03425598 .31799317-.017745972 .30599977-.06674194 .2659912-.11973572 .23999024-.15385437 .20199585-.18309021 .1559906-.18309021 .14199829-.18309021 .09700012-.18005371 .07998657-.14074707 .09599304-.14074707 .10899353-.14074707 .12298584-.1287384 .1329956-.11973572 .14299011-.10673523 .14299011-.08773804 .14299011-.056747438 .115997318-.052734376 .10598755-.052734376 .08299255-.052734376 .049987794-.068740848 .049987794-.11773682 .049987794-.16796875 .09399414-.20507813 .1559906-.20507813 .25898744-.20507813 .3619995-.11373901 .3899994-.00074768069L.48599244 .38136292Z"/>
</defs>
<path transform="matrix(1.00002,0,0,-1,6.581848,166.524)" stroke-width=".19925" stroke-linecap="butt" stroke-miterlimit="10" stroke-linejoin="miter" fill="none" stroke="#7f807f" d="M0-2.12605V2.12605M24.28363-2.12605V2.12605M48.56728-2.12605V2.12605M72.8509-2.12605V2.12605M121.4182-2.12605V2.12605M145.70183-2.12605V2.12605M169.98548-2.12605V2.12605M194.26912-2.12605V2.12605"/>
<path transform="matrix(1.00002,0,0,-1,6.581848,166.524)" stroke-width=".19925" stroke-linecap="butt" stroke-miterlimit="10" stroke-linejoin="miter" fill="none" stroke="#7f807f" d="M95.0086 53.79828H99.26048M95.0086 107.59656H99.26048M95.0086 161.39484H99.26048"/>
<path transform="matrix(1.00002,0,0,-1,6.581848,166.524)" stroke-width=".3985" stroke-linecap="butt" stroke-miterlimit="10" stroke-linejoin="miter" fill="none" stroke="#000000" d="M0 0H192.27603"/>
<path transform="matrix(1.00002,0,0,-1,198.86173,166.524)" d="M1.99252 0-1.19551 1.59401 0 0-1.19551-1.59401"/>
<path transform="matrix(1.00002,0,0,-1,6.581848,166.524)" stroke-width=".3985" stroke-linecap="butt" stroke-miterlimit="10" stroke-linejoin="miter" fill="none" stroke="#000000" d="M97.13455 0V159.40232"/>
<path transform="matrix(0,-1,-1.00002,-0,103.718349,7.121689)" d="M1.99252 0-1.19551 1.59401 0 0-1.19551-1.59401"/>
<use data-text="&#x2212;" xlink:href="#font_1_1" transform="matrix(9.962799,0,0,-9.9626,.21672058,178.59)"/>
<use data-text="8" xlink:href="#font_2_6" transform="matrix(9.962799,0,0,-9.9626,7.9658815,178.59)"/>
<use data-text="&#x2212;" xlink:href="#font_1_1" transform="matrix(9.962799,0,0,-9.9626,24.501206,178.59)"/>
<use data-text="6" xlink:href="#font_2_5" transform="matrix(9.962799,0,0,-9.9626,32.250368,178.59)"/>
<use data-text="&#x2212;" xlink:href="#font_1_1" transform="matrix(9.962799,0,0,-9.9626,48.784696,178.59)"/>
<use data-text="4" xlink:href="#font_2_4" transform="matrix(9.962799,0,0,-9.9626,56.533857,178.59)"/>
<use data-text="&#x2212;" xlink:href="#font_1_1" transform="matrix(9.962799,0,0,-9.9626,73.06918,178.59)"/>
<use data-text="2" xlink:href="#font_2_2" transform="matrix(9.962799,0,0,-9.9626,80.818347,178.59)"/>
<use data-text="2" xlink:href="#font_2_2" transform="matrix(9.962799,0,0,-9.9626,125.51123,178.59)"/>
<use data-text="4" xlink:href="#font_2_4" transform="matrix(9.962799,0,0,-9.9626,149.79572,178.59)"/>
<use data-text="6" xlink:href="#font_2_5" transform="matrix(9.962799,0,0,-9.9626,174.0802,178.59)"/>
<use data-text="8" xlink:href="#font_2_6" transform="matrix(9.962799,0,0,-9.9626,198.3637,178.59)"/>
<use data-text="1" xlink:href="#font_2_1" transform="matrix(9.962799,0,0,-9.9626,93.09058,115.936008)"/>
<use data-text="2" xlink:href="#font_2_2" transform="matrix(9.962799,0,0,-9.9626,93.09058,62.138)"/>
<use data-text="3" xlink:href="#font_2_3" transform="matrix(9.962799,0,0,-9.9626,93.09058,8.3390049)"/>
<g clip-path="url(#clip_3)">
<path transform="matrix(1.00002,0,0,-1,6.581848,166.524)" stroke-width=".79701" stroke-linecap="butt" stroke-miterlimit="10" stroke-linejoin="miter" fill="none" stroke="#000000" d="M0 13.45117 .9762 13.54155 1.95242 13.63353 2.92865 13.72769 3.90488 13.82399 4.8811 13.92084 5.85733 14.01982 6.83356 14.12096 7.80978 14.22371 8.786 14.32808 9.76222 14.4346 10.73845 14.54274 11.71466 14.65356 12.69089 14.76654 13.66711 14.88112 14.64334 14.99895 15.61957 15.11838 16.5958 15.23996 17.572 15.36476 18.54823 15.49121 19.52446 15.62085 20.50069 15.75374 21.47691 15.88931 22.45313 16.02702 23.42935 16.16853 24.40558 16.31163 25.3818 16.46065 26.35802 16.61075 27.33424 16.76515 28.31047 16.92384 29.2867 17.08632 30.26292 17.25201 31.23915 17.42203 32.21538 17.5958 33.19159 17.77385 34.16782 17.95732 35.14403 18.14613 36.12025 18.33875 37.09648 18.53673 38.07271 18.74117 39.04893 18.94937 40.02516 19.16563 41.00139 19.3862 41.97762 19.61485 42.95384 19.84995 43.93005 20.0931 44.90627 20.34113 45.88249 20.59882 46.85872 20.86458 47.83495 21.13948 48.81117 21.423 49.7874 21.71674 50.76363 22.02069 51.73985 22.33487 52.71606 22.6609 53.69229 22.99875 54.66852 23.34952 55.64473 23.7148 56.62096 24.09409 57.59718 24.48897 58.57341 24.89998 59.54964 25.32983 60.52586 25.7785 61.50208 26.24709 62.4783 26.73773 63.45453 27.25313 64.43076 27.79164 65.40698 28.35976 66.3832 28.95638 67.35942 29.58582 68.33565 30.25023 69.31187 30.95337 70.28809 31.69955 71.26431 32.49092 72.24054 33.33556 73.21677 34.23883 74.193 35.20181 75.16922 36.23744 76.14545 37.35214 77.12166 38.5572 78.09789 39.86505 79.0741 41.28802 80.05032 42.84656 81.02655 44.5611 82.00278 46.45642 82.979 48.56853 83.95523 50.93727 84.93146 53.61751 85.90768 56.66571 86.88391 60.22177 87.86014 64.36424 88.83635 69.31906 89.81258 75.36063 90.7888 82.90315 91.76503 92.6729 92.74126 105.94493 93.71748 125.25851 94.69371 156.76818 95.66994 220.33623M98.5986 220.44382 99.57483 156.76818 100.55106 125.28543 101.52728 105.94493 102.50351 92.6729 103.47972 82.90315 104.45595 75.36063 105.43217 69.32445 106.4084 64.375 107.38463 60.22177 108.36086 56.68185 109.33708 53.61913 110.3133 50.93889 111.28952 48.56906 112.26575 46.45802 113.24197 44.56165 114.2182 42.85031 115.19443 41.28854 116.17065 39.86452 117.14687 38.55829 118.1231 37.35214 119.09932 36.23744 120.07555 35.20236 121.05176 34.23883 122.02798 33.33556 123.00421 32.49092 123.98044 31.69955 124.95667 30.95337 125.93288 30.25076 126.9091 29.58582 127.88533 28.95638 128.86156 28.35976 129.83779 27.79218 130.81401 27.25313 131.79024 26.73773 132.76645 26.24709 133.74268 25.7785 134.71889 25.33145 135.69512 24.89998 136.67134 24.48897 137.64757 24.09409 138.6238 23.7148 139.60002 23.34952 140.57625 22.99875 141.55248 22.6609 142.5287 22.33487 143.5049 22.02069 144.48113 21.71674 145.45735 21.423 146.43358 21.13948 147.4098 20.86458 148.38603 20.59933 149.36226 20.34113 150.33849 20.0931 151.31472 19.85101 152.29093 19.61485 153.26715 19.3862 154.24337 19.16563 155.21959 18.94937 156.19582 18.74117 157.17205 18.53673 158.14827 18.33875 159.1245 18.14613 160.10073 17.95732 161.07694 17.77385 162.05316 17.5958 163.02939 17.42203 164.00562 17.25201 164.98183 17.08632 165.95806 16.92384 166.93428 16.76515 167.9105 16.61075 168.88674 16.46065 169.86295 16.3127 170.83917 16.16853 171.8154 16.02702 172.79163 15.88985 173.76786 15.75374 174.74408 15.62085 175.7203 15.49121 176.69652 15.36476 177.67275 15.23996 178.64896 15.11838 179.62519 14.99895 180.60141 14.88112 181.57764 14.76654 182.55387 14.65356 183.53009 14.54274 184.50632 14.4346 185.48255 14.32808 186.45877 14.22371 187.43497 14.12096 188.4112 14.01982 189.38742 13.92137 190.36365 13.82399 191.33988 13.72769 192.3161 13.63353 193.29233 13.54155 194.26856 13.45117"/>
</g>
<use data-text="x" xlink:href="#font_4_1" transform="matrix(9.962799,0,0,-9.9626,191.66855,163.004)"/>
<use data-text="y" xlink:href="#font_4_2" transform="matrix(9.962799,0,0,-9.9626,107.25686,12.903)"/>
</svg>
