<svg xmlns="http://www.w3.org/2000/svg" xmlns:xlink="http://www.w3.org/1999/xlink" xmlns:inkscape="http://www.inkscape.org/namespaces/inkscape" version="1.1" width="215" height="217" viewBox="0 0 215 217">
<defs>
<path id="font_1_2" d="M.33399964 .30233766C.33999635 .32835389 .36299134 .42037965 .43299867 .42037965 .43798829 .42037965 .46199037 .42037965 .48298646 .40734864 .45498658 .402359 .43499757 .37734986 .43499757 .35334779 .43499757 .33735658 .44599916 .31835938 .47299195 .31835938 .49499513 .31835938 .5269928 .3363495 .5269928 .37635804 .5269928 .42837525 .46798707 .4423828 .43399049 .4423828 .37599183 .4423828 .34098817 .38935853 .32899476 .36634828 .3039856 .43237306 .25 .4423828 .22099304 .4423828 .116989139 .4423828 .05999756 .3133545 .05999756 .28834535 .05999756 .27833558 .069992069 .27833558 .07199097 .27833558 .07998657 .27833558 .08299255 .28033448 .084991458 .28933717 .11898804 .39535523 .18499756 .42037965 .21899414 .42037965 .23799134 .42037965 .272995 .4113617 .272995 .35334779 .272995 .32235719 .2559967 .25532533 .21899414 .11528015 .20298767 .053268434 .16799927 .011245728 .12399292 .011245728 .117996219 .011245728 .09498596 .011245728 .07398987 .024276734 .09899902 .029266358 .12098694 .05027771 .12098694 .07827759 .12098694 .105270389 .09899902 .11328125 .083999637 .11328125 .053985597 .11328125 .0289917 .08728027 .0289917 .055267335 .0289917 .009246826 .07899475-.0107421879 .12298584-.0107421879 .18899536-.0107421879 .22499085 .059280397 .22799683 .0652771 .23999024 .028274537 .27598573-.0107421879 .33599855-.0107421879 .43899537-.0107421879 .49598695 .118270877 .49598695 .14328003 .49598695 .1532898 .4869995 .1532898 .48399354 .1532898 .47499085 .1532898 .47299195 .14929199 .47099305 .14228821 .43798829 .03527832 .36999513 .011245728 .33799745 .011245728 .29899598 .011245728 .2829895 .043273927 .2829895 .07727051 .2829895 .09927368 .2889862 .121276859 .2999878 .16529846L.33399964 .30233766Z"/>
<path id="font_1_3" d="M.48599244 .38136292C.48999024 .39537049 .48999024 .39736939 .48999024 .40437318 .48999024 .42237855 .47599793 .43138124 .46099855 .43138124 .45098878 .43138124 .43499757 .42536927 .42599488 .41036988 .42399598 .405365 .41600038 .37435914 .4119873 .35635377 .40499879 .33035279 .397995 .30334474 .3919983 .27633668L.34700013 .09628296C.34298707 .08126831 .2999878 .011245728 .23399353 .011245728 .18299866 .011245728 .17199707 .055267335 .17199707 .0922699 .17199707 .1382904 .18899536 .20030213 .22299195 .28833009 .23899842 .3293457 .24299622 .3403473 .24299622 .36035157 .24299622 .405365 .21099854 .4423828 .16099549 .4423828 .06599426 .4423828 .0289917 .29733277 .0289917 .28833009 .0289917 .27833558 .038986207 .27833558 .040985109 .27833558 .050994874 .27833558 .051986696 .28033448 .056991579 .29634095 .083999637 .3903656 .12399292 .42037965 .1579895 .42037965 .1659851 .42037965 .18299866 .42037965 .18299866 .3883667 .18299866 .36335755 .17298889 .3373413 .1659851 .31834413 .12599182 .21231079 .10798645 .1552887 .10798645 .10827637 .10798645 .019256592 .17098999-.0107421879 .22999573-.0107421879 .2689972-.0107421879 .30299378 .0062561037 .33099366 .03425598 .31799317-.017745972 .30599977-.06674194 .2659912-.11973572 .23999024-.15385437 .20199585-.18309021 .1559906-.18309021 .14199829-.18309021 .09700012-.18005371 .07998657-.14074707 .09599304-.14074707 .10899353-.14074707 .12298584-.1287384 .1329956-.11973572 .14299011-.10673523 .14299011-.08773804 .14299011-.056747438 .115997318-.052734376 .10598755-.052734376 .08299255-.052734376 .049987794-.068740848 .049987794-.11773682 .049987794-.16796875 .09399414-.20507813 .1559906-.20507813 .25898744-.20507813 .3619995-.11373901 .3899994-.00074768069L.48599244 .38136292Z"/>
<path id="font_2_1" d="M.272995 .33428956C.35099793 .33428956 .40699769 .2803192 .40699769 .1733551 .40699769 .04940796 .33499146 .012466431 .2769928 .012466431 .23699951 .012466431 .14898682 .0234375 .10699463 .082351688 .1539917 .084350589 .16499329 .11735535 .16499329 .13835144 .16499329 .17034912 .14099121 .19335938 .10998535 .19335938 .08198547 .19335938 .053985597 .17634583 .053985597 .13534546 .053985597 .041412355 .1579895-.01953125 .2789917-.01953125 .41799928-.01953125 .5139923 .07336426 .5139923 .1733551 .5139923 .2513275 .44999696 .32929994 .33999635 .35229493 .44499208 .39024354 .48298646 .4650879 .48298646 .5260773 .48298646 .60505679 .3919983 .6640625 .2809906 .6640625 .16999817 .6640625 .084991458 .61006167 .084991458 .5300751 .084991458 .49606324 .10699463 .47706605 .13699341 .47706605 .16799927 .47706605 .18798828 .5000763 .18798828 .5280762 .18798828 .5570679 .16799927 .57806399 .13699341 .5800781 .17199707 .62405398 .24099732 .63505557 .27799989 .63505557 .32299806 .63505557 .38598634 .6130676 .38598634 .5260773 .38598634 .48406983 .37199403 .43814088 .34599305 .4072113 .31298829 .36927796 .2849884 .3672943 .23498535 .36428834 .20999146 .3623047 .20799256 .3623047 .20298767 .3612976 .20098877 .3612976 .19299317 .3592987 .19299317 .34829713 .19299317 .33428956 .20199585 .33428956 .21899414 .33428956H.272995Z"/>
<path id="font_2_2" d="M.5289917 .1640625V.20005799H.41799928V.64582827C.41799928 .66682437 .41799928 .6738281 .3959961 .6738281 .38398744 .6738281 .37998963 .6738281 .36999513 .65982058L.038986207 .20005799V.1640625H.33299256V.08201599C.33299256 .04800415 .33299256 .035995485 .2519989 .035995485H.22499085V0C.2749939 .0019989014 .33898927 .0039978029 .375 .0039978029 .4119873 .0039978029 .47599793 .0019989014 .526001 0V.035995485H.49899293C.41799928 .035995485 .41799928 .04800415 .41799928 .08201599V.1640625H.5289917M.33999635 .5658722V.20005799H.07598877L.33999635 .5658722Z"/>
<path id="font_3_1" d="M.41299439-1.1491852C.41299439-1.1451874 .41099549-1.1431885 .40899659-1.1401825 .36299134-1.0911713 .29499818-1.0101624 .25299073-.84713748 .22999573-.7561188 .22099304-.65309146 .22099304-.56007388 .22099304-.2970276 .28399659-.11299133 .4039917 .017044068 .41299439 .026031495 .41299439 .028030396 .41299439 .030029297 .41299439 .040039064 .40499879 .040039064 .40098573 .040039064 .38598634 .040039064 .33198548-.019973755 .31900025-.034973146 .21699524-.1559906 .1519928-.33602906 .1519928-.5590668 .1519928-.7010956 .1769867-.9021454 .30799867-1.071167 .31799317-1.0831757 .3829956-1.1591797 .40098573-1.1591797 .40499879-1.1591797 .41299439-1.1591797 .41299439-1.1491852Z"/>
<path id="font_4_92" d="M.4149933 .57025149C.4149933 .62815859 .375 .7050781 .22599793 .7050781 .117996219 .7050781 .055999757 .637146 .055999757 .5722656 .055999757 .53822329 .07899475 .52423098 .101989749 .52423098 .12998963 .52423098 .147995 .54422 .147995 .57022097 .147995 .6152344 .10598755 .6152344 .09199524 .6152344 .12298584 .6681061 .18099976 .68307498 .22299195 .68307498 .33198548 .68307498 .33198548 .6152344 .33198548 .5762329 .33198548 .5172577 .31599427 .49925233 .2979889 .4812622 .23199463 .40907289 .20999146 .31684876 .20999146 .25569154V.21057129C.20999146 .1925354 .20999146 .18652344 .22200012 .18652344 .23498535 .18652344 .23498535 .19554138 .23498535 .21357727V.24867249C.23498535 .37498475 .33198548 .446167 .36698915 .472229 .3939972 .49198915 .4149933 .5279999 .4149933 .56999209V.57025149M.2749939 .052993776C.2749939 .08198547 .25099183 .10598755 .22200012 .10598755 .19299317 .10598755 .16899109 .08198547 .16899109 .052993776 .16899109 .023986817 .19299317 0 .22200012 0 .25099183 0 .2749939 .023986817 .2749939 .052993776Z"/>
<path id="font_1_1" d="M.20298767 .0009918213C.20298767 .066986087 .17799378 .10598755 .13899231 .10598755 .10598755 .10598755 .085998538 .08099365 .085998538 .052993776 .085998538 .025985718 .10598755 0 .13899231 0 .15098572 0 .1639862 .0039978029 .17399597 .0129852299 .1769867 .01499939 .17799378 .015991211 .1789856 .015991211 .17999268 .015991211 .18099976 .01499939 .18099976 .0009918213 .18099976-.07316589 .1459961-.13328552 .11299133-.16635132 .101989749-.17736817 .101989749-.17936707 .101989749-.18237305 .101989749-.18936157 .10699463-.19335938 .11199951-.19335938 .12298584-.19335938 .20298767-.116256717 .20298767 .0009918213Z"/>
<path id="font_3_2" d="M.30499269-.56007388C.30499269-.41804505 .27999879-.2170105 .14898682-.047973634 .13899231-.035964967 .07398987 .040039064 .055999757 .040039064 .050994874 .040039064 .04399109 .038024904 .04399109 .030029297 .04399109 .026031495 .04598999 .023025513 .049987794 .02003479 .09799194-.031967164 .16299439-.11299133 .20399475-.27201844 .22698975-.3630371 .23599243-.4660492 .23599243-.5590668 .23599243-.6600952 .22698975-.7621155 .20098877-.86013796 .16299439-1.0001679 .10398865-1.0801697 .052993776-1.1361847 .04399109-1.1451874 .04399109-1.1471863 .04399109-1.1491852 .04399109-1.1571808 .050994874-1.1591797 .055999757-1.1591797 .070999149-1.1591797 .12599182-1.098175 .13798523-1.0841827 .23999024-.96315 .30499269-.7831116 .30499269-.56007388Z"/>
</defs>
<path transform="matrix(1,0,0,-1,103.143009,113.714)" stroke-width=".3985" stroke-linecap="butt" stroke-miterlimit="10" stroke-linejoin="miter" fill="none" stroke="#000000" d="M-102.04825 0H101.58997"/>
<path transform="matrix(1,0,0,-1,204.73297,113.714)" stroke-width=".31879" stroke-linecap="round" stroke-linejoin="round" fill="none" stroke="#000000" d="M-1.19551 1.59401C-1.09587 .99626 0 .09961 .29886 0 0-.09961-1.09587-.99626-1.19551-1.59401"/>
<use data-text="x" xlink:href="#font_1_2" transform="matrix(9.9626,0,0,-9.9626,208.711,115.85899)"/>
<path transform="matrix(1,0,0,-1,103.143009,113.714)" stroke-width=".3985" stroke-linecap="butt" stroke-miterlimit="10" stroke-linejoin="miter" fill="none" stroke="#000000" d="M0-102.04825V101.58997"/>
<path transform="matrix(0,-1,-1,-0,103.143009,12.124023)" stroke-width=".31879" stroke-linecap="round" stroke-linejoin="round" fill="none" stroke="#000000" d="M-1.19551 1.59401C-1.09587 .99626 0 .09961 .29886 0 0-.09961-1.09587-.99626-1.19551-1.59401"/>
<use data-text="y" xlink:href="#font_1_3" transform="matrix(9.9626,0,0,-9.9626,100.522,6.2089998)"/>
<path transform="matrix(1,0,0,-1,103.143009,113.714)" stroke-width=".79701" stroke-linecap="butt" stroke-miterlimit="10" stroke-linejoin="miter" fill="none" stroke="#000000" d="M85.04042 0C85.04042 46.96713 46.96713 85.04042 0 85.04042-46.96713 85.04042-85.04042 46.96713-85.04042 0-85.04042-46.96713-46.96713-85.04042 0-85.04042 46.96713-85.04042 85.04042-46.96713 85.04042 0ZM0 0"/>
<path transform="matrix(1,0,0,-1,103.143009,113.714)" stroke-width=".79701" stroke-linecap="butt" stroke-miterlimit="10" stroke-linejoin="miter" fill="none" stroke="#000000" d="M-4.25224 63.7803H4.25224"/>
<use data-text="3" xlink:href="#font_2_1" transform="matrix(6.9738,0,0,-6.9738,112.309,48.501)"/>
<path transform="matrix(1,0,0,-1,-74.029,-48.29)" stroke-width=".3985" stroke-linecap="butt" stroke-miterlimit="10" stroke-linejoin="miter" fill="none" stroke="#000000" d="M186.338-98.223H190.31"/>
<use data-text="4" xlink:href="#font_2_2" transform="matrix(6.9738,0,0,-6.9738,112.309,55.859)"/>
<path transform="matrix(1,0,0,-1,103.143009,113.714)" stroke-width=".79701" stroke-linecap="butt" stroke-miterlimit="10" stroke-linejoin="miter" fill="none" stroke="#0000ff" d="M0 0-84.57126 95.89627"/>
<path transform="matrix(-.66139,-.74995,-.74995,.66139,18.571747,17.817727)" stroke-width=".6376" stroke-linecap="round" stroke-linejoin="round" fill="none" stroke="#0000ff" d="M-1.55415 2.0722C-1.42464 1.29512 0 .1295 .38852 0 0-.1295-1.42464-1.29512-1.55415-2.0722"/>
<path transform="matrix(1,0,0,-1,103.143009,113.714)" d="M-54.54779 63.7803C-54.54779 64.71983-55.30942 65.48145-56.24893 65.48145-57.18846 65.48145-57.95009 64.71983-57.95009 63.7803-57.95009 62.84077-57.18846 62.07916-56.24893 62.07916-55.30942 62.07916-54.54779 62.84077-54.54779 63.7803ZM-56.24893 63.7803" fill="#0000ff"/>
<path transform="matrix(1,0,0,-1,103.143009,113.714)" stroke-width=".3985" stroke-linecap="butt" stroke-miterlimit="10" stroke-linejoin="miter" fill="none" stroke="#0000ff" d="M-54.54779 63.7803C-54.54779 64.71983-55.30942 65.48145-56.24893 65.48145-57.18846 65.48145-57.95009 64.71983-57.95009 63.7803-57.95009 62.84077-57.18846 62.07916-56.24893 62.07916-55.30942 62.07916-54.54779 62.84077-54.54779 63.7803ZM-56.24893 63.7803"/>
<use data-text="(" xlink:href="#font_3_1" transform="matrix(9.9626,0,0,-9.9626,17.089005,44.353998)" fill="#0000ff"/>
<use data-text="?" xlink:href="#font_4_92" transform="matrix(9.9626,0,0,-9.9626,21.654999,52.423997)" fill="#0000ff"/>
<use data-text="," xlink:href="#font_1_1" transform="matrix(9.9626,0,0,-9.9626,26.356995,52.423997)" fill="#0000ff"/>
<use data-text="3" xlink:href="#font_2_1" transform="matrix(6.9738,0,0,-6.9738,33.64099,48.501)" fill="#0000ff"/>
<path transform="matrix(1,0,0,-1,-168.054,-48.29)" stroke-width=".3985" stroke-linecap="butt" stroke-miterlimit="10" stroke-linejoin="miter" fill="none" stroke="#0000ff" d="M201.695-98.223H205.666"/>
<use data-text="4" xlink:href="#font_2_2" transform="matrix(6.9738,0,0,-6.9738,33.641008,55.859)" fill="#0000ff"/>
<use data-text=")" xlink:href="#font_3_2" transform="matrix(9.9626,0,0,-9.9626,38.808,44.354005)" fill="#0000ff"/>
<path transform="matrix(1,0,0,-1,103.143009,113.714)" stroke-width=".79701" stroke-linecap="butt" stroke-miterlimit="10" stroke-linejoin="miter" fill="none" stroke="#ff8000" d="M21.26007 0C21.26007 11.74176 11.74176 21.26007 0 21.26007-5.1781 21.26007-10.17911 19.36813-13.53174 16.41129"/>
<path transform="matrix(-.74992,.66144,.66144,.74992,89.61128,97.3027)" stroke-width=".6376" stroke-linecap="round" stroke-linejoin="round" fill="none" stroke="#ff8000" d="M-1.55415 2.0722C-1.42464 1.29512 0 .1295 .38852 0 0-.1295-1.42464-1.29512-1.55415-2.0722"/>
<path transform="matrix(1,0,0,-1,103.143009,113.714)" stroke-width=".79701" stroke-linecap="butt" stroke-miterlimit="10" stroke-linejoin="miter" fill="none" stroke="#ff0000" d="M29.76466 0C29.76466-16.43877 16.43877-29.76466 0-29.76466-16.43877-29.76466-29.76466-16.43877-29.76466 0-29.76466 8.5398-26.0913 16.67267-20.21791 21.85332"/>
<path transform="matrix(.74991,-.66147,-.66147,-.74991,82.92508,91.860698)" stroke-width=".6376" stroke-linecap="round" stroke-linejoin="round" fill="none" stroke="#ff0000" d="M-1.55415 2.0722C-1.42464 1.29512 0 .1295 .38852 0 0-.1295-1.42464-1.29512-1.55415-2.0722"/>
<path transform="matrix(1,0,0,-1,103.143009,113.714)" stroke-width=".79701" stroke-linecap="butt" stroke-miterlimit="10" stroke-linejoin="miter" fill="none" stroke="#bf0040" d="M38.26788 0 38.25233 1.64664 38.16928 3.29333 38.01486 4.93478 37.79167 6.57108 37.49455 8.19698 37.13121 9.80864 36.69649 11.40471 36.19432 12.98131 35.62338 14.53583 34.98494 16.0644 34.28293 17.56575 33.51474 19.03728 32.68558 20.475 31.7928 21.87383 30.84164 23.23763 29.82951 24.55733 28.76288 25.83415 27.64043 27.063 26.46739 28.24644 25.24115 29.37537 23.96819 30.45367 22.64854 31.47621 21.28601 32.4403 19.88332 33.34605 18.43907 34.19081 16.96107 34.97455 15.45064 35.69215 13.90779 36.34743 12.33768 36.93396 10.7442 37.453 9.12738 37.90327 7.49242 38.28476 5.84184 38.5936 4.177 38.83368 2.50435 38.99977 .82396 39.09576-.8577 39.11784-2.54198 39.06854-4.2237 38.94527-5.89894 38.75063-7.56506 38.48332-9.21951 38.1446-10.85973 37.7359-12.4817 37.25575-14.0817 36.7069-15.65697 36.0866-17.20633 35.39886-18.72324 34.64627-20.21031 33.82878-21.65976 32.94641-23.07153 32.00305-24.44054 30.99867-25.76799 29.93591-27.04874 28.8161-28.28018 27.64175-29.46101 26.4155-30.58862 25.13734-31.66173 23.8125-32.67519 22.43962-33.63281 21.02652-34.52428 19.57059-35.35603 18.07832-36.12167 16.54974-36.82364 14.98743-37.4556 13.39783-38.02007 11.77974-38.51443 10.13951-38.93747 8.476-39.28914 6.79688-39.56683 5.1022-39.77443 3.39714-39.9055 1.68298-39.96648-.03369-39.9496-1.75436-39.86136-3.47366-39.69658-5.18913-39.46172-6.89679-39.14899-8.59407-38.7675-10.27707-38.31071-11.94191-37.7826-13.5886-37.18439-15.2093-36.51744-16.80537-35.78035-18.3729-34.97714-19.90666-34.10776-21.4067-33.17476-22.86781-32.17949-24.28871-31.12067-25.66547-30.00468-26.99684-28.83165-28.27887-27.60413-29.51031-26.32338-30.68855-24.99332-31.811-23.61397-32.87631-22.19048-33.88196-20.72415-34.82405-19.21632-35.70511-17.67215-36.52003-16.09296-37.26743-14.48267-37.94868-12.84377-38.55858-11.17892-39.09837-9.49072-39.5655-7.78438-39.96129-6.06111-40.28052-4.32489-40.52835-2.57704-40.69965-.82396-40.79697 .93036-40.81772 2.68732-40.76321 4.4417-40.63347 6.18959-40.42583 7.9284-40.14685 9.65422-39.78998 11.36449-39.36052 13.05528-38.8557 14.72269-38.27956 16.3655-37.6321 17.981-36.91449 19.56412-36.12555 21.11345-35.27043 22.62387-34.3491 24.09534-33.36293 25.52144-32.31317 26.90471-31.2024 28.23865-30.03323 29.52199-28.80571 30.75084-27.52495 31.92516-26.1897 33.0424-24.80647 34.09737-23.3739 35.09262-21.89723 36.02174-20.379 36.88725-18.82056 37.68399-17.22449 38.41324-15.596 39.06982-13.93634 39.65504-12.24942 40.1676-10.5366 40.6062-8.803 40.97081-7.05122 41.25891-5.28517 41.47171-3.50613 41.60666-1.71928 41.66768 .07132 41.6482 1.86464 41.55215 3.65796 41.37958 5.44475 41.13176 7.22507 40.80344 8.99371 40.4012 10.7468 39.92366 12.48302 39.3722 14.19716 38.74542 15.88664 38.04729 17.5502 37.27783 19.1813 36.437 20.77997 35.52994 22.34097 34.55415 23.86179 33.51474 25.34239 32.40916 26.77625 31.24393 28.1608 30.01895 29.49472 28.73953 30.7768 27.403 32.00172 26.01453 33.17088 24.57549 34.27905 23.09233 35.32494 21.56244 36.3046 19.98972 37.21945 18.38069 38.06676 16.734 38.84402 15.0562 39.54996 13.34593 40.1832 11.61104 40.74374 9.85147 41.22775 8.0737 41.6378 6.27783 41.96872 4.46896 42.22433 2.64842 42.3995 .82135 42.49944-1.0056 42.51631-2.83655 42.45789-4.6623 42.31906-6.48283 42.10106-8.2943 41.8065-10.09021 41.43408-11.87053 40.98248-13.63142 40.45697-15.36891 39.85489-17.07787 39.17622-18.75958 38.4275-20.40623 37.60355-22.01918 36.71208-23.5893 35.74792-25.12047 34.72025-26.60495 33.62502-27.49306 32.90987"/>
<path transform="matrix(-.77887,.62714,.62714,.77887,75.64995,80.80412)" stroke-width=".6376" stroke-linecap="round" stroke-linejoin="round" fill="none" stroke="#bf0040" d="M-1.55415 2.0722C-1.42464 1.29512 0 .1295 .38852 0 0-.1295-1.42464-1.29512-1.55415-2.0722"/>
</svg>
