<svg xmlns="http://www.w3.org/2000/svg" xmlns:xlink="http://www.w3.org/1999/xlink" xmlns:inkscape="http://www.inkscape.org/namespaces/inkscape" version="1.1" width="241" height="193" viewBox="0 0 241 193">
<defs>
<path id="font_1_1" d="M.6589966 .23046875C.6759949 .23046875 .69400027 .23046875 .69400027 .25045777 .69400027 .27046205 .6759949 .27046205 .6589966 .27046205H.117996219C.100997928 .27046205 .08299255 .27046205 .08299255 .25045777 .08299255 .23046875 .100997928 .23046875 .117996219 .23046875H.6589966Z"/>
<path id="font_2_4" d="M.2939911 .16503906V.07800293C.2939911 .041992189 .2919922 .0309906 .21798706 .0309906H.19699097V0C.23799134 .0029907227 .2899933 .0029907227 .33198548 .0029907227 .37399293 .0029907227 .4269867 .0029907227 .46798707 0V.0309906H.44699098C.37298585 .0309906 .37098695 .041992189 .37098695 .07800293V.16503906H.47099305V.19602967H.37098695V.65075686C.37098695 .67074587 .37098695 .6767578 .35499574 .6767578 .34599305 .6767578 .34298707 .6767578 .33499146 .66474917L.027999878 .19602967V.16503906H.2939911M.2999878 .19602967H.055999757L.2999878 .5688019V.19602967Z"/>
<path id="font_2_3" d="M.1269989 .07699585 .23298645 .18003845C.3889923 .31811524 .44898988 .3721466 .44898988 .47216798 .44898988 .5860901 .35899354 .6660156 .23699951 .6660156 .12399292 .6660156 .049987794 .57411196 .049987794 .48516847 .049987794 .4291687 .099990848 .4291687 .102996829 .4291687 .11999512 .4291687 .15499878 .44117738 .15499878 .48217774 .15499878 .5081787 .13699341 .5341797 .101989749 .5341797 .09399414 .5341797 .09199524 .5341797 .08898926 .5331726 .11199951 .59806826 .1659851 .63500979 .22399903 .63500979 .31498719 .63500979 .35798646 .5541382 .35798646 .47216798 .35798646 .39215089 .30799867 .31311036 .25299073 .25108338L.06098938 .036987306C.049987794 .025985718 .049987794 .023986817 .049987794 0H.42099L.44898988 .17404175H.42399598C.4189911 .14402771 .4119873 .1000061 .4019928 .084991458 .394989 .07699585 .32899476 .07699585 .30699159 .07699585H.1269989Z"/>
<path id="font_2_5" d="M.13198853 .327713V.35173036C.13198853 .6047821 .2559967 .64100649 .30699159 .64100649 .33099366 .64100649 .37298585 .634964 .394989 .6007538 .37998963 .6007538 .33999635 .6007538 .33999635 .5557556 .33999635 .524765 .3639984 .5097656 .38598634 .5097656 .4019928 .5097656 .43199159 .51875308 .43199159 .5577545 .43199159 .6178589 .3880005 .6660156 .30499269 .6660156 .1769867 .6660156 .041992189 .5367584 .041992189 .31570436 .041992189 .048553468 .1579895-.022460938 .25099183-.022460938 .3619995-.022460938 .45700074 .07156372 .45700074 .2036438 .45700074 .33070375 .36799623 .4267578 .25698854 .4267578 .18899536 .4267578 .1519928 .37573243 .13198853 .327713M.25099183 .0055389406C.18798828 .0055389406 .1579895 .06556702 .1519928 .080566409 .13398743 .127594 .13398743 .2076416 .13398743 .22564698 .13398743 .30369569 .1659851 .40374757 .2559967 .40374757 .27198792 .40374757 .31799317 .40374757 .34899903 .34172059 .36698915 .30470277 .36698915 .2536621 .36698915 .20463562 .36698915 .15661621 .36698915 .10658264 .34999085 .0705719 .31999208 .010528564 .27398683 .0055389406 .25099183 .0055389406Z"/>
<path id="font_2_1" d="M.45999146 .31976319C.45999146 .39982606 .45498658 .47988893 .41999818 .5539398 .37399293 .65000918 .2919922 .6660156 .25 .6660156 .18998719 .6660156 .116989139 .64001467 .07598877 .54693606 .04399109 .47789 .038986207 .39982606 .038986207 .31976319 .038986207 .24472046 .042999269 .15464783 .083999637 .07859802 .1269989-.0024719239 .19999695-.022460938 .24899292-.022460938 .30299378-.022460938 .3789978-.0014648438 .4229889 .09359741 .45498658 .16265869 .45999146 .2407074 .45999146 .31976319M.24899292-.00047302247C.20999146-.00047302247 .15098572 .024551392 .1329956 .12062073 .12199402 .18066406 .12199402 .2727356 .12199402 .3317871 .12199402 .39582826 .12199402 .46188355 .12998963 .5159149 .14898682 .63500979 .22399903 .64401248 .24899292 .64401248 .28199769 .64401248 .34799195 .6259918 .36698915 .52693179 .3769989 .47088624 .3769989 .39482118 .3769989 .3317871 .3769989 .25672914 .3769989 .18867493 .3659973 .12461853 .35099793 .029556275 .2939911-.00047302247 .24899292-.00047302247Z"/>
<path id="font_2_6" d="M.16299439 .4569702C.116989139 .486969 .11299133 .52098086 .11299133 .5379791 .11299133 .598999 .17799378 .64100649 .24899292 .64100649 .32199098 .64100649 .38598634 .58898928 .38598634 .51698306 .38598634 .45996095 .34700013 .4119568 .2869873 .37695313L.16299439 .4569702M.30899049 .36193849C.3809967 .3989563 .42999269 .45095826 .42999269 .51698306 .42999269 .6090088 .34098817 .6660156 .25 .6660156 .1499939 .6660156 .068984989 .59199526 .068984989 .49897767 .068984989 .4809723 .070999149 .43595887 .11299133 .38894654 .12399292 .37695313 .16099549 .35194398 .18598938 .33494569 .12799073 .30592347 .041992189 .24984741 .041992189 .15072632 .041992189 .04458618 .14399719-.022460938 .24899292-.022460938 .3619995-.022460938 .45700074 .06060791 .45700074 .16773987 .45700074 .20379639 .44599916 .24885559 .4079895 .2909088 .3889923 .31193543 .37298585 .3219452 .30899049 .36193849M.20899964 .3199463 .33198548 .24183655C.3600006 .2228241 .40699769 .19277954 .40699769 .13169861 .40699769 .05760193 .33198548 .0055389406 .25 .0055389406 .1639862 .0055389406 .09199524 .067611698 .09199524 .15072632 .09199524 .20880127 .12399292 .27288819 .20899964 .3199463Z"/>
<path id="font_2_2" d="M.2939911 .64004519C.2939911 .66400149 .2939911 .6660156 .2709961 .6660156 .20899964 .60227969 .12098694 .60227969 .08898926 .60227969V.57128909C.10899353 .57128909 .16799927 .57128909 .21998596 .5972748V.07902527C.21998596 .042999269 .21699524 .0309906 .1269989 .0309906H.09498596V0C.12998963 .0029907227 .21699524 .0029907227 .25698854 .0029907227 .29699708 .0029907227 .38398744 .0029907227 .4189911 0V.0309906H.3869934C.29699708 .0309906 .2939911 .041992189 .2939911 .07902527V.64004519Z"/>
<path id="font_3_1" d="M.20298767 .0009918213C.20298767 .066986087 .17799378 .10598755 .13899231 .10598755 .10598755 .10598755 .085998538 .08099365 .085998538 .052993776 .085998538 .025985718 .10598755 0 .13899231 0 .15098572 0 .1639862 .0039978029 .17399597 .0129852299 .1769867 .01499939 .17799378 .015991211 .1789856 .015991211 .17999268 .015991211 .18099976 .01499939 .18099976 .0009918213 .18099976-.07316589 .1459961-.13328552 .11299133-.16635132 .101989749-.17736817 .101989749-.17936707 .101989749-.18237305 .101989749-.18936157 .10699463-.19335938 .11199951-.19335938 .12298584-.19335938 .20298767-.116256717 .20298767 .0009918213Z"/>
<clipPath id="clip_4">
<path transform="matrix(1.00005,0,0,-1.00005,1.0961456,499.89335)" d="M0 311.83604H238.62545V493.77574H0Z"/>
</clipPath>
<path id="font_3_2" d="M.33399964 .30233766C.33999635 .32835389 .36299134 .42037965 .43299867 .42037965 .43798829 .42037965 .46199037 .42037965 .48298646 .40734864 .45498658 .402359 .43499757 .37734986 .43499757 .35334779 .43499757 .33735658 .44599916 .31835938 .47299195 .31835938 .49499513 .31835938 .5269928 .3363495 .5269928 .37635804 .5269928 .42837525 .46798707 .4423828 .43399049 .4423828 .37599183 .4423828 .34098817 .38935853 .32899476 .36634828 .3039856 .43237306 .25 .4423828 .22099304 .4423828 .116989139 .4423828 .05999756 .3133545 .05999756 .28834535 .05999756 .27833558 .069992069 .27833558 .07199097 .27833558 .07998657 .27833558 .08299255 .28033448 .084991458 .28933717 .11898804 .39535523 .18499756 .42037965 .21899414 .42037965 .23799134 .42037965 .272995 .4113617 .272995 .35334779 .272995 .32235719 .2559967 .25532533 .21899414 .11528015 .20298767 .053268434 .16799927 .011245728 .12399292 .011245728 .117996219 .011245728 .09498596 .011245728 .07398987 .024276734 .09899902 .029266358 .12098694 .05027771 .12098694 .07827759 .12098694 .105270389 .09899902 .11328125 .083999637 .11328125 .053985597 .11328125 .0289917 .08728027 .0289917 .055267335 .0289917 .009246826 .07899475-.0107421879 .12298584-.0107421879 .18899536-.0107421879 .22499085 .059280397 .22799683 .0652771 .23999024 .028274537 .27598573-.0107421879 .33599855-.0107421879 .43899537-.0107421879 .49598695 .118270877 .49598695 .14328003 .49598695 .1532898 .4869995 .1532898 .48399354 .1532898 .47499085 .1532898 .47299195 .14929199 .47099305 .14228821 .43798829 .03527832 .36999513 .011245728 .33799745 .011245728 .29899598 .011245728 .2829895 .043273927 .2829895 .07727051 .2829895 .09927368 .2889862 .121276859 .2999878 .16529846L.33399964 .30233766Z"/>
<path id="font_3_3" d="M.48599244 .38136292C.48999024 .39537049 .48999024 .39736939 .48999024 .40437318 .48999024 .42237855 .47599793 .43138124 .46099855 .43138124 .45098878 .43138124 .43499757 .42536927 .42599488 .41036988 .42399598 .405365 .41600038 .37435914 .4119873 .35635377 .40499879 .33035279 .397995 .30334474 .3919983 .27633668L.34700013 .09628296C.34298707 .08126831 .2999878 .011245728 .23399353 .011245728 .18299866 .011245728 .17199707 .055267335 .17199707 .0922699 .17199707 .1382904 .18899536 .20030213 .22299195 .28833009 .23899842 .3293457 .24299622 .3403473 .24299622 .36035157 .24299622 .405365 .21099854 .4423828 .16099549 .4423828 .06599426 .4423828 .0289917 .29733277 .0289917 .28833009 .0289917 .27833558 .038986207 .27833558 .040985109 .27833558 .050994874 .27833558 .051986696 .28033448 .056991579 .29634095 .083999637 .3903656 .12399292 .42037965 .1579895 .42037965 .1659851 .42037965 .18299866 .42037965 .18299866 .3883667 .18299866 .36335755 .17298889 .3373413 .1659851 .31834413 .12599182 .21231079 .10798645 .1552887 .10798645 .10827637 .10798645 .019256592 .17098999-.0107421879 .22999573-.0107421879 .2689972-.0107421879 .30299378 .0062561037 .33099366 .03425598 .31799317-.017745972 .30599977-.06674194 .2659912-.11973572 .23999024-.15385437 .20199585-.18309021 .1559906-.18309021 .14199829-.18309021 .09700012-.18005371 .07998657-.14074707 .09599304-.14074707 .10899353-.14074707 .12298584-.1287384 .1329956-.11973572 .14299011-.10673523 .14299011-.08773804 .14299011-.056747438 .115997318-.052734376 .10598755-.052734376 .08299255-.052734376 .049987794-.068740848 .049987794-.11773682 .049987794-.16796875 .09399414-.20507813 .1559906-.20507813 .25898744-.20507813 .3619995-.11373901 .3899994-.00074768069L.48599244 .38136292Z"/>
</defs>
<path transform="matrix(1.00005,0,0,-1.00005,1.0961456,499.89335)" stroke-width=".3985" stroke-linecap="butt" stroke-miterlimit="10" stroke-linejoin="miter" fill="none" stroke="#bfbfbf" d="M23.86253 311.83604V493.77574M71.58763 311.83604V493.77574M167.03781 311.83604V493.77574M214.76291 311.83604V493.77574"/>
<path transform="matrix(1.00005,0,0,-1.00005,1.0961456,499.89335)" stroke-width=".3985" stroke-linecap="butt" stroke-miterlimit="10" stroke-linejoin="miter" fill="none" stroke="#bfbfbf" d="M0 311.83604H238.62545M0 334.5785H238.62545M0 357.32096H238.62545M0 402.8059H238.62545M0 425.54838H238.62545M0 448.29084H238.62545M0 471.0333H238.62545M0 493.77574H238.62545"/>
<path transform="matrix(1.00005,0,0,-1.00005,1.0961456,499.89335)" stroke-width=".19925" stroke-linecap="butt" stroke-miterlimit="10" stroke-linejoin="miter" fill="none" stroke="#7f807f" d="M23.86253 377.9371V382.18977M71.58763 377.9371V382.18977M167.03781 377.9371V382.18977M214.76291 377.9371V382.18977"/>
<path transform="matrix(1.00005,0,0,-1.00005,1.0961456,499.89335)" stroke-width=".19925" stroke-linecap="butt" stroke-miterlimit="10" stroke-linejoin="miter" fill="none" stroke="#7f807f" d="M117.18681 311.83604H121.43861M117.18681 334.5785H121.43861M117.18681 357.32096H121.43861M117.18681 402.8059H121.43861M117.18681 425.54838H121.43861M117.18681 448.29084H121.43861M117.18681 471.0333H121.43861M117.18681 493.77574H121.43861"/>
<path transform="matrix(1.00005,0,0,-1.00005,1.0961456,499.89335)" stroke-width=".3985" stroke-linecap="butt" stroke-miterlimit="10" stroke-linejoin="miter" fill="none" stroke="#000000" d="M0 380.06343H236.63292"/>
<path transform="matrix(1.00005,0,0,-1.00005,237.74089,119.81094)" d="M1.99252 0-1.19551 1.59401 0 0-1.19551-1.59401"/>
<path transform="matrix(1.00005,0,0,-1.00005,1.0961456,499.89335)" stroke-width=".3985" stroke-linecap="butt" stroke-miterlimit="10" stroke-linejoin="miter" fill="none" stroke="#000000" d="M119.31271 311.83604V491.78324"/>
<path transform="matrix(0,-1.00005,-1.00005,-0,120.41482,8.085541)" d="M1.99252 0-1.19551 1.59401 0 0-1.19551-1.59401"/>
<use data-text="&#x2212;" xlink:href="#font_1_1" transform="matrix(9.963098,0,0,-9.963098,18.594017,131.87796)"/>
<use data-text="4" xlink:href="#font_2_4" transform="matrix(9.963098,0,0,-9.963098,26.343407,131.87796)"/>
<use data-text="&#x2212;" xlink:href="#font_1_1" transform="matrix(9.963098,0,0,-9.963098,66.3224,131.87796)"/>
<use data-text="2" xlink:href="#font_2_3" transform="matrix(9.963098,0,0,-9.963098,74.07179,131.87796)"/>
<use data-text="2" xlink:href="#font_2_3" transform="matrix(9.963098,0,0,-9.963098,165.65137,131.87796)"/>
<use data-text="4" xlink:href="#font_2_4" transform="matrix(9.963098,0,0,-9.963098,213.37876,131.87796)"/>
<use data-text="&#x2212;" xlink:href="#font_1_1" transform="matrix(9.963098,0,0,-9.963098,92.07469,190.83692)"/>
<use data-text="6" xlink:href="#font_2_5" transform="matrix(9.963098,0,0,-9.963098,99.82408,190.83692)"/>
<use data-text="0" xlink:href="#font_2_1" transform="matrix(9.963098,0,0,-9.963098,104.80563,190.83692)"/>
<use data-text="0" xlink:href="#font_2_1" transform="matrix(9.963098,0,0,-9.963098,109.78718,190.83692)"/>
<use data-text="&#x2212;" xlink:href="#font_1_1" transform="matrix(9.963098,0,0,-9.963098,92.07469,168.09378)"/>
<use data-text="4" xlink:href="#font_2_4" transform="matrix(9.963098,0,0,-9.963098,99.82408,168.09378)"/>
<use data-text="0" xlink:href="#font_2_1" transform="matrix(9.963098,0,0,-9.963098,104.80563,168.09378)"/>
<use data-text="0" xlink:href="#font_2_1" transform="matrix(9.963098,0,0,-9.963098,109.78718,168.09378)"/>
<use data-text="&#x2212;" xlink:href="#font_1_1" transform="matrix(9.963098,0,0,-9.963098,92.07469,145.34964)"/>
<use data-text="2" xlink:href="#font_2_3" transform="matrix(9.963098,0,0,-9.963098,99.82408,145.34964)"/>
<use data-text="0" xlink:href="#font_2_1" transform="matrix(9.963098,0,0,-9.963098,104.80563,145.34964)"/>
<use data-text="0" xlink:href="#font_2_1" transform="matrix(9.963098,0,0,-9.963098,109.78718,145.34964)"/>
<use data-text="2" xlink:href="#font_2_3" transform="matrix(9.963098,0,0,-9.963098,99.82407,100.277378)"/>
<use data-text="0" xlink:href="#font_2_1" transform="matrix(9.963098,0,0,-9.963098,104.805629,100.277378)"/>
<use data-text="0" xlink:href="#font_2_1" transform="matrix(9.963098,0,0,-9.963098,109.78718,100.277378)"/>
<use data-text="4" xlink:href="#font_2_4" transform="matrix(9.963098,0,0,-9.963098,99.82407,77.53424)"/>
<use data-text="0" xlink:href="#font_2_1" transform="matrix(9.963098,0,0,-9.963098,104.805629,77.53424)"/>
<use data-text="0" xlink:href="#font_2_1" transform="matrix(9.963098,0,0,-9.963098,109.78718,77.53424)"/>
<use data-text="6" xlink:href="#font_2_5" transform="matrix(9.963098,0,0,-9.963098,99.82407,54.79013)"/>
<use data-text="0" xlink:href="#font_2_1" transform="matrix(9.963098,0,0,-9.963098,104.805629,54.79013)"/>
<use data-text="0" xlink:href="#font_2_1" transform="matrix(9.963098,0,0,-9.963098,109.78718,54.79013)"/>
<use data-text="8" xlink:href="#font_2_6" transform="matrix(9.963098,0,0,-9.963098,99.82407,32.046968)"/>
<use data-text="0" xlink:href="#font_2_1" transform="matrix(9.963098,0,0,-9.963098,104.805629,32.046968)"/>
<use data-text="0" xlink:href="#font_2_1" transform="matrix(9.963098,0,0,-9.963098,109.78718,32.046968)"/>
<use data-text="1" xlink:href="#font_2_2" transform="matrix(9.963098,0,0,-9.963098,92.07469,8.334778)"/>
<use data-text="," xlink:href="#font_3_1" transform="matrix(9.963098,0,0,-9.963098,97.05595,8.334778)"/>
<use data-text="0" xlink:href="#font_2_1" transform="matrix(9.963098,0,0,-9.963098,99.82408,8.334778)"/>
<use data-text="0" xlink:href="#font_2_1" transform="matrix(9.963098,0,0,-9.963098,104.80563,8.334778)"/>
<use data-text="0" xlink:href="#font_2_1" transform="matrix(9.963098,0,0,-9.963098,109.78718,8.334778)"/>
<g clip-path="url(#clip_4)">
<path transform="matrix(1.00005,0,0,-1.00005,1.0961456,499.89335)" stroke-width="1.99255" stroke-linecap="butt" stroke-miterlimit="10" stroke-linejoin="miter" fill="none" stroke="#0000ff" d="M11.93126 1064.1196 12.77065 935.3058 13.61003 825.3115 14.44942 732.1012 15.2888 653.8075 16.1282 588.71926 16.96758 535.2713 17.80696 492.0347 18.64636 457.70964 19.48573 431.1149 20.32513 411.1807 21.16452 396.94068 22.00389 387.5247 22.84329 382.15187 23.68268 380.1239 24.52206 380.81898 25.36145 383.6858 26.20085 388.23808 27.04022 394.04914 27.87961 400.74717 28.71901 408.01036 29.55838 415.56269 30.39778 423.16969 31.23717 430.6347 32.07655 437.7949 32.91594 444.51893 33.75533 450.70155 34.59471 456.26359 35.4341 461.14698 36.2735 465.31318 37.11287 468.74037 37.95227 471.42198 38.79166 473.36366 39.63103 474.58216 40.47043 475.10359 41.30981 474.96125 42.1492 474.19538 42.98859 472.84983 43.82799 470.97325 44.66736 468.61686 45.50674 465.83308 46.34615 462.67564 47.18552 459.1984 48.02492 455.45448 48.8643 451.4959 49.70367 447.37303 50.54308 443.1342 51.38246 438.8254 52.22185 434.4902 53.06123 430.16865 53.90063 425.89808 54.74 421.71257 55.57939 417.64274 56.4188 413.7158 57.25816 409.9557 58.09756 406.383 58.93695 403.01493 59.77634 399.86543 60.61572 396.9453 61.45511 394.26258 62.2945 391.8221 63.13388 389.62629 63.97328 387.67485 64.81265 385.96528 65.65205 384.49278 66.49144 383.25068 67.33081 382.2305 68.17021 381.42225 69.0096 380.81449 69.84898 380.39466 70.68837 380.1492 71.52777 380.06379 72.36714 380.1235 73.20653 380.31303 74.04593 380.61674 74.8853 381.019 75.7247 381.50425 76.56409 382.0571 77.40346 382.66258 78.24286 383.30619 79.08224 383.97395 79.92163 384.65275 80.76102 385.3301 81.60042 385.99449 82.43979 386.6353 83.27917 387.24299 84.11858 387.8089 84.95795 388.32557 85.79735 388.7866 86.63673 389.18669 87.47612 389.52165 88.3155 389.7884 89.15489 389.98487 89.99428 390.11006 90.83366 390.16404 91.67307 390.1478 92.51244 390.0631 93.35184 389.91276 94.19122 389.7002 95.0306 389.42967 95.87 389.10585 96.70938 388.7342 97.54877 388.32044 98.38815 387.8707 99.22754 387.39146 100.06694 386.88926 100.90633 386.37074 101.74571 385.8426 102.5851 385.3114 103.4245 384.7835 104.26387 384.26506 105.10326 383.76167 105.94266 383.27876 106.78204 382.82109 107.62144 382.3928 108.46082 381.99748 109.30022 381.63804 110.1396 381.31654 110.97897 381.0343 111.81837 380.79185 112.65776 380.58885 113.49716 380.42408 114.33655 380.2955 115.17593 380.20018 116.01532 380.13435 116.8547 380.09346 117.6941 380.07218 118.53348 380.0644 119.37288 380.06343 120.21227 380.06184 121.05167 380.05177 121.89105 380.02494 122.73042 379.9726 123.56982 379.88594 124.40921 379.75587 125.2486 379.5734 126.08798 379.32966 126.92737 379.016 127.76677 378.62425 128.60616 378.14674 129.44554 377.5765 130.28493 376.9075 131.12433 376.13465 131.96372 375.25398 132.80309 374.2629 133.64249 373.1603 134.48188 371.94664 135.32128 370.6239 136.16065 369.19618 137.00005 367.6694 137.83943 366.05149 138.67882 364.35246 139.5182 362.58454 140.35759 360.7621 141.19699 358.90168 142.03638 357.02198 142.87577 355.1437 143.71515 353.2896 144.55454 351.4846 145.39392 349.75437 146.2333 348.1268 147.07271 346.63066 147.91208 345.29545 148.75148 344.15107 149.59087 343.22724 150.43024 342.553 151.26964 342.15614 152.10903 342.06245 152.94841 342.29478 153.7878 342.87248 154.62718 343.80979 155.46657 345.11528 156.30596 346.7907 157.14536 348.82917 157.98473 351.2139 158.82413 353.91673 159.66352 356.8962 160.50289 360.09574 161.34229 363.44157 162.18167 366.84043 163.02106 370.17729 163.86045 373.3126 164.69985 376.07978 165.53922 378.2819 166.3786 379.68864 167.218 380.033 168.05738 379.00743 168.89678 376.26 169.73616 371.39039 170.57555 363.9452 171.41493 353.41355 172.25432 339.22209 173.0937 320.72938 173.93309 297.22074 174.77249 267.9022 175.61186 231.89389 176.45125 188.22405 177.29065 135.8226 178.13002 73.5125 178.96942 0"/>
</g>
<use data-text="x" xlink:href="#font_3_2" transform="matrix(9.963098,0,0,-9.963098,230.55661,116.23416)"/>
<use data-text="y" xlink:href="#font_3_3" transform="matrix(9.963098,0,0,-9.963098,123.96228,13.814056)"/>
</svg>
