<svg xmlns="http://www.w3.org/2000/svg" xmlns:xlink="http://www.w3.org/1999/xlink" xmlns:inkscape="http://www.inkscape.org/namespaces/inkscape" version="1.1" width="99" height="106" viewBox="0 0 99 106">
<defs>
<path id="font_1_1" d="M.6589966 .23046875C.6759949 .23046875 .69400027 .23046875 .69400027 .25045777 .69400027 .27046205 .6759949 .27046205 .6589966 .27046205H.117996219C.100997928 .27046205 .08299255 .27046205 .08299255 .25045777 .08299255 .23046875 .100997928 .23046875 .117996219 .23046875H.6589966Z"/>
<path id="font_2_3" d="M.1269989 .07699585 .23298645 .18003845C.3889923 .31811524 .44898988 .3721466 .44898988 .47216798 .44898988 .5860901 .35899354 .6660156 .23699951 .6660156 .12399292 .6660156 .049987794 .57411196 .049987794 .48516847 .049987794 .4291687 .099990848 .4291687 .102996829 .4291687 .11999512 .4291687 .15499878 .44117738 .15499878 .48217774 .15499878 .5081787 .13699341 .5341797 .101989749 .5341797 .09399414 .5341797 .09199524 .5341797 .08898926 .5331726 .11199951 .59806826 .1659851 .63500979 .22399903 .63500979 .31498719 .63500979 .35798646 .5541382 .35798646 .47216798 .35798646 .39215089 .30799867 .31311036 .25299073 .25108338L.06098938 .036987306C.049987794 .025985718 .049987794 .023986817 .049987794 0H.42099L.44898988 .17404175H.42399598C.4189911 .14402771 .4119873 .1000061 .4019928 .084991458 .394989 .07699585 .32899476 .07699585 .30699159 .07699585H.1269989Z"/>
<path id="font_2_4" d="M.44898988 .20022583C.44898988 .3193512 .36698915 .41944886 .25898744 .41944886 .21099854 .41944886 .16799927 .40345765 .13198853 .36842347V.5637665C.1519928 .5577698 .18499756 .55078127 .21699524 .55078127 .33999635 .55078127 .4099884 .6417694 .4099884 .6547699 .4099884 .6607666 .40699769 .6657715 .3999939 .6657715 .39898683 .6657715 .39698792 .6657715 .3919983 .66278079 .37199403 .6537781 .32299806 .6337738 .2559967 .6337738 .21598816 .6337738 .16999817 .6407776 .12298584 .6617737 .114990238 .66477969 .11299133 .66477969 .11099243 .66477969 .100997928 .66477969 .100997928 .6567688 .100997928 .6407776V.34439088C.100997928 .32637025 .100997928 .31835938 .114990238 .31835938 .12199402 .31835938 .12399292 .32136537 .12799073 .32736207 .13899231 .3433838 .17599488 .39746095 .25698854 .39746095 .30899049 .39746095 .33399964 .35139466 .34199525 .33337403 .35798646 .29632569 .3600006 .25727845 .3600006 .20722962 .3600006 .17222595 .3600006 .11222839 .33599855 .07035828 .31199647 .031463624 .2749939 .0055389406 .22898865 .0055389406 .1559906 .0055389406 .09899902 .058380128 .08198547 .11723328 .084991458 .1162262 .08799744 .115234378 .09899902 .115234378 .13198853 .115234378 .14898682 .14022827 .14898682 .16423035 .14898682 .18823242 .13198853 .21322632 .09899902 .21322632 .084991458 .21322632 .049987794 .20622254 .049987794 .16023255 .049987794 .07434082 .11898804-.022460938 .23098755-.022460938 .34700013-.022460938 .44898988 .073349 .44898988 .20022583Z"/>
<path id="font_2_2" d="M.2939911 .64004519C.2939911 .66400149 .2939911 .6660156 .2709961 .6660156 .20899964 .60227969 .12098694 .60227969 .08898926 .60227969V.57128909C.10899353 .57128909 .16799927 .57128909 .21998596 .5972748V.07902527C.21998596 .042999269 .21699524 .0309906 .1269989 .0309906H.09498596V0C.12998963 .0029907227 .21699524 .0029907227 .25698854 .0029907227 .29699708 .0029907227 .38398744 .0029907227 .4189911 0V.0309906H.3869934C.29699708 .0309906 .2939911 .041992189 .2939911 .07902527V.64004519Z"/>
<path id="font_2_1" d="M.45999146 .31976319C.45999146 .39982606 .45498658 .47988893 .41999818 .5539398 .37399293 .65000918 .2919922 .6660156 .25 .6660156 .18998719 .6660156 .116989139 .64001467 .07598877 .54693606 .04399109 .47789 .038986207 .39982606 .038986207 .31976319 .038986207 .24472046 .042999269 .15464783 .083999637 .07859802 .1269989-.0024719239 .19999695-.022460938 .24899292-.022460938 .30299378-.022460938 .3789978-.0014648438 .4229889 .09359741 .45498658 .16265869 .45999146 .2407074 .45999146 .31976319M.24899292-.00047302247C.20999146-.00047302247 .15098572 .024551392 .1329956 .12062073 .12199402 .18066406 .12199402 .2727356 .12199402 .3317871 .12199402 .39582826 .12199402 .46188355 .12998963 .5159149 .14898682 .63500979 .22399903 .64401248 .24899292 .64401248 .28199769 .64401248 .34799195 .6259918 .36698915 .52693179 .3769989 .47088624 .3769989 .39482118 .3769989 .3317871 .3769989 .25672914 .3769989 .18867493 .3659973 .12461853 .35099793 .029556275 .2939911-.00047302247 .24899292-.00047302247Z"/>
<clipPath id="clip_3">
<path transform="matrix(1.00002,0,0,-1.00002,1.095665,102.030788)" d="M0 0H96.89436V96.9H0Z"/>
</clipPath>
<path id="font_4_2" d="M.33399964 .30233766C.33999635 .32835389 .36299134 .42037965 .43299867 .42037965 .43798829 .42037965 .46199037 .42037965 .48298646 .40734864 .45498658 .402359 .43499757 .37734986 .43499757 .35334779 .43499757 .33735658 .44599916 .31835938 .47299195 .31835938 .49499513 .31835938 .5269928 .3363495 .5269928 .37635804 .5269928 .42837525 .46798707 .4423828 .43399049 .4423828 .37599183 .4423828 .34098817 .38935853 .32899476 .36634828 .3039856 .43237306 .25 .4423828 .22099304 .4423828 .116989139 .4423828 .05999756 .3133545 .05999756 .28834535 .05999756 .27833558 .069992069 .27833558 .07199097 .27833558 .07998657 .27833558 .08299255 .28033448 .084991458 .28933717 .11898804 .39535523 .18499756 .42037965 .21899414 .42037965 .23799134 .42037965 .272995 .4113617 .272995 .35334779 .272995 .32235719 .2559967 .25532533 .21899414 .11528015 .20298767 .053268434 .16799927 .011245728 .12399292 .011245728 .117996219 .011245728 .09498596 .011245728 .07398987 .024276734 .09899902 .029266358 .12098694 .05027771 .12098694 .07827759 .12098694 .105270389 .09899902 .11328125 .083999637 .11328125 .053985597 .11328125 .0289917 .08728027 .0289917 .055267335 .0289917 .009246826 .07899475-.0107421879 .12298584-.0107421879 .18899536-.0107421879 .22499085 .059280397 .22799683 .0652771 .23999024 .028274537 .27598573-.0107421879 .33599855-.0107421879 .43899537-.0107421879 .49598695 .118270877 .49598695 .14328003 .49598695 .1532898 .4869995 .1532898 .48399354 .1532898 .47499085 .1532898 .47299195 .14929199 .47099305 .14228821 .43798829 .03527832 .36999513 .011245728 .33799745 .011245728 .29899598 .011245728 .2829895 .043273927 .2829895 .07727051 .2829895 .09927368 .2889862 .121276859 .2999878 .16529846L.33399964 .30233766Z"/>
<path id="font_4_3" d="M.48599244 .38136292C.48999024 .39537049 .48999024 .39736939 .48999024 .40437318 .48999024 .42237855 .47599793 .43138124 .46099855 .43138124 .45098878 .43138124 .43499757 .42536927 .42599488 .41036988 .42399598 .405365 .41600038 .37435914 .4119873 .35635377 .40499879 .33035279 .397995 .30334474 .3919983 .27633668L.34700013 .09628296C.34298707 .08126831 .2999878 .011245728 .23399353 .011245728 .18299866 .011245728 .17199707 .055267335 .17199707 .0922699 .17199707 .1382904 .18899536 .20030213 .22299195 .28833009 .23899842 .3293457 .24299622 .3403473 .24299622 .36035157 .24299622 .405365 .21099854 .4423828 .16099549 .4423828 .06599426 .4423828 .0289917 .29733277 .0289917 .28833009 .0289917 .27833558 .038986207 .27833558 .040985109 .27833558 .050994874 .27833558 .051986696 .28033448 .056991579 .29634095 .083999637 .3903656 .12399292 .42037965 .1579895 .42037965 .1659851 .42037965 .18299866 .42037965 .18299866 .3883667 .18299866 .36335755 .17298889 .3373413 .1659851 .31834413 .12599182 .21231079 .10798645 .1552887 .10798645 .10827637 .10798645 .019256592 .17098999-.0107421879 .22999573-.0107421879 .2689972-.0107421879 .30299378 .0062561037 .33099366 .03425598 .31799317-.017745972 .30599977-.06674194 .2659912-.11973572 .23999024-.15385437 .20199585-.18309021 .1559906-.18309021 .14199829-.18309021 .09700012-.18005371 .07998657-.14074707 .09599304-.14074707 .10899353-.14074707 .12298584-.1287384 .1329956-.11973572 .14299011-.10673523 .14299011-.08773804 .14299011-.056747438 .115997318-.052734376 .10598755-.052734376 .08299255-.052734376 .049987794-.068740848 .049987794-.11773682 .049987794-.16796875 .09399414-.20507813 .1559906-.20507813 .25898744-.20507813 .3619995-.11373901 .3899994-.00074768069L.48599244 .38136292Z"/>
<path id="font_2_5" d="M.68699648 .32714845C.70199587 .32714845 .72099307 .32714845 .72099307 .34713746 .72099307 .36714173 .70199587 .36714173 .6879883 .36714173H.08898926C.07499695 .36714173 .055999757 .36714173 .055999757 .34713746 .055999757 .32714845 .07499695 .32714845 .08999634 .32714845H.68699648M.6879883 .13284302C.70199587 .13284302 .72099307 .13284302 .72099307 .15284729 .72099307 .17285156 .70199587 .17285156 .68699648 .17285156H.08999634C.07499695 .17285156 .055999757 .17285156 .055999757 .15284729 .055999757 .13284302 .07499695 .13284302 .08898926 .13284302H.6879883Z"/>
<path id="font_4_1" d="M.23899842 .68333438C.23899842 .6843262 .23899842 .69433596 .22599793 .69433596 .20298767 .69433596 .12998963 .6863251 .10398865 .6843262 .09599304 .68333438 .084991458 .6823273 .084991458 .6643219 .084991458 .6523285 .09399414 .6523285 .10899353 .6523285 .15699768 .6523285 .15899658 .6453247 .15899658 .6353302 .15899658 .6283264 .1499939 .5943451 .14498902 .573349L.06298828 .24731446C.050994874 .1973114 .04699707 .18130493 .04699707 .14628601 .04699707 .05126953 .099990848-.0107421879 .17399597-.0107421879 .2919922-.0107421879 .4149933 .1382904 .4149933 .28233338 .4149933 .37335206 .3619995 .4423828 .28199769 .4423828 .23599243 .4423828 .19499207 .41337586 .16499329 .38235475L.23899842 .68333438M.14498902 .30534364C.15098572 .3273468 .15098572 .3293457 .1599884 .3403473 .20899964 .405365 .2539978 .42037965 .27999879 .42037965 .31599427 .42037965 .34298707 .3903656 .34298707 .32633973 .34298707 .26733399 .30999757 .15229798 .2919922 .11428833 .25898744 .04725647 .21299744 .011245728 .17399597 .011245728 .13999939 .011245728 .10699463 .038253786 .10699463 .11227417 .10699463 .13128662 .10699463 .15029907 .12298584 .21331787L.14498902 .30534364Z"/>
<path id="font_5_1" d="M.24899292 .10601807C.23899842 .072021488 .20599365 .018234253 .15499878 .018234253 .1519928 .018234253 .12199402 .018234253 .100997928 .03215027 .14199829 .04508972 .14498902 .08100891 .14498902 .087020877 .14498902 .10900879 .12799073 .12402344 .10499573 .12402344 .07699585 .12402344 .04798889 .10002136 .04798889 .0630188 .04798889 .01322937 .10398865-.009765625 .15299988-.009765625 .19898987-.009765625 .23999024 .019226075 .2649994 .061019899 .2889862 .008224487 .34399415-.009765625 .38398744-.009765625 .49899293-.009765625 .55999758 .11502075 .55999758 .14305115 .55999758 .15608216 .5469971 .15608216 .5439911 .15608216 .5299988 .15608216 .5289917 .15107727 .5249939 .13905335 .5039978 .07002258 .44400025 .018234253 .3880005 .018234253 .34799195 .018234253 .32699586 .04508972 .32699586 .08302307 .32699586 .10900879 .35099793 .20018006 .3789978 .31140138 .39898683 .38841249 .44400025 .4133911 .47698976 .4133911 .47898866 .4133911 .5099945 .4133911 .5309906 .39941407 .49899293 .39041139 .4869995 .3624115 .4869995 .34440614 .4869995 .32240296 .5039978 .30740357 .5269928 .30740357 .5499878 .30740357 .58299258 .32640077 .58299258 .3684082 .58299258 .4243927 .5189972 .44140626 .47898866 .44140626 .42900086 .44140626 .3889923 .4084015 .36698915 .3704071 .34899903 .4113922 .30299378 .44140626 .24699402 .44140626 .1349945 .44140626 .070999149 .31840516 .070999149 .2883606 .070999149 .27534486 .084991458 .27534486 .08799744 .27534486 .100997928 .27534486 .101989749 .27934266 .10699463 .29237367 .13198853 .3704071 .19499207 .4133911 .24398804 .4133911 .2769928 .4133911 .3039856 .395401 .3039856 .3474121 .3039856 .32740785 .2919922 .27734376 .2829895 .24327088L.24899292 .10601807Z"/>
</defs>
<path transform="matrix(1.00002,0,0,-1.00002,1.095665,102.030788)" stroke-width=".3985" stroke-linecap="butt" stroke-miterlimit="10" stroke-linejoin="miter" fill="none" stroke="#bfbfbf" d="M16.14905 0V96.9M80.7453 0V96.9"/>
<path transform="matrix(1.00002,0,0,-1.00002,1.095665,102.030788)" stroke-width=".3985" stroke-linecap="butt" stroke-miterlimit="10" stroke-linejoin="miter" fill="none" stroke="#bfbfbf" d="M0 52.85454H96.89436M0 96.9H96.89436"/>
<path transform="matrix(1.00002,0,0,-1.00002,1.095665,102.030788)" stroke-width=".19925" stroke-linecap="butt" stroke-miterlimit="10" stroke-linejoin="miter" fill="none" stroke="#7f807f" d="M16.14905 6.68324V10.9349M80.7453 6.68324V10.9349"/>
<path transform="matrix(1.00002,0,0,-1.00002,1.095665,102.030788)" stroke-width=".19925" stroke-linecap="butt" stroke-miterlimit="10" stroke-linejoin="miter" fill="none" stroke="#7f807f" d="M46.32133 52.85454H50.57301M46.32133 96.9H50.57301"/>
<path transform="matrix(1.00002,0,0,-1.00002,1.095665,102.030788)" stroke-width=".3985" stroke-linecap="butt" stroke-miterlimit="10" stroke-linejoin="miter" fill="none" stroke="#000000" d="M0 8.80908H94.90184"/>
<path transform="matrix(1.00002,0,0,-1.00002,95.999408,93.22153)" d="M1.99252 0-1.19551 1.59401 0 0-1.19551-1.59401"/>
<path transform="matrix(1.00002,0,0,-1.00002,1.095665,102.030788)" stroke-width=".3985" stroke-linecap="butt" stroke-miterlimit="10" stroke-linejoin="miter" fill="none" stroke="#000000" d="M48.44717 0V94.90747"/>
<path transform="matrix(0,-1.00002,-1.00002,-0,49.543806,7.121414)" d="M1.99252 0-1.19551 1.59401 0 0-1.19551-1.59401"/>
<use data-text="&#x2212;" xlink:href="#font_1_1" transform="matrix(9.962799,0,0,-9.962799,10.87986,105.28785)"/>
<use data-text="2" xlink:href="#font_2_3" transform="matrix(9.962799,0,0,-9.962799,18.629014,105.28785)"/>
<use data-text="2" xlink:href="#font_2_3" transform="matrix(9.962799,0,0,-9.962799,79.35223,105.28785)"/>
<use data-text="5" xlink:href="#font_2_4" transform="matrix(9.962799,0,0,-9.962799,38.916425,52.385789)"/>
<use data-text="1" xlink:href="#font_2_2" transform="matrix(9.962799,0,0,-9.962799,33.93532,8.338905)"/>
<use data-text="0" xlink:href="#font_2_1" transform="matrix(9.962799,0,0,-9.962799,38.91672,8.338905)"/>
<g clip-path="url(#clip_3)">
<path transform="matrix(1.00002,0,0,-1.00002,1.095665,102.030788)" stroke-width="1.99255" stroke-linecap="butt" stroke-miterlimit="10" stroke-linejoin="miter" fill="none" stroke="#0000ff" d="M0 9.9102 .4869 9.93329 .9738 9.95717 1.46071 9.98175 1.94762 10.0065 2.43451 10.03195 2.92142 10.0575 3.40834 10.08401 3.89525 10.11035 4.38214 10.13853 4.86905 10.16684 5.35596 10.19502 5.84286 10.22408 6.32976 10.25403 6.81668 10.28487 7.30359 10.31578 7.7905 10.34749 8.27739 10.37999 8.7643 10.41348 9.2512 10.44704 9.73811 10.48227 10.22502 10.51752 10.71193 10.55362 11.19884 10.58983 11.68575 10.62764 12.17264 10.66647 12.65955 10.70515 13.14647 10.74576 13.63338 10.7862 14.12027 10.82855 14.60718 10.87083 15.09409 10.91402 15.581 10.95895 16.06789 11.00388 16.55481 11.05064 17.04172 11.0982 17.52863 11.14658 18.01552 11.19589 18.50243 11.2462 18.98933 11.2973 19.47624 11.35023 19.96315 11.40388 20.45006 11.45859 20.93697 11.51486 21.42387 11.57135 21.91077 11.63036 22.39767 11.68939 22.8846 11.75026 23.3715 11.8127 23.8584 11.87622 24.3453 11.94052 24.83221 12.0066 25.31912 12.07443 25.80602 12.14314 26.29294 12.2137 26.77985 12.28584 27.26675 12.35896 27.75365 12.43402 28.24055 12.51065 28.72746 12.58905 29.21437 12.66833 29.70128 12.75026 30.18819 12.83307 30.6751 12.91852 31.162 13.00484 31.6489 13.09383 32.1358 13.18376 32.62271 13.27626 33.10963 13.3706 33.59653 13.46748 34.08344 13.56528 34.57034 13.6658 35.05725 13.76884 35.54416 13.87378 36.03107 13.98038 36.51797 14.0896 37.00488 14.20146 37.49178 14.3152 37.97868 14.43138 38.4656 14.5504 38.95251 14.67108 39.4394 14.79547 39.92632 14.92134 40.41322 15.05006 40.90015 15.1821 41.38704 15.31696 41.87395 15.45448 42.36086 15.59454 42.84776 15.73822 43.33466 15.88445 43.82158 16.03342 44.30849 16.18579 44.7954 16.34172 45.28229 16.50116 45.7692 16.66325 46.25612 16.82906 46.74303 16.99826 47.22992 17.17181 47.71683 17.34799 48.20374 17.52867 48.69066 17.71066 49.17755 17.89856 49.66446 18.0905 50.15137 18.28651 50.63828 18.48665 51.12517 18.69084 51.61209 18.89944 52.099 19.11264 52.5859 19.33012 53.0728 19.55237 53.55971 19.7792 54.04662 20.01073 54.53354 20.24724 55.02043 20.48888 55.50734 20.73543 55.99425 20.98703 56.48116 21.24442 56.96806 21.50685 57.45497 21.77501 57.94188 22.04861 58.42879 22.32848 58.91568 22.6138 59.40259 22.9053 59.88951 23.20287 60.37642 23.50676 60.86331 23.81747 61.35022 24.13426 61.83713 24.4578 62.32405 24.78815 62.81094 25.12572 63.29785 25.46997 63.78476 25.82198 64.27167 26.18112 64.75858 26.54794 65.24548 26.92242 65.73239 27.30516 66.2193 27.6956 66.70619 28.09412 67.1931 28.50154 67.68001 28.9174 68.16693 29.34192 68.65382 29.77596 69.14073 30.21843 69.62764 30.6705 70.11455 31.1322 70.60144 31.60365 71.08836 32.08446 71.57527 32.57582 72.06218 33.0783 72.54907 33.5902 73.03598 34.1138 73.52289 34.64825 74.0098 35.19388 74.4967 35.75046 74.98361 36.32004 75.47052 36.90065 75.95743 37.49358 76.44432 38.09956 76.93123 38.71796 77.41814 39.34956 77.90506 39.99413 78.39195 40.65314 78.87886 41.32553 79.36577 42.01167 79.85268 42.71298 80.33957 43.42941 80.82649 44.16048 81.3134 44.90634 81.80031 45.66878 82.2872 46.4468 82.77411 47.24225 83.26102 48.05278 83.74792 48.8819 84.23483 49.72844 84.72174 50.59236 85.20865 51.47485 85.69556 52.37602 86.18245 53.29587 86.66936 54.23457 87.15627 55.19458 87.64319 56.17326 88.13008 57.17363 88.61699 58.1946 89.1039 59.23726 89.5908 60.30307 90.0777 61.38991 90.5646 62.50092 91.05153 63.63377 91.53844 64.79109 92.02533 65.97356 92.51224 67.18057 92.99915 68.41385 93.48605 69.67162 93.97296 70.95782 94.45987 72.26976 94.94678 73.60999 95.43369 74.97742 95.92058 76.37393 96.40749 77.80267 96.8944 79.2818"/>
</g>
<use data-text="x" xlink:href="#font_4_2" transform="matrix(9.962799,0,0,-9.962799,88.79242,89.70054)"/>
<use data-text="y" xlink:href="#font_4_3" transform="matrix(9.962799,0,0,-9.962799,53.074708,15.552055)"/>
<use data-text="=" xlink:href="#font_2_5" transform="matrix(9.962799,0,0,-9.962799,61.08387,15.552055)"/>
<use data-text="b" xlink:href="#font_4_1" transform="matrix(9.962799,0,0,-9.962799,71.600078,15.552055)"/>
<use data-text="x" xlink:href="#font_5_1" transform="matrix(6.97394,0,0,-6.97394,75.87617,11.936989)"/>
</svg>
